<svg width="356" height="42" viewBox="0 0 356 42" fill="none" xmlns="http://www.w3.org/2000/svg">
<path d="M60.8003 38.4284C60.8003 37.1633 59.7746 36.1377 58.5095 36.1377C57.2444 36.1377 56.2188 37.1633 56.2188 38.4284C56.2188 39.6936 57.2444 40.7192 58.5095 40.7192C59.7746 40.7192 60.8003 39.6936 60.8003 38.4284Z" stroke="#C5883F" stroke-opacity="0.5" stroke-width="1.525" stroke-miterlimit="10"/>
<path d="M0 38.3896H56.2189" stroke="#C5883F" stroke-opacity="0.5" stroke-width="1.525" stroke-miterlimit="10"/>
<path d="M247.034 36.1361V9.7327L258.014 8.25877L262.176 11.1157V36.1361M250.665 36.1361V5.16526L254.485 4.7832V36.1361M258.288 36.1361V8.25877M245.407 28.5844H238.932M245.407 25.1999H238.932M245.407 32.0418H238.932M245.407 21.6697H238.932V36.1361" stroke="#C5883F" stroke-opacity="0.5" stroke-width="1.525" stroke-miterlimit="10"/>
<path d="M145.9 36.0207V16.2613L154.453 7.4873" stroke="#C5883F" stroke-opacity="0.5" stroke-width="1.25" stroke-miterlimit="10"/>
<path d="M152.8 15.0626L157.199 10.4688" stroke="#C5883F" stroke-opacity="0.5" stroke-width="3" stroke-miterlimit="10"/>
<path d="M145.901 36.0207V16.2613L137.335 7.4873" stroke="#C5883F" stroke-opacity="0.5" stroke-width="1.25" stroke-miterlimit="10"/>
<path d="M139.001 15.0626L134.602 10.4688" stroke="#C5883F" stroke-opacity="0.5" stroke-width="3" stroke-miterlimit="10"/>
<path d="M22.0605 21.2432H44.973L103.448 36.2133L283.313 36.2132L316.759 29.7176H356.13" stroke="#C5883F" stroke-opacity="0.5" stroke-width="1.525" stroke-miterlimit="10"/>
<path d="M61.0833 13.4328C61.0833 12.2386 60.1152 11.2705 58.9211 11.2705C57.7269 11.2705 56.7588 12.2386 56.7588 13.4328C56.7588 14.627 57.7269 15.595 58.9211 15.595C60.1152 15.595 61.0833 14.627 61.0833 13.4328Z" stroke="#C5883F" stroke-opacity="0.5" stroke-width="1.525" stroke-miterlimit="10"/>
<path d="M328.162 29.9091V16.8993H315.949V29.9091H328.162ZM328.162 29.9091H340.374V4.69629H328.162V29.9091ZM319.488 19.95V22.1183M323.831 19.95V22.1183M332.102 15.9664V18.1347M336.434 15.9664V18.1347M332.102 20.3787V22.547M336.434 20.3787V22.547M332.102 24.7909V26.9592M336.434 24.7909V26.9592M336.434 7.73442V13.5712M332.102 13.5712V7.73442M336.434 10.6717H332.102M319.488 24.7153H323.831V29.8965H319.488V24.7153Z" stroke="#C5883F" stroke-opacity="0.5" stroke-width="1.525" stroke-miterlimit="10"/>
<path d="M46.4782 21.5415V1H42.4013V21.5415M58.9225 7.07807V4.16187H37.2998V7.07807H58.9225ZM58.9225 7.07807V11.5111M42.4013 10.6138H46.4782M42.4013 14.1389H46.4782M42.4013 17.664H46.4782" stroke="#C5883F" stroke-opacity="0.5" stroke-width="1.525" stroke-miterlimit="10"/>
<path d="M112.859 31.843V36.1368M117.408 31.843V36.1368M120.006 36.1368C120.006 33.4523 117.823 31.2809 115.141 31.2809C112.458 31.2809 110.275 33.4593 110.275 36.1368M111.015 26.1087H119.252M115.133 24.8016V22.082M118.154 26.1087C118.154 24.4432 116.802 23.094 115.133 23.094C113.465 23.094 112.113 24.4432 112.113 26.1087C112.113 27.7742 113.465 29.77 115.133 29.77C116.802 29.77 118.154 27.7742 118.154 26.1087Z" stroke="#C5883F" stroke-opacity="0.5" stroke-width="1.525" stroke-miterlimit="10"/>
<path d="M169.229 26.4705L169.753 27.0249L169.229 25.708V26.4705ZM160.819 26.4705V25.708L160.298 25.9136L160.819 26.4705ZM155.104 31.8167L154.583 31.2598L155.101 32.5792L155.104 31.8167ZM163.533 31.8477L163.53 32.6102L164.057 32.4022L163.533 31.8477ZM158.627 31.8477C158.627 33.7961 157.049 35.3746 155.104 35.3746V36.8996C157.892 36.8996 160.152 34.6373 160.152 31.8477H158.627ZM155.104 35.3746C153.158 35.3746 151.58 33.7961 151.58 31.8477H150.055C150.055 34.6373 152.315 36.8996 155.104 36.8996V35.3746ZM151.58 31.8477C151.58 29.8994 153.158 28.3208 155.104 28.3208V26.7958C152.315 26.7958 150.055 29.0582 150.055 31.8477H151.58ZM155.104 28.3208C157.049 28.3208 158.627 29.8994 158.627 31.8477H160.152C160.152 29.0582 157.892 26.7958 155.104 26.7958V28.3208ZM175.462 31.8477C175.462 33.7961 173.883 35.3746 171.938 35.3746V36.8996C174.727 36.8996 176.987 34.6373 176.987 31.8477H175.462ZM171.938 35.3746C169.992 35.3746 168.414 33.7961 168.414 31.8477H166.889C166.889 34.6373 169.149 36.8996 171.938 36.8996V35.3746ZM168.414 31.8477C168.414 29.8994 169.992 28.3208 171.938 28.3208V26.7958C169.149 26.7958 166.889 29.0582 166.889 31.8477H168.414ZM171.938 28.3208C173.883 28.3208 175.462 29.8994 175.462 31.8477H176.987C176.987 29.0582 174.727 26.7958 171.938 26.7958V28.3208ZM169.229 25.708H160.819V27.233H169.229V25.708ZM160.298 25.9136L154.583 31.2598L155.624 32.3735L161.339 27.0273L160.298 25.9136ZM155.101 32.5792L163.53 32.6102L163.536 31.0852L155.106 31.0542L155.101 32.5792ZM164.057 32.4022L169.753 27.0249L168.706 25.916L163.01 31.2933L164.057 32.4022ZM164.214 31.5045L160.108 23.3608L158.746 24.0474L162.852 32.191L164.214 31.5045ZM172.619 31.5049L168.519 23.3612L167.157 24.047L171.257 32.1906L172.619 31.5049ZM157.551 24.4666H161.309V22.9416H157.551V24.4666ZM165.956 24.4666H169.714V22.9416H165.956V24.4666Z" fill="#C5883F" fill-opacity="0.5"/>
<path d="M228.119 8.56342L223.8 6.40625L219.47 8.56342L223.8 10.7308L228.119 8.56342Z" stroke="#C5883F" stroke-opacity="0.5" stroke-width="1.525" stroke-miterlimit="10"/>
<path d="M272.447 34.5155V18.3769M272.493 24.2326L269.222 20.8554M272.447 26.4178L274.609 24.1948M266.501 15.5957H278.393V27.8747H266.501V15.5957Z" stroke="#C5883F" stroke-opacity="0.5" stroke-width="1.525" stroke-miterlimit="10"/>
<path d="M213.264 35.5965C213.264 33.4288 211.507 31.672 209.34 31.672C207.172 31.672 205.415 33.4288 205.415 35.5965M211.767 27.2123C211.767 28.5528 210.68 29.6394 209.34 29.6394C207.999 29.6394 206.912 28.5528 206.912 27.2123C206.912 25.8718 207.999 24.7852 209.34 24.7852C210.68 24.7852 211.767 25.8718 211.767 27.2123Z" stroke="#C5883F" stroke-opacity="0.5" stroke-width="1.525" stroke-miterlimit="10"/>
</svg>
