<svg width="578" height="84" viewBox="0 0 578 84" fill="none" xmlns="http://www.w3.org/2000/svg">
<path d="M516.94 16.0362L506.363 24.5621H488M516.94 16.0362H498.083L488 24.5621M516.94 16.0362L527.451 26.2211M488 24.5621V43M516.039 1L527.43 9.5259M516.039 1H536.354L547.209 9.5259M516.039 1L504.733 11.1849V16.0358M527.43 9.5259H547.209M527.43 9.5259L527.43 26.2208M547.209 9.5259L547.21 42.9997M514.473 26.1997L524.298 34.7466H541.353M514.473 26.1997H531.999L541.353 34.7466M514.473 26.1997L504.733 36.4056V42.9995M541.353 34.7466L541.353 42.9992M524.277 34.7463V42.9992" stroke="#91A4A7" stroke-width="2" stroke-linejoin="bevel"/>
<path d="M190.679 2L191.641 1.72778L189.717 1.72706L190.679 2ZM198.214 28.6365L197.252 28.9087L197.328 29.0992L198.214 28.6365ZM208.096 47.5714V48.5714L208.983 47.1087L208.096 47.5714ZM173.239 47.5714L172.353 47.1087L173.239 48.5714V47.5714ZM183.121 28.6365L184.008 29.0992L184.084 28.9094L183.121 28.6365ZM180.021 15.7398V14.7398H179.709L179.453 14.917L180.021 15.7398ZM201.013 15.7398L201.59 14.9231L201.331 14.7398H201.013V15.7398ZM184.693 2V1H184.262L183.966 1.3132L184.693 2ZM196.363 2L197.091 1.31488L196.795 1H196.363V2ZM177.696 28.6365V27.6365H177.384L177.128 27.8137L177.696 28.6365ZM203.36 28.6365L203.935 27.8186L203.676 27.6365H203.36V28.6365ZM187.514 37.8419L186.842 37.1011L187.514 38.8419V37.8419ZM193.822 37.8419L194.515 38.563L193.822 36.8419V37.8419ZM189.716 2.27222L197.252 28.9087L199.176 28.3643L191.641 1.72778L189.716 2.27222ZM197.328 29.0992L207.21 48.0341L208.983 47.1087L199.101 28.1738L197.328 29.0992ZM174.126 48.0341L184.008 29.0992L182.235 28.1738L172.353 47.1087L174.126 48.0341ZM184.084 28.9094L191.641 2.27294L189.717 1.72706L182.159 28.3636L184.084 28.9094ZM173.894 21.188L180.59 16.5626L179.453 14.917L172.757 19.5425L173.894 21.188ZM180.021 16.7398H201.013V14.7398H180.021V16.7398ZM200.436 16.5565L207.433 21.501L208.587 19.8676L201.59 14.9231L200.436 16.5565ZM181.049 7.31229L185.42 2.6868L183.966 1.3132L179.596 5.9387L181.049 7.31229ZM184.693 3H196.363V1H184.693V3ZM195.634 2.68512L200.285 7.62965L201.741 6.25941L197.091 1.31488L195.634 2.68512ZM171.568 34.0848L178.264 29.4593L177.128 27.8137L170.432 32.4392L171.568 34.0848ZM177.696 29.6365H203.36V27.6365H177.696V29.6365ZM202.785 29.4544L209.782 34.3762L210.932 32.7403L203.935 27.8186L202.785 29.4544ZM193.15 31.3819L186.842 37.1011L188.185 38.5828L194.494 32.8636L193.15 31.3819ZM187.514 38.8419H193.822V36.8419H187.514V38.8419ZM193.129 37.1208L186.821 43.1818L188.206 44.6241L194.515 38.563L193.129 37.1208ZM208.096 46.5714H173.239V48.5714H208.096V46.5714Z" fill="#91A4A7"/>
<path d="M448.5 14.936V44M448.5 14.936C448.5 7.79598 442.975 2 436.123 2M448.5 14.936C443.678 9.89598 435.842 9.87497 431 14.936M448.5 14.936C441.669 14.936 436.123 20.711 436.123 27.872M448.5 14.936C448.5 7.79598 454.025 2 460.877 2M448.5 14.936C453.322 9.89598 461.158 9.87497 466 14.936M448.5 14.936C455.331 14.936 460.877 20.711 460.877 27.872" stroke="#91A4A7" stroke-width="2" stroke-miterlimit="10"/>
<path d="M348.172 34.74L354.828 38.378L337.414 48L320 38.378L326.843 34.638M348.235 27.26L355 30.966L337.586 40.571L320.172 30.966L326.937 27.26M337.586 33.125L343.991 36.644M337.586 33.125L330.915 36.848M337.586 33.125L320.172 23.52L337.586 14L355 23.52L337.586 33.125ZM343.051 30.116L349.895 33.856M325.481 33.873L332.215 30.167" stroke="#91A4A7" stroke-width="2" stroke-miterlimit="10"/>
<path d="M24 72V45.09M24 51.525L28.4129 47.001M36 45.09C36 51.7671 30.6274 57.18 24 57.18C17.3726 57.18 12 51.7671 12 45.09C12 38.4129 17.3726 33 24 33C30.6274 33 36 38.4129 36 45.09Z" stroke="#91A4A7" stroke-width="2" stroke-miterlimit="10"/>
<path d="M129.513 48.0488H289.154L308.164 64.7635H365.299L406.492 48.0488H416.655" stroke="#91A4A7" stroke-width="2" stroke-miterlimit="10"/>
<path d="M-17 71.7803H207.798" stroke="#91A4A7" stroke-width="2" stroke-miterlimit="10"/>
<path d="M80.8454 48.6635L69.4522 42.9727L58.0283 48.6635L69.4522 54.3812L80.8454 48.6635Z" stroke="#91A4A7" stroke-width="2" stroke-miterlimit="10"/>
<path d="M576.244 43.3027H416.654V52.7951H576.244V43.3027Z" stroke="#91A4A7" stroke-width="2" stroke-miterlimit="10"/>
<path d="M228.458 71.7796C228.458 66.0813 223.838 61.4619 218.14 61.4619C212.442 61.4619 207.822 66.0813 207.822 71.7796C207.822 77.478 212.442 82.0974 218.14 82.0974C223.838 82.0974 228.458 77.478 228.458 71.7796Z" stroke="#91A4A7" stroke-width="2" stroke-miterlimit="10"/>
<path d="M253.532 71.7793L274.168 59.8623V83.6962L253.532 71.7793Z" fill="#91A4A7"/>
</svg>
