<svg width="569" height="67" viewBox="0 0 569 67" fill="none" xmlns="http://www.w3.org/2000/svg">
<path d="M23.4754 60.2377C23.4754 57.8973 21.5781 56 19.2377 56C16.8973 56 15 57.8973 15 60.2377C15 62.5781 16.8973 64.4754 19.2377 64.4754C21.5781 64.4754 23.4754 62.5781 23.4754 60.2377Z" stroke="#91A4A7" stroke-width="2" stroke-miterlimit="10"/>
<path d="M407.988 66V17.1561L428.3 14.4295L436 19.7145V66M414.706 66V8.70677L421.772 8V66M428.807 66V14.4295M404.978 52.0302H393M404.978 45.769H393M404.978 58.426H393M404.978 39.2386H393V66" stroke="#91A4A7" stroke-width="2" stroke-miterlimit="10"/>
<path d="M220.903 65.7843V29.2312L236.725 13" stroke="#91A4A7" stroke-width="2" stroke-miterlimit="10"/>
<path d="M233.667 27.0139L241.805 18.5156" stroke="#91A4A7" stroke-width="4" stroke-miterlimit="10"/>
<path d="M220.902 65.7843V29.2312L205.055 13" stroke="#91A4A7" stroke-width="2" stroke-miterlimit="10"/>
<path d="M208.139 27.0139L200 18.5156" stroke="#91A4A7" stroke-width="4" stroke-miterlimit="10"/>
<path d="M0.5 38.5H39.491L139 66.0002L445.084 66.0002L502 54.0676H569" stroke="#91A4A7" stroke-width="2" stroke-miterlimit="10"/>
<path d="M64 24C64 21.7909 62.2091 20 60 20C57.7909 20 56 21.7909 56 24C56 26.2091 57.7909 28 60 28C62.2091 28 64 26.2091 64 24Z" stroke="#91A4A7" stroke-width="2" stroke-miterlimit="10"/>
<path d="M531.5 54V26.652H505V54H531.5ZM531.5 54H558V1H531.5V54ZM512.678 33.065V37.623M522.102 33.065V37.623M540.051 24.691V29.249M549.449 24.691V29.249M540.051 33.966V38.524M549.449 33.966V38.524M540.051 43.241V47.799M549.449 43.241V47.799M549.449 7.38647V19.656M540.051 19.656V7.38647M549.449 13.561H540.051M512.678 43.082H522.102V53.9735H512.678V43.082Z" stroke="#91A4A7" stroke-width="2" stroke-miterlimit="10"/>
<path d="M36.9793 39V1H29.4373V39M60 12.2439V6.84917H20V12.2439H60ZM60 12.2439V20.4446M29.4373 18.7847H36.9793M29.4373 25.3057H36.9793M29.4373 31.8268H36.9793" stroke="#91A4A7" stroke-width="2" stroke-miterlimit="10"/>
<path d="M159.78 58.057V66M168.194 58.057V66M173 66C173 61.034 168.962 57.017 164 57.017C159.038 57.017 155 61.047 155 66M156.368 47.449H171.606M163.987 45.031V40M169.575 47.449C169.575 44.368 167.074 41.872 163.987 41.872C160.9 41.872 158.399 44.368 158.399 47.449C158.399 50.53 160.9 54.222 163.987 54.222C167.074 54.222 169.575 50.53 169.575 47.449Z" stroke="#91A4A7" stroke-width="2" stroke-miterlimit="10"/>
<path d="M264.061 48.1175L264.747 48.8447L264.061 47.1175V48.1175ZM248.501 48.1175V47.1175L247.818 47.3872L248.501 48.1175ZM237.929 58.0075L237.246 57.2772L237.925 59.0075L237.929 58.0075ZM253.523 58.065L253.519 59.065L254.209 58.7922L253.523 58.065ZM244.858 58.065C244.858 61.8958 241.755 65 237.929 65V67C242.861 67 246.858 62.999 246.858 58.065H244.858ZM237.929 65C234.103 65 231 61.8958 231 58.065H229C229 62.999 232.997 67 237.929 67V65ZM231 58.065C231 54.2342 234.103 51.13 237.929 51.13V49.13C232.997 49.13 229 53.131 229 58.065H231ZM237.929 51.13C241.755 51.13 244.858 54.2342 244.858 58.065H246.858C246.858 53.131 242.861 49.13 237.929 49.13V51.13ZM276 58.065C276 61.8958 272.897 65 269.071 65V67C274.003 67 278 62.999 278 58.065H276ZM269.071 65C265.245 65 262.142 61.8958 262.142 58.065H260.142C260.142 62.999 264.139 67 269.071 67V65ZM262.142 58.065C262.142 54.2342 265.245 51.13 269.071 51.13V49.13C264.139 49.13 260.142 53.131 260.142 58.065H262.142ZM269.071 51.13C272.897 51.13 276 54.2342 276 58.065H278C278 53.131 274.003 49.13 269.071 49.13V51.13ZM264.061 47.1175H248.501V49.1175H264.061V47.1175ZM247.818 47.3872L237.246 57.2772L238.612 58.7378L249.184 48.8478L247.818 47.3872ZM237.925 59.0075L253.519 59.065L253.527 57.065L237.933 57.0075L237.925 59.0075ZM254.209 58.7922L264.747 48.8447L263.374 47.3903L252.837 57.3378L254.209 58.7922ZM254.416 57.6148L246.82 42.5498L245.034 43.4502L252.63 58.5152L254.416 57.6148ZM269.964 57.6153L262.38 42.5503L260.593 43.4497L268.178 58.5147L269.964 57.6153ZM242.457 44H249.409V42H242.457V44ZM258.005 44H264.957V42H258.005V44Z" fill="#91A4A7"/>
<path d="M373 14.9906L365.011 11L357 14.9906L365.011 19L373 14.9906Z" stroke="#91A4A7" stroke-width="2" stroke-miterlimit="10"/>
<path d="M455 63V33.145M455.085 43.9775L449.034 37.73M455 48.02L459 43.9075M444 28H466V50.715H444V28Z" stroke="#91A4A7" stroke-width="2" stroke-miterlimit="10"/>
<path d="M345.52 65C345.52 60.99 342.27 57.74 338.26 57.74C334.25 57.74 331 60.99 331 65M342.75 49.49C342.75 51.9698 340.74 53.98 338.26 53.98C335.78 53.98 333.77 51.9698 333.77 49.49C333.77 47.0102 335.78 45 338.26 45C340.74 45 342.75 47.0102 342.75 49.49Z" stroke="#91A4A7" stroke-width="2" stroke-miterlimit="10"/>
</svg>
