<svg width="47" height="53" viewBox="0 0 47 53" fill="none" xmlns="http://www.w3.org/2000/svg">
<path d="M8.495 49.4801C4.415 49.4801 1.09497 46.1701 1.09497 42.0801" stroke="#2E4D52" stroke-width="1.5" stroke-miterlimit="10"/>
<path d="M1.09497 42.0797C1.09497 37.9897 4.415 34.6797 8.495 34.6797V6.92969C4.415 6.92969 1.09497 10.2397 1.09497 14.3297V42.0797Z" stroke="#2E4D52" stroke-width="1.5" stroke-miterlimit="10"/>
<path d="M13.9351 49.4697H8.49512" stroke="#2E4D52" stroke-width="1.5" stroke-miterlimit="10"/>
<path d="M31.2849 16.3594H45.9049V49.4694H43.4349" stroke="#2E4D52" stroke-width="1.5" stroke-miterlimit="10"/>
<path d="M13.9351 16.3594H8.49512" stroke="#2E4D52" stroke-width="1.5" stroke-miterlimit="10"/>
<path d="M43.845 7.42969H34.9149V16.3597H43.845V7.42969Z" stroke="#2E4D52" stroke-width="1.5" stroke-miterlimit="10"/>
<path d="M39.3849 21.6296V10.6396" stroke="#BE8847" stroke-width="1.5" stroke-miterlimit="10"/>
<path d="M39.4149 13.7097L36.955 11.8896" stroke="#BE8847" stroke-width="1.5" stroke-miterlimit="10"/>
<path d="M39.3849 15.3L41.6849 13" stroke="#BE8847" stroke-width="1.5" stroke-miterlimit="10"/>
<path d="M39.3849 32.4299C41.2627 32.4299 42.7849 30.9077 42.7849 29.0299C42.7849 27.1521 41.2627 25.6299 39.3849 25.6299C37.5071 25.6299 35.985 27.1521 35.985 29.0299C35.985 30.9077 37.5071 32.4299 39.3849 32.4299Z" stroke="#2E4D52" stroke-width="1.5" stroke-miterlimit="10"/>
<path d="M40.965 31.8193L45.9049 44.1393" stroke="#2E4D52" stroke-width="1.5" stroke-miterlimit="10"/>
<path d="M37.5349 31.8193L32.595 44.1393" stroke="#2E4D52" stroke-width="1.5" stroke-miterlimit="10"/>
<path d="M33.4449 36.1797H45.2549" stroke="#BE8847" stroke-width="1.5" stroke-miterlimit="10"/>
<path d="M39.3849 25.6296V23.1396" stroke="#2E4D52" stroke-width="1.5" stroke-miterlimit="10"/>
<path d="M34.915 7.82999L26.8751 1.5L18.8351 7.82999H12.415" stroke="#2E4D52" stroke-width="1.5" stroke-miterlimit="10"/>
<path d="M13.9351 7.83008V21.6301H24.255V15.9901" stroke="#2E4D52" stroke-width="1.5" stroke-miterlimit="10"/>
<path d="M17.165 12.4902H34.275" stroke="#BE8847" stroke-width="1.5" stroke-miterlimit="10"/>
<path d="M31.285 21.6302V12.4902" stroke="#BE8847" stroke-width="1.5" stroke-miterlimit="10"/>
<path d="M33.915 24.3096L13.9351 44.2896V24.3096H33.915Z" stroke="#2E4D52" stroke-width="1.5" stroke-miterlimit="10"/>
<path d="M24.3351 28.4395L18.0651 34.7094V28.4395H24.3351Z" stroke="#BE8847" stroke-width="1.5" stroke-miterlimit="10"/>
<path d="M16.6448 44.1797V47.0397" stroke="#2E4D52" stroke-width="1.5" stroke-miterlimit="10"/>
<path d="M20.6448 44.1797V47.8397" stroke="#BE8847" stroke-width="1.5" stroke-miterlimit="10"/>
<path d="M24.6348 44.1797V47.0397" stroke="#2E4D52" stroke-width="1.5" stroke-miterlimit="10"/>
<path d="M28.6348 44.1797V47.8397" stroke="#BE8847" stroke-width="1.5" stroke-miterlimit="10"/>
<path d="M32.6249 44.1797V47.0397" stroke="#2E4D52" stroke-width="1.5" stroke-miterlimit="10"/>
<path d="M36.6249 44.1797V47.8397" stroke="#BE8847" stroke-width="1.5" stroke-miterlimit="10"/>
<path d="M40.6149 44.1797V47.0397" stroke="#2E4D52" stroke-width="1.5" stroke-miterlimit="10"/>
<path d="M13.9248 44.1799V51.5H43.4348V44.1799H13.9248Z" stroke="#2E4D52" stroke-width="1.5" stroke-miterlimit="10"/>
</svg>
