<svg width="11" height="32" viewBox="0 0 11 32" fill="none" xmlns="http://www.w3.org/2000/svg">
<path d="M1.95605 16C1.95605 16.2689 2.05888 16.4983 2.27244 16.704L8.44193 22.739C8.60803 22.913 8.8295 23 9.08261 23C9.59673 23 10.0001 22.6045 10.0001 22.0825C10.0001 21.8294 9.8973 21.6 9.72329 21.426L4.16283 16L9.72329 10.574C9.8973 10.3921 10.0001 10.1627 10.0001 9.9096C10.0001 9.39548 9.59673 9 9.08261 9C8.8295 9 8.60803 9.08701 8.44193 9.26102L2.27244 15.296C2.05888 15.5017 1.96396 15.7311 1.95605 16Z" fill="#223A39"/>
</svg>
