<svg width="318" height="55" viewBox="0 0 318 55" fill="none" xmlns="http://www.w3.org/2000/svg">
<path d="M105.755 53V10.8932L87.8047 8.54267L81 13.0987V53M99.8179 53V3.60929L93.5733 3V53M87.3567 53V8.54267M108.415 40.957H119M108.415 35.5595H119M108.415 46.4707H119M108.415 29.9298H119V53" stroke="#91A4A7" stroke-width="2" stroke-miterlimit="10"/>
<path d="M318 54L-1.12471e-05 54" stroke="#91A4A7" stroke-width="2" stroke-miterlimit="10"/>
<path d="M24.4286 12.1331L32.7032 8L41 12.1331L32.7032 16.2857L24.4286 12.1331Z" stroke="#91A4A7" stroke-width="2" stroke-miterlimit="10"/>
<path d="M292.429 12.1331L300.703 8L309 12.1331L300.703 16.2857L292.429 12.1331Z" stroke="#91A4A7" stroke-width="2" stroke-miterlimit="10"/>
<path d="M205 54C205 47.9176 199.866 43 193.517 43C187.167 43 182 47.9176 182 54" stroke="#91A4A7" stroke-width="2" stroke-miterlimit="10"/>
<path d="M245.604 54V25.02M245.604 31.95L240.969 27.078M262.883 31.551L281.952 18.867L301 31.551M296.487 28.548V53.727H267.396V12M268.535 53.727H233M233 25.02C233 32.2107 238.643 38.04 245.604 38.04C252.565 38.04 258.208 32.2107 258.208 25.02C258.208 17.8292 252.565 12 245.604 12C238.643 12 233 17.8292 233 25.02Z" stroke="#91A4A7" stroke-width="2" stroke-miterlimit="10"/>
<path d="M125 12.634H136.735M125 21.526H136.735M125 30.444H136.735M125 39.336H136.735M148.644 12.53L145.039 10.788M148.644 19.446L145.039 17.704M148.644 26.388L145.039 24.646M152 54V7.51199L141.384 2M141.384 2L125 4.36597V53.974M141.384 2V54" stroke="#91A4A7" stroke-width="2" stroke-miterlimit="10"/>
</svg>
