<svg width="341" height="34" viewBox="0 0 341 34" fill="none" xmlns="http://www.w3.org/2000/svg">
<path d="M261.733 12.2891H168.559L157.464 22.0445H124.118L100.075 12.2891H94.1435" stroke="#91A4A7" stroke-width="2" stroke-miterlimit="10"/>
<path d="M347.244 26.1401H216.042" stroke="#91A4A7" stroke-width="2" stroke-miterlimit="10"/>
<path d="M295.973 12.6476L302.623 9.32617L309.291 12.6476L302.623 15.9847L295.973 12.6476Z" stroke="#91A4A7" stroke-width="2" stroke-miterlimit="10"/>
<path d="M1.00013 9.51953H94.1438V15.0597H1.00013V9.51953Z" stroke="#91A4A7" stroke-width="2" stroke-miterlimit="10"/>
<path d="M203.984 26.1401C203.984 22.8143 206.68 20.1182 210.005 20.1182C213.331 20.1182 216.027 22.8143 216.027 26.1401C216.027 29.4659 213.331 32.162 210.005 32.162C206.68 32.162 203.984 29.4659 203.984 26.1401Z" stroke="#91A4A7" stroke-width="2" stroke-miterlimit="10"/>
<path d="M133.241 11.2954V3.76808L139.76 0.00439453L146.279 3.76808V11.2954L139.76 15.0591L133.241 11.2954Z" fill="#91A4A7"/>
<path d="M189.35 26.1399L177.306 19.1846V33.0951L189.35 26.1399Z" fill="#91A4A7"/>
</svg>
