<svg width="50" height="53" viewBox="0 0 50 53" fill="none" xmlns="http://www.w3.org/2000/svg">
<path d="M22.86 28.9001C20.31 28.9001 18.2499 26.83 18.2499 24.29H0.969971C0.969971 26.83 3.02996 28.9001 5.57996 28.9001H22.86Z" stroke="#FBF9F6" stroke-width="1.5" stroke-miterlimit="10"/>
<path d="M6.83984 24.28V1.5H27.4698V4.47003" stroke="#FBF9F6" stroke-width="1.5" stroke-miterlimit="10"/>
<path d="M34.9999 14.53C34.9999 10.37 31.63 7 27.47 7C23.31 7 19.9399 10.37 19.9399 14.53H34.9999Z" stroke="#FBF9F6" stroke-width="1.5" stroke-miterlimit="10"/>
<path d="M27.47 9.78967V4.46973" stroke="#C5883F" stroke-width="1.5" stroke-miterlimit="10"/>
<path d="M17.21 14.5293H37.74" stroke="#FBF9F6" stroke-width="1.5" stroke-miterlimit="10"/>
<path d="M27.47 18.6904V28.9005" stroke="#C5883F" stroke-width="1.5" stroke-miterlimit="10"/>
<path d="M29.5402 23.79H22.3701" stroke="#C5883F" stroke-width="1.5" stroke-miterlimit="10"/>
<path d="M31.5901 28.9004H27.4802H22.8701" stroke="#FBF9F6" stroke-width="1.5" stroke-miterlimit="10"/>
<path d="M18.27 24.2805V18.6904H27.48H36.67" stroke="#FBF9F6" stroke-width="1.5" stroke-miterlimit="10"/>
<path d="M27.47 28.9004V48.2004" stroke="#FBF9F6" stroke-width="1.5" stroke-miterlimit="10"/>
<path d="M27.4699 28.9004L21.8799 38.0904" stroke="#FBF9F6" stroke-width="1.5" stroke-miterlimit="10"/>
<path d="M27.47 28.9004L36.66 43.9904" stroke="#FBF9F6" stroke-width="1.5" stroke-miterlimit="10"/>
<path d="M10.8501 18.2004L12.0401 19.3904L14.7401 16.6904" stroke="#C5883F" stroke-width="1.5" stroke-miterlimit="10" stroke-linecap="square"/>
<path d="M10.72 6.59961H18.0099" stroke="#FBF9F6" stroke-width="1.5" stroke-miterlimit="10" stroke-linecap="square"/>
<path d="M10.72 10.29H14.8699" stroke="#FBF9F6" stroke-width="1.5" stroke-miterlimit="10" stroke-linecap="square"/>
<path d="M12.75 43.6703L18.27 45.7903L23.79 43.6504" stroke="#C5883F" stroke-width="1.5" stroke-miterlimit="10"/>
<path d="M14.26 39.6304L18.27 41.1703L22.29 39.6104" stroke="#C5883F" stroke-width="1.5" stroke-miterlimit="10"/>
<path d="M15.77 35.5901L18.27 36.55L20.78 35.5801" stroke="#C5883F" stroke-width="1.5" stroke-miterlimit="10"/>
<path d="M28.2001 47.9904L18.2801 51.5004L8.3501 48.0104L11.9201 45.8804L18.2801 28.9004L24.6301 45.8804L28.2001 47.9904Z" stroke="#FBF9F6" stroke-width="1.5" stroke-miterlimit="10"/>
<path d="M37.4299 27.8306L38.5599 28.9606L41.14 26.3906" stroke="#C5883F" stroke-width="1.5" stroke-miterlimit="10" stroke-linecap="square"/>
<path d="M49.02 23.7904C47.62 29.3004 44.04 33.9004 39.27 36.6704C34.5 33.9004 30.94 29.3004 29.54 23.7904C32.08 23.4904 34.04 21.3304 34.04 18.6904H44.53C44.53 21.3304 46.49 23.4904 49.03 23.7904H49.02Z" stroke="#FBF9F6" stroke-width="1.5" stroke-miterlimit="10"/>
</svg>
