<svg width="72" height="51" viewBox="0 0 72 51" fill="none" xmlns="http://www.w3.org/2000/svg">
<path d="M11.4449 50.4995V12.5195" stroke="#FBF9F6" stroke-width="1.5" stroke-miterlimit="10"/>
<path d="M11.4449 7.42999V0.5" stroke="#FBF9F6" stroke-width="1.5" stroke-miterlimit="10"/>
<path d="M57.125 16.9105V9.98047" stroke="#FBF9F6" stroke-width="1.5" stroke-miterlimit="10"/>
<path d="M53.6549 16.7803H60.585" stroke="#C5883F" stroke-width="1.5" stroke-miterlimit="10"/>
<path d="M15.0049 9.98047H59.845" stroke="#FBF9F6" stroke-width="1.5" stroke-miterlimit="10"/>
<path d="M0.844971 9.98047H7.88489" stroke="#FBF9F6" stroke-width="1.5" stroke-miterlimit="10"/>
<path d="M15.0049 7.42969H7.88489V12.5097H15.0049V7.42969Z" stroke="#C5883F" stroke-width="1.5" stroke-miterlimit="10"/>
<path d="M51.0149 38.2899H57.5449H57.585H61.985V32.7499V32.71H57.585H57.5449H54.995" stroke="#FBF9F6" stroke-width="1.5" stroke-miterlimit="10"/>
<path d="M71.1549 32.71H61.975V38.2999H71.1549V32.71Z" stroke="#FBF9F6" stroke-width="1.5" stroke-miterlimit="10"/>
<path d="M54.3049 43.8994H57.5449H57.585H61.985V49.4794H57.955" stroke="#FBF9F6" stroke-width="1.5" stroke-miterlimit="10"/>
<path d="M71.1549 43.8896H61.975V49.4796H71.1549V43.8896Z" stroke="#FBF9F6" stroke-width="1.5" stroke-miterlimit="10"/>
<path d="M51.0149 38.2891H57.5449V43.8991H54.3049" stroke="#FBF9F6" stroke-width="1.5" stroke-miterlimit="10"/>
<path d="M66.7649 38.2998H57.585V43.8898H66.7649V38.2998Z" stroke="#FBF9F6" stroke-width="1.5" stroke-miterlimit="10"/>
<path d="M61.975 21.5596H50.605V27.1496H61.975V21.5596Z" stroke="#FBF9F6" stroke-width="1.5" stroke-miterlimit="10"/>
<path d="M71.1549 21.5596H61.975V27.1496H71.1549V21.5596Z" stroke="#FBF9F6" stroke-width="1.5" stroke-miterlimit="10"/>
<path d="M54.995 32.7491H57.5449V32.7092V27.1592H50.605H46.5449V30.5491" stroke="#FBF9F6" stroke-width="1.5" stroke-miterlimit="10"/>
<path d="M66.7649 27.1592H57.585V32.7491H66.7649V27.1592Z" stroke="#FBF9F6" stroke-width="1.5" stroke-miterlimit="10"/>
<path d="M50.2749 38.3398C52.9203 38.3398 55.0649 36.1952 55.0649 33.5497C55.0649 30.9043 52.9203 28.7598 50.2749 28.7598C47.6295 28.7598 45.485 30.9043 45.485 33.5497C45.485 36.1952 47.6295 38.3398 50.2749 38.3398Z" stroke="#C5883F" stroke-width="1.5" stroke-miterlimit="10"/>
<path d="M58.0149 50.4998C58.0149 46.2198 54.5449 42.7598 50.2749 42.7598" stroke="#C5883F" stroke-width="1.5" stroke-miterlimit="10"/>
<path d="M19.2949 38.3398C21.9404 38.3398 24.085 36.1952 24.085 33.5497C24.085 30.9043 21.9404 28.7598 19.2949 28.7598C16.6495 28.7598 14.5049 30.9043 14.5049 33.5497C14.5049 36.1952 16.6495 38.3398 19.2949 38.3398Z" stroke="#C5883F" stroke-width="1.5" stroke-miterlimit="10"/>
<path d="M11.5449 50.4998C11.5449 46.2198 15.0149 42.7598 19.2849 42.7598" stroke="#C5883F" stroke-width="1.5" stroke-miterlimit="10"/>
<path d="M34.7849 31.96V34.6799" stroke="#C5883F" stroke-width="1.5" stroke-miterlimit="10"/>
<path d="M30.835 30.5293L29.0049 32.7093" stroke="#C5883F" stroke-width="1.5" stroke-miterlimit="10"/>
<path d="M28.745 26.8896L26.1349 27.3496" stroke="#C5883F" stroke-width="1.5" stroke-miterlimit="10"/>
<path d="M40.825 26.8896L43.4349 27.3496" stroke="#C5883F" stroke-width="1.5" stroke-miterlimit="10"/>
<path d="M38.725 30.5293L40.625 32.7892" stroke="#C5883F" stroke-width="1.5" stroke-miterlimit="10"/>
<path d="M41.125 25.8203C41.125 29.3203 38.2949 32.1703 34.7749 32.1703C31.2549 32.1703 28.4349 29.3303 28.4349 25.8203H41.115H41.125Z" stroke="#FBF9F6" stroke-width="1.5" stroke-miterlimit="10"/>
<path d="M41.1349 23.1498C41.1349 19.6498 38.2949 16.7998 34.7849 16.7998C31.2749 16.7998 28.4349 19.6398 28.4349 23.1498H41.125H41.1349Z" stroke="#FBF9F6" stroke-width="1.5" stroke-miterlimit="10"/>
<path d="M34.7849 19.15V14.6699" stroke="#C5883F" stroke-width="1.5" stroke-miterlimit="10"/>
<path d="M26.1349 23.1504H43.4349" stroke="#FBF9F6" stroke-width="1.5" stroke-miterlimit="10"/>
<path d="M28.7649 39.1201V50.5001" stroke="#C5883F" stroke-width="1.5" stroke-miterlimit="10"/>
<path d="M40.7949 39.1201V50.5001" stroke="#C5883F" stroke-width="1.5" stroke-miterlimit="10"/>
<path d="M47.6549 50.4999C47.6549 43.3899 41.8949 37.6299 34.7849 37.6299C27.6749 37.6299 21.9149 43.3899 21.9149 50.4999" stroke="#FBF9F6" stroke-width="1.5" stroke-miterlimit="10"/>
</svg>
