<svg width="53" height="52" viewBox="0 0 53 52" fill="none" xmlns="http://www.w3.org/2000/svg">
<path d="M19.4152 51.4996V5.55957H10.2751V51.4996" stroke="#FBF9F6" stroke-width="1.5" stroke-miterlimit="10"/>
<path d="M10.2751 19.1499H1.24512V12.6299H17.5452" stroke="#FBF9F6" stroke-width="1.5" stroke-miterlimit="10"/>
<path d="M18.8251 19.1499H29.8951L33.6652 12.6299H17.5452" stroke="#FBF9F6" stroke-width="1.5" stroke-miterlimit="10"/>
<path d="M10.2751 27.0498H19.4152" stroke="#FBF9F6" stroke-width="1.5" stroke-miterlimit="10"/>
<path d="M10.2751 19.1494H19.4152" stroke="#FBF9F6" stroke-width="1.5" stroke-miterlimit="10"/>
<path d="M10.2751 34.9395H19.4152" stroke="#FBF9F6" stroke-width="1.5" stroke-miterlimit="10"/>
<path d="M10.2751 42.8301H19.4152" stroke="#FBF9F6" stroke-width="1.5" stroke-miterlimit="10"/>
<path d="M40.0852 19.1494V26.6794" stroke="#FBF9F6" stroke-width="1.5" stroke-miterlimit="10"/>
<path d="M40.0952 47.5293V51.4993" stroke="#C5883F" stroke-width="1.5" stroke-miterlimit="10"/>
<path d="M34.315 45.4297L31.635 48.6197" stroke="#C5883F" stroke-width="1.5" stroke-miterlimit="10"/>
<path d="M31.2451 40.0996L27.4351 40.7797" stroke="#C5883F" stroke-width="1.5" stroke-miterlimit="10"/>
<path d="M48.9351 40.0996L52.7551 40.7797" stroke="#C5883F" stroke-width="1.5" stroke-miterlimit="10"/>
<path d="M45.865 45.4297L48.645 48.7397" stroke="#C5883F" stroke-width="1.5" stroke-miterlimit="10"/>
<path d="M49.3749 38.54C49.3749 43.67 45.235 47.8301 40.085 47.8301C34.935 47.8301 30.8149 43.67 30.8149 38.54H37.045C37.045 40.24 38.4149 41.6 40.1149 41.6C41.8149 41.6 43.175 40.23 43.175 38.54H49.3849H49.3749Z" stroke="#FBF9F6" stroke-width="1.5" stroke-miterlimit="10"/>
<path d="M49.3751 34.6298C49.3751 29.4998 45.2151 25.3398 40.0851 25.3398C34.9551 25.3398 30.7952 29.4998 30.7952 34.6298H49.3751Z" stroke="#FBF9F6" stroke-width="1.5" stroke-miterlimit="10"/>
<path d="M40.0952 28.7797V22.2197" stroke="#C5883F" stroke-width="1.5" stroke-miterlimit="10"/>
<path d="M27.4351 34.6299H52.7551" stroke="#FBF9F6" stroke-width="1.5" stroke-miterlimit="10"/>
<path d="M50.275 19.15H29.895L40.085 1.5L50.275 19.15Z" stroke="#C5883F" stroke-width="1.5" stroke-miterlimit="10"/>
<path d="M40.085 8.42969V13.5197" stroke="#FBF9F6" stroke-width="1.5" stroke-miterlimit="10"/>
<path d="M40.085 14.4297V16.7397" stroke="#FBF9F6" stroke-width="1.5" stroke-miterlimit="10"/>
</svg>
