<svg width="355" height="262" viewBox="0 0 355 262" fill="none" xmlns="http://www.w3.org/2000/svg">
<path d="M223.076 39.0508H212.386V41.5659H223.076V39.0508Z" fill="#2C4D51"/>
<path d="M223.076 46.8213H212.386V49.3364H223.076V46.8213Z" fill="#2C4D51"/>
<path d="M223.076 54.5684H212.386V57.0835H223.076V54.5684Z" fill="#2C4D51"/>
<path d="M223.076 62.3398H212.386V64.855H223.076V62.3398Z" fill="#2C4D51"/>
<path d="M204.237 37.698L200.948 39.2148L202.001 41.4988L205.29 39.9819L204.237 37.698Z" fill="#2C4D51"/>
<path d="M204.224 43.7331L200.936 45.25L201.989 47.5339L205.278 46.017L204.224 43.7331Z" fill="#2C4D51"/>
<path d="M204.237 49.7683L200.948 51.2852L202.002 53.5691L205.291 52.0522L204.237 49.7683Z" fill="#2C4D51"/>
<path d="M199.735 76.3488H197.22V35.1006L207.96 29.7686L224.333 32.0322V76.3236H221.818V34.2204L208.362 32.3592L199.735 36.66V76.3488Z" fill="#2C4D51"/>
<path d="M209.418 31.0508H206.903V76.3231H209.418V31.0508Z" fill="#2C4D51"/>
<path d="M247.698 78.9402H221.818V53.0596H247.698V78.9402ZM224.333 76.4251H245.183V55.5747H224.333V76.4251Z" fill="#2C4D51"/>
<path d="M271.039 78.9407H245.158V31.1533H271.039V78.9407ZM247.673 76.4256H268.524V33.6684H247.673V76.4256Z" fill="#2C4D51"/>
<path d="M231.073 59.7998H228.558V63.6982H231.073V59.7998Z" fill="#2C4D51"/>
<path d="M239.398 59.7998H236.883V63.6982H239.398V59.7998Z" fill="#2C4D51"/>
<path d="M255.219 52.6328H252.704V56.5312H255.219V52.6328Z" fill="#2C4D51"/>
<path d="M263.519 52.6328H261.003V56.5312H263.519V52.6328Z" fill="#2C4D51"/>
<path d="M255.219 60.5557H252.704V64.4541H255.219V60.5557Z" fill="#2C4D51"/>
<path d="M263.519 60.5557H261.004V64.4541H263.519V60.5557Z" fill="#2C4D51"/>
<path d="M255.219 68.4775H252.704V72.376H255.219V68.4775Z" fill="#2C4D51"/>
<path d="M263.519 68.4775H261.003V72.376H263.519V68.4775Z" fill="#2C4D51"/>
<path d="M239.399 78.9403H228.583V67.1191H239.399V78.9403ZM231.099 76.4251H236.883V69.6343H231.099V76.4251Z" fill="#2C4D51"/>
<path d="M263.519 37.8438H261.003V48.357H263.519V37.8438Z" fill="#2C4D51"/>
<path d="M255.219 37.8438H252.704V48.357H255.219V37.8438Z" fill="#2C4D51"/>
<path d="M262.261 41.8672H253.961V44.3823H262.261V41.8672Z" fill="#2C4D51"/>
<path d="M305.093 47.2754H302.578V78.6138H305.093V47.2754Z" fill="#2C4D51"/>
<path d="M305.094 47.2755H302.579C302.579 40.2834 296.894 34.5991 289.902 34.5991V32.084C298.278 32.084 305.094 38.9001 305.094 47.2755Z" fill="#2C4D51"/>
<path d="M284.998 48.1565L283.212 46.3707C289.148 40.435 298.781 40.435 304.716 46.3707L302.931 48.1565C297.976 43.2017 289.927 43.2017 284.998 48.1565Z" fill="#2C4D51"/>
<path d="M291.16 61.2343H288.645C288.645 52.8589 295.461 46.043 303.836 46.043V48.5581C296.844 48.5581 291.16 54.2422 291.16 61.2343Z" fill="#2C4D51"/>
<path d="M305.093 47.2755H302.578C302.578 38.9001 309.394 32.084 317.77 32.084V34.5991C310.778 34.5991 305.093 40.2834 305.093 47.2755Z" fill="#2C4D51"/>
<path d="M322.674 48.1565C317.719 43.2017 309.671 43.2017 304.741 48.1565L302.956 46.3707C308.891 40.435 318.524 40.435 324.46 46.3707L322.674 48.1565Z" fill="#2C4D51"/>
<path d="M319.052 61.2343H316.537C316.537 54.2422 310.853 48.5581 303.861 48.5581V46.043C312.236 46.043 319.052 52.8589 319.052 61.2343Z" fill="#2C4D51"/>
<path d="M353.787 76.4248H134.594V78.9399H353.787V76.4248Z" fill="#2C4D51"/>
<path d="M44.2495 16.5897L52.8514 1.7002L61.4531 16.5897H44.2495ZM52.8514 4.81893L46.9659 15.0052H58.7367L52.8514 4.81893Z" fill="#2C4D51"/>
<path d="M78.1539 141.34H32.127V122.653L78.1539 105.978V141.34ZM34.6421 138.825H75.6388V109.549L34.6421 124.388V138.8V138.825Z" fill="#2C4D51"/>
<path d="M102.726 152.583H75.6387V113.02H102.726V152.583ZM78.1538 150.067H100.211V115.535H78.1538V150.067Z" fill="#2C4D51"/>
<path d="M40.3513 140.082H37.8362V152.582H40.3513V140.082Z" fill="#2C4D51"/>
<path d="M48.249 118.227H45.7339V152.583H48.249V118.227Z" fill="#2C4D51"/>
<path d="M64.1196 112.87H61.6045V140.109H64.1196V112.87Z" fill="#2C4D51"/>
<path d="M56.1213 140.082H53.6062V152.582H56.1213V140.082Z" fill="#2C4D51"/>
<path d="M101.469 118.956H76.8962V121.471H101.469V118.956Z" fill="#2C4D51"/>
<path d="M101.469 125.369H76.8962V127.884H101.469V125.369Z" fill="#2C4D51"/>
<path d="M101.469 131.758H76.8962V134.273H101.469V131.758Z" fill="#2C4D51"/>
<path d="M101.469 138.146H76.8962V140.661H101.469V138.146Z" fill="#2C4D51"/>
<path d="M101.469 144.535H76.8962V147.05H101.469V144.535Z" fill="#2C4D51"/>
<path d="M132.103 144.939H100.186V113.047H132.103V144.939ZM102.701 142.424H129.588V115.562H102.701V142.424Z" fill="#2C4D51"/>
<path d="M117.415 120.943H114.9V159.576H117.415V120.943Z" fill="#2C4D51"/>
<path d="M109.077 125.966L107.299 127.744L115.391 135.836L117.169 134.058L109.077 125.966Z" fill="#2C4D51"/>
<path d="M120.599 133.967L115.264 139.303L117.042 141.081L122.378 135.746L120.599 133.967Z" fill="#2C4D51"/>
<path d="M316.663 159.979C308.238 159.979 301.372 153.112 301.372 144.687C301.372 136.261 308.238 129.395 316.663 129.395C325.089 129.395 331.955 136.261 331.955 144.687C331.955 153.112 325.089 159.979 316.663 159.979ZM316.663 131.884C309.621 131.884 303.887 137.619 303.887 144.661C303.887 151.704 309.621 157.438 316.663 157.438C323.706 157.438 329.44 151.704 329.44 144.661C329.44 137.619 323.706 131.884 316.663 131.884Z" fill="#2C4D51"/>
<path d="M317.921 144.687H315.406V175.924H317.921V144.687Z" fill="#2C4D51"/>
<path d="M320.907 146.222L315.739 151.476L317.532 153.239L322.7 147.986L320.907 146.222Z" fill="#2C4D51"/>
<path d="M265.405 184.528H262.889V130.075L277.452 115.789L279.213 117.575L265.405 131.131V184.528Z" fill="#2C4D51"/>
<path d="M281.108 119.609L273.816 126.9L277.373 130.457L284.665 123.166L281.108 119.609Z" fill="#2C4D51"/>
<path d="M265.405 184.528H262.89V131.131L249.082 117.575L250.842 115.789L265.405 130.075V184.528Z" fill="#2C4D51"/>
<path d="M247.153 119.848L243.596 123.405L250.888 130.697L254.445 127.14L247.153 119.848Z" fill="#2C4D51"/>
<path d="M167.416 161.462C162.21 159.4 159.669 153.464 161.757 148.258C163.844 143.051 169.755 140.511 174.961 142.599C180.168 144.661 182.708 150.597 180.62 155.803C178.558 161.009 172.622 163.55 167.416 161.462ZM174.106 144.661C170.057 143.051 165.429 145.038 163.794 149.088C162.159 153.137 164.171 157.765 168.221 159.4C172.27 161.009 176.898 159.023 178.533 154.973C180.168 150.924 178.155 146.296 174.106 144.661Z" fill="#2C4D51"/>
<path d="M200.44 174.639C195.233 172.577 192.693 166.641 194.781 161.435C196.868 156.228 202.779 153.688 207.985 155.775C213.191 157.838 215.732 163.774 213.644 168.98C211.556 174.186 205.646 176.726 200.44 174.639ZM207.13 157.838C203.08 156.228 198.453 158.215 196.818 162.265C195.183 166.314 197.195 170.942 201.244 172.577C205.294 174.186 209.922 172.199 211.556 168.15C213.191 164.101 211.179 159.473 207.13 157.838Z" fill="#2C4D51"/>
<path d="M187.285 159.65L170.786 153.01V150.948L186.179 144.937H187.009L203.508 151.526V153.589L188.141 159.675H187.311L187.285 159.65ZM174.207 151.979L187.688 157.412L200.037 152.532L186.556 147.15L174.182 151.979H174.207Z" fill="#2C4D51"/>
<path d="M187.258 139.244L185.053 139.437L186.73 158.604L188.935 158.411L187.258 139.244Z" fill="#2C4D51"/>
<path d="M203.764 145.804L201.559 145.997L203.236 165.164L205.441 164.972L203.764 145.804Z" fill="#2C4D51"/>
<path d="M182.742 136.838L181.922 138.894L189.304 141.837L190.124 139.782L182.742 136.838Z" fill="#2C4D51"/>
<path d="M199.192 143.408L198.372 145.464L205.755 148.408L206.574 146.352L199.192 143.408Z" fill="#2C4D51"/>
<path d="M298.856 184.526L219.856 184.45L149.91 157.211H116.157V154.696L150.615 154.797L220.535 182.011H298.353L355.648 158.897H449.135V161.412H355.899L298.856 184.526Z" fill="#2C4D51"/>
<path d="M117.415 161.839H0.00878906V150.068H117.415V161.839ZM2.52392 159.324H114.9V152.583H2.52392V159.324Z" fill="#2C4D51"/>
<path d="M7.60437 139.331C3.42926 139.331 0.00878906 135.935 0.00878906 131.735C0.00878906 127.535 3.40411 124.14 7.60437 124.14C11.8046 124.14 15.2001 127.535 15.2001 131.735C15.2001 135.935 11.8046 139.331 7.60437 139.331ZM7.60437 126.68C4.81258 126.68 2.52392 128.943 2.52392 131.76C2.52392 134.577 4.78743 136.841 7.60437 136.841C10.4213 136.841 12.685 134.577 12.685 131.76C12.685 128.943 10.4213 126.68 7.60437 126.68Z" fill="#2C4D51"/>
<path d="M241.687 167.598L232.331 162.191L241.687 156.783L251.044 162.191L241.687 167.598ZM237.361 162.191L241.687 164.706L246.013 162.191L241.687 159.676L237.361 162.191Z" fill="#2C4D51"/>
<path d="M330.673 11.6607L321.316 6.25329L330.673 0.845703L340.029 6.25329L330.673 11.6607ZM326.347 6.25329L330.673 8.76842L334.999 6.25329L330.673 3.73816L326.347 6.25329Z" fill="#2C4D51"/>
<path d="M182.607 78.1605H180.092C180.092 74.1363 176.797 70.8667 172.773 70.8667C168.749 70.8667 165.479 74.1363 165.479 78.1605H162.964C162.964 72.7529 167.365 68.3516 172.773 68.3516C178.18 68.3516 182.607 72.7529 182.607 78.1605Z" fill="#2C4D51"/>
<path d="M264.223 236.537C259.495 236.537 255.646 232.689 255.646 227.96C255.646 223.232 259.495 219.384 264.223 219.384C268.952 219.384 272.8 223.232 272.8 227.96C272.8 232.689 268.952 236.537 264.223 236.537ZM264.223 221.874C260.878 221.874 258.162 224.59 258.162 227.935C258.162 231.28 260.878 233.997 264.223 233.997C267.568 233.997 270.285 231.28 270.285 227.935C270.285 224.59 267.568 221.874 264.223 221.874Z" fill="#2C4D51"/>
<path d="M268.689 233.65L266.354 234.586L277.007 261.152L279.341 260.216L268.689 233.65Z" fill="#2C4D51"/>
<path d="M259.103 233.722L248.423 260.276L250.756 261.215L261.437 234.66L259.103 233.722Z" fill="#2C4D51"/>
<path d="M276.899 242.12H251.421V244.635H276.899V242.12Z" fill="#2C4D51"/>
<path d="M265.481 215.26H262.966V220.617H265.481V215.26Z" fill="#2C4D51"/>
<path d="M292.996 261.138H342.569V211.564L292.996 261.138ZM340.054 258.622H299.057L340.054 217.626V258.622Z" fill="#2C4D51"/>
<path d="M314.702 251.756H333.188V233.27L314.702 251.756ZM330.673 249.241H320.763L330.673 239.331V249.241Z" fill="#2C4D51"/>
<path d="M206.853 254.899H204.338V259.728H206.853V254.899Z" fill="#2C4D51"/>
<path d="M217.97 256.986H215.455V259.728H217.97V256.986Z" fill="#2C4D51"/>
<path d="M195.711 256.986H193.196V259.728H195.711V256.986Z" fill="#2C4D51"/>
<path d="M225.364 241.142H220.535V243.657H225.364V241.142Z" fill="#2C4D51"/>
<path d="M225.39 230H222.648V232.515H225.39V230Z" fill="#2C4D51"/>
<path d="M225.39 252.259H222.648V254.774H225.39V252.259Z" fill="#2C4D51"/>
<path d="M206.728 224.769H204.212V229.598H206.728V224.769Z" fill="#2C4D51"/>
<path d="M217.844 224.769H215.329V227.51H217.844V224.769Z" fill="#2C4D51"/>
<path d="M195.61 224.769H193.095V227.51H195.61V224.769Z" fill="#2C4D51"/>
<path d="M185.575 261.263C180.545 261.263 176.445 257.163 176.445 252.133H178.96C178.96 255.78 181.928 258.747 185.575 258.747V261.263Z" fill="#2C4D51"/>
<path d="M178.935 252.133H176.42V222.606C176.42 217.575 180.52 213.476 185.55 213.476H186.807V245.518H185.55C181.903 245.518 178.935 248.486 178.935 252.133ZM184.292 216.091C181.249 216.67 178.935 219.361 178.935 222.58V245.82C180.318 244.361 182.205 243.355 184.292 243.054V216.066V216.091Z" fill="#2C4D51"/>
<path d="M226.622 261.263H185.575V258.748H224.107V226.026H185.575V223.511H226.622V261.263Z" fill="#2C4D51"/>
<path d="M294.505 245.718L286.406 241.04V231.684L294.505 227.006L302.604 231.684V241.04L294.505 245.718ZM288.921 239.581L294.505 242.801L300.089 239.581V233.118L294.505 229.873L288.921 233.118V239.581Z" fill="#2C4D51"/>
</svg>
