<svg width="358" height="251" viewBox="0 0 358 251" fill="none" xmlns="http://www.w3.org/2000/svg">
<path d="M180.109 73.3533H177.593V40.0782L166.25 28.9614L168.011 27.1504L180.109 39.0219V73.3533Z" fill="#2C4D51"/>
<path d="M165.087 30.3011L161.53 33.8574L167.54 39.8697L171.098 36.3134L165.087 30.3011Z" fill="#2C4D51"/>
<path d="M207.045 213.12H204.53V241.491H207.045V213.12Z" fill="#2C4D51"/>
<path d="M213.559 217.243H211.044V241.514H213.559V217.243Z" fill="#2C4D51"/>
<path d="M220.073 213.12H217.558V241.491H220.073V213.12Z" fill="#2C4D51"/>
<path d="M226.588 209.021H224.073V241.516H226.588V209.021Z" fill="#2C4D51"/>
<path d="M233.102 217.243H230.587V241.514H233.102V217.243Z" fill="#2C4D51"/>
<path d="M239.616 213.12H237.101V241.491H239.616V213.12Z" fill="#2C4D51"/>
<path d="M241 255.551H203.122V240.234H241V255.551ZM205.637 253.036H238.485V242.75H205.637V253.036Z" fill="#2C4D51"/>
<path d="M47.3599 210.278H44.8447V225.948H47.3599V210.278Z" fill="#2C4D51"/>
<path d="M53.9495 216.844H38.2803V219.359H53.9495V216.844Z" fill="#2C4D51"/>
<path d="M61.4697 227.18H30.76V208.996H61.4697V227.18ZM33.2751 224.665H58.9546V211.511H33.2751V224.665Z" fill="#2C4D51"/>
<path d="M47.3599 225.924H44.8447V255.552H47.3599V225.924Z" fill="#2C4D51"/>
<path d="M45.0196 225.292L30.9338 248.459L33.0829 249.766L47.1687 226.599L45.0196 225.292Z" fill="#2C4D51"/>
<path d="M47.1298 225.329L44.9814 226.637L59.0794 249.796L61.2278 248.489L47.1298 225.329Z" fill="#2C4D51"/>
<path d="M313.31 124.135H310.795V137.968H313.31V124.135Z" fill="#2C4D51"/>
<path d="M327.922 124.135H325.407V137.968H327.922V124.135Z" fill="#2C4D51"/>
<path d="M336.273 137.968H333.757C333.757 130.02 327.294 123.582 319.371 123.582C311.448 123.582 304.959 130.045 304.959 137.968H302.444C302.444 128.637 310.04 121.066 319.371 121.066C328.702 121.066 336.273 128.662 336.273 137.968Z" fill="#2C4D51"/>
<path d="M332.6 104.416H306.116V106.931H332.6V104.416Z" fill="#2C4D51"/>
<path d="M319.37 118.701C313.183 118.701 308.405 111.684 308.405 105.648C308.405 99.6113 313.334 94.6816 319.37 94.6816C325.407 94.6816 330.336 99.6113 330.336 105.648C330.336 111.684 325.533 118.701 319.37 118.701ZM319.37 97.1968C314.718 97.1968 310.92 100.995 310.92 105.648C310.92 110.301 314.818 116.186 319.37 116.186C323.923 116.186 327.821 110.401 327.821 105.648C327.821 100.894 324.023 97.1968 319.37 97.1968Z" fill="#2C4D51"/>
<path d="M320.628 92.6953H318.113V101.473H320.628V92.6953Z" fill="#2C4D51"/>
<path d="M110.087 73.3056H73.4418L72.3352 71.4445L82.6472 52.7319L90.5447 26.3984H92.9592L100.857 52.7319L111.169 71.4445L110.062 73.3056H110.087ZM75.5797 70.7905H107.975L98.5177 53.587L91.7771 31.1269L84.936 53.8134L75.5797 70.7653V70.7905Z" fill="#2C4D51"/>
<path d="M109.307 46.368L102.265 41.6899H80.9368L74.1963 46.0662L72.8381 43.9536L80.2075 39.1748H103.045L110.716 44.2804L109.307 46.368Z" fill="#2C4D51"/>
<path d="M101.762 32.5597L97.2347 28.0073H85.9921L81.7667 32.2327L79.981 30.4721L84.9609 25.4922H98.2659L103.548 30.7739L101.762 32.5597Z" fill="#2C4D51"/>
<path d="M111.772 59.1699L104.73 54.4917H78.4972L71.7566 58.8681L70.3984 56.7554L77.7426 51.9766H105.51L113.181 57.0823L111.772 59.1699Z" fill="#2C4D51"/>
<path d="M89.3126 69.3317L87.6023 67.4706L91.8277 63.6475H88.4574L87.6274 61.4342L94.2674 55.75L95.9022 57.6615L91.8528 61.1324H95.0974L95.9274 63.3206L89.3126 69.3317Z" fill="#2C4D51"/>
<path d="M27.3895 129.237H4.87915V119.906H27.3895V129.237ZM7.39428 126.722H24.8744V122.421H7.39428V126.722Z" fill="#2C4D51"/>
<path d="M47.3603 129.237H24.8499V119.906H47.3603V129.237ZM27.365 126.722H44.8451V122.421H27.365V126.722Z" fill="#2C4D51"/>
<path d="M27.3895 142.845H4.87915V133.514H27.3895V142.845ZM7.39428 140.33H24.8744V136.029H7.39428V140.33Z" fill="#2C4D51"/>
<path d="M47.3603 142.845H24.8499V133.514H47.3603V142.845ZM27.365 140.33H44.8451V136.029H27.365V140.33Z" fill="#2C4D51"/>
<path d="M20.0204 136.054H-2.48999V126.723H20.0204V136.054ZM0.0251372 133.539H17.5053V129.238H0.0251372V133.539Z" fill="#2C4D51"/>
<path d="M39.9904 136.054H17.48V126.723H39.9904V136.054ZM19.9951 133.539H37.4753V129.238H19.9951V133.539Z" fill="#2C4D51"/>
<path d="M27.3895 115.683H4.87915V106.352H27.3895V115.683ZM7.39428 113.167H24.8744V108.867H7.39428V113.167Z" fill="#2C4D51"/>
<path d="M47.3603 115.683H24.8499V106.352H47.3603V115.683ZM27.365 113.167H44.8451V108.867H27.365V113.167Z" fill="#2C4D51"/>
<path d="M20.0204 122.498H-2.48999V113.167H20.0204V122.498ZM0.0251372 119.983H17.5053V115.682H0.0251372V119.983Z" fill="#2C4D51"/>
<path d="M39.9904 122.498H17.48V113.167H39.9904V122.498ZM19.9951 119.983H37.4753V115.682H19.9951V119.983Z" fill="#2C4D51"/>
<path d="M182.9 118.902V104.139H156.516V97.4482H145.349V104.139H134.534V112.841H145.349V142.243H147.864V135.276H154.001V142.243H156.516V112.841H180.385V118.902C178.297 119.456 176.738 121.367 176.738 123.631H179.253C179.253 122.298 180.335 121.241 181.643 121.241C182.95 121.241 184.032 122.323 184.032 123.631H186.547C186.547 121.367 184.988 119.456 182.9 118.902ZM147.839 99.9634H153.976V104.139H147.839V99.9634ZM147.839 120.336H153.976V125.291H147.839V120.336ZM147.839 117.821V112.866H153.976V117.821H147.839ZM153.976 110.351H147.839V106.679H153.976V110.351ZM136.999 110.351V106.679H145.299V110.351H136.999ZM147.814 132.786V127.831H153.951V132.786H147.814ZM156.466 106.679H180.335V110.351H156.466V106.679Z" fill="#2C4D51"/>
<path d="M147.286 220.867L135.766 216.44L136.672 214.076L147.286 218.176L157.874 214.051L158.78 216.39L147.286 220.867Z" fill="#2C4D51"/>
<path d="M147.286 211.61L138.81 208.341L139.715 206.002L147.286 208.919L154.881 205.977L155.787 208.316L147.286 211.61Z" fill="#2C4D51"/>
<path d="M147.285 202.357L141.828 200.244L142.733 197.905L147.285 199.666L151.863 197.88L152.768 200.219L147.285 202.357Z" fill="#2C4D51"/>
<path d="M147.286 232.286L124.448 224.263L133.528 218.855L147.286 182.084L161.043 218.855L170.098 224.212L147.26 232.286H147.286ZM130.359 223.659L147.286 229.62L164.212 223.634L159.006 220.565L147.311 189.252L135.59 220.565L130.359 223.684V223.659Z" fill="#2C4D51"/>
<path d="M228.952 159.521H172.513L153.976 143.249H-1.18188V140.733H154.932L173.469 157.006H228.474L268.867 140.733H278.777V143.249H269.119L228.952 159.521Z" fill="#2C4D51"/>
<path d="M75.1519 183.667H-25.2771V186.182H75.1519V183.667Z" fill="#2C4D51"/>
<path d="M217.558 70.8652H-1.63501V73.3804H217.558V70.8652Z" fill="#2C4D51"/>
<path d="M357.827 147.876H277.494V136.105H357.827V147.876ZM280.009 145.361H355.312V138.621H280.009V145.361Z" fill="#2C4D51"/>
<path d="M85.2121 196.244C78.9746 196.244 73.894 191.163 73.894 184.925C73.894 178.688 78.9746 173.607 85.2121 173.607C91.4496 173.607 96.5302 178.688 96.5302 184.925C96.5302 191.163 91.4496 196.244 85.2121 196.244ZM85.2121 176.123C80.3579 176.123 76.4092 180.071 76.4092 184.925C76.4092 189.78 80.3579 193.728 85.2121 193.728C90.0663 193.728 94.0151 189.78 94.0151 184.925C94.0151 180.071 90.0663 176.123 85.2121 176.123Z" fill="#2C4D51"/>
<path d="M217.558 143.022L205.41 136.005V121.97L217.558 114.953L229.706 121.97V136.005L217.558 143.022ZM207.925 134.546L217.558 140.104L227.191 134.546V123.429L217.558 117.871L207.925 123.429V134.546Z" fill="#2C4D51"/>
<path d="M270.728 203.06L246.834 189.277L270.728 175.469V203.06ZM251.865 189.277L268.213 198.709V179.845L251.865 189.277Z" fill="#2C4D51"/>
<path d="M30.5837 23.631V0.441406L50.6796 12.0363L30.5837 23.631ZM33.0989 4.79268V19.2797L45.6493 12.0363L33.0989 4.79268Z" fill="#2C4D51"/>
<path d="M317.007 14.6265L307.651 9.21896L317.007 3.81152L326.363 9.21896L317.007 14.6265ZM312.681 9.21896L317.007 11.7341L321.333 9.21896L317.007 6.70383L312.681 9.21896Z" fill="#2C4D51"/>
</svg>
