<svg width="390" height="175" viewBox="0 0 390 175" fill="none" xmlns="http://www.w3.org/2000/svg">
<path d="M60.8315 160.636H59.9927V170.098H60.8315V160.636Z" fill="#2C4D51"/>
<path d="M63.0039 162.013H62.165V170.107H63.0039V162.013Z" fill="#2C4D51"/>
<path d="M65.1767 160.636H64.3379V170.098H65.1767V160.636Z" fill="#2C4D51"/>
<path d="M67.3491 159.261H66.5103V170.098H67.3491V159.261Z" fill="#2C4D51"/>
<path d="M69.5214 162.013H68.6826V170.107H69.5214V162.013Z" fill="#2C4D51"/>
<path d="M71.6938 160.636H70.855V170.098H71.6938V160.636Z" fill="#2C4D51"/>
<path d="M72.1556 174.787H59.5229V169.679H72.1556V174.787ZM60.3618 173.948H71.3168V170.518H60.3618V173.948Z" fill="#2C4D51"/>
<path d="M7.57466 159.68H6.73584V164.906H7.57466V159.68Z" fill="#2C4D51"/>
<path d="M9.77273 161.878H4.54688V162.717H9.77273V161.878Z" fill="#2C4D51"/>
<path d="M12.2806 165.325H2.03857V159.261H12.2806V165.325ZM2.87739 164.487H11.4418V160.1H2.87739V164.487Z" fill="#2C4D51"/>
<path d="M7.57466 164.906H6.73584V174.788H7.57466V164.906Z" fill="#2C4D51"/>
<path d="M6.79882 164.689L2.10107 172.415L2.81781 172.851L7.51556 165.124L6.79882 164.689Z" fill="#2C4D51"/>
<path d="M7.5085 164.699L6.79199 165.135L11.4938 172.859L12.2103 172.423L7.5085 164.699Z" fill="#2C4D51"/>
<path d="M40.9014 163.219L37.0596 161.742L37.3615 160.954L40.9014 162.313L44.4328 160.945L44.7348 161.725L40.9014 163.219Z" fill="#2C4D51"/>
<path d="M40.9011 160.132L38.0659 159.042L38.3679 158.254L40.9011 159.235L43.4344 158.245L43.7363 159.034L40.9011 160.132Z" fill="#2C4D51"/>
<path d="M40.9013 157.045L39.0811 156.34L39.383 155.56L40.9013 156.147L42.4196 155.552L42.7299 156.332L40.9013 157.045Z" fill="#2C4D51"/>
<path d="M40.9012 167.027L33.2847 164.351L36.3128 162.548L40.9012 150.284L45.4895 162.548L48.5093 164.334L40.8928 167.027H40.9012ZM35.2559 164.15L40.9012 166.138L46.5464 164.141L44.8101 163.118L40.9095 152.675L37.0006 163.118L35.2559 164.158V164.15Z" fill="#2C4D51"/>
<path d="M17 141.967H-17V142.967H17V141.967Z" fill="#2C4D51"/>
<path d="M20 145.967C17.7956 145.967 16 144.396 16 142.467C16 140.538 17.7956 138.967 20 138.967C22.2044 138.967 24 140.538 24 142.467C24 144.396 22.2044 145.967 20 145.967ZM20 139.745C18.2844 139.745 16.8889 140.966 16.8889 142.467C16.8889 143.968 18.2844 145.189 20 145.189C21.7156 145.189 23.1111 143.968 23.1111 142.467C23.1111 140.966 21.7156 139.745 20 139.745Z" fill="#2C4D51"/>
<path d="M84.9565 39.4521H84.1177V44.0657H84.9565V39.4521Z" fill="#2C4D51"/>
<path d="M89.8383 39.4521H88.9995V44.0657H89.8383V39.4521Z" fill="#2C4D51"/>
<path d="M92.6234 44.0656H91.7846C91.7846 41.4149 89.6289 39.2675 86.9866 39.2675C84.3443 39.2675 82.1801 41.4233 82.1801 44.0656H81.3413C81.3413 40.9536 83.8745 38.4287 86.9866 38.4287C90.0986 38.4287 92.6234 40.962 92.6234 44.0656Z" fill="#2C4D51"/>
<path d="M91.3987 32.876H82.5659V33.7148H91.3987V32.876Z" fill="#2C4D51"/>
<path d="M86.9781 37.6406C84.9146 37.6406 83.3208 35.3003 83.3208 33.2871C83.3208 31.274 84.9649 29.6299 86.9781 29.6299C88.9912 29.6299 90.6353 31.274 90.6353 33.2871C90.6353 35.3003 89.0332 37.6406 86.9781 37.6406ZM86.9781 30.4687C85.4262 30.4687 84.1596 31.7353 84.1596 33.2871C84.1596 34.839 85.4598 36.8018 86.9781 36.8018C88.4963 36.8018 89.7965 34.8725 89.7965 33.2871C89.7965 31.7018 88.5299 30.4687 86.9781 30.4687Z" fill="#2C4D51"/>
<path d="M87.3969 28.9668H86.5581V31.8943H87.3969V28.9668Z" fill="#2C4D51"/>
<path d="M5.12601 41.154H-2.37305V38.042H5.12601V41.154ZM-1.54261 40.3152H4.28719V38.8808H-1.53423V40.3152H-1.54261Z" fill="#2C4D51"/>
<path d="M11.7946 41.154H4.28711V38.042H11.7946V41.154ZM5.12593 40.3152H10.9557V38.8808H5.12593V40.3152Z" fill="#2C4D51"/>
<path d="M5.12601 45.6921H-2.37305V42.5801H5.12601V45.6921ZM-1.54261 44.8533H4.28719V43.4189H-1.53423V44.8533H-1.54261Z" fill="#2C4D51"/>
<path d="M11.7946 45.6921H4.28711V42.5801H11.7946V45.6921ZM5.12593 44.8533H10.9557V43.4189H5.12593V44.8533Z" fill="#2C4D51"/>
<path d="M2.668 43.4275H-4.83105V40.3154H2.668V43.4275ZM-4.00062 42.5886H1.82918V41.1543H-3.99223V42.5886H-4.00062Z" fill="#2C4D51"/>
<path d="M9.33654 43.4275H1.8291V40.3154H9.33654V43.4275ZM2.66792 42.5886H8.49772V41.1543H2.66792V42.5886Z" fill="#2C4D51"/>
<path d="M5.12601 36.6335H-2.37305V33.5215H5.12601V36.6335ZM-1.54261 35.7947H4.28719V34.3603H-1.53423V35.7947H-1.54261Z" fill="#2C4D51"/>
<path d="M11.7946 36.6335H4.28711V33.5215H11.7946V36.6335ZM5.12593 35.7947H10.9557V34.3603H5.12593V35.7947Z" fill="#2C4D51"/>
<path d="M2.668 38.9069H-4.83105V35.7949H2.668V38.9069ZM-4.00062 38.0681H1.82918V36.6337H-3.99223V38.0681H-4.00062Z" fill="#2C4D51"/>
<path d="M9.33654 38.9069H1.8291V35.7949H9.33654V38.9069ZM2.66792 38.0681H8.49772V36.6337H2.66792V38.0681Z" fill="#2C4D51"/>
<path d="M41.4723 37.7069V32.783H32.6731V30.5518H28.9487V32.783H25.3418V35.6853H28.9487V45.4912H29.7875V43.1676H31.8343V45.4912H32.6731V35.6853H40.6335V37.7069C39.9373 37.8914 39.4172 38.5289 39.4172 39.2839H40.256C40.256 38.8393 40.6167 38.487 41.0529 38.487C41.4891 38.487 41.8498 38.8477 41.8498 39.2839H42.6886C42.6886 38.5289 42.1685 37.8914 41.4723 37.7069ZM29.7792 31.3906H31.8259V32.783H29.7792V31.3906ZM29.7792 38.185H31.8259V39.8375H29.7792V38.185ZM29.7792 37.3462V35.6937H31.8259V37.3462H29.7792ZM31.8259 34.8549H29.7792V33.6302H31.8259V34.8549ZM26.1638 34.8549V33.6302H28.9319V34.8549H26.1638ZM29.7708 42.3372V40.6847H31.8175V42.3372H29.7708ZM32.6563 33.6302H40.6167V34.8549H32.6563V33.6302Z" fill="#2C4D51"/>
<path d="M56.8308 51.2543H38.0076L31.8255 45.8271H-19.9297V44.9883H32.1359L38.3264 50.4154H56.6714L70.1429 44.9883H73.4478V45.8271H70.2267L56.8308 51.2543Z" fill="#2C4D51"/>
<path d="M99.8119 47.37H73.02V43.4443H99.8119V47.37ZM73.8588 46.5312H98.9731V44.2832H73.8588V46.5312Z" fill="#2C4D51"/>
<path d="M53.031 45.7509L48.9795 43.4106V38.73L53.031 36.3896L57.0825 38.73V43.4106L53.031 45.7509ZM49.8183 42.9241L53.031 44.7779L56.2437 42.9241V39.2165L53.031 37.3627L49.8183 39.2165V42.9241Z" fill="#2C4D51"/>
<path d="M61 134.967L53 129.967L61 124.967V134.958V134.967ZM54.6842 129.967L60.1579 133.382V126.542L54.6842 129.958V129.967Z" fill="#2C4D51"/>
<path d="M57.2078 100.812H56.369V89.7143L52.5859 86.0067L53.1731 85.4111L57.2078 89.362V100.812Z" fill="#2C4D51"/>
<path d="M52.2241 86.4223L51.0376 87.6084L53.042 89.6135L54.2285 88.4275L52.2241 86.4223Z" fill="#2C4D51"/>
<path d="M33.8553 100.794H21.6337L21.2646 100.174L24.7038 93.9328L27.3377 85.1504H28.143L30.7769 93.9328L34.216 100.174L33.847 100.794H33.8553ZM22.3467 99.9556H33.1507L29.9968 94.218L27.7487 86.7274L25.4671 94.2935L22.3467 99.9472V99.9556Z" fill="#2C4D51"/>
<path d="M33.5955 91.8195L31.2468 90.2509H24.1336L21.8856 91.7189L21.4326 91.0143L23.8904 89.4121H31.5069L34.0653 91.1149L33.5955 91.8195Z" fill="#2C4D51"/>
<path d="M31.0791 87.2061L29.5693 85.6962H25.8197L24.4105 87.1055L23.8149 86.5099L25.4758 84.8574H29.9132L31.6747 86.6106L31.0791 87.2061Z" fill="#2C4D51"/>
<path d="M34.4173 96.0891L32.0686 94.5205H23.3197L21.0716 95.9884L20.6187 95.2838L23.068 93.6816H32.3286L34.887 95.3845L34.4173 96.0891Z" fill="#2C4D51"/>
<path d="M26.9264 99.4775L26.356 98.8567L27.7652 97.5733H26.6412L26.3643 96.8352L28.5788 94.9395L29.1241 95.577L27.7736 96.7345H28.8556L29.1325 97.4643L26.9264 99.4775Z" fill="#2C4D51"/>
<path d="M69.6979 99.9814H-3.40527V100.82H69.6979V99.9814Z" fill="#2C4D51"/>
<path d="M13.6982 74.9087V67.1748L20.4004 71.0418L13.6982 74.9087ZM14.5371 68.626V73.4576L18.7228 71.0418L14.5371 68.626Z" fill="#2C4D51"/>
<path d="M305 152.451H288.347V145.69L305 139.656V152.451ZM289.257 151.541H304.09V140.948L289.257 146.318V151.532V151.541Z" fill="#2C4D51"/>
<path d="M313.882 156.519H304.081V142.204H313.882V156.519ZM304.991 155.609H312.972V143.114H304.991V155.609Z" fill="#2C4D51"/>
<path d="M291.323 151.996H290.413V156.519H291.323V151.996Z" fill="#2C4D51"/>
<path d="M294.171 144.088H293.261V156.519H294.171V144.088Z" fill="#2C4D51"/>
<path d="M299.922 142.141H299.012V151.996H299.922V142.141Z" fill="#2C4D51"/>
<path d="M297.028 151.996H296.118V156.519H297.028V151.996Z" fill="#2C4D51"/>
<path d="M313.436 144.353H304.545V145.263H313.436V144.353Z" fill="#2C4D51"/>
<path d="M313.436 146.664H304.545V147.574H313.436V146.664Z" fill="#2C4D51"/>
<path d="M313.436 148.984H304.545V149.894H313.436V148.984Z" fill="#2C4D51"/>
<path d="M313.436 151.296H304.545V152.206H313.436V151.296Z" fill="#2C4D51"/>
<path d="M313.436 153.607H304.545V154.517H313.436V153.607Z" fill="#2C4D51"/>
<path d="M324.521 153.752H312.973V142.213H324.521V153.752ZM313.883 152.842H323.611V143.123H313.883V152.842Z" fill="#2C4D51"/>
<path d="M319.207 145.07H318.297V159.048H319.207V145.07Z" fill="#2C4D51"/>
<path d="M316.181 146.892L315.537 147.535L318.465 150.463L319.108 149.82L316.181 146.892Z" fill="#2C4D51"/>
<path d="M320.355 149.78L318.425 151.711L319.068 152.354L320.999 150.424L320.355 149.78Z" fill="#2C4D51"/>
<path d="M384.29 161.195C381.241 161.195 378.757 158.71 378.757 155.662C378.757 152.613 381.241 150.129 384.29 150.129C387.338 150.129 389.823 152.613 389.823 155.662C389.823 158.71 387.338 161.195 384.29 161.195ZM384.29 151.03C381.742 151.03 379.667 153.105 379.667 155.653C379.667 158.201 381.742 160.276 384.29 160.276C386.838 160.276 388.913 158.201 388.913 155.653C388.913 153.105 386.838 151.03 384.29 151.03Z" fill="#2C4D51"/>
<path d="M384.745 155.662H383.835V166.965H384.745V155.662Z" fill="#2C4D51"/>
<path d="M385.844 156.175L383.974 158.076L384.622 158.714L386.492 156.814L385.844 156.175Z" fill="#2C4D51"/>
<path d="M365.752 170.067H364.842V150.374L370.111 145.196L370.748 145.852L365.752 150.757V170.067Z" fill="#2C4D51"/>
<path d="M371.424 146.593L368.786 149.231L370.073 150.518L372.711 147.88L371.424 146.593Z" fill="#2C4D51"/>
<path d="M365.753 170.067H364.843V150.757L359.847 145.852L360.484 145.196L365.753 150.374V170.067Z" fill="#2C4D51"/>
<path d="M359.173 146.618L357.886 147.905L360.524 150.544L361.811 149.257L359.173 146.618Z" fill="#2C4D51"/>
<path d="M330.297 161.731C328.413 160.985 327.494 158.837 328.25 156.953C329.005 155.07 331.144 154.151 333.027 154.906C334.911 155.652 335.83 157.8 335.075 159.684C334.329 161.567 332.181 162.486 330.297 161.731ZM332.718 155.652C331.253 155.07 329.578 155.789 328.987 157.254C328.395 158.719 329.123 160.393 330.588 160.985C332.054 161.576 333.728 160.848 334.32 159.383C334.911 157.918 334.183 156.244 332.718 155.652Z" fill="#2C4D51"/>
<path d="M342.237 166.492C340.353 165.746 339.434 163.598 340.189 161.714C340.944 159.83 343.083 158.911 344.967 159.667C346.851 160.413 347.77 162.561 347.014 164.444C346.259 166.328 344.12 167.247 342.237 166.492ZM344.657 160.413C343.192 159.83 341.518 160.549 340.926 162.015C340.335 163.48 341.063 165.154 342.528 165.746C343.993 166.328 345.668 165.609 346.259 164.144C346.851 162.679 346.123 161.004 344.657 160.413Z" fill="#2C4D51"/>
<path d="M337.486 161.077L331.517 158.674V157.928L337.086 155.753H337.386L343.356 158.137V158.883L337.796 161.086H337.496L337.486 161.077ZM332.754 158.301L337.632 160.267L342.1 158.501L337.222 156.554L332.745 158.301H332.754Z" fill="#2C4D51"/>
<path d="M337.439 153.719L336.642 153.789L337.248 160.724L338.046 160.655L337.439 153.719Z" fill="#2C4D51"/>
<path d="M343.401 156.092L342.604 156.162L343.21 163.097L344.008 163.028L343.401 156.092Z" fill="#2C4D51"/>
<path d="M335.836 152.848L335.539 153.592L338.21 154.657L338.507 153.913L335.836 152.848Z" fill="#2C4D51"/>
<path d="M341.797 155.238L341.5 155.981L344.171 157.047L344.468 156.303L341.797 155.238Z" fill="#2C4D51"/>
<path d="M377.833 169.967L349.371 169.93L324.164 159.894H312V158.967L324.418 159.004L349.616 169.039H377.661L398.309 160.506H432V161.434H398.39L377.833 169.967Z" fill="#2C4D51"/>
<path d="M319 159.967H288V155.967H319V159.967ZM288.901 159.112H318.099V156.821H288.901V159.112Z" fill="#2C4D51"/>
<path d="M325.5 131.967C324.126 131.967 323 130.849 323 129.467C323 128.084 324.118 126.967 325.5 126.967C326.882 126.967 328 128.084 328 129.467C328 130.849 326.882 131.967 325.5 131.967ZM325.5 127.803C324.581 127.803 323.828 128.548 323.828 129.475C323.828 130.402 324.573 131.147 325.5 131.147C326.427 131.147 327.172 130.402 327.172 129.475C327.172 128.548 326.427 127.803 325.5 127.803Z" fill="#2C4D51"/>
<path d="M358.672 96.2464C356.961 96.2464 355.568 94.8541 355.568 93.1432C355.568 91.4324 356.961 90.04 358.672 90.04C360.382 90.04 361.775 91.4324 361.775 93.1432C361.775 94.8541 360.382 96.2464 358.672 96.2464ZM358.672 90.941C357.461 90.941 356.478 91.9238 356.478 93.1341C356.478 94.3445 357.461 95.3273 358.672 95.3273C359.882 95.3273 360.865 94.3445 360.865 93.1341C360.865 91.9238 359.882 90.941 358.672 90.941Z" fill="#2C4D51"/>
<path d="M360.324 95.1818L359.479 95.5205L363.334 105.133L364.178 104.794L360.324 95.1818Z" fill="#2C4D51"/>
<path d="M356.829 95.176L352.965 104.784L353.809 105.124L357.674 95.5156L356.829 95.176Z" fill="#2C4D51"/>
<path d="M363.259 98.2666H354.04V99.1766H363.259V98.2666Z" fill="#2C4D51"/>
<path d="M359.127 88.5566H358.217V90.495H359.127V88.5566Z" fill="#2C4D51"/>
<path d="M369.083 105.156H387.02V87.2197L369.083 105.156ZM386.11 104.246H371.276L386.11 89.4129V104.246Z" fill="#2C4D51"/>
<path d="M376.937 101.762H383.625V95.0732L376.937 101.762ZM382.715 100.852H379.13L382.715 97.2664V100.852Z" fill="#2C4D51"/>
<path d="M337.914 102.89H337.004V104.637H337.914V102.89Z" fill="#2C4D51"/>
<path d="M341.936 103.646H341.026V104.637H341.936V103.646Z" fill="#2C4D51"/>
<path d="M333.883 103.646H332.973V104.637H333.883V103.646Z" fill="#2C4D51"/>
<path d="M344.612 97.9121H342.865V98.8221H344.612V97.9121Z" fill="#2C4D51"/>
<path d="M344.621 93.8896H343.629V94.7997H344.621V93.8896Z" fill="#2C4D51"/>
<path d="M344.621 101.935H343.629V102.845H344.621V101.935Z" fill="#2C4D51"/>
<path d="M337.869 91.9971H336.959V93.7443H337.869V91.9971Z" fill="#2C4D51"/>
<path d="M341.891 91.9971H340.981V92.989H341.891V91.9971Z" fill="#2C4D51"/>
<path d="M333.847 91.9971H332.937V92.989H333.847V91.9971Z" fill="#2C4D51"/>
<path d="M330.216 105.202C328.395 105.202 326.912 103.718 326.912 101.898H327.822C327.822 103.218 328.896 104.292 330.216 104.292V105.202Z" fill="#2C4D51"/>
<path d="M327.813 101.898H326.903V91.2145C326.903 89.3945 328.387 87.9111 330.207 87.9111H330.662V99.5049H330.207C328.887 99.5049 327.813 100.579 327.813 101.898ZM329.752 88.8576C328.651 89.0669 327.813 90.0406 327.813 91.2054V99.6141C328.314 99.0863 328.996 98.7223 329.752 98.6131V88.8485V88.8576Z" fill="#2C4D51"/>
<path d="M345.067 105.202H330.216V104.292H344.157V92.452H330.216V91.542H345.067V105.202Z" fill="#2C4D51"/>
<path d="M390.459 104.291H339.962V105.201H390.459V104.291Z" fill="#2C4D51"/>
<path d="M369.63 80.1847L366.699 78.492V75.1067L369.63 73.4141L372.56 75.1067V78.492L369.63 80.1847ZM367.609 77.9642L369.63 79.1291L371.65 77.9642V75.6254L369.63 74.4606L367.609 75.6254V77.9642Z" fill="#2C4D51"/>
<path d="M352.5 163.967L349 161.967L352.5 159.967L356 161.967L352.5 163.967ZM350.882 161.967L352.5 162.897L354.118 161.967L352.5 161.037L350.882 161.967Z" fill="#2C4D51"/>
<path d="M343.045 32.791H339.178V33.701H343.045V32.791Z" fill="#2C4D51"/>
<path d="M343.045 35.5938H339.178V36.5038H343.045V35.5938Z" fill="#2C4D51"/>
<path d="M343.045 38.4062H339.178V39.3163H343.045V38.4062Z" fill="#2C4D51"/>
<path d="M343.045 41.209H339.178V42.119H343.045V41.209Z" fill="#2C4D51"/>
<path d="M336.259 32.2656L335.069 32.8145L335.45 33.6408L336.64 33.092L336.259 32.2656Z" fill="#2C4D51"/>
<path d="M336.256 34.4492L335.066 34.998L335.448 35.8244L336.637 35.2756L336.256 34.4492Z" fill="#2C4D51"/>
<path d="M336.26 36.6328L335.07 37.1816L335.451 38.008L336.641 37.4592L336.26 36.6328Z" fill="#2C4D51"/>
<path d="M334.61 46.2776H333.7V31.3531L337.577 29.4238L343.501 30.2429V46.2685H342.591V31.0346L337.732 30.3703L334.61 31.9173V46.2776Z" fill="#2C4D51"/>
<path d="M338.113 29.8965H337.203V46.277H338.113V29.8965Z" fill="#2C4D51"/>
<path d="M351.955 47.2138H342.591V37.8496H351.955V47.2138ZM343.501 46.3038H351.045V38.7596H343.501V46.3038Z" fill="#2C4D51"/>
<path d="M360.409 47.2144H351.045V29.9238H360.409V47.2144ZM351.955 46.3044H359.499V30.8339H351.955V46.3044Z" fill="#2C4D51"/>
<path d="M345.949 40.2881H345.039V41.6986H345.949V40.2881Z" fill="#2C4D51"/>
<path d="M348.952 40.2881H348.042V41.6986H348.952V40.2881Z" fill="#2C4D51"/>
<path d="M354.684 37.7041H353.774V39.1146H354.684V37.7041Z" fill="#2C4D51"/>
<path d="M357.687 37.7041H356.777V39.1146H357.687V37.7041Z" fill="#2C4D51"/>
<path d="M354.684 40.5713H353.774V41.9818H354.684V40.5713Z" fill="#2C4D51"/>
<path d="M357.687 40.5713H356.777V41.9818H357.687V40.5713Z" fill="#2C4D51"/>
<path d="M354.684 43.4277H353.774V44.8383H354.684V43.4277Z" fill="#2C4D51"/>
<path d="M357.687 43.4277H356.777V44.8383H357.687V43.4277Z" fill="#2C4D51"/>
<path d="M348.952 47.2137H345.039V42.9365H348.952V47.2137ZM345.949 46.3036H348.042V43.8466H345.949V46.3036Z" fill="#2C4D51"/>
<path d="M357.687 32.3438H356.777V36.1477H357.687V32.3438Z" fill="#2C4D51"/>
<path d="M354.684 32.3438H353.774V36.1477H354.684V32.3438Z" fill="#2C4D51"/>
<path d="M357.233 33.7998H354.229V34.7098H357.233V33.7998Z" fill="#2C4D51"/>
<path d="M372.731 35.7656H371.821V47.1046H372.731V35.7656Z" fill="#2C4D51"/>
<path d="M372.731 35.7661H371.821C371.821 33.2362 369.764 31.1796 367.234 31.1796V30.2695C370.265 30.2695 372.731 32.7357 372.731 35.7661Z" fill="#2C4D51"/>
<path d="M365.46 36.085L364.813 35.4389C366.961 33.2912 370.447 33.2912 372.594 35.4389L371.948 36.085C370.155 34.2922 367.243 34.2922 365.46 36.085Z" fill="#2C4D51"/>
<path d="M367.681 40.8071H366.771C366.771 37.7767 369.237 35.3105 372.267 35.3105V36.2206C369.737 36.2206 367.681 38.2772 367.681 40.8071Z" fill="#2C4D51"/>
<path d="M372.731 35.7661H371.821C371.821 32.7357 374.287 30.2695 377.318 30.2695V31.1796C374.788 31.1796 372.731 33.2362 372.731 35.7661Z" fill="#2C4D51"/>
<path d="M379.083 36.085C377.29 34.2922 374.378 34.2922 372.594 36.085L371.948 35.4389C374.096 33.2912 377.581 33.2912 379.729 35.4389L379.083 36.085Z" fill="#2C4D51"/>
<path d="M377.773 40.8071H376.863C376.863 38.2772 374.806 36.2206 372.276 36.2206V35.3105C375.307 35.3105 377.773 37.7767 377.773 40.8071Z" fill="#2C4D51"/>
<path d="M390.349 46.3135H311.04V47.2235H390.349V46.3135Z" fill="#2C4D51"/>
<path d="M381.986 22.8799L378.601 20.9234L381.986 18.9668L385.371 20.9234L381.986 22.8799ZM380.421 20.9234L381.986 21.8334L383.551 20.9234L381.986 20.0133L380.421 20.9234Z" fill="#2C4D51"/>
<path d="M328.403 46.9407H327.493C327.493 45.4847 326.301 44.3016 324.845 44.3016C323.389 44.3016 322.206 45.4847 322.206 46.9407H321.296C321.296 44.9842 322.888 43.3916 324.845 43.3916C326.802 43.3916 328.403 44.9842 328.403 46.9407Z" fill="#2C4D51"/>
</svg>
