<svg width="1512" height="327" viewBox="0 0 1512 327" fill="none" xmlns="http://www.w3.org/2000/svg">
<path d="M1380.08 104.051H1369.39V106.566H1380.08V104.051Z" fill="#2C4D51"/>
<path d="M1380.08 111.821H1369.39V114.336H1380.08V111.821Z" fill="#2C4D51"/>
<path d="M1380.08 119.568H1369.39V122.083H1380.08V119.568Z" fill="#2C4D51"/>
<path d="M1380.08 127.34H1369.39V129.855H1380.08V127.34Z" fill="#2C4D51"/>
<path d="M1361.24 102.698L1357.95 104.215L1359 106.499L1362.29 104.982L1361.24 102.698Z" fill="#2C4D51"/>
<path d="M1361.22 108.733L1357.94 110.25L1358.99 112.534L1362.28 111.017L1361.22 108.733Z" fill="#2C4D51"/>
<path d="M1361.24 114.768L1357.95 116.285L1359 118.569L1362.29 117.052L1361.24 114.768Z" fill="#2C4D51"/>
<path d="M1356.74 141.349H1354.22V100.101L1364.96 94.7686L1381.33 97.0322V141.324H1378.82V99.2204L1365.36 97.3592L1356.74 101.66V141.349Z" fill="#2C4D51"/>
<path d="M1366.42 96.0508H1363.9V141.323H1366.42V96.0508Z" fill="#2C4D51"/>
<path d="M1404.7 143.94H1378.82V118.06H1404.7V143.94ZM1381.33 141.425H1402.18V120.575H1381.33V141.425Z" fill="#2C4D51"/>
<path d="M1428.04 143.941H1402.16V96.1533H1428.04V143.941ZM1404.67 141.426H1425.52V98.6684H1404.67V141.426Z" fill="#2C4D51"/>
<path d="M1388.07 124.8H1385.56V128.698H1388.07V124.8Z" fill="#2C4D51"/>
<path d="M1396.4 124.8H1393.88V128.698H1396.4V124.8Z" fill="#2C4D51"/>
<path d="M1412.22 117.633H1409.7V121.531H1412.22V117.633Z" fill="#2C4D51"/>
<path d="M1420.52 117.633H1418V121.531H1420.52V117.633Z" fill="#2C4D51"/>
<path d="M1412.22 125.556H1409.7V129.454H1412.22V125.556Z" fill="#2C4D51"/>
<path d="M1420.52 125.556H1418V129.454H1420.52V125.556Z" fill="#2C4D51"/>
<path d="M1412.22 133.478H1409.7V137.376H1412.22V133.478Z" fill="#2C4D51"/>
<path d="M1420.52 133.478H1418V137.376H1420.52V133.478Z" fill="#2C4D51"/>
<path d="M1396.4 143.94H1385.58V132.119H1396.4V143.94ZM1388.1 141.425H1393.88V134.634H1388.1V141.425Z" fill="#2C4D51"/>
<path d="M1420.52 102.844H1418V113.357H1420.52V102.844Z" fill="#2C4D51"/>
<path d="M1412.22 102.844H1409.7V113.357H1412.22V102.844Z" fill="#2C4D51"/>
<path d="M1419.26 106.867H1410.96V109.382H1419.26V106.867Z" fill="#2C4D51"/>
<path d="M1462.09 112.275H1459.58V143.614H1462.09V112.275Z" fill="#2C4D51"/>
<path d="M1462.09 112.275H1459.58C1459.58 105.283 1453.89 99.5991 1446.9 99.5991V97.084C1455.28 97.084 1462.09 103.9 1462.09 112.275Z" fill="#2C4D51"/>
<path d="M1442 113.157L1440.21 111.371C1446.15 105.435 1455.78 105.435 1461.72 111.371L1459.93 113.157C1454.98 108.202 1446.93 108.202 1442 113.157Z" fill="#2C4D51"/>
<path d="M1448.16 126.234H1445.64C1445.64 117.859 1452.46 111.043 1460.84 111.043V113.558C1453.84 113.558 1448.16 119.242 1448.16 126.234Z" fill="#2C4D51"/>
<path d="M1462.09 112.275H1459.58C1459.58 103.9 1466.39 97.084 1474.77 97.084V99.5991C1467.78 99.5991 1462.09 105.283 1462.09 112.275Z" fill="#2C4D51"/>
<path d="M1479.67 113.157C1474.72 108.202 1466.67 108.202 1461.74 113.157L1459.96 111.371C1465.89 105.435 1475.52 105.435 1481.46 111.371L1479.67 113.157Z" fill="#2C4D51"/>
<path d="M1476.05 126.234H1473.54C1473.54 119.242 1467.85 113.558 1460.86 113.558V111.043C1469.24 111.043 1476.05 117.859 1476.05 126.234Z" fill="#2C4D51"/>
<path d="M180.109 150.353H177.594V117.078L166.25 105.961L168.011 104.15L180.109 116.022V150.353Z" fill="#2C4D51"/>
<path d="M165.088 107.301L161.53 110.857L167.54 116.87L171.098 113.313L165.088 107.301Z" fill="#2C4D51"/>
<path d="M207.045 290.12H204.53V318.491H207.045V290.12Z" fill="#2C4D51"/>
<path d="M213.559 294.243H211.044V318.514H213.559V294.243Z" fill="#2C4D51"/>
<path d="M220.074 290.12H217.558V318.491H220.074V290.12Z" fill="#2C4D51"/>
<path d="M226.588 286.021H224.073V318.516H226.588V286.021Z" fill="#2C4D51"/>
<path d="M233.102 294.243H230.587V318.514H233.102V294.243Z" fill="#2C4D51"/>
<path d="M239.616 290.12H237.101V318.491H239.616V290.12Z" fill="#2C4D51"/>
<path d="M241 332.551H203.122V317.234H241V332.551ZM205.637 330.036H238.485V319.75H205.637V330.036Z" fill="#2C4D51"/>
<path d="M47.3599 287.278H44.8447V302.948H47.3599V287.278Z" fill="#2C4D51"/>
<path d="M53.9495 293.844H38.2803V296.359H53.9495V293.844Z" fill="#2C4D51"/>
<path d="M61.4697 304.18H30.76V285.996H61.4697V304.18ZM33.2751 301.665H58.9546V288.511H33.2751V301.665Z" fill="#2C4D51"/>
<path d="M47.3599 302.924H44.8447V332.552H47.3599V302.924Z" fill="#2C4D51"/>
<path d="M45.0196 302.292L30.9338 325.459L33.0829 326.766L47.1687 303.599L45.0196 302.292Z" fill="#2C4D51"/>
<path d="M47.1298 302.329L44.9814 303.637L59.0794 326.796L61.2278 325.489L47.1298 302.329Z" fill="#2C4D51"/>
<path d="M313.31 201.135H310.795V214.968H313.31V201.135Z" fill="#2C4D51"/>
<path d="M327.922 201.135H325.407V214.968H327.922V201.135Z" fill="#2C4D51"/>
<path d="M336.273 214.968H333.757C333.757 207.02 327.294 200.582 319.371 200.582C311.448 200.582 304.959 207.045 304.959 214.968H302.444C302.444 205.637 310.04 198.066 319.371 198.066C328.702 198.066 336.273 205.662 336.273 214.968Z" fill="#2C4D51"/>
<path d="M332.6 181.416H306.116V183.931H332.6V181.416Z" fill="#2C4D51"/>
<path d="M319.37 195.701C313.183 195.701 308.405 188.684 308.405 182.648C308.405 176.611 313.334 171.682 319.37 171.682C325.407 171.682 330.336 176.611 330.336 182.648C330.336 188.684 325.533 195.701 319.37 195.701ZM319.37 174.197C314.718 174.197 310.92 177.995 310.92 182.648C310.92 187.301 314.818 193.186 319.37 193.186C323.923 193.186 327.821 187.401 327.821 182.648C327.821 177.894 324.023 174.197 319.37 174.197Z" fill="#2C4D51"/>
<path d="M320.628 169.695H318.113V178.473H320.628V169.695Z" fill="#2C4D51"/>
<path d="M110.087 150.306H73.4417L72.3351 148.444L82.6471 129.732L90.5446 103.398H92.9591L100.857 129.732L111.169 148.444L110.062 150.306H110.087ZM75.5796 147.79H107.974L98.5175 130.587L91.777 108.127L84.9359 130.813L75.5796 147.765V147.79Z" fill="#2C4D51"/>
<path d="M109.307 123.368L102.265 118.69H80.9366L74.1961 123.066L72.8379 120.954L80.2072 116.175H103.045L110.716 121.28L109.307 123.368Z" fill="#2C4D51"/>
<path d="M101.762 109.56L97.2347 105.007H85.9921L81.7667 109.233L79.981 107.472L84.9609 102.492H98.2659L103.548 107.774L101.762 109.56Z" fill="#2C4D51"/>
<path d="M111.772 136.17L104.73 131.492H78.4969L71.7564 135.868L70.3982 133.755L77.7424 128.977H105.509L113.181 134.082L111.772 136.17Z" fill="#2C4D51"/>
<path d="M89.3123 146.332L87.6021 144.471L91.8275 140.648H88.4572L87.6272 138.434L94.2671 132.75L95.902 134.662L91.8526 138.132H95.0971L95.9271 140.321L89.3123 146.332Z" fill="#2C4D51"/>
<path d="M27.3895 206.237H4.87915V196.906H27.3895V206.237ZM7.39428 203.722H24.8744V199.421H7.39428V203.722Z" fill="#2C4D51"/>
<path d="M47.3603 206.237H24.8499V196.906H47.3603V206.237ZM27.365 203.722H44.8451V199.421H27.365V203.722Z" fill="#2C4D51"/>
<path d="M27.3895 219.845H4.87915V210.514H27.3895V219.845ZM7.39428 217.33H24.8744V213.029H7.39428V217.33Z" fill="#2C4D51"/>
<path d="M47.3603 219.845H24.8499V210.514H47.3603V219.845ZM27.365 217.33H44.8451V213.029H27.365V217.33Z" fill="#2C4D51"/>
<path d="M20.0204 213.054H-2.48999V203.723H20.0204V213.054ZM0.0251372 210.539H17.5053V206.238H0.0251372V210.539Z" fill="#2C4D51"/>
<path d="M39.9905 213.054H17.4801V203.723H39.9905V213.054ZM19.9952 210.539H37.4754V206.238H19.9952V210.539Z" fill="#2C4D51"/>
<path d="M27.3895 192.683H4.87915V183.352H27.3895V192.683ZM7.39428 190.167H24.8744V185.867H7.39428V190.167Z" fill="#2C4D51"/>
<path d="M47.3601 192.683H24.8497V183.352H47.3601V192.683ZM27.3649 190.167H44.845V185.867H27.3649V190.167Z" fill="#2C4D51"/>
<path d="M20.0204 199.498H-2.48999V190.167H20.0204V199.498ZM0.0251372 196.983H17.5053V192.682H0.0251372V196.983Z" fill="#2C4D51"/>
<path d="M39.9904 199.498H17.48V190.167H39.9904V199.498ZM19.9951 196.983H37.4753V192.682H19.9951V196.983Z" fill="#2C4D51"/>
<path d="M182.9 195.902V181.139H156.516V174.448H145.349V181.139H134.534V189.841H145.349V219.243H147.864V212.276H154.001V219.243H156.516V189.841H180.385V195.902C178.297 196.456 176.738 198.367 176.738 200.631H179.253C179.253 199.298 180.335 198.241 181.643 198.241C182.95 198.241 184.032 199.323 184.032 200.631H186.547C186.547 198.367 184.988 196.456 182.9 195.902ZM147.839 176.963H153.976V181.139H147.839V176.963ZM147.839 197.336H153.976V202.291H147.839V197.336ZM147.839 194.821V189.866H153.976V194.821H147.839ZM153.976 187.351H147.839V183.679H153.976V187.351ZM136.999 187.351V183.679H145.299V187.351H136.999ZM147.814 209.786V204.831H153.951V209.786H147.814ZM156.466 183.679H180.335V187.351H156.466V183.679Z" fill="#2C4D51"/>
<path d="M147.286 297.867L135.766 293.44L136.672 291.076L147.286 295.176L157.874 291.051L158.78 293.39L147.286 297.867Z" fill="#2C4D51"/>
<path d="M147.286 288.61L138.81 285.341L139.715 283.002L147.286 285.919L154.881 282.977L155.787 285.316L147.286 288.61Z" fill="#2C4D51"/>
<path d="M147.285 279.357L141.828 277.244L142.733 274.905L147.285 276.666L151.863 274.88L152.768 277.219L147.285 279.357Z" fill="#2C4D51"/>
<path d="M147.286 309.286L124.448 301.263L133.528 295.855L147.286 259.084L161.043 295.855L170.098 301.212L147.26 309.286H147.286ZM130.359 300.659L147.286 306.62L164.212 300.634L159.006 297.565L147.311 266.252L135.59 297.565L130.359 300.684V300.659Z" fill="#2C4D51"/>
<path d="M228.952 236.521H172.513L153.976 220.249H-1.18188V217.733H154.932L173.469 234.006H228.474L268.867 217.733H278.777V220.249H269.119L228.952 236.521Z" fill="#2C4D51"/>
<path d="M75.1519 260.667H-25.2771V263.182H75.1519V260.667Z" fill="#2C4D51"/>
<path d="M217.558 147.865H-1.63501V150.38H217.558V147.865Z" fill="#2C4D51"/>
<path d="M1510.79 141.425H1291.59V143.94H1510.79V141.425Z" fill="#2C4D51"/>
<path d="M357.827 224.876H277.494V213.105H357.827V224.876ZM280.009 222.361H355.312V215.621H280.009V222.361Z" fill="#2C4D51"/>
<path d="M85.2121 273.244C78.9746 273.244 73.894 268.163 73.894 261.925C73.894 255.688 78.9746 250.607 85.2121 250.607C91.4496 250.607 96.5302 255.688 96.5302 261.925C96.5302 268.163 91.4496 273.244 85.2121 273.244ZM85.2121 253.123C80.3579 253.123 76.4092 257.071 76.4092 261.925C76.4092 266.78 80.3579 270.728 85.2121 270.728C90.0663 270.728 94.0151 266.78 94.0151 261.925C94.0151 257.071 90.0663 253.123 85.2121 253.123Z" fill="#2C4D51"/>
<path d="M217.558 220.022L205.41 213.005V198.97L217.558 191.953L229.706 198.97V213.005L217.558 220.022ZM207.925 211.546L217.558 217.104L227.191 211.546V200.429L217.558 194.871L207.925 200.429V211.546Z" fill="#2C4D51"/>
<path d="M270.728 280.06L246.834 266.277L270.728 252.469V280.06ZM251.865 266.277L268.213 275.709V256.845L251.865 266.277Z" fill="#2C4D51"/>
<path d="M1201.25 81.5897L1209.85 66.7002L1218.45 81.5897H1201.25ZM1209.85 69.8189L1203.97 80.0052H1215.74L1209.85 69.8189Z" fill="#2C4D51"/>
<path d="M30.5837 100.631V77.4414L50.6796 89.0363L30.5837 100.631ZM33.0989 81.7927V96.2797L45.6493 89.0363L33.0989 81.7927Z" fill="#2C4D51"/>
<path d="M1235.15 206.34H1189.13V187.653L1235.15 170.978V206.34ZM1191.64 203.825H1232.64V174.549L1191.64 189.388V203.8V203.825Z" fill="#2C4D51"/>
<path d="M1259.73 217.583H1232.64V178.02H1259.73V217.583ZM1235.15 215.067H1257.21V180.535H1235.15V215.067Z" fill="#2C4D51"/>
<path d="M1197.35 205.082H1194.84V217.582H1197.35V205.082Z" fill="#2C4D51"/>
<path d="M1205.25 183.227H1202.73V217.583H1205.25V183.227Z" fill="#2C4D51"/>
<path d="M1221.12 177.87H1218.6V205.109H1221.12V177.87Z" fill="#2C4D51"/>
<path d="M1213.12 205.082H1210.61V217.582H1213.12V205.082Z" fill="#2C4D51"/>
<path d="M1258.47 183.956H1233.9V186.471H1258.47V183.956Z" fill="#2C4D51"/>
<path d="M1258.47 190.369H1233.9V192.884H1258.47V190.369Z" fill="#2C4D51"/>
<path d="M1258.47 196.758H1233.9V199.273H1258.47V196.758Z" fill="#2C4D51"/>
<path d="M1258.47 203.146H1233.9V205.661H1258.47V203.146Z" fill="#2C4D51"/>
<path d="M1258.47 209.535H1233.9V212.05H1258.47V209.535Z" fill="#2C4D51"/>
<path d="M1289.1 209.939H1257.19V178.047H1289.1V209.939ZM1259.7 207.424H1286.59V180.562H1259.7V207.424Z" fill="#2C4D51"/>
<path d="M1274.41 185.943H1271.9V224.576H1274.41V185.943Z" fill="#2C4D51"/>
<path d="M1266.08 190.966L1264.3 192.744L1272.39 200.836L1274.17 199.058L1266.08 190.966Z" fill="#2C4D51"/>
<path d="M1277.6 198.967L1272.26 204.303L1274.04 206.081L1279.38 200.746L1277.6 198.967Z" fill="#2C4D51"/>
<path d="M1473.66 224.979C1465.24 224.979 1458.37 218.112 1458.37 209.687C1458.37 201.261 1465.24 194.395 1473.66 194.395C1482.09 194.395 1488.96 201.261 1488.96 209.687C1488.96 218.112 1482.09 224.979 1473.66 224.979ZM1473.66 196.884C1466.62 196.884 1460.89 202.619 1460.89 209.661C1460.89 216.704 1466.62 222.438 1473.66 222.438C1480.71 222.438 1486.44 216.704 1486.44 209.661C1486.44 202.619 1480.71 196.884 1473.66 196.884Z" fill="#2C4D51"/>
<path d="M1474.92 209.687H1472.41V240.924H1474.92V209.687Z" fill="#2C4D51"/>
<path d="M1477.91 211.222L1472.74 216.476L1474.53 218.239L1479.7 212.986L1477.91 211.222Z" fill="#2C4D51"/>
<path d="M1422.4 249.528H1419.89V195.075L1434.45 180.789L1436.21 182.575L1422.4 196.131V249.528Z" fill="#2C4D51"/>
<path d="M1438.11 184.609L1430.82 191.9L1434.37 195.457L1441.66 188.166L1438.11 184.609Z" fill="#2C4D51"/>
<path d="M1422.4 249.528H1419.89V196.131L1406.08 182.575L1407.84 180.789L1422.4 195.075V249.528Z" fill="#2C4D51"/>
<path d="M1404.15 184.848L1400.6 188.405L1407.89 195.697L1411.44 192.14L1404.15 184.848Z" fill="#2C4D51"/>
<path d="M1324.42 226.462C1319.21 224.4 1316.67 218.464 1318.76 213.258C1320.84 208.051 1326.76 205.511 1331.96 207.599C1337.17 209.661 1339.71 215.597 1337.62 220.803C1335.56 226.009 1329.62 228.55 1324.42 226.462ZM1331.11 209.661C1327.06 208.051 1322.43 210.038 1320.79 214.088C1319.16 218.137 1321.17 222.765 1325.22 224.4C1329.27 226.009 1333.9 224.023 1335.53 219.973C1337.17 215.924 1335.16 211.296 1331.11 209.661Z" fill="#2C4D51"/>
<path d="M1357.44 239.639C1352.23 237.577 1349.69 231.641 1351.78 226.435C1353.87 221.228 1359.78 218.688 1364.99 220.775C1370.19 222.838 1372.73 228.774 1370.64 233.98C1368.56 239.186 1362.65 241.726 1357.44 239.639ZM1364.13 222.838C1360.08 221.228 1355.45 223.215 1353.82 227.265C1352.18 231.314 1354.2 235.942 1358.24 237.577C1362.29 239.186 1366.92 237.199 1368.56 233.15C1370.19 229.101 1368.18 224.473 1364.13 222.838Z" fill="#2C4D51"/>
<path d="M1344.29 224.65L1327.79 218.01V215.948L1343.18 209.937H1344.01L1360.51 216.526V218.589L1345.14 224.675H1344.31L1344.29 224.65ZM1331.21 216.979L1344.69 222.412L1357.04 217.532L1343.56 212.15L1331.18 216.979H1331.21Z" fill="#2C4D51"/>
<path d="M1344.26 204.244L1342.05 204.437L1343.73 223.604L1345.94 223.411L1344.26 204.244Z" fill="#2C4D51"/>
<path d="M1360.76 210.804L1358.56 210.997L1360.24 230.164L1362.44 229.972L1360.76 210.804Z" fill="#2C4D51"/>
<path d="M1339.74 201.838L1338.92 203.894L1346.3 206.837L1347.12 204.782L1339.74 201.838Z" fill="#2C4D51"/>
<path d="M1356.19 208.408L1355.37 210.464L1362.75 213.408L1363.57 211.352L1356.19 208.408Z" fill="#2C4D51"/>
<path d="M1455.86 249.526L1376.86 249.45L1306.91 222.211H1273.16V219.696L1307.61 219.797L1377.54 247.011H1455.35L1512.65 223.897H1606.13V226.412H1512.9L1455.86 249.526Z" fill="#2C4D51"/>
<path d="M1274.41 226.839H1157.01V215.068H1274.41V226.839ZM1159.52 224.324H1271.9V217.583H1159.52V224.324Z" fill="#2C4D51"/>
<path d="M1164.6 204.331C1160.43 204.331 1157.01 200.935 1157.01 196.735C1157.01 192.535 1160.4 189.14 1164.6 189.14C1168.8 189.14 1172.2 192.535 1172.2 196.735C1172.2 200.935 1168.8 204.331 1164.6 204.331ZM1164.6 191.68C1161.81 191.68 1159.52 193.943 1159.52 196.76C1159.52 199.577 1161.79 201.841 1164.6 201.841C1167.42 201.841 1169.68 199.577 1169.68 196.76C1169.68 193.943 1167.42 191.68 1164.6 191.68Z" fill="#2C4D51"/>
<path d="M1398.69 232.598L1389.33 227.191L1398.69 221.783L1408.04 227.191L1398.69 232.598ZM1394.36 227.191L1398.69 229.706L1403.01 227.191L1398.69 224.676L1394.36 227.191Z" fill="#2C4D51"/>
<path d="M1487.67 76.6607L1478.32 71.2533L1487.67 65.8457L1497.03 71.2533L1487.67 76.6607ZM1483.35 71.2533L1487.67 73.7684L1492 71.2533L1487.67 68.7382L1483.35 71.2533Z" fill="#2C4D51"/>
<path d="M317.007 91.6265L307.651 86.219L317.007 80.8115L326.363 86.219L317.007 91.6265ZM312.681 86.219L317.007 88.7341L321.333 86.219L317.007 83.7038L312.681 86.219Z" fill="#2C4D51"/>
<path d="M1339.61 143.16H1337.09C1337.09 139.136 1333.8 135.867 1329.77 135.867C1325.75 135.867 1322.48 139.136 1322.48 143.16H1319.96C1319.96 137.753 1324.37 133.352 1329.77 133.352C1335.18 133.352 1339.61 137.753 1339.61 143.16Z" fill="#2C4D51"/>
<mask id="mask0_3003_8121" style="mask-type:luminance" maskUnits="userSpaceOnUse" x="0" y="0" width="1510" height="368">
<path d="M1509.08 0H0V367.988H1509.08V0Z" fill="white"/>
</mask>
<g mask="url(#mask0_3003_8121)">
<path d="M1421.22 301.537C1416.49 301.537 1412.65 297.689 1412.65 292.96C1412.65 288.232 1416.49 284.384 1421.22 284.384C1425.95 284.384 1429.8 288.232 1429.8 292.96C1429.8 297.689 1425.95 301.537 1421.22 301.537ZM1421.22 286.874C1417.88 286.874 1415.16 289.59 1415.16 292.935C1415.16 296.28 1417.88 298.997 1421.22 298.997C1424.57 298.997 1427.28 296.28 1427.28 292.935C1427.28 289.59 1424.57 286.874 1421.22 286.874Z" fill="#2C4D51"/>
<path d="M1425.69 298.65L1423.35 299.586L1434.01 326.152L1436.34 325.216L1425.69 298.65Z" fill="#2C4D51"/>
<path d="M1416.1 298.722L1405.42 325.276L1407.76 326.215L1418.44 299.66L1416.1 298.722Z" fill="#2C4D51"/>
<path d="M1433.9 307.12H1408.42V309.635H1433.9V307.12Z" fill="#2C4D51"/>
<path d="M1422.48 280.26H1419.97V285.617H1422.48V280.26Z" fill="#2C4D51"/>
<path d="M1450 326.138H1499.57V276.564L1450 326.138ZM1497.05 323.622H1456.06L1497.05 282.626V323.622Z" fill="#2C4D51"/>
<path d="M1471.7 316.756H1490.19V298.27L1471.7 316.756ZM1487.67 314.241H1477.76L1487.67 304.331V314.241Z" fill="#2C4D51"/>
<path d="M1363.85 319.899H1361.34V324.728H1363.85V319.899Z" fill="#2C4D51"/>
<path d="M1374.97 321.986H1372.45V324.728H1374.97V321.986Z" fill="#2C4D51"/>
<path d="M1352.71 321.986H1350.2V324.728H1352.71V321.986Z" fill="#2C4D51"/>
<path d="M1382.36 306.142H1377.54V308.657H1382.36V306.142Z" fill="#2C4D51"/>
<path d="M1382.39 295H1379.65V297.515H1382.39V295Z" fill="#2C4D51"/>
<path d="M1382.39 317.259H1379.65V319.774H1382.39V317.259Z" fill="#2C4D51"/>
<path d="M1363.73 289.769H1361.21V294.598H1363.73V289.769Z" fill="#2C4D51"/>
<path d="M1374.84 289.769H1372.33V292.51H1374.84V289.769Z" fill="#2C4D51"/>
<path d="M1352.61 289.769H1350.1V292.51H1352.61V289.769Z" fill="#2C4D51"/>
<path d="M1342.58 326.263C1337.54 326.263 1333.45 322.163 1333.45 317.133H1335.96C1335.96 320.78 1338.93 323.747 1342.58 323.747V326.263Z" fill="#2C4D51"/>
<path d="M1335.94 317.133H1333.42V287.606C1333.42 282.575 1337.52 278.476 1342.55 278.476H1343.81V310.518H1342.55C1338.9 310.518 1335.94 313.486 1335.94 317.133ZM1341.29 281.091C1338.25 281.67 1335.94 284.361 1335.94 287.58V310.82C1337.32 309.361 1339.2 308.355 1341.29 308.054V281.066V281.091Z" fill="#2C4D51"/>
<path d="M1383.62 326.263H1342.58V323.748H1381.11V291.026H1342.58V288.511H1383.62V326.263Z" fill="#2C4D51"/>
<path d="M1451.5 310.718L1443.41 306.04V296.684L1451.5 292.006L1459.6 296.684V306.04L1451.5 310.718ZM1445.92 304.581L1451.5 307.801L1457.09 304.581V298.118L1451.5 294.873L1445.92 298.118V304.581Z" fill="#2C4D51"/>
<path d="M1512.45 323.771H1372.88V326.287H1512.45V323.771Z" fill="#2C4D51"/>
</g>
</svg>
