<svg width="63" height="52" viewBox="0 0 63 52" fill="none" xmlns="http://www.w3.org/2000/svg">
<g filter="url(#filter0_df_1606_2908)">
<path d="M54.2818 18.0872C53.2 17.4449 52.1886 16.9289 51.2252 16.4837C51.2252 16.4837 51.1735 16.4594 51.1413 16.4435C49.2334 15.568 47.5288 15.0036 45.9603 14.4969C42.7788 13.4532 40.4853 12.708 38.2644 9.9509C37.1235 8.53307 35.7441 7.41805 34.2419 6.66862C33.7853 6.42456 33.2585 6.22181 32.6819 6.05535C31.6746 5.74073 30.6367 5.55775 29.5835 5.56792C29.5702 5.56687 29.335 5.57501 28.9561 5.61865C28.7209 5.62677 28.4867 5.62157 28.2437 5.64249L28.1079 5.6652C27.7653 5.75864 27.0858 5.95939 26.3716 6.25792C24.5603 6.95191 22.4265 8.3308 21.1793 11.1207C18.2384 10.5922 16.6726 11.4866 14.7269 12.6057C13.5963 13.2532 12.3184 13.9828 10.4796 14.6009L10.3165 16.0626L17.5331 20.4834C17.8718 20.6913 18.1637 20.9826 18.3715 21.3209L21.8944 27.0101C22.4115 27.8421 23.2095 28.4284 24.1102 28.7345L24.1721 28.7997C24.1721 28.7997 24.1936 28.7814 24.2013 28.7686C24.633 28.9034 25.0812 28.9993 25.5512 28.9897L30.0101 28.8881C30.7081 28.8766 31.3839 29.1448 31.8808 29.64L33.6266 31.3741C34.3346 32.0805 35.253 32.502 36.2388 32.5803C36.372 32.5909 36.5053 32.6015 36.6401 32.5921C37.7809 32.5754 38.8368 32.1097 39.6199 31.2804L48.1368 22.2845C48.3861 22.016 48.6838 21.8118 49.0229 21.6778L54.1787 19.5537L54.2935 18.1083L54.2818 18.0872ZM34.6567 9.04093C34.6807 9.07635 34.793 9.26625 34.7533 9.34354C34.6288 9.56155 33.8662 9.96346 31.8876 9.89343C29.7221 9.81524 26.1124 9.6894 25.4538 8.69865C25.5626 8.42577 26.3755 7.98088 27.3574 7.60307C28.0318 7.38183 28.6302 7.27518 29.0295 7.22647C30.1181 7.19229 31.0875 7.30953 31.909 7.51555C32.4662 7.67377 33.013 7.87807 33.5417 8.14128C34.075 8.43165 34.4719 8.75143 34.6567 9.04093ZM24.1586 9.561C24.989 10.7531 26.8247 11.1871 29.2426 11.3792C30.0419 11.4427 30.9105 11.4782 31.8257 11.5173C34.1383 11.6005 35.596 11.1398 36.157 10.1522C36.1725 10.1266 36.1746 10.0999 36.19 10.0743C36.4691 10.3579 36.7405 10.6543 36.997 10.9696C37.6806 11.8149 38.3774 12.4936 39.1032 13.0607C36.5733 12.7592 34.8429 12.8564 34.0786 12.9431C27.4401 13.6491 24.4044 12.5432 22.7158 11.6919C23.1126 10.8319 23.6104 10.1341 24.1648 9.56816L24.1586 9.561ZM15.5275 14.0032C15.7313 13.8853 15.9207 13.7797 16.1167 13.6746L16.0853 13.7324C16.4128 13.9126 16.8211 14.1729 17.3062 14.4796C19.9797 16.1801 24.9557 19.3571 31.3583 18.6659L31.9058 18.6088C35.1995 18.2404 41.2105 17.5851 46.7991 21.3202L44.1358 24.1317C42.5898 21.8237 38.587 19.4747 32.6196 20.0866C25.6926 20.7965 21.0829 19.9276 14.373 16.6396L12.5641 15.5306C13.7646 15.016 14.7197 14.4685 15.5275 14.0032ZM19.842 20.6133C23.995 21.9151 27.8195 22.2055 32.7796 21.7013C38.3892 21.1214 41.9933 23.4253 42.9653 25.3659L40.2501 28.2403C39.4176 28.3418 38.4178 27.5116 37.2681 26.5422C34.5741 24.2569 30.5456 20.8804 23.9197 26.8291C23.6731 26.642 23.442 26.4292 23.2762 26.1546L19.8481 20.6204L19.842 20.6133ZM36.6027 30.9535C35.9108 30.9723 35.2488 30.6985 34.7519 30.2033L33.0061 28.4693C32.3042 27.77 31.3597 27.3397 30.3806 27.2619C30.2407 27.2508 30.1003 27.2464 29.9593 27.2486L25.769 27.3447C30.84 23.2498 33.6815 25.6205 36.2063 27.7582C37.1104 28.5272 37.9906 29.2607 38.9065 29.6284L38.4163 30.1458C37.9338 30.6504 37.2879 30.9343 36.5899 30.9459L36.6027 30.9535ZM48.3928 20.1598C48.3096 20.1934 48.2383 20.2481 48.1546 20.2884C41.9508 15.8609 35.3174 16.5874 31.7192 16.992L31.1784 17.0496C25.3371 17.6781 20.6732 14.7069 18.166 13.1068C18.0319 13.0224 17.9235 12.9534 17.8022 12.8768C18.7947 12.5333 19.8532 12.4565 21.4061 12.8212C23.9196 14.1738 27.2423 15.2957 34.2463 14.545C35.8149 14.3747 41.5923 14.1298 50.4222 17.9013C50.9331 18.1362 51.4567 18.3789 52.0033 18.6704L48.3999 20.1537L48.3928 20.1598Z" fill="url(#paint0_linear_1606_2908)" fill-opacity="0.5"/>
<g opacity="0.5">
<path d="M54.2316 18.6297L53.3506 29.7202L30.5512 39.1165L9.52791 26.239L10.4089 15.1484L18.2276 20.0059L21.5802 25.1386L24.0273 28.2555L30.9076 27.9642L33.6315 30.2116L36.3815 32.0455L39.1522 30.7507L44.5737 25.028L48.4467 21.0792L54.2316 18.6297Z" fill="url(#paint1_linear_1606_2908)" fill-opacity="0.5"/>
</g>
</g>
<defs>
<filter id="filter0_df_1606_2908" x="0.927832" y="0.967382" width="61.9656" height="50.7493" filterUnits="userSpaceOnUse" color-interpolation-filters="sRGB">
<feFlood flood-opacity="0" result="BackgroundImageFix"/>
<feColorMatrix in="SourceAlpha" type="matrix" values="0 0 0 0 0 0 0 0 0 0 0 0 0 0 0 0 0 0 127 0" result="hardAlpha"/>
<feOffset dy="4"/>
<feGaussianBlur stdDeviation="4.3"/>
<feColorMatrix type="matrix" values="0 0 0 0 0.899414 0 0 0 0 0.835925 0 0 0 0 0.772436 0 0 0 1 0"/>
<feBlend mode="normal" in2="BackgroundImageFix" result="effect1_dropShadow_1606_2908"/>
<feBlend mode="normal" in="SourceGraphic" in2="effect1_dropShadow_1606_2908" result="shape"/>
<feGaussianBlur stdDeviation="1.75" result="effect2_foregroundBlur_1606_2908"/>
</filter>
<linearGradient id="paint0_linear_1606_2908" x1="33.1999" y1="5.82032" x2="31.1065" y2="32.1726" gradientUnits="userSpaceOnUse">
<stop stop-color="#BE894A"/>
<stop offset="1" stop-color="#7F4A15"/>
</linearGradient>
<linearGradient id="paint1_linear_1606_2908" x1="32.3203" y1="16.889" x2="30.5545" y2="39.1168" gradientUnits="userSpaceOnUse">
<stop stop-color="#BE894A"/>
<stop offset="1" stop-color="#7F4A15"/>
</linearGradient>
</defs>
</svg>
