<svg width="313" height="199" viewBox="0 0 313 199" fill="none" xmlns="http://www.w3.org/2000/svg">
<path d="M200.778 63.9934L156.499 41.6758L112.22 63.9934L156.499 86.5153L200.778 63.9934Z" fill="#2E4D51"/>
<path d="M135.197 109.272C134.186 124.725 132.864 140.165 131.34 155.518C130.773 163.111 130.023 170.671 127.819 177.988C125.452 186.599 122.309 192.966 113.71 198.739L112.035 198.573C108.381 194.709 106.557 190.478 105.588 185.808C104.362 177.777 105.904 170.028 108.003 162.372C113.14 147.441 119.035 132.546 127.384 118.921C129.489 115.486 131.902 112.097 134.684 109.055L135.197 109.272Z" fill="url(#paint0_linear_1606_8054)"/>
<path d="M39.0679 169.71C33.1572 153.414 47.5888 136.151 58.6202 125.297C70.4005 113.895 83.3666 102.208 99.6353 97.2422L99.8915 97.6451C89.2106 109.557 80.7485 122.224 72.3718 135.471C68.5112 141.938 64.5719 148.716 59.8893 154.648C54.9461 161.473 49.001 167.346 40.408 170.298C40.408 170.299 39.0679 169.71 39.0679 169.71Z" fill="url(#paint1_linear_1606_8054)"/>
<path d="M1.73505 126.915C-1.74389 109.573 16.9332 93.8531 31.2594 86.5519C33.8774 85.0868 37.3886 83.6305 40.1087 82.3186C49.9886 78.1552 60.5441 75.3803 71.3004 74.539C74.3533 74.4013 77.8189 74.2437 80.8497 74.2892C80.8508 74.2892 80.9318 74.6866 80.9318 74.6866C77.7335 76.2772 74.3023 77.79 71.0397 79.203C61.6845 83.8614 52.4924 88.6741 44.1767 94.8787C37.0202 99.9944 29.4644 107.601 22.9071 113.467C17.0075 119.083 10.8994 124.274 2.88323 127.421L1.73505 126.915Z" fill="url(#paint2_linear_1606_8054)"/>
<path d="M80.8785 52.6762C25.3143 60.5401 19.123 71.3332 0.753251 76.7864L0 76.2336C0.584629 67.8325 7.10541 61.8066 14.1132 57.8874C24.1972 52.0624 36.0651 50.4186 47.5436 49.6238C55.0328 49.1455 62.5343 49.3797 69.9514 50.322C73.64 50.7948 77.3075 51.4075 80.9029 52.3732L80.8785 52.6762Z" fill="url(#paint3_linear_1606_8054)"/>
<path d="M106.309 31.506C95.9324 29.8078 85.5832 28.4026 75.1986 28.5103C67.3898 28.5913 48.0116 30.3406 44.6736 29.5903L44.343 28.9565C53.321 14.5772 78.2959 19.4942 91.8433 24.237C96.9552 26.1006 101.917 28.3083 106.407 31.2896L106.309 31.506Z" fill="url(#paint4_linear_1606_8054)"/>
<path d="M140.16 18.2179C135.604 15.1501 131.157 12.08 126.264 9.79014C121.166 7.39821 116.45 6.69451 112.238 2.71203C112.238 2.71092 112.221 2.2059 112.221 2.2059C114.869 -0.354741 118.35 -0.326993 121.604 0.496585C127.528 2.18592 132.078 6.49472 135.847 10.9012C137.629 13.1344 139.221 15.4919 140.3 18.1158L140.16 18.2179Z" fill="url(#paint5_linear_1606_8054)"/>
<path d="M177.802 109.272C178.814 124.725 180.135 140.165 181.659 155.518C182.226 163.111 182.976 170.671 185.181 177.988C187.548 186.599 190.691 192.966 199.289 198.739L200.964 198.573C204.619 194.709 206.442 190.478 207.412 185.808C208.638 177.777 207.096 170.028 204.997 162.372C199.86 147.441 193.964 132.546 185.615 118.921C183.511 115.486 181.098 112.097 178.316 109.055L177.802 109.272Z" fill="url(#paint6_linear_1606_8054)"/>
<path d="M273.933 169.71C279.844 153.414 265.413 136.151 254.381 125.297C242.6 113.895 229.634 102.208 213.366 97.2422L213.109 97.6451C223.79 109.557 232.252 122.224 240.629 135.471C244.49 141.938 248.429 148.716 253.112 154.648C258.055 161.473 264 167.346 272.593 170.298C272.593 170.299 273.933 169.71 273.933 169.71Z" fill="url(#paint7_linear_1606_8054)"/>
<path d="M311.265 126.915C314.744 109.573 296.067 93.8531 281.741 86.5519C279.123 85.0868 275.612 83.6305 272.891 82.3186C263.012 78.1552 252.456 75.3803 241.7 74.539C238.647 74.4013 235.181 74.2437 232.15 74.2892C232.149 74.2892 232.068 74.6866 232.068 74.6866C235.266 76.2772 238.698 77.79 241.96 79.203C251.316 83.8614 260.508 88.6741 268.823 94.8787C275.98 99.9944 283.536 107.601 290.093 113.467C295.993 119.083 302.101 124.274 310.117 127.421L311.265 126.915Z" fill="url(#paint8_linear_1606_8054)"/>
<path d="M232.122 52.6762C287.686 60.5401 293.877 71.3332 312.247 76.7864L313 76.2336C312.415 67.8325 305.895 61.8066 298.887 57.8874C288.803 52.0624 276.935 50.4186 265.457 49.6238C257.967 49.1455 250.466 49.3797 243.049 50.322C239.36 50.7948 235.693 51.4075 232.097 52.3732L232.122 52.6762Z" fill="url(#paint9_linear_1606_8054)"/>
<path d="M206.69 31.506C217.067 29.8078 227.416 28.4026 237.801 28.5103C245.61 28.5913 264.987 30.3406 268.326 29.5903L268.657 28.9565C259.679 14.5772 234.704 19.4942 221.156 24.237C216.044 26.1006 211.082 28.3083 206.593 31.2896L206.69 31.506Z" fill="url(#paint10_linear_1606_8054)"/>
<path d="M172.839 18.2179C177.395 15.1501 181.843 12.08 186.735 9.79014C191.833 7.39821 196.549 6.69451 200.761 2.71203L200.778 2.2059C198.13 -0.354741 194.649 -0.326993 191.395 0.496585C185.471 2.18592 180.922 6.49472 177.152 10.9012C175.371 13.1344 173.779 15.4919 172.699 18.1158L172.839 18.2179Z" fill="url(#paint11_linear_1606_8054)"/>
<defs>
<linearGradient id="paint0_linear_1606_8054" x1="120.175" y1="-22.7672" x2="120.175" y2="84.3728" gradientUnits="userSpaceOnUse">
<stop offset="0.0028" stop-color="#9D6636"/>
<stop offset="1" stop-color="#BE8848"/>
</linearGradient>
<linearGradient id="paint1_linear_1606_8054" x1="68.7937" y1="-22.7918" x2="68.7937" y2="84.3482" gradientUnits="userSpaceOnUse">
<stop offset="0.0028" stop-color="#9D6636"/>
<stop offset="1" stop-color="#BE8848"/>
</linearGradient>
<linearGradient id="paint2_linear_1606_8054" x1="41.1216" y1="-22.7841" x2="41.1216" y2="84.3559" gradientUnits="userSpaceOnUse">
<stop offset="0.0028" stop-color="#9D6636"/>
<stop offset="1" stop-color="#BE8848"/>
</linearGradient>
<linearGradient id="paint3_linear_1606_8054" x1="40.4515" y1="-22.7631" x2="40.4515" y2="84.3769" gradientUnits="userSpaceOnUse">
<stop offset="0.0028" stop-color="#9D6636"/>
<stop offset="1" stop-color="#BE8848"/>
</linearGradient>
<linearGradient id="paint4_linear_1606_8054" x1="75.375" y1="-22.7759" x2="75.375" y2="84.3641" gradientUnits="userSpaceOnUse">
<stop offset="0.0028" stop-color="#9D6636"/>
<stop offset="1" stop-color="#BE8848"/>
</linearGradient>
<linearGradient id="paint5_linear_1606_8054" x1="126.261" y1="-22.7764" x2="126.261" y2="84.3637" gradientUnits="userSpaceOnUse">
<stop offset="0.0028" stop-color="#9D6636"/>
<stop offset="1" stop-color="#BE8848"/>
</linearGradient>
<linearGradient id="paint6_linear_1606_8054" x1="192.825" y1="-22.7672" x2="192.825" y2="84.3728" gradientUnits="userSpaceOnUse">
<stop offset="0.0028" stop-color="#9D6636"/>
<stop offset="1" stop-color="#BE8848"/>
</linearGradient>
<linearGradient id="paint7_linear_1606_8054" x1="244.207" y1="-22.7918" x2="244.207" y2="84.3482" gradientUnits="userSpaceOnUse">
<stop offset="0.0028" stop-color="#9D6636"/>
<stop offset="1" stop-color="#BE8848"/>
</linearGradient>
<linearGradient id="paint8_linear_1606_8054" x1="271.878" y1="-22.7841" x2="271.878" y2="84.3559" gradientUnits="userSpaceOnUse">
<stop offset="0.0028" stop-color="#9D6636"/>
<stop offset="1" stop-color="#BE8848"/>
</linearGradient>
<linearGradient id="paint9_linear_1606_8054" x1="272.549" y1="-22.7631" x2="272.549" y2="84.3769" gradientUnits="userSpaceOnUse">
<stop offset="0.0028" stop-color="#9D6636"/>
<stop offset="1" stop-color="#BE8848"/>
</linearGradient>
<linearGradient id="paint10_linear_1606_8054" x1="237.625" y1="-22.7759" x2="237.625" y2="84.3641" gradientUnits="userSpaceOnUse">
<stop offset="0.0028" stop-color="#9D6636"/>
<stop offset="1" stop-color="#BE8848"/>
</linearGradient>
<linearGradient id="paint11_linear_1606_8054" x1="186.739" y1="-22.7764" x2="186.739" y2="84.3637" gradientUnits="userSpaceOnUse">
<stop offset="0.0028" stop-color="#9D6636"/>
<stop offset="1" stop-color="#BE8848"/>
</linearGradient>
</defs>
</svg>
