<svg width="88" height="72" viewBox="0 0 88 72" fill="none" xmlns="http://www.w3.org/2000/svg">
<g filter="url(#filter0_df_1606_2920)">
<path d="M66.735 20.5861C66.6372 20.4347 66.5125 20.3 66.405 20.1508L69.3016 17.1672L67.7815 10.796L58.8984 7.73392L53.4362 13.3653C50.8571 12.9834 48.0809 12.8953 45.1941 13.1625L43.8156 7.3847L32.9116 9.98625L34.2901 15.7641C31.5936 16.8289 29.1465 18.1633 27.0274 19.6661L19.6111 17.1074L13.0673 23.8501L14.5873 30.2213L18.519 31.5758C18.4904 31.7574 18.4497 31.9316 18.4308 32.1109L9.3458 34.2785L12.5182 47.5752L21.5935 45.41C21.6913 45.5614 21.8183 45.7059 21.9259 45.855L19.039 48.8364L20.559 55.2076L29.4422 58.2696L34.897 52.6503C37.4784 53.0419 40.262 53.118 43.1585 52.8484L44.5347 58.6165L55.4387 56.015L54.0625 50.2469C56.7687 49.1797 59.2158 47.8454 61.3447 46.3402L68.7489 48.8916L75.2928 42.1488L73.7727 35.7776L69.841 34.4231C69.8696 34.2415 69.92 34.065 69.9366 33.876L79.0119 31.7107L75.8395 18.4139L66.7545 20.5815L66.735 20.5861ZM49.2064 37.434C42.0646 40.4642 34.6023 39.4791 31.2264 36.0592C32.1529 33.1343 35.1136 30.2895 39.1365 28.5792C46.2783 25.5491 53.7406 26.5342 57.1164 29.9541C56.1899 32.879 53.2293 35.7237 49.2064 37.434Z" fill="url(#paint0_linear_1606_2920)" fill-opacity="0.4"/>
<path d="M77.4769 25.3636L75.8222 18.4282L66.7372 20.5958C65.6803 18.9666 64.1746 17.5678 62.3313 16.4347L67.7935 10.8033L58.9103 7.74125L53.4481 13.3726C50.8691 12.9907 48.0928 12.9026 45.206 13.1699L43.8275 7.39204L32.9236 9.99357L34.3021 15.7714C31.6056 16.8363 29.1584 18.1706 27.0394 19.6734L19.6231 17.1147L13.0792 23.8574L20.4955 26.4162C19.3647 28.2692 18.6503 30.1873 18.4428 32.1182L9.35776 34.2858L11.0124 41.2211L20.0877 39.0559C21.1447 40.6851 22.6504 42.0838 24.496 43.2267L19.0412 48.846L27.9243 51.9081L33.3791 46.2888C35.9605 46.6804 38.7442 46.7565 41.6407 46.4869L43.0169 52.255L53.9208 49.6535L52.5446 43.8854C55.2509 42.8182 57.698 41.4838 59.8268 39.9787L67.2311 42.53L73.7749 35.7873L66.3707 33.236C67.5015 31.3829 68.2135 29.4551 68.4211 27.5242L77.4964 25.3589L77.4769 25.3636ZM57.3615 29.0423C56.8293 32.2843 53.6507 35.5511 49.2086 37.4437C39.0893 41.7394 28.2657 37.9991 29.4681 30.6289C30.0003 27.3869 33.1789 24.12 37.621 22.2274C47.7403 17.9317 58.5639 21.672 57.3615 29.0423Z" fill="url(#paint1_linear_1606_2920)" fill-opacity="0.4"/>
</g>
<defs>
<filter id="filter0_df_1606_2920" x="0.745703" y="2.78477" width="86.8663" height="68.4319" filterUnits="userSpaceOnUse" color-interpolation-filters="sRGB">
<feFlood flood-opacity="0" result="BackgroundImageFix"/>
<feColorMatrix in="SourceAlpha" type="matrix" values="0 0 0 0 0 0 0 0 0 0 0 0 0 0 0 0 0 0 127 0" result="hardAlpha"/>
<feOffset dy="4"/>
<feGaussianBlur stdDeviation="4.3"/>
<feColorMatrix type="matrix" values="0 0 0 0 0.899414 0 0 0 0 0.835925 0 0 0 0 0.772436 0 0 0 1 0"/>
<feBlend mode="normal" in2="BackgroundImageFix" result="effect1_dropShadow_1606_2920"/>
<feBlend mode="normal" in="SourceGraphic" in2="effect1_dropShadow_1606_2920" result="shape"/>
<feGaussianBlur stdDeviation="0.75" result="effect2_foregroundBlur_1606_2920"/>
</filter>
<linearGradient id="paint0_linear_1606_2920" x1="38.3782" y1="8.682" x2="49.9818" y2="57.3169" gradientUnits="userSpaceOnUse">
<stop stop-color="#7F4A15"/>
<stop offset="1" stop-color="#BE894A"/>
</linearGradient>
<linearGradient id="paint1_linear_1606_2920" x1="38.3853" y1="8.69048" x2="48.4689" y2="50.9542" gradientUnits="userSpaceOnUse">
<stop stop-color="#7F4A15"/>
<stop offset="1" stop-color="#BE894A"/>
</linearGradient>
</defs>
</svg>
