<svg width="243" height="104" viewBox="0 0 243 104" fill="none" xmlns="http://www.w3.org/2000/svg">
<g filter="url(#filter0_df_1606_2916)">
<path d="M233.479 12.1581L171.177 5.04427L161.527 8.86393L176.295 11.6978L173.646 12.6802L158.945 9.8894L135.685 19.0885L153.94 22.5968L151.307 23.5781L133.118 20.1129L110.137 29.2144L129.469 32.9215L126.837 33.9186L107.555 30.2399L85.2545 39.0747L102.915 42.4637L100.266 43.4459L82.6878 40.0992L58.7945 49.5617L77.6282 53.1748L74.9952 54.156L56.211 50.5715L26.7661 62.2372L45.8093 65.8999L43.1763 66.8812L24.1837 63.2627L9.18306 69.209L9.6889 76.9105L72.2762 90.7892L233.899 18.5497L233.479 12.1581Z" fill="url(#paint0_linear_1606_2916)"/>
</g>
<defs>
<filter id="filter0_df_1606_2916" x="0.583105" y="0.444433" width="241.916" height="102.945" filterUnits="userSpaceOnUse" color-interpolation-filters="sRGB">
<feFlood flood-opacity="0" result="BackgroundImageFix"/>
<feColorMatrix in="SourceAlpha" type="matrix" values="0 0 0 0 0 0 0 0 0 0 0 0 0 0 0 0 0 0 127 0" result="hardAlpha"/>
<feOffset dy="4"/>
<feGaussianBlur stdDeviation="4.3"/>
<feColorMatrix type="matrix" values="0 0 0 0 0.899414 0 0 0 0 0.835925 0 0 0 0 0.772436 0 0 0 1 0"/>
<feBlend mode="normal" in2="BackgroundImageFix" result="effect1_dropShadow_1606_2916"/>
<feBlend mode="normal" in="SourceGraphic" in2="effect1_dropShadow_1606_2916" result="shape"/>
<feGaussianBlur stdDeviation="0.75" result="effect2_foregroundBlur_1606_2916"/>
</filter>
<linearGradient id="paint0_linear_1606_2916" x1="128.765" y1="87.0789" x2="126.658" y2="8.42768" gradientUnits="userSpaceOnUse">
<stop stop-color="#B88444" stop-opacity="0.6"/>
<stop offset="1" stop-color="#DDCCB9"/>
</linearGradient>
</defs>
</svg>
