<svg width="244" height="66" viewBox="0 0 244 66" fill="none" xmlns="http://www.w3.org/2000/svg">
<path d="M31.866 53.564V65C22.9459 65 19.5151 60.5781 19.4388 49.8282L19.2864 29.8533C19.2864 23.9066 18.9052 18.1123 18.1428 16.3588V15.7489L23.4033 8.0486H24.0132C24.0132 14.4528 24.0132 19.4084 24.0132 25.6601V45.2538C24.0132 49.8282 25.0806 53.564 31.866 53.564ZM28.1129 55.6987L31.9249 53.564H41.9886V65H31.9249L28.1129 62.9415V55.6987ZM37.7174 55.6987L41.5294 53.564H51.5931V65H41.5294L37.7174 62.9415V55.6987ZM47.3219 55.6987L51.1339 53.564H61.1976V65H51.1339L47.3219 62.9415V55.6987ZM56.9264 55.6987L60.7384 53.564H70.8021V65H60.7384L56.9264 62.9415V55.6987ZM66.5308 55.6987L70.3428 53.564H80.4065V65H70.3428L66.5308 62.9415V55.6987ZM76.1353 55.6987L79.9473 53.564H90.011V65H79.9473L76.1353 62.9415V55.6987ZM99.8442 26.1175L106.477 32.0643L101.369 37.7823L94.7361 31.8355L99.8442 26.1175ZM102.818 49.2183C103.58 51.8867 106.63 53.564 111.966 53.564V65C107.011 65 102.36 62.1029 100.683 57.2235C99.158 61.7979 94.9648 65 89.5518 65L85.6635 62.8653V55.6987L89.5518 53.564C97.4808 53.564 101.293 51.1243 102.055 42.4329H103.275C103.199 44.7964 103.046 46.6261 102.818 49.2183ZM129.343 20.4757L124.769 26.4987V50.5144C124.769 58.3671 121.185 65 112.037 65L108.225 62.9415V55.6987L112.037 53.564C117.297 53.4877 119.279 52.8016 119.279 51.2768V17.0449C119.051 15.5964 119.279 13.9953 120.499 11.9368L122.787 8.35356H123.701C123.93 13.0042 126.675 18.7985 129.343 20.4757ZM147.79 53.564V65C138.87 65 135.439 60.5781 135.363 49.8282L135.21 29.8533C135.21 23.9066 134.829 18.1123 134.067 16.3588V15.7489L139.327 8.0486H139.937C139.937 14.4528 139.937 19.4084 139.937 25.6601V45.2538C139.937 49.8282 141.004 53.564 147.79 53.564ZM182.309 47.0836H182.233C182.995 53.564 190.162 53.564 192.22 53.564V65C185.588 65 182.004 63.0178 180.022 59.9681C178.421 62.9415 176.058 65 173.008 65C165.689 65 159.818 59.7394 158.827 55.9274C156.769 61.3405 153.872 65 148.001 65L144.189 62.9415V55.6987L148.001 53.564C154.253 53.564 157.15 52.1154 159.818 47.9984C164.774 39.9932 169.043 35.8763 173.694 35.8763C179.031 35.8763 181.776 41.0606 182.309 47.0836ZM162.029 49.2183C166.985 53.564 180.556 56.3086 180.403 53.8689C179.793 48.5321 176.134 45.1776 171.636 45.1776C168.662 45.1776 165.155 46.5499 162.029 49.2183ZM214.864 50.8956L225.995 47.6172L226.529 48.3034L222.793 57.7572C215.017 60.7306 203.657 64.695 192.221 65L188.409 62.9415V55.6987L192.221 53.564H198.32C197.1 51.9629 196.338 49.9044 196.338 47.1598C196.338 37.1723 203.428 31.0731 210.29 31.0731C214.712 31.0731 218.981 33.6653 221.192 39.3833L220.735 40.2982C217.838 39.3833 214.026 38.9259 210.366 38.9259C204.42 38.9259 198.93 40.2219 198.93 42.9666C198.93 46.1687 207.622 53.0303 214.864 50.8956ZM243.74 9.42092L243.969 9.80212L242.521 14.6053C239.547 14.9865 234.592 15.8251 230.703 16.6637V16.2825C231.313 15.2914 232.381 13.9191 234.363 12.928C230.017 9.87836 232.533 0.958265 238.632 0.958265C242.216 0.958265 242.292 4.69403 242.139 6.82876L241.911 6.98124C240.767 6.21884 239.166 5.7614 237.641 5.7614C235.735 5.7614 233.677 6.60004 233.067 7.2862C233.295 9.34468 238.175 10.3358 243.74 9.42092ZM234.515 65.0762V27.5661L239.242 20.3995H240.081V50.0569C240.081 54.8601 237.565 60.4256 235.125 65.0762H234.515Z" fill="#9A6734"/>
</svg>
