<svg width="87" height="70" viewBox="0 0 87 70" fill="none" xmlns="http://www.w3.org/2000/svg">
<g filter="url(#filter0_df_1606_2912)">
<path d="M76.3624 18.2861C74.5402 17.5966 72.8592 17.0807 71.2704 16.66C71.2704 16.66 71.185 16.6369 71.1316 16.6212C67.9869 15.7975 65.2355 15.3937 62.7074 15.0415C57.575 14.3028 53.8768 13.7811 49.7501 10.1714C47.6299 8.31482 45.2269 6.98404 42.7346 6.24382C41.9729 5.99399 41.115 5.82602 40.1908 5.72675C38.5701 5.51698 36.938 5.5162 35.3344 5.81415C35.3138 5.8161 34.9572 5.8916 34.391 6.05975C34.0344 6.13523 33.6758 6.19009 33.3108 6.28715L33.1097 6.35823C32.6122 6.59262 31.6296 7.08103 30.6205 7.72786C28.0438 9.27209 25.159 11.9474 24.0048 16.5372C19.3775 16.5197 17.2291 18.3038 14.5616 20.5323C13.0108 21.8231 11.2572 23.2787 8.61835 24.7145L8.76164 26.9877L20.9542 31.7954C21.5266 32.0216 22.0499 32.3877 22.4574 32.8479L29.3564 40.5807C30.3682 41.7111 31.7426 42.3912 33.1984 42.6166L33.3103 42.6995C33.3103 42.6995 33.3383 42.6657 33.3466 42.6441C34.0412 42.734 34.7505 42.7601 35.4647 42.6195L42.2384 41.2689C43.3 41.064 44.4027 41.2919 45.2934 41.914L48.4212 44.0907C49.6905 44.9783 51.2042 45.375 52.7288 45.23C52.9349 45.2105 53.1409 45.1908 53.344 45.1404C55.0796 44.8091 56.5652 43.8155 57.5372 42.3407L68.1154 26.3358C68.4235 25.8596 68.8229 25.4682 69.3042 25.173L76.5984 20.5505L76.386 18.3151L76.3624 18.2861ZM44.0035 9.75094C44.0496 9.79853 44.2718 10.0581 44.232 10.1866C44.1005 10.5525 43.0451 11.37 40.0086 11.7937C36.6846 12.2552 31.1453 13.0312 29.875 11.6967C29.9678 11.2513 31.0884 10.3548 32.4847 9.51521C33.4541 8.9969 34.3381 8.67379 34.9341 8.4924C36.5854 8.14835 38.0952 8.06724 39.4035 8.16119C40.2958 8.25309 41.1846 8.41807 42.0616 8.67773C42.9529 8.97762 43.644 9.35893 44.0035 9.75094ZM28.1308 13.3593C29.7169 14.9548 32.6332 15.1246 36.3727 14.7692C37.6089 14.6517 38.9432 14.4729 40.3496 14.2872C43.8992 13.7939 45.999 12.7004 46.5899 11.0435C46.6066 11.0003 46.6026 10.9591 46.6193 10.916C47.1211 11.2737 47.6145 11.6529 48.0902 12.0651C49.3595 13.171 50.6044 14.0194 51.8635 14.6897C47.9239 14.9082 45.3107 15.5205 44.1681 15.8577C34.2322 18.7147 29.3053 17.8421 26.5016 16.9963C26.8761 15.5782 27.4483 14.3804 28.1421 13.3686L28.1308 13.3593ZM16.1574 22.4492C16.4366 22.2147 16.6972 22.0029 16.968 21.79L16.9355 21.8867C17.4834 22.0737 18.1761 22.3613 18.9981 22.6989C23.5319 24.5756 31.9734 28.0871 41.5537 25.3159L42.3734 25.082C47.2983 23.6368 56.2909 21.0254 65.8164 25.2238L62.5082 30.2263C59.5312 27.1206 52.796 24.6111 43.8584 27.1445C33.4834 30.0848 26.2195 29.9956 15.1035 26.78L12.0471 25.5736C13.7402 24.4668 15.0501 23.3756 16.1574 22.4492ZM24.5106 31.3742C31.1941 32.2462 37.1053 31.6636 44.5354 29.5645C52.9359 27.1757 59.051 29.7233 61.0538 32.4226L57.6833 37.5349C56.4407 37.9128 54.6931 36.9147 52.6796 35.7444C47.9577 32.9813 40.9079 28.9114 32.3969 39.7615C31.9707 39.5422 31.5612 39.2797 31.2345 38.9053L24.5219 31.3835L24.5106 31.3742ZM52.8476 42.6513C51.7973 42.8654 50.7142 42.6254 49.8235 42.0032L46.6957 39.8266C45.4377 38.9482 43.8817 38.5452 42.3674 38.6892C42.1511 38.7097 41.9357 38.7405 41.7213 38.7817L35.3558 40.052C41.9924 32.4464 46.962 35.3004 51.3862 37.8839C52.9714 38.8143 54.5106 39.697 56.0062 40.0123L55.3973 40.9329C54.7967 41.8319 53.8876 42.4381 52.826 42.643L52.8476 42.6513ZM67.936 23.0266C67.8182 23.1001 67.724 23.2027 67.6072 23.2865C56.9576 18.1971 47.0349 21.084 41.6553 22.6659L40.8459 22.8988C32.1049 25.4239 24.1946 22.1427 19.9414 20.3744C19.7143 20.2817 19.5304 20.2056 19.3248 20.1212C20.7466 19.3312 22.3404 18.9302 24.8068 19.07C29.0032 20.459 34.372 21.2793 44.8535 18.2561C47.2003 17.5757 55.9466 15.6529 70.4258 19.0375C71.268 19.2589 72.1317 19.4886 73.0436 19.7866L67.9453 23.0153L67.936 23.0266Z" fill="url(#paint0_linear_1606_2912)" fill-opacity="0.5"/>
<g opacity="0.5">
<path d="M76.4309 19.1209L78.0612 36.273L45.8062 56.7185L10.2872 42.7146L8.65698 25.5625L21.8849 30.8747L28.3749 37.8043L32.943 41.9022L43.3591 39.6128L48.1164 42.3102L52.8026 44.3699L56.6814 41.6521L63.416 31.4697L68.2644 24.4084L76.4309 19.1209Z" fill="url(#paint1_linear_1606_2912)" fill-opacity="0.5"/>
</g>
</g>
<defs>
<filter id="filter0_df_1606_2912" x="0.0184078" y="0.978613" width="86.6429" height="68.3396" filterUnits="userSpaceOnUse" color-interpolation-filters="sRGB">
<feFlood flood-opacity="0" result="BackgroundImageFix"/>
<feColorMatrix in="SourceAlpha" type="matrix" values="0 0 0 0 0 0 0 0 0 0 0 0 0 0 0 0 0 0 127 0" result="hardAlpha"/>
<feOffset dy="4"/>
<feGaussianBlur stdDeviation="4.3"/>
<feColorMatrix type="matrix" values="0 0 0 0 0.899414 0 0 0 0 0.835925 0 0 0 0 0.772436 0 0 0 1 0"/>
<feBlend mode="normal" in2="BackgroundImageFix" result="effect1_dropShadow_1606_2912"/>
<feBlend mode="normal" in="SourceGraphic" in2="effect1_dropShadow_1606_2912" result="shape"/>
<feGaussianBlur stdDeviation="0.75" result="effect2_foregroundBlur_1606_2912"/>
</filter>
<linearGradient id="paint0_linear_1606_2912" x1="40.9179" y1="5.22937" x2="44.7915" y2="45.9845" gradientUnits="userSpaceOnUse">
<stop stop-color="#BE894A"/>
<stop offset="1" stop-color="#7F4A15"/>
</linearGradient>
<linearGradient id="paint1_linear_1606_2912" x1="42.544" y1="22.3417" x2="45.8113" y2="56.718" gradientUnits="userSpaceOnUse">
<stop stop-color="#BE894A"/>
<stop offset="1" stop-color="#7F4A15"/>
</linearGradient>
</defs>
</svg>
