<svg width="58" height="135" viewBox="0 0 58 135" fill="none" xmlns="http://www.w3.org/2000/svg">
<path d="M175.615 42.4393L168.039 23.7191L145.115 32.9957C141.576 28.8366 136.961 25.4791 131.58 22.9816L143.355 5.35305L118.537 -0.00352675L106.762 17.6251C99.7914 17.4819 92.438 18.227 84.9583 20.0011L78.6472 4.4053L51.1334 15.5392L57.4444 31.1349C50.8359 35.0619 45.0092 39.6503 40.1246 44.5907L19.4035 40.1122L5.29497 61.2211L26.0161 65.6996C23.897 71.2626 22.9052 76.8583 23.2541 82.3086L0.330036 91.5852L7.90542 110.305L30.805 101.039C34.3446 105.198 38.9595 108.555 44.3509 111.079L32.5897 128.671L57.4079 134.028L69.1692 116.436C76.15 116.605 83.5174 115.824 91.0217 114.04L97.3221 129.609L124.836 118.475L118.536 102.906C125.169 98.969 130.995 94.3806 135.904 89.4302L156.59 93.8924L170.699 72.7835L150.013 68.3213C152.132 62.7583 153.113 57.1364 152.764 51.6861L175.664 42.4194L175.615 42.4393ZM124.338 59.8588C124.44 69.0756 117.583 79.3057 106.761 86.1601C82.0991 101.731 51.8555 95.1786 51.6037 74.2281C51.5016 65.0114 58.3586 54.7812 69.181 47.9268C93.8424 32.3556 124.086 38.9083 124.338 59.8588Z" fill="url(#paint0_linear_3081_7910)" fill-opacity="0.5"/>
<defs>
<linearGradient id="paint0_linear_3081_7910" x1="64.9149" y1="9.9623" x2="111.079" y2="124.042" gradientUnits="userSpaceOnUse">
<stop stop-color="#7F4A15"/>
<stop offset="1" stop-color="#BE894A"/>
</linearGradient>
</defs>
</svg>
