<svg width="233" height="57" viewBox="0 0 233 57" fill="none" xmlns="http://www.w3.org/2000/svg">
<path d="M11.8906 15.1997L10.9248 17.3002C11.5387 17.7475 12.5983 18.7731 12.5983 19.1864C12.5983 19.7948 9.16412 20.3682 5.91359 20.3682C2.87904 20.3682 0.619569 19.4194 0.619569 17.6165C0.619569 17.1221 0.72591 16.598 0.956681 15.9227H0.766473C0.358102 16.9264 0.132812 17.9673 0.132812 18.869C0.132812 21.4694 1.97953 22.8382 5.53428 22.8382C9.02763 22.8382 13.0856 22.6545 13.0856 18.6925C13.0856 17.5436 12.7835 16.3782 12.1718 15.1997H11.8906Z" fill="#2E4D51"/>
<path d="M6.01079 14.3871L7.33511 15.5771L8.4051 14.3843L7.01938 13.1389L6.04587 14.2237L4.72209 13.0337L3.6521 14.2265L5.03782 15.4719L6.01079 14.3871Z" fill="#2E4D51"/>
<path d="M19.0338 17.0322L18.2374 19.1426C18.7844 19.5998 19.998 20.8194 19.998 21.5391C19.998 23.0893 17.9244 24.9234 15.3503 24.9234C14.9874 24.9234 14.6426 24.9069 14.3159 24.8779V25.1366C15.0526 25.853 16.377 26.5207 17.0693 26.5207C19.0541 26.5207 20.4716 24.355 20.4716 21.3642C20.4716 20.0438 20.1702 18.6493 19.2778 17.0322H19.0338Z" fill="#2E4D51"/>
<path d="M16.26 17.6826V9.67578H16.0621L14.9779 11.318V19.1462C14.9779 20.3126 14.9587 21.4791 14.6978 22.6455L14.8479 22.645C15.4049 21.5783 16.26 20.2123 16.26 17.6826Z" fill="#2E4D51"/>
<path d="M34.9441 15.2484L36.2685 16.4384L37.3385 15.2457L35.9527 14.0003L34.9798 15.0856L33.6554 13.895L32.5854 15.0878L33.9712 16.3332L34.9441 15.2484Z" fill="#2E4D51"/>
<path d="M34.6563 11.7355L33.5852 12.9272L34.9709 14.1726L36.042 12.9809L34.6563 11.7355Z" fill="#2E4D51"/>
<path d="M43.7848 15.2196L45.1091 16.4096L46.1785 15.2169L44.7934 13.9715L43.8199 15.0562L42.4955 13.8662L41.4255 15.059L42.8113 16.3044L43.7848 15.2196Z" fill="#2E4D51"/>
<path d="M56.0447 16.4776L55.1325 18.5938C55.5743 19.012 56.3079 19.6326 56.3079 19.91C56.3079 20.0482 56.0524 20.1101 55.6867 20.1101C54.7526 20.1101 53.1002 19.7077 53.1567 19.1513C53.206 18.6639 53.245 18.4934 53.2636 17.8509H53.0641C52.9467 19.1299 52.6003 20.0679 50.6393 20.0679C50.2533 20.0679 49.3937 19.9446 49.4639 19.699C49.5133 19.2121 49.6037 18.7045 49.6224 18.062H49.4228C49.3055 19.3371 48.6087 20.001 46.5512 20.0049C45.3134 20.0049 44.6171 19.6271 44.4422 19.0148C44.5015 18.4057 44.5305 17.9847 44.5464 17.4436H44.2756C44.0958 19.4408 43.2153 20.0049 41.3909 20.006V20.0027L41.3859 20.0049C39.3312 20.0043 39.2364 19.6474 39.2331 18.6913L39.2336 18.0154H38.988C38.988 19.1908 39.0231 20.296 38.4617 20.296C37.9009 20.296 35.6905 19.7521 35.7256 19.3837C35.7782 18.875 35.8133 18.7171 35.8309 18.1206H35.6428C35.503 19.6447 34.8145 20.0838 33.7295 20.0855C32.7181 20.0844 31.9182 19.944 31.9884 19.6995C32.1287 19.1908 32.234 18.6996 32.2515 18.1031H32.0586C31.9007 19.8881 30.4446 20.0043 29.1196 20.0049V19.9901L29.0927 20.0049H25.264L25.2568 20.0087V20.0049C23.69 20.0049 23.4488 19.1403 23.4499 18.0938L23.4532 13.5929C23.4543 12.1517 23.4532 11.0092 23.4532 9.52734H23.3019L22.0947 11.3118V11.4439C22.2762 11.8584 22.3546 13.1818 22.3655 14.5501L22.4017 19.1414C22.4209 21.6287 23.2005 22.6462 25.2563 22.6462V22.6418L25.264 22.6462H29.2413V22.6396C30.2917 22.6078 31.0559 22.2032 31.5093 21.6227C32.0229 22.3606 32.7636 22.6462 33.286 22.6462C33.9938 22.6462 34.8775 22.4033 35.2903 21.3365C35.8736 22.2997 36.816 22.6462 37.527 22.6462C38.2074 22.6462 38.6514 22.2049 38.9338 21.5289C39.2934 22.1232 39.9693 22.6462 41.3903 22.6462V22.6391C42.6364 22.6369 43.6051 21.8968 43.9565 20.8453C44.3403 21.9647 45.3945 22.6385 46.5348 22.6451V22.6462H46.5573C47.3429 22.6396 48.385 22.2833 48.9404 21.6139C49.6333 22.6467 50.4825 22.6467 50.8235 22.6467C51.6891 22.6467 52.3728 22.1139 52.6984 21.2691C53.3179 22.1676 54.2087 22.5124 54.8167 22.5124C56.0074 22.5124 56.8764 21.303 56.8764 19.6217C56.8764 18.5049 56.6697 17.5675 56.1746 16.4782L56.0447 16.4776Z" fill="#2E4D51"/>
<path d="M70.667 9.59717H70.4542L69.928 10.4217C69.6555 10.9025 69.593 11.2698 69.6434 11.6031V19.4793C69.6434 19.8362 69.2038 19.9947 68.001 20.0051V20.004C66.6458 20.004 66.2105 19.3308 66.2105 18.225V10.0599H66.0192L64.8361 11.8936V16.3841C64.8361 17.5441 64.5412 18.5073 64.0242 19.2902C63.7748 18.3862 63.4108 17.5003 62.9596 16.6648C61.8719 14.6473 60.0699 13.0032 58.456 12.2314L58.2586 12.3317L57.6797 14.507C58.2158 14.8047 59.0299 15.4373 59.5096 16.1051C59.7728 16.1199 60.0781 15.8589 60.1702 15.6999C61.9163 16.7635 62.9979 18.4876 63.5632 19.8784C62.3335 21.2172 60.3303 21.8849 58.0826 21.9973L58.0651 22.1722C59.5036 22.716 60.4158 22.9791 61.4158 22.9791C64.0461 22.9791 64.8383 20.7221 65.0658 18.4169C65.1141 21.8246 66.1003 22.6376 67.9774 22.6447L67.9807 22.6453L67.9829 22.6464V22.6453H68.001C70.093 22.6332 70.9065 21.1081 70.9065 19.3138V13.7861L71.9744 12.4013C71.3451 12.0143 70.7251 10.6788 70.667 9.59717Z" fill="#2E4D51"/>
<path d="M77.833 11.097L79.1574 12.287L80.2274 11.0948L78.8422 9.84938L77.8687 10.9342L76.5444 9.74414L75.4744 10.9369L76.8601 12.1818L77.833 11.097Z" fill="#2E4D51"/>
<path d="M85.6012 19.0178C86.3194 18.3873 87.1307 18.0748 87.8105 18.0748C88.8467 18.0748 89.6799 18.8423 89.828 20.0868C89.8554 20.6405 86.7305 20.0046 85.6012 19.0178ZM79.4393 18.1845C79.4228 18.9246 75.1632 18.8423 75.1632 18.0584C75.1632 17.7952 76.8188 16.9016 79.4393 16.1287V18.1845ZM103.971 19.2721L104.461 17.3506L104.423 17.2119C103.465 17.2169 102.764 17.0436 102.025 16.8019C100.233 16.2164 99.2381 15.286 97.6839 15.1325C96.3139 14.9977 95.0497 16.3721 95.5864 18.5764H95.7268C95.8046 17.3918 96.6072 16.8901 97.4624 17.099C98.6455 17.3885 100.233 18.247 102.061 18.6724C99.117 19.6274 96.7021 19.976 94.3201 20.0062H92.5548L92.5526 20.0078V20.0046C92.0811 20.0046 90.4255 20.0155 90.2556 18.5244C90.135 17.1374 89.5045 15.9313 88.2875 15.9313C87.2075 15.9313 86.2371 16.8907 85.0804 18.7272C84.4829 19.6756 83.8085 20.0046 82.3612 20.0046L82.3338 20.021V20.0046C81.3854 20.0046 80.4918 19.7579 80.4918 18.634V12.8394H80.289L79.4447 14.0783V14.6211C75.9252 15.9094 74.6533 16.8578 74.6533 18.6559C74.6533 20.3883 75.7772 21.09 76.9997 21.09C78.4963 21.09 79.1268 20.2403 79.4283 19.2974C79.4776 21.0626 79.9217 22.647 82.3338 22.647V22.6305L82.3612 22.647C83.7208 22.647 84.3897 21.8027 84.8556 20.5528C85.0969 21.4354 86.4345 22.647 88.1175 22.647C88.8247 22.647 89.3675 22.17 89.7348 21.4738C90.2008 22.181 91.0231 22.647 92.5526 22.647L92.5548 22.6475H94.3217V22.6393C98.2974 22.5773 102.008 18.8604 103.971 19.2721Z" fill="#2E4D51"/>
<path d="M112.742 9.59717H112.529L112.003 10.4217C111.73 10.9025 111.668 11.2698 111.718 11.6031V19.4793C111.718 19.8384 111.276 19.9963 110.06 20.0051C108.687 20.0034 108.226 19.5369 107.622 18.2919C107.49 18.0183 107.35 17.7102 107.192 17.3676H106.999L106.031 19.3379C106.728 20.2145 107.666 21.0472 107.666 22.0466C107.666 23.6414 105.429 25.0569 102.621 25.0569C102.343 25.0569 102.06 25.0432 101.772 25.0147V25.2263C102.228 25.5596 103.842 26.7191 104.965 26.7191C106.359 26.7191 107.923 24.5629 108.135 22.0894C108.884 22.6475 109.864 22.6475 110.068 22.6475V22.6447C112.166 22.6365 112.981 21.1103 112.981 19.3138V13.7861L114.049 12.4013C113.42 12.0143 112.8 10.6788 112.742 9.59717Z" fill="#2E4D51"/>
<path d="M115.966 11.318V19.1462C115.966 20.3126 115.947 21.4791 115.685 22.6455H115.835C116.393 21.5788 117.248 20.2123 117.248 17.6826V9.67578H117.05L115.966 11.318Z" fill="#2E4D51"/>
<path d="M122.653 17.0322L121.857 19.1426C122.404 19.5998 123.617 20.8194 123.617 21.5391C123.617 23.0893 121.544 24.9234 118.969 24.9234C118.607 24.9234 118.262 24.9069 117.935 24.8779V25.1366C118.672 25.853 119.996 26.5207 120.688 26.5207C122.673 26.5207 124.091 24.355 124.091 21.3642C124.091 20.0438 123.789 18.6493 122.897 17.0322H122.653Z" fill="#2E4D51"/>
<path d="M126.377 11.318V19.1462C126.377 20.3126 126.358 21.4791 126.096 22.6455H126.247C126.804 21.5788 127.659 20.2123 127.659 17.6826V9.67578H127.461L126.377 11.318Z" fill="#2E4D51"/>
<path d="M132.73 13.6152L132.458 13.6235L131.601 15.7125C132.78 16.5029 135.19 18.1177 135.19 19.2771C135.19 20.0061 133.43 20.2193 132.381 20.2407C130.793 20.3005 129.476 19.9321 129.476 18.7278C129.476 18.5387 129.508 18.3282 129.578 18.0958L129.384 18.0689C129.114 18.6604 128.958 19.5248 128.979 20.3306C129.029 21.9192 130.092 22.7693 131.996 22.7693C134.459 22.7693 135.663 21.6193 135.663 19.3017C135.663 17.6836 135.066 15.7815 132.73 13.6152Z" fill="#2E4D51"/>
<path d="M201.531 18.5861L189.116 12.332L176.701 18.5861L189.116 24.8977L201.531 18.5861Z" fill="#2E4D51"/>
<path d="M183.146 31.2733C182.862 35.6036 182.492 39.9307 182.064 44.2326C181.905 46.3607 181.696 48.4796 181.077 50.5294C180.414 52.9426 179.532 54.7271 177.121 56.3449L176.652 56.2988C175.627 55.2155 175.116 54.0297 174.844 52.7211C174.5 50.4713 174.933 48.2992 175.521 46.1535C176.962 41.9695 178.614 37.7954 180.955 33.9771C181.545 33.0149 182.222 32.0649 183.002 31.2124L183.146 31.2733Z" fill="url(#paint0_linear_1606_1335)"/>
<path d="M156.196 48.2193C154.54 43.6526 158.585 38.8146 161.678 35.7726C164.981 32.5776 168.617 29.3025 173.178 27.9111L173.25 28.0241C170.256 31.3616 167.883 34.9113 165.535 38.6244C164.452 40.4368 163.348 42.3358 162.034 43.998C160.648 45.9113 158.981 47.557 156.572 48.3838L156.196 48.2193Z" fill="url(#paint1_linear_1606_1335)"/>
<path d="M145.724 36.225C144.749 31.3651 149.986 26.9596 154.003 24.9137C154.737 24.5031 155.721 24.0952 156.484 23.7273C159.254 22.5602 162.214 21.7828 165.229 21.5476C166.085 21.5087 167.057 21.4643 167.907 21.4775C167.907 21.4775 167.93 21.5887 167.93 21.5887C167.033 22.0344 166.072 22.4582 165.157 22.854C162.534 24.1599 159.956 25.5085 157.625 27.2469C155.618 28.681 153.5 30.8125 151.661 32.4561C150.007 34.0305 148.294 35.485 146.046 36.3665L145.724 36.225Z" fill="url(#paint2_linear_1606_1335)"/>
<path d="M167.919 15.4131C152.339 17.6175 150.603 20.6415 145.453 22.1694L145.241 22.0148C145.405 19.6607 147.234 17.9722 149.199 16.8741C152.026 15.241 155.353 14.7805 158.572 14.5579C160.671 14.4236 162.775 14.4894 164.855 14.7536C165.889 14.8863 166.917 15.0579 167.926 15.3282L167.919 15.4131Z" fill="url(#paint3_linear_1606_1335)"/>
<path d="M175.046 9.48351C172.136 9.00765 169.234 8.61403 166.323 8.64364C164.133 8.66666 158.7 9.15677 157.764 8.94625L157.672 8.76918C160.189 4.73924 167.191 6.11745 170.99 7.44633C172.423 7.96878 173.815 8.58717 175.074 9.4232L175.046 9.48351Z" fill="url(#paint4_linear_1606_1335)"/>
<path d="M184.534 5.75958C183.257 4.90009 182.01 4.04004 180.638 3.39816C179.209 2.72832 177.887 2.53098 176.706 1.4144L176.701 1.27298C177.444 0.555454 178.419 0.563128 179.332 0.793899C180.992 1.2675 182.268 2.47507 183.325 3.7095C183.824 4.33494 184.27 4.99546 184.573 5.73163L184.534 5.75958Z" fill="url(#paint5_linear_1606_1335)"/>
<path d="M195.089 31.2733C195.373 35.6036 195.743 39.9307 196.17 44.2326C196.329 46.3607 196.539 48.4796 197.158 50.5294C197.821 52.9426 198.702 54.7271 201.114 56.3449L201.583 56.2988C202.608 55.2155 203.119 54.0297 203.391 52.7211C203.735 50.4713 203.302 48.2992 202.713 46.1535C201.274 41.9695 199.621 37.7954 197.279 33.9771C196.689 33.0149 196.013 32.0649 195.233 31.2124L195.089 31.2733Z" fill="url(#paint6_linear_1606_1335)"/>
<path d="M222.044 48.2178C223.701 43.6512 219.655 38.8132 216.562 35.7711C213.258 32.5761 209.624 29.301 205.062 27.9097L204.99 28.0226C207.985 31.3601 210.357 34.9099 212.706 38.6229C213.789 40.4353 214.893 42.3344 216.206 43.9966C217.592 45.9098 219.259 47.5556 221.669 48.3823L222.044 48.2178Z" fill="url(#paint7_linear_1606_1335)"/>
<path d="M232.515 36.225C233.49 31.3651 228.254 26.9596 224.236 24.9137C223.503 24.5031 222.518 24.0952 221.755 23.7273C218.986 22.5602 216.025 21.7828 213.01 21.5476C212.154 21.5087 211.182 21.4643 210.333 21.4775L210.31 21.5887C211.206 22.0344 212.168 22.4582 213.083 22.854C215.706 24.1599 218.283 25.5085 220.615 27.2469C222.621 28.681 224.74 30.8125 226.579 32.4561C228.233 34.0305 229.946 35.485 232.193 36.3665L232.515 36.225Z" fill="url(#paint8_linear_1606_1335)"/>
<path d="M210.323 15.4131C225.902 17.6175 227.638 20.6415 232.788 22.1694C232.789 22.1694 233 22.0148 233 22.0148C232.836 19.6607 231.008 17.9722 229.043 16.8741C226.216 15.241 222.888 14.7805 219.67 14.5579C217.57 14.4236 215.466 14.4894 213.386 14.7536C212.353 14.8863 211.324 15.0579 210.316 15.3282L210.323 15.4131Z" fill="url(#paint9_linear_1606_1335)"/>
<path d="M203.19 9.48351C206.099 9.00765 209.001 8.61403 211.913 8.64364C214.102 8.66666 219.535 9.15677 220.472 8.94625L220.564 8.76918C218.047 4.73924 211.044 6.11745 207.246 7.44633C205.812 7.96878 204.421 8.58717 203.162 9.4232L203.19 9.48351Z" fill="url(#paint10_linear_1606_1335)"/>
<path d="M193.704 5.75958C194.981 4.90009 196.228 4.04004 197.6 3.39816C199.029 2.72832 200.351 2.53098 201.532 1.4144L201.537 1.27298C200.795 0.555454 199.819 0.563128 198.907 0.793899C197.246 1.2675 195.97 2.47507 194.913 3.7095C194.414 4.33494 193.968 4.99546 193.665 5.73163L193.704 5.75958Z" fill="url(#paint11_linear_1606_1335)"/>
<path d="M4.39087 42.6408H3.71993V32.8854H4.39087C6.60923 32.8854 8.34686 35.0604 8.34686 37.7968C8.34686 40.4992 6.60923 42.6408 4.39087 42.6408ZM5.11333 32.3926H0.177246V32.631L0.606995 32.6815C1.24833 32.7576 1.32946 33.2252 1.32946 33.8539V41.6722C1.32946 42.2839 1.28231 42.8085 0.606995 42.8617L0.177246 42.8957V43.1336L5.11333 43.1341C8.43237 43.1341 10.9095 41.0265 10.9095 37.7973C10.9095 34.5342 8.41538 32.3926 5.11333 32.3926Z" fill="#2E4D51"/>
<path d="M12.5093 41.7621L14.2162 43.2777L15.534 41.8262L13.827 40.3101L12.5093 41.7621Z" fill="#2E4D51"/>
<path d="M25.1537 37.7249H24.2909V32.6633H25.5281C27.2685 32.6633 27.8583 33.9284 27.8583 35.0466C27.8583 36.4729 26.7231 37.7249 25.1537 37.7249ZM30.0673 42.4571L27.1769 38.0571C28.9974 37.7627 30.1342 36.423 30.1342 35.1667C30.1342 33.5847 28.948 32.353 26.187 32.353H20.7888V32.5854C21.7327 32.6786 22.1093 33.0048 22.1093 34.2918V41.2095C22.1093 42.4971 21.7327 42.8073 20.7888 42.9V43.1318H25.612V42.9C24.6527 42.8068 24.2915 42.4971 24.2915 41.2095V38.181C24.9361 38.1864 25.1543 38.3377 25.3094 38.6107L27.639 42.7026C27.7942 42.9751 28.0655 43.1318 28.3823 43.1318H31.0359V42.9C30.6303 42.9 30.2608 42.7728 30.0673 42.4571Z" fill="#2E4D51"/>
<path d="M32.2207 41.7621L33.9276 43.2777L35.2454 41.8262L33.5385 40.3101L32.2207 41.7621Z" fill="#2E4D51"/>
<path d="M46.4921 42.5036C44.3992 42.5036 43.0524 40.7506 43.0524 37.8131C43.0524 34.773 44.482 32.5952 46.32 32.5952C47.2469 32.5952 48.1113 32.9515 48.848 33.7792C49.1073 34.0577 49.4466 34.5856 49.8172 35.3486H50.0474L49.8802 32.9702C48.8913 32.5525 47.4102 32.2554 46.32 32.2554C42.7049 32.2554 40.5068 34.3016 40.5068 37.9484C40.5068 41.2768 43.0228 43.3022 45.8557 43.3022C47.641 43.3022 48.9823 42.6159 50.2463 41.1776L49.9065 40.8915C48.8606 42.0064 47.4738 42.5036 46.4921 42.5036Z" fill="#2E4D51"/>
<path d="M56.0688 42.9809C54.9161 42.9809 54.1771 41.6998 54.1771 39.334C54.1771 36.9682 54.9161 35.6877 56.0688 35.6877C57.2216 35.6877 57.9605 36.9677 57.9605 39.334C57.9605 41.7004 57.2216 42.9809 56.0688 42.9809ZM56.0688 35.3145C53.5923 35.3145 51.8376 36.9348 51.8376 39.3335C51.8376 41.7322 53.5923 43.3531 56.0688 43.3531C58.5453 43.3531 60.2824 41.7322 60.2824 39.3335C60.2824 36.9348 58.5453 35.3145 56.0688 35.3145Z" fill="#2E4D51"/>
<path d="M69.7775 41.6696V38.3385C69.7775 36.4178 68.8659 35.3127 67.3179 35.3127C66.4294 35.3127 65.2262 35.7798 64.5662 36.8328V35.2568L61.2812 36.2594V36.4469L61.6939 36.6332C62.1911 36.8585 62.3303 37.126 62.3303 37.9082V41.6691C62.3303 42.2978 62.236 42.693 61.6939 42.8076L61.2126 42.9101V43.1305H65.5984V42.9101L65.1166 42.8076C64.6495 42.7089 64.5668 42.3488 64.5668 41.6691V37.9905C64.5668 37.1068 65.1686 36.4611 65.9942 36.4611C66.8887 36.4611 67.5421 37.1748 67.5421 38.1774V41.6691C67.5421 42.3488 67.4736 42.7062 66.9918 42.8076L66.5105 42.9101V43.131H70.9132V42.9101L70.4133 42.8081C69.8559 42.6941 69.7775 42.2984 69.7775 41.6696Z" fill="#2E4D51"/>
<path d="M75.3127 38.339L74.6593 38.135C73.8497 37.8823 73.2588 37.6116 73.2588 36.7164C73.2588 36.1897 73.5416 35.5006 74.5217 35.5006C76.0253 35.5006 76.6814 36.6057 76.9911 37.7108H77.1359L77.1013 35.6881C76.654 35.4332 75.794 35.1953 74.6933 35.1953C72.578 35.1953 71.4258 36.1469 71.4258 37.7108C71.4258 39.0022 72.3357 39.7548 73.5411 40.1407L74.1775 40.3446C75.0359 40.6198 75.3812 40.9569 75.3812 41.5341C75.3812 42.1458 75.0359 42.8579 73.8497 42.8579C72.7375 42.8579 71.9624 41.9644 71.5179 40.4636H71.2537L71.3397 42.6216C71.9071 42.996 72.9738 43.2679 74.0914 43.2679C76.0867 43.2679 77.5311 42.3328 77.5311 40.7349C77.5311 39.4435 76.8272 38.8115 75.3127 38.339Z" fill="#2E4D51"/>
<path d="M86.7663 41.4671V35.3486L83.4812 36.1643V36.3682L83.894 36.5551C84.3906 36.7798 84.5304 37.0309 84.5304 37.8126V41.5926C84.1862 41.95 83.6528 42.2219 83.2231 42.2219C82.1569 42.2219 81.7266 41.6271 81.7266 40.2502V35.3486L78.4246 36.1643V36.3676L78.8543 36.5551C79.3548 36.7727 79.4732 37.0304 79.4732 37.8126V40.2935C79.4732 42.2827 80.3508 43.3023 82.0533 43.3023C82.9994 43.3023 84.1516 42.5546 84.7886 41.5515V43.2683L87.987 42.7925V42.4017L87.5918 42.3337C86.9368 42.2213 86.7663 42.0278 86.7663 41.4671Z" fill="#2E4D51"/>
<path d="M92.0955 41.5671V31.6758L88.8105 32.8488V33.0357L89.2232 33.0527C89.7697 33.0747 89.8596 33.528 89.8596 34.3266V41.5671C89.8596 42.1964 89.7889 42.5861 89.2232 42.7056L88.7419 42.8076V43.131H93.2302V42.8081L92.7489 42.7056C92.1832 42.5861 92.0955 42.1964 92.0955 41.5671Z" fill="#2E4D51"/>
<path d="M97.343 40.6986V36.0739H99.3207V35.6693H97.343V32.6704H97.1884C96.9582 34.5308 95.1262 35.6693 93.9033 35.6693V36.0739H95.1071V40.2393C95.1071 42.3979 95.5543 43.3001 97.0163 43.3001C97.8933 43.3001 98.8394 43.0452 99.4407 42.6544V42.4346C99.1655 42.5705 98.9583 42.6873 98.4782 42.6873C97.6527 42.6873 97.343 42.2625 97.343 40.6986Z" fill="#2E4D51"/>
<path d="M104.876 41.811C104.808 41.8899 104.75 41.9585 104.704 42.0193L104.704 42.0188C104.372 42.3756 104.066 42.5258 103.672 42.5258C103.074 42.5258 102.606 41.947 102.606 41.2174C102.606 40.4993 103.02 39.7494 103.707 39.54C104.087 39.4156 104.435 39.3476 104.876 39.3109V41.811ZM107.112 41.469V37.6791H107.105C107.01 36.119 105.952 35.3511 103.827 35.3511C101.876 35.3511 100.405 36.3591 100.405 37.4072C100.405 37.9449 100.865 38.5117 101.523 38.5117C102.165 38.5117 102.619 37.9509 102.619 37.4072C102.619 36.9056 102.255 36.2588 101.447 36.3169C103.214 35.2617 104.772 35.8894 104.872 37.7125H104.876V39.0045C103.828 39.0363 102.837 39.2166 101.987 39.5192C100.894 39.9363 100.319 40.5969 100.319 41.4005C100.319 42.5231 101.22 43.3042 102.521 43.3042C103.522 43.3042 104.43 42.8421 105.024 42.0489C105.046 42.9325 105.84 43.467 106.751 43.1929L108.333 42.7171V42.6025L107.938 42.5187C107.293 42.3805 107.112 42.1585 107.112 41.469Z" fill="#2E4D51"/>
<path d="M117.551 41.6696V38.3385C117.551 36.4178 116.64 35.3127 115.092 35.3127C114.203 35.3127 113 35.7798 112.34 36.8328V35.2568L109.055 36.2594V36.4469L109.468 36.6332C109.965 36.8585 110.104 37.126 110.104 37.9082V41.6691C110.104 42.2978 110.01 42.693 109.468 42.8076L108.986 42.9101V43.1305H113.372V42.9101L112.89 42.8076C112.423 42.7089 112.34 42.3488 112.34 41.6691V37.9905C112.34 37.1068 112.942 36.4611 113.768 36.4611C114.662 36.4611 115.316 37.1748 115.316 38.1774V41.6691C115.316 42.3488 115.247 42.7062 114.765 42.8076L114.284 42.9101V43.131H118.687V42.9101L118.188 42.8081C117.63 42.6941 117.551 42.2984 117.551 41.6696Z" fill="#2E4D51"/>
<path d="M121.677 39.1229C121.677 37.4061 122.19 35.7014 123.414 35.7014C124.549 35.7014 125.51 36.6617 125.908 38.5112H126.097L125.959 36.1487C125.082 35.6049 124.325 35.333 123.276 35.333C120.92 35.333 119.217 37.0663 119.217 39.4962C119.217 41.9261 120.627 43.3206 123.07 43.3206C124.377 43.3206 125.409 42.8958 126.2 42.0462V41.8417C125.317 42.4173 124.669 42.6404 124.068 42.6404C122.572 42.6404 121.677 40.9581 121.677 39.1229Z" fill="#2E4D51"/>
<path d="M132.688 35.333V35.5024C133.591 35.5967 133.67 36.0533 133.444 36.6919L131.948 40.6857L130.417 36.6919C130.087 35.8318 130.306 35.5928 131.174 35.5024V35.333H126.6V35.5199C127.329 35.7452 127.361 35.7819 127.7 36.5559L130.701 43.4237C129.668 45.2551 128.743 46.2351 127.109 46.5755V46.6857C127.78 47.0766 128.347 47.2805 128.794 47.2805C130.119 47.2805 130.702 45.7517 132.121 42.2835L134.477 36.5225C134.73 35.9025 134.875 35.8313 135.663 35.5199V35.333H132.688Z" fill="#2E4D51"/>
<defs>
<linearGradient id="paint0_linear_1606_1335" x1="178.934" y1="-13.3733" x2="178.934" y2="19.9013" gradientUnits="userSpaceOnUse">
<stop offset="0.0028" stop-color="#9D6636"/>
<stop offset="1" stop-color="#BE8848"/>
</linearGradient>
<linearGradient id="paint1_linear_1606_1335" x1="164.531" y1="-13.3713" x2="164.531" y2="19.9033" gradientUnits="userSpaceOnUse">
<stop offset="0.0028" stop-color="#9D6636"/>
<stop offset="1" stop-color="#BE8848"/>
</linearGradient>
<linearGradient id="paint2_linear_1606_1335" x1="156.768" y1="-13.3704" x2="156.768" y2="19.9042" gradientUnits="userSpaceOnUse">
<stop offset="0.0028" stop-color="#9D6636"/>
<stop offset="1" stop-color="#BE8848"/>
</linearGradient>
<linearGradient id="paint3_linear_1606_1335" x1="156.583" y1="-13.3719" x2="156.583" y2="19.9027" gradientUnits="userSpaceOnUse">
<stop offset="0.0028" stop-color="#9D6636"/>
<stop offset="1" stop-color="#BE8848"/>
</linearGradient>
<linearGradient id="paint4_linear_1606_1335" x1="166.373" y1="-13.3726" x2="166.373" y2="19.902" gradientUnits="userSpaceOnUse">
<stop offset="0.0028" stop-color="#9D6636"/>
<stop offset="1" stop-color="#BE8848"/>
</linearGradient>
<linearGradient id="paint5_linear_1606_1335" x1="180.637" y1="-13.3704" x2="180.637" y2="19.9001" gradientUnits="userSpaceOnUse">
<stop offset="0.0028" stop-color="#9D6636"/>
<stop offset="1" stop-color="#BE8848"/>
</linearGradient>
<linearGradient id="paint6_linear_1606_1335" x1="199.301" y1="-13.3733" x2="199.301" y2="19.9013" gradientUnits="userSpaceOnUse">
<stop offset="0.0028" stop-color="#9D6636"/>
<stop offset="1" stop-color="#BE8848"/>
</linearGradient>
<linearGradient id="paint7_linear_1606_1335" x1="213.709" y1="-13.3727" x2="213.709" y2="19.9019" gradientUnits="userSpaceOnUse">
<stop offset="0.0028" stop-color="#9D6636"/>
<stop offset="1" stop-color="#BE8848"/>
</linearGradient>
<linearGradient id="paint8_linear_1606_1335" x1="221.472" y1="-13.3704" x2="221.472" y2="19.9042" gradientUnits="userSpaceOnUse">
<stop offset="0.0028" stop-color="#9D6636"/>
<stop offset="1" stop-color="#BE8848"/>
</linearGradient>
<linearGradient id="paint9_linear_1606_1335" x1="221.658" y1="-13.3719" x2="221.658" y2="19.9027" gradientUnits="userSpaceOnUse">
<stop offset="0.0028" stop-color="#9D6636"/>
<stop offset="1" stop-color="#BE8848"/>
</linearGradient>
<linearGradient id="paint10_linear_1606_1335" x1="211.863" y1="-13.3726" x2="211.863" y2="19.902" gradientUnits="userSpaceOnUse">
<stop offset="0.0028" stop-color="#9D6636"/>
<stop offset="1" stop-color="#BE8848"/>
</linearGradient>
<linearGradient id="paint11_linear_1606_1335" x1="197.601" y1="-13.3704" x2="197.601" y2="19.9001" gradientUnits="userSpaceOnUse">
<stop offset="0.0028" stop-color="#9D6636"/>
<stop offset="1" stop-color="#BE8848"/>
</linearGradient>
</defs>
</svg>
