<svg width="307" height="73" viewBox="0 0 307 73" fill="none" xmlns="http://www.w3.org/2000/svg">
<path d="M16.2853 19.0635L15.019 21.8174C15.8239 22.4038 17.2131 23.7484 17.2131 24.2903C17.2131 25.088 12.7107 25.8397 8.44906 25.8397C4.47058 25.8397 1.50828 24.5957 1.50828 22.232C1.50828 21.5838 1.6477 20.8968 1.95026 20.0114H1.70088C1.16548 21.3272 0.870117 22.692 0.870117 23.8742C0.870117 27.2835 3.29127 29.0779 7.95175 29.0779C12.5317 29.0779 17.852 28.8372 17.852 23.6428C17.852 22.1364 17.456 20.6086 16.654 19.0635H16.2853Z" fill="#FBF9F6"/>
<path d="M8.57822 17.997L10.3145 19.5572L11.7173 17.9934L9.90054 16.3606L8.62421 17.7829L6.88866 16.2227L5.48584 17.7865L7.3026 19.4192L8.57822 17.997Z" fill="#FBF9F6"/>
<path d="M25.6476 21.4697L24.6034 24.2366C25.3206 24.8359 26.9117 26.4349 26.9117 27.3785C26.9117 29.4109 24.1931 31.8155 20.8183 31.8155C20.3425 31.8155 19.8905 31.7939 19.4622 31.7558V32.0951C20.428 33.0343 22.1643 33.9097 23.072 33.9097C25.6742 33.9097 27.5327 31.0702 27.5327 27.1493C27.5327 25.418 27.1374 23.5898 25.9674 21.4697H25.6476Z" fill="#FBF9F6"/>
<path d="M22.0089 22.3197V11.8223H21.7494L20.3279 13.9754V24.2385C20.3279 25.7678 20.3028 27.2971 19.9607 28.8264L20.1576 28.8257C20.8878 27.4272 22.0089 25.6363 22.0089 22.3197Z" fill="#FBF9F6"/>
<path d="M46.503 19.1259L48.2393 20.6861L49.6421 19.1223L47.8253 17.4895L46.5497 18.9125L44.8135 17.3516L43.4106 18.9154L45.2274 20.5481L46.503 19.1259Z" fill="#FBF9F6"/>
<path d="M46.125 14.5225L44.7207 16.085L46.5374 17.7177L47.9417 16.1552L46.125 14.5225Z" fill="#FBF9F6"/>
<path d="M58.0943 19.0849L59.8306 20.6451L61.2327 19.0813L59.4166 17.4485L58.1403 18.8707L56.404 17.3105L55.0012 18.8743L56.818 20.5071L58.0943 19.0849Z" fill="#FBF9F6"/>
<path d="M74.1631 20.739L72.9673 23.5131C73.5465 24.0614 74.5081 24.8749 74.5081 25.2386C74.5081 25.4197 74.1732 25.5009 73.6938 25.5009C72.4693 25.5009 70.3032 24.9734 70.3772 24.2439C70.4419 23.605 70.493 23.3815 70.5174 22.5393H70.2558C70.102 24.2159 69.6478 25.4455 67.0772 25.4455C66.5712 25.4455 65.4444 25.2838 65.5364 24.9619C65.6011 24.3237 65.7196 23.6582 65.7441 22.816H65.4825C65.3287 24.4876 64.4153 25.3578 61.7182 25.3629C60.0954 25.3629 59.1827 24.8677 58.9535 24.065C59.0311 23.2666 59.0692 22.7146 59.09 22.0053H58.735C58.4993 24.6234 57.3451 25.3629 54.9535 25.3643V25.36L54.947 25.3629C52.2535 25.3622 52.1291 24.8943 52.1248 23.641L52.1255 22.7549H51.8036C51.8036 24.2957 51.8496 25.7445 51.1137 25.7445C50.3785 25.7445 47.4809 25.0316 47.5269 24.5486C47.5959 23.8817 47.6419 23.6748 47.6648 22.8929H47.4183C47.2351 24.8907 46.3325 25.4664 44.9102 25.4685C43.5843 25.4671 42.5358 25.2831 42.6278 24.9626C42.8118 24.2957 42.9497 23.6518 42.9727 22.8699H42.7198C42.5128 25.2098 40.6041 25.3622 38.8671 25.3629V25.3435L38.8318 25.3629H33.8128L33.8034 25.3679V25.3629C31.7495 25.3629 31.4333 24.2296 31.4347 22.8576L31.439 16.9575C31.4405 15.0681 31.439 13.5705 31.439 11.6279H31.2407L29.6582 13.9672V14.1404C29.8961 14.6837 29.9988 16.4185 30.0132 18.2123L30.0607 24.231C30.0858 27.4915 31.1077 28.8254 33.8027 28.8254V28.8196L33.8128 28.8254H39.0266V28.8167C40.4035 28.7751 41.4054 28.2447 41.9997 27.4836C42.6731 28.4509 43.644 28.8254 44.3288 28.8254C45.2566 28.8254 46.4151 28.507 46.9563 27.1085C47.7209 28.3712 48.9563 28.8254 49.8884 28.8254C50.7802 28.8254 51.3623 28.2468 51.7324 27.3607C52.2039 28.1398 53.09 28.8254 54.9527 28.8254V28.816C56.5862 28.8131 57.8561 27.843 58.3168 26.4646C58.8198 27.9321 60.2018 28.8153 61.6966 28.8239V28.8254H61.7261C62.7559 28.8167 64.1221 28.3496 64.8501 27.4721C65.7584 28.8261 66.8716 28.8261 67.3186 28.8261C68.4534 28.8261 69.3496 28.1275 69.7765 27.0201C70.5885 28.198 71.7563 28.65 72.5533 28.65C74.1143 28.65 75.2533 27.0647 75.2533 24.8605C75.2533 23.3966 74.9824 22.1677 74.3335 20.7398L74.1631 20.739Z" fill="#FBF9F6"/>
<path d="M93.3309 11.7197H93.052L92.3621 12.8006C92.0049 13.4308 91.923 13.9123 91.9891 14.3493V24.6742C91.9891 25.1421 91.4128 25.3498 89.836 25.3634V25.362C88.0595 25.362 87.4889 24.4795 87.4889 23.0299V12.3263H87.2381L85.6872 14.7302V20.6167C85.6872 22.1374 85.3006 23.4 84.6229 24.4263C84.2959 23.2412 83.8187 22.0799 83.2273 20.9846C81.8015 18.34 79.4392 16.1847 77.3235 15.1729L77.0648 15.3044L76.3059 18.156C77.0088 18.5462 78.076 19.3756 78.7048 20.2509C79.0497 20.2703 79.45 19.9282 79.5708 19.7198C81.8597 21.114 83.2776 23.3742 84.0185 25.1974C82.4066 26.9524 79.7806 27.8277 76.8341 27.975L76.8111 28.2043C78.6969 28.9172 79.8927 29.2621 81.2035 29.2621C84.6517 29.2621 85.6901 26.3034 85.9884 23.2815C86.0516 27.7486 87.3445 28.8144 89.8051 28.8237L89.8095 28.8245L89.8123 28.8259V28.8245H89.836C92.5784 28.8086 93.6449 26.8093 93.6449 24.4572V17.211L95.0449 15.3957C94.2198 14.8883 93.407 13.1376 93.3309 11.7197Z" fill="#FBF9F6"/>
<path d="M102.725 13.6867L104.461 15.2469L105.864 13.6839L104.048 12.0511L102.772 13.4733L101.035 11.9131L99.6326 13.4769L101.449 15.1089L102.725 13.6867Z" fill="#FBF9F6"/>
<path d="M112.909 24.067C113.851 23.2406 114.914 22.8309 115.805 22.8309C117.164 22.8309 118.256 23.8371 118.45 25.4684C118.486 26.1942 114.39 25.3606 112.909 24.067ZM104.831 22.9747C104.81 23.9449 99.226 23.8371 99.226 22.8094C99.226 22.4644 101.396 21.293 104.831 20.2797V22.9747ZM136.99 24.4005L137.632 21.8816L137.583 21.6998C136.327 21.7062 135.407 21.4791 134.439 21.1622C132.09 20.3947 130.786 19.1751 128.748 18.9739C126.952 18.7971 125.295 20.5988 125.999 23.4885H126.183C126.285 21.9355 127.337 21.2779 128.458 21.5517C130.009 21.9312 132.09 23.0566 134.487 23.6143C130.627 24.8662 127.461 25.3232 124.339 25.3628H122.025L122.022 25.3649V25.3606C121.404 25.3606 119.233 25.375 119.011 23.4202C118.852 21.602 118.026 20.021 116.431 20.021C115.015 20.021 113.743 21.2786 112.226 23.6861C111.443 24.9294 110.559 25.3606 108.662 25.3606L108.626 25.3822V25.3606C107.383 25.3606 106.211 25.0372 106.211 23.564V15.9678H105.945L104.839 17.5919V18.3034C100.225 19.9922 98.5576 21.2355 98.5576 23.5927C98.5576 25.8637 100.031 26.7835 101.633 26.7835C103.595 26.7835 104.422 25.6696 104.817 24.4335C104.882 26.7476 105.464 28.8245 108.626 28.8245V28.803L108.662 28.8245C110.444 28.8245 111.321 27.7178 111.932 26.0793C112.248 27.2363 114.002 28.8245 116.208 28.8245C117.135 28.8245 117.846 28.1993 118.328 27.2866C118.939 28.2137 120.017 28.8245 122.022 28.8245L122.025 28.8252H124.341V28.8145C129.553 28.7333 134.417 23.8608 136.99 24.4005Z" fill="#FBF9F6"/>
<path d="M148.488 11.7197H148.209L147.519 12.8006C147.162 13.4308 147.08 13.9123 147.146 14.3493V24.6742C147.146 25.1449 146.566 25.3519 144.973 25.3634C143.174 25.3613 142.569 24.7497 141.777 23.1176C141.603 22.759 141.42 22.3551 141.213 21.906H140.96L139.692 24.4888C140.604 25.6379 141.834 26.7296 141.834 28.0397C141.834 30.1303 138.902 31.9858 135.221 31.9858C134.857 31.9858 134.485 31.9679 134.108 31.9305V32.2079C134.706 32.6448 136.821 34.1648 138.293 34.1648C140.121 34.1648 142.172 31.3383 142.45 28.0957C143.431 28.8273 144.716 28.8273 144.984 28.8273V28.8237C147.733 28.813 148.801 26.8122 148.801 24.4572V17.211L150.202 15.3957C149.377 14.8883 148.564 13.1376 148.488 11.7197Z" fill="#FBF9F6"/>
<path d="M152.713 13.9754V24.2385C152.713 25.7678 152.688 27.2971 152.345 28.8264H152.542C153.273 27.4279 154.394 25.6363 154.394 22.3197V11.8223H154.134L152.713 13.9754Z" fill="#FBF9F6"/>
<path d="M161.479 21.4697L160.435 24.2366C161.152 24.8359 162.744 26.4349 162.744 27.3785C162.744 29.4109 160.025 31.8155 156.65 31.8155C156.174 31.8155 155.722 31.7939 155.294 31.7558V32.0951C156.26 33.0343 157.996 33.9097 158.904 33.9097C161.506 33.9097 163.364 31.0702 163.364 27.1493C163.364 25.418 162.969 23.5898 161.799 21.4697H161.479Z" fill="#FBF9F6"/>
<path d="M166.364 13.9754V24.2385C166.364 25.7678 166.339 27.2971 165.996 28.8264H166.193C166.924 27.4279 168.045 25.6363 168.045 22.3197V11.8223H167.786L166.364 13.9754Z" fill="#FBF9F6"/>
<path d="M174.687 16.9854L174.331 16.9961L173.207 19.7349C174.753 20.7712 177.912 22.8884 177.912 24.4083C177.912 25.3642 175.605 25.6437 174.231 25.6717C172.148 25.7501 170.421 25.2671 170.421 23.6883C170.421 23.4403 170.464 23.1644 170.555 22.8596L170.301 22.8244C169.947 23.5999 169.743 24.7332 169.769 25.7896C169.836 27.8723 171.23 28.9869 173.725 28.9869C176.955 28.9869 178.533 27.4792 178.533 24.4407C178.533 22.3192 177.751 19.8255 174.687 16.9854Z" fill="#FBF9F6"/>
<path d="M264.884 23.5041L248.608 15.3057L232.333 23.5041L248.608 31.778L264.884 23.5041Z" fill="#FBF9F6"/>
<path d="M240.778 40.1374C240.406 45.8141 239.921 51.4864 239.36 57.1257C239.152 59.9155 238.877 62.6931 238.066 65.3802C237.197 68.5437 236.041 70.8829 232.88 73.0037L232.265 72.9433C230.921 71.5232 230.251 69.9688 229.895 68.2534C229.444 65.304 230.011 62.4567 230.783 59.6439C232.671 54.1591 234.837 48.6872 237.907 43.6818C238.68 42.4206 239.567 41.1751 240.589 40.0576L240.778 40.1374Z" fill="url(#paint0_linear_818_16339)"/>
<path d="M205.445 62.3484C203.273 56.362 208.577 50.0199 212.631 46.0321C216.961 41.8438 221.727 37.5505 227.707 35.7266L227.801 35.8746C223.875 40.2498 220.765 44.9031 217.686 49.7705C216.267 52.1464 214.82 54.6358 213.098 56.8148C211.281 59.3229 209.096 61.4803 205.937 62.564L205.445 62.3484Z" fill="url(#paint1_linear_818_16339)"/>
<path d="M191.724 46.6237C190.446 40.2529 197.31 34.4777 202.576 31.7957C203.538 31.2574 204.829 30.7228 205.829 30.2405C209.46 28.7105 213.341 27.6915 217.293 27.3832C218.415 27.3321 219.689 27.2739 220.803 27.2912C220.804 27.2912 220.833 27.4371 220.833 27.4371C219.658 28.0213 218.397 28.5769 217.198 29.0957C213.76 30.8076 210.381 32.5755 207.324 34.8543C204.694 36.7343 201.917 39.5285 199.506 41.683C197.338 43.747 195.093 45.6536 192.146 46.8092L191.724 46.6237Z" fill="url(#paint2_linear_818_16339)"/>
<path d="M220.814 19.3446C200.391 22.2343 198.114 26.1984 191.363 28.2013L191.086 27.9986C191.301 24.9127 193.698 22.6993 196.274 21.2598C199.98 19.1189 204.342 18.5153 208.561 18.2235C211.313 18.0474 214.07 18.1337 216.798 18.48C218.153 18.654 219.501 18.8789 220.823 19.2332L220.814 19.3446Z" fill="url(#paint3_linear_818_16339)"/>
<path d="M230.161 11.5726C226.346 10.9488 222.542 10.4328 218.725 10.4716C215.855 10.5018 208.733 11.1443 207.506 10.8683L207.385 10.6362C210.684 5.35338 219.864 7.16008 224.843 8.9021C226.722 9.58698 228.547 10.3976 230.197 11.4936L230.161 11.5726Z" fill="url(#paint4_linear_818_16339)"/>
<path d="M242.603 6.68976C240.929 5.56291 239.294 4.43534 237.496 3.59379C235.621 2.71559 233.889 2.45688 232.341 0.992975L232.333 0.807562C233.307 -0.133159 234.586 -0.123097 235.783 0.179457C237.96 0.800375 239.632 2.38357 241.018 4.00199C241.672 4.82197 242.257 5.68795 242.655 6.65311L242.603 6.68976Z" fill="url(#paint5_linear_818_16339)"/>
<path d="M256.438 40.1374C256.81 45.8141 257.296 51.4864 257.856 57.1257C258.065 59.9155 258.34 62.6931 259.15 65.3802C260.02 68.5437 261.175 70.8829 264.336 73.0037L264.951 72.9433C266.295 71.5232 266.965 69.9688 267.322 68.2534C267.772 65.304 267.205 62.4567 266.433 59.6439C264.546 54.1591 262.379 48.6872 259.31 43.6818C258.537 42.4206 257.65 41.1751 256.627 40.0576L256.438 40.1374Z" fill="url(#paint6_linear_818_16339)"/>
<path d="M291.773 62.3484C293.944 56.362 288.641 50.0199 284.586 46.0321C280.255 41.8438 275.491 37.5505 269.51 35.7266L269.416 35.8746C273.342 40.2498 276.452 44.9031 279.531 49.7705C280.95 52.1464 282.398 54.6358 284.12 56.8148C285.936 59.3229 288.122 61.4803 291.28 62.564L291.773 62.3484Z" fill="url(#paint7_linear_818_16339)"/>
<path d="M305.493 46.6237C306.771 40.2529 299.907 34.4777 294.64 31.7957C293.679 31.2574 292.387 30.7228 291.388 30.2405C287.757 28.7105 283.876 27.6915 279.924 27.3832C278.801 27.3321 277.527 27.2739 276.414 27.2912L276.384 27.4371C277.559 28.0213 278.82 28.5769 280.019 29.0957C283.457 30.8076 286.836 32.5755 289.893 34.8543C292.523 36.7343 295.3 39.5285 297.711 41.683C299.879 43.747 302.124 45.6536 305.07 46.8092L305.493 46.6237Z" fill="url(#paint8_linear_818_16339)"/>
<path d="M276.403 19.3446C296.826 22.2343 299.102 26.1984 305.853 28.2013C305.854 28.2013 306.13 27.9986 306.13 27.9986C305.915 24.9127 303.519 22.6993 300.943 21.2598C297.237 19.1189 292.875 18.5153 288.656 18.2235C285.903 18.0474 283.146 18.1337 280.419 18.48C279.064 18.654 277.715 18.8789 276.394 19.2332L276.403 19.3446Z" fill="url(#paint9_linear_818_16339)"/>
<path d="M267.056 11.5726C270.87 10.9488 274.674 10.4328 278.491 10.4716C281.361 10.5018 288.483 11.1443 289.711 10.8683L289.831 10.6362C286.532 5.35338 277.353 7.16008 272.373 8.9021C270.494 9.58698 268.67 10.3976 267.019 11.4936L267.056 11.5726Z" fill="url(#paint10_linear_818_16339)"/>
<path d="M254.614 6.68976C256.289 5.56291 257.924 4.43534 259.722 3.59379C261.596 2.71559 263.329 2.45688 264.877 0.992975L264.884 0.807562C263.911 -0.133159 262.631 -0.123097 261.435 0.179457C259.257 0.800375 257.585 2.38357 256.2 4.00199C255.545 4.82197 254.96 5.68795 254.562 6.65311L254.614 6.68976Z" fill="url(#paint11_linear_818_16339)"/>
<path d="M6.45107 55.0356H5.57143V42.2457H6.45107C9.35947 42.2457 11.6376 45.0973 11.6376 48.6848C11.6376 52.2278 9.35947 55.0356 6.45107 55.0356ZM7.39825 41.5996H0.926758V41.9122L1.49018 41.9783C2.33101 42.0782 2.43737 42.6912 2.43737 43.5155V53.7657C2.43737 54.5678 2.37557 55.2555 1.49018 55.3252L0.926758 55.3698V55.6817L7.39825 55.6824C11.7497 55.6824 14.9973 52.9192 14.9973 48.6856C14.9973 44.4074 11.7274 41.5996 7.39825 41.5996Z" fill="#FBF9F6"/>
<path d="M17.095 53.89L19.3329 55.8771L21.0605 53.9741L18.8226 51.9863L17.095 53.89Z" fill="#FBF9F6"/>
<path d="M33.6697 48.5926H32.5385V41.9566H34.1605C36.4423 41.9566 37.2155 43.6152 37.2155 45.0813C37.2155 46.9512 35.7272 48.5926 33.6697 48.5926ZM40.1117 54.7968L36.3222 49.0281C38.7089 48.6422 40.1994 46.8858 40.1994 45.2387C40.1994 43.1646 38.6442 41.5498 35.0243 41.5498H27.947V41.8545C29.1845 41.9767 29.6783 42.4043 29.6783 44.0917V53.1611C29.6783 54.8492 29.1845 55.256 27.947 55.3775V55.6815H34.2705V55.3775C33.0128 55.2553 32.5392 54.8492 32.5392 53.1611V49.1906C33.3844 49.1977 33.6704 49.3961 33.8738 49.754L36.9281 55.1187C37.1314 55.4759 37.4872 55.6815 37.9026 55.6815H41.3816V55.3775C40.8498 55.3775 40.3654 55.2107 40.1117 54.7968Z" fill="#FBF9F6"/>
<path d="M42.9319 53.89L45.1698 55.8771L46.8974 53.9741L44.6595 51.9863L42.9319 53.89Z" fill="#FBF9F6"/>
<path d="M61.64 54.8579C58.8961 54.8579 57.1304 52.5596 57.1304 48.7083C57.1304 44.7227 59.0047 41.8674 61.4143 41.8674C62.6296 41.8674 63.7629 42.3346 64.7288 43.4197C65.0687 43.7848 65.5135 44.4769 65.9993 45.4773H66.3012L66.082 42.359C64.7855 41.8114 62.8437 41.4219 61.4143 41.4219C56.6748 41.4219 53.793 44.1046 53.793 48.8858C53.793 53.2495 57.0916 55.9049 60.8056 55.9049C63.1463 55.9049 64.9048 55.0052 66.562 53.1194L66.1165 52.7443C64.7453 54.206 62.9271 54.8579 61.64 54.8579Z" fill="#FBF9F6"/>
<path d="M74.1957 55.4837C72.6844 55.4837 71.7157 53.8042 71.7157 50.7025C71.7157 47.6008 72.6844 45.922 74.1957 45.922C75.7071 45.922 76.6758 47.6001 76.6758 50.7025C76.6758 53.805 75.7071 55.4837 74.1957 55.4837ZM74.1957 45.4326C70.9489 45.4326 68.6484 47.557 68.6484 50.7018C68.6484 53.8466 70.9489 55.9717 74.1957 55.9717C77.4426 55.9717 79.72 53.8466 79.72 50.7018C79.72 47.557 77.4426 45.4326 74.1957 45.4326Z" fill="#FBF9F6"/>
<path d="M92.1653 53.7669V49.3997C92.1653 46.8815 90.9702 45.4327 88.9407 45.4327C87.7757 45.4327 86.1983 46.045 85.333 47.4255V45.3594L81.0261 46.6738V46.9196L81.5673 47.1639C82.2191 47.4593 82.4016 47.81 82.4016 48.8355V53.7662C82.4016 54.5905 82.278 55.1087 81.5673 55.2589L80.9363 55.3932V55.6821H86.6862V55.3932L86.0545 55.2589C85.4423 55.1295 85.3337 54.6573 85.3337 53.7662V48.9433C85.3337 47.7848 86.1228 46.9383 87.2051 46.9383C88.378 46.9383 89.2346 47.874 89.2346 49.1884V53.7662C89.2346 54.6573 89.1448 55.1259 88.5131 55.2589L87.8821 55.3932V55.6829H93.6543V55.3932L92.9989 55.2596C92.268 55.1101 92.1653 54.5912 92.1653 53.7669Z" fill="#FBF9F6"/>
<path d="M99.4237 49.4008L98.5671 49.1335C97.5056 48.8021 96.7309 48.4471 96.7309 47.2736C96.7309 46.5829 97.1017 45.6796 98.3867 45.6796C100.358 45.6796 101.218 47.1284 101.624 48.5772H101.814L101.769 45.9254C101.182 45.5912 100.055 45.2793 98.6116 45.2793C95.8383 45.2793 94.3277 46.5269 94.3277 48.5772C94.3277 50.2704 95.5207 51.2571 97.101 51.763L97.9354 52.0304C99.0608 52.3911 99.5135 52.8331 99.5135 53.5898C99.5135 54.3919 99.0608 55.3254 97.5056 55.3254C96.0475 55.3254 95.0313 54.154 94.4484 52.1863H94.1021L94.2149 55.0156C94.9587 55.5065 96.3572 55.8629 97.8225 55.8629C100.438 55.8629 102.332 54.6369 102.332 52.542C102.332 50.8489 101.409 50.0203 99.4237 49.4008Z" fill="#FBF9F6"/>
<path d="M114.439 53.4982V45.4766L110.132 46.5459V46.8133L110.673 47.0583C111.324 47.353 111.507 47.6821 111.507 48.7069V53.6628C111.056 54.1313 110.357 54.4878 109.793 54.4878C108.396 54.4878 107.831 53.708 107.831 51.9028V45.4766L103.502 46.5459V46.8125L104.066 47.0583C104.722 47.3436 104.877 47.6814 104.877 48.7069V51.9596C104.877 54.5676 106.028 55.9043 108.26 55.9043C109.5 55.9043 111.011 54.924 111.846 53.6089V55.8597L116.039 55.2359V54.7235L115.521 54.6344C114.662 54.4871 114.439 54.2334 114.439 53.4982Z" fill="#FBF9F6"/>
<path d="M121.426 53.6332V40.665L117.119 42.203V42.448L117.66 42.4703C118.377 42.499 118.495 43.0934 118.495 44.1405V53.6332C118.495 54.4582 118.402 54.9692 117.66 55.1258L117.029 55.2595V55.6835H122.914V55.2602L122.283 55.1258C121.541 54.9692 121.426 54.4582 121.426 53.6332Z" fill="#FBF9F6"/>
<path d="M128.303 52.4942V46.4309H130.895V45.9005H128.303V41.9688H128.1C127.798 44.4079 125.396 45.9005 123.793 45.9005V46.4309H125.371V51.8919C125.371 54.722 125.958 55.9049 127.874 55.9049C129.024 55.9049 130.264 55.5707 131.053 55.0583V54.7702C130.692 54.9484 130.42 55.1015 129.791 55.1015C128.709 55.1015 128.303 54.5445 128.303 52.4942Z" fill="#FBF9F6"/>
<path d="M138.177 53.9498C138.087 54.0533 138.012 54.1431 137.952 54.2229L137.951 54.2222C137.515 54.69 137.115 54.887 136.598 54.887C135.814 54.887 135.201 54.1281 135.201 53.1715C135.201 52.2301 135.743 51.247 136.644 50.9724C137.142 50.8093 137.599 50.7202 138.177 50.672V53.9498ZM141.109 53.5014V48.5326H141.099C140.974 46.4873 139.588 45.4805 136.802 45.4805C134.243 45.4805 132.315 46.8021 132.315 48.1761C132.315 48.8811 132.918 49.6242 133.781 49.6242C134.622 49.6242 135.217 48.8891 135.217 48.1761C135.217 47.5186 134.741 46.6706 133.681 46.7467C135.998 45.3633 138.041 46.1862 138.171 48.5764H138.177V50.2703C136.803 50.312 135.503 50.5484 134.389 50.9451C132.956 51.492 132.202 52.358 132.202 53.4116C132.202 54.8834 133.384 55.9074 135.088 55.9074C136.401 55.9074 137.592 55.3016 138.371 54.2617C138.399 55.4202 139.44 56.1209 140.634 55.7616L142.709 55.1378V54.9876L142.191 54.8776C141.346 54.6965 141.109 54.4055 141.109 53.5014Z" fill="#FBF9F6"/>
<path d="M154.794 53.7669V49.3997C154.794 46.8815 153.599 45.4327 151.569 45.4327C150.404 45.4327 148.827 46.045 147.961 47.4255V45.3594L143.655 46.6738V46.9196L144.196 47.1639C144.847 47.4593 145.03 47.81 145.03 48.8355V53.7662C145.03 54.5905 144.906 55.1087 144.196 55.2589L143.565 55.3932V55.6821H149.315V55.3932L148.683 55.2589C148.071 55.1295 147.962 54.6573 147.962 53.7662V48.9433C147.962 47.7848 148.751 46.9383 149.834 46.9383C151.006 46.9383 151.863 47.874 151.863 49.1884V53.7662C151.863 54.6573 151.773 55.1259 151.141 55.2589L150.51 55.3932V55.6829H156.283V55.3932L155.628 55.2596C154.896 55.1101 154.794 54.5912 154.794 53.7669Z" fill="#FBF9F6"/>
<path d="M160.202 50.4239C160.202 48.173 160.874 45.938 162.479 45.938C163.967 45.938 165.226 47.1971 165.748 49.6218H165.996L165.816 46.5244C164.666 45.8115 163.673 45.4551 162.298 45.4551C159.208 45.4551 156.976 47.7275 156.976 50.9133C156.976 54.0991 158.825 55.9273 162.028 55.9273C163.742 55.9273 165.095 55.3704 166.132 54.2565V53.9884C164.974 54.743 164.125 55.0355 163.336 55.0355C161.374 55.0355 160.202 52.8299 160.202 50.4239Z" fill="#FBF9F6"/>
<path d="M174.631 45.4561V45.6781C175.815 45.8017 175.918 46.4004 175.623 47.2376L173.661 52.4737L171.654 47.2376C171.222 46.11 171.508 45.7967 172.647 45.6781V45.4561H166.649V45.7011C167.605 45.9965 167.647 46.0446 168.091 47.0594L172.027 56.0634C170.672 58.4644 169.459 59.7494 167.317 60.1957V60.3401C168.196 60.8525 168.94 61.1199 169.526 61.1199C171.263 61.1199 172.027 59.1155 173.887 54.5686L176.976 47.0155C177.309 46.2027 177.498 46.1093 178.532 45.7011V45.4561H174.631Z" fill="#FBF9F6"/>
<defs>
<linearGradient id="paint0_linear_818_16339" x1="235.257" y1="-18.3896" x2="235.257" y2="25.2299" gradientUnits="userSpaceOnUse">
<stop offset="0.0028" stop-color="#9D6636"/>
<stop offset="1" stop-color="#BE8848"/>
</linearGradient>
<linearGradient id="paint1_linear_818_16339" x1="216.371" y1="-18.3904" x2="216.371" y2="25.2292" gradientUnits="userSpaceOnUse">
<stop offset="0.0028" stop-color="#9D6636"/>
<stop offset="1" stop-color="#BE8848"/>
</linearGradient>
<linearGradient id="paint2_linear_818_16339" x1="206.201" y1="-18.3907" x2="206.201" y2="25.2288" gradientUnits="userSpaceOnUse">
<stop offset="0.0028" stop-color="#9D6636"/>
<stop offset="1" stop-color="#BE8848"/>
</linearGradient>
<linearGradient id="paint3_linear_818_16339" x1="205.954" y1="-18.3896" x2="205.954" y2="25.2299" gradientUnits="userSpaceOnUse">
<stop offset="0.0028" stop-color="#9D6636"/>
<stop offset="1" stop-color="#BE8848"/>
</linearGradient>
<linearGradient id="paint4_linear_818_16339" x1="218.791" y1="-18.3894" x2="218.791" y2="25.2302" gradientUnits="userSpaceOnUse">
<stop offset="0.0028" stop-color="#9D6636"/>
<stop offset="1" stop-color="#BE8848"/>
</linearGradient>
<linearGradient id="paint5_linear_818_16339" x1="237.494" y1="-18.3908" x2="237.494" y2="25.2288" gradientUnits="userSpaceOnUse">
<stop offset="0.0028" stop-color="#9D6636"/>
<stop offset="1" stop-color="#BE8848"/>
</linearGradient>
<linearGradient id="paint6_linear_818_16339" x1="261.96" y1="-18.3896" x2="261.96" y2="25.2299" gradientUnits="userSpaceOnUse">
<stop offset="0.0028" stop-color="#9D6636"/>
<stop offset="1" stop-color="#BE8848"/>
</linearGradient>
<linearGradient id="paint7_linear_818_16339" x1="280.846" y1="-18.3904" x2="280.846" y2="25.2292" gradientUnits="userSpaceOnUse">
<stop offset="0.0028" stop-color="#9D6636"/>
<stop offset="1" stop-color="#BE8848"/>
</linearGradient>
<linearGradient id="paint8_linear_818_16339" x1="291.016" y1="-18.3907" x2="291.016" y2="25.2288" gradientUnits="userSpaceOnUse">
<stop offset="0.0028" stop-color="#9D6636"/>
<stop offset="1" stop-color="#BE8848"/>
</linearGradient>
<linearGradient id="paint9_linear_818_16339" x1="291.262" y1="-18.3896" x2="291.262" y2="25.2299" gradientUnits="userSpaceOnUse">
<stop offset="0.0028" stop-color="#9D6636"/>
<stop offset="1" stop-color="#BE8848"/>
</linearGradient>
<linearGradient id="paint10_linear_818_16339" x1="278.425" y1="-18.3894" x2="278.425" y2="25.2302" gradientUnits="userSpaceOnUse">
<stop offset="0.0028" stop-color="#9D6636"/>
<stop offset="1" stop-color="#BE8848"/>
</linearGradient>
<linearGradient id="paint11_linear_818_16339" x1="259.723" y1="-18.3908" x2="259.723" y2="25.2288" gradientUnits="userSpaceOnUse">
<stop offset="0.0028" stop-color="#9D6636"/>
<stop offset="1" stop-color="#BE8848"/>
</linearGradient>
</defs>
</svg>
