<svg width="102" height="153" viewBox="0 0 102 153" fill="none" xmlns="http://www.w3.org/2000/svg">
<path d="M17.0002 134.451H0.34668V127.69L17.0002 121.656V134.451ZM1.25671 133.541H16.0902V122.948L1.25671 128.318V133.532V133.541Z" fill="#2C4D51"/>
<path d="M25.8821 138.519H16.0811V124.204H25.8821V138.519ZM16.9911 137.609H24.972V125.114H16.9911V137.609Z" fill="#2C4D51"/>
<path d="M3.32263 133.996H2.4126V138.519H3.32263V133.996Z" fill="#2C4D51"/>
<path d="M6.17077 126.088H5.26074V138.519H6.17077V126.088Z" fill="#2C4D51"/>
<path d="M11.9222 124.141H11.0122V133.996H11.9222V124.141Z" fill="#2C4D51"/>
<path d="M9.02819 133.996H8.11816V138.519H9.02819V133.996Z" fill="#2C4D51"/>
<path d="M25.4359 126.353H16.5449V127.263H25.4359V126.353Z" fill="#2C4D51"/>
<path d="M25.4359 128.664H16.5449V129.574H25.4359V128.664Z" fill="#2C4D51"/>
<path d="M25.4359 130.984H16.5449V131.894H25.4359V130.984Z" fill="#2C4D51"/>
<path d="M25.4359 133.296H16.5449V134.206H25.4359V133.296Z" fill="#2C4D51"/>
<path d="M25.4359 135.607H16.5449V136.517H25.4359V135.607Z" fill="#2C4D51"/>
<path d="M36.5209 135.752H24.9727V124.213H36.5209V135.752ZM25.8827 134.842H35.6109V125.123H25.8827V134.842Z" fill="#2C4D51"/>
<path d="M31.2069 127.07H30.2969V141.048H31.2069V127.07Z" fill="#2C4D51"/>
<path d="M28.1806 128.892L27.5371 129.535L30.465 132.463L31.1085 131.82L28.1806 128.892Z" fill="#2C4D51"/>
<path d="M32.3553 131.78L30.4248 133.711L31.0683 134.354L32.9988 132.424L32.3553 131.78Z" fill="#2C4D51"/>
<path d="M96.2898 143.195C93.2412 143.195 90.7568 140.71 90.7568 137.662C90.7568 134.613 93.2412 132.129 96.2898 132.129C99.3384 132.129 101.823 134.613 101.823 137.662C101.823 140.71 99.3384 143.195 96.2898 143.195ZM96.2898 133.03C93.7417 133.03 91.6669 135.105 91.6669 137.653C91.6669 140.201 93.7417 142.276 96.2898 142.276C98.8379 142.276 100.913 140.201 100.913 137.653C100.913 135.105 98.8379 133.03 96.2898 133.03Z" fill="#2C4D51"/>
<path d="M96.745 137.662H95.835V148.965H96.745V137.662Z" fill="#2C4D51"/>
<path d="M97.8435 138.175L95.9736 140.076L96.6224 140.714L98.4923 138.814L97.8435 138.175Z" fill="#2C4D51"/>
<path d="M77.7518 152.067H76.8418V132.374L82.1109 127.196L82.7479 127.852L77.7518 132.757V152.067Z" fill="#2C4D51"/>
<path d="M83.4244 128.593L80.7861 131.231L82.0731 132.518L84.7114 129.88L83.4244 128.593Z" fill="#2C4D51"/>
<path d="M77.7528 152.067H76.8427V132.757L71.8467 127.852L72.4837 127.196L77.7528 132.374V152.067Z" fill="#2C4D51"/>
<path d="M71.1727 128.618L69.8857 129.905L72.524 132.544L73.811 131.257L71.1727 128.618Z" fill="#2C4D51"/>
<path d="M42.2972 143.731C40.4135 142.985 39.4944 140.837 40.2497 138.953C41.005 137.07 43.1436 136.151 45.0273 136.906C46.9111 137.652 47.8302 139.8 47.0749 141.684C46.3287 143.567 44.181 144.486 42.2972 143.731ZM44.7179 137.652C43.2528 137.07 41.5783 137.789 40.9868 139.254C40.3953 140.719 41.1233 142.393 42.5885 142.985C44.0536 143.576 45.7281 142.848 46.3196 141.383C46.9111 139.918 46.1831 138.244 44.7179 137.652Z" fill="#2C4D51"/>
<path d="M54.2367 148.492C52.3529 147.746 51.4338 145.598 52.1891 143.714C52.9445 141.83 55.083 140.911 56.9668 141.667C58.8506 142.413 59.7697 144.561 59.0144 146.444C58.259 148.328 56.1205 149.247 54.2367 148.492ZM56.6574 142.413C55.1922 141.83 53.5178 142.549 52.9263 144.015C52.3347 145.48 53.0628 147.154 54.5279 147.746C55.9931 148.328 57.6675 147.609 58.259 146.144C58.8506 144.679 58.1225 143.004 56.6574 142.413Z" fill="#2C4D51"/>
<path d="M49.4864 143.077L43.5166 140.674V139.928L49.086 137.753H49.3863L55.3561 140.137V140.883L49.7958 143.086H49.4955L49.4864 143.077ZM44.7543 140.301L49.632 142.267L54.1003 140.501L49.2225 138.554L44.7451 140.301H44.7543Z" fill="#2C4D51"/>
<path d="M49.4394 135.719L48.6416 135.789L49.2484 142.724L50.0461 142.655L49.4394 135.719Z" fill="#2C4D51"/>
<path d="M55.4013 138.092L54.6035 138.162L55.2103 145.097L56.0081 145.028L55.4013 138.092Z" fill="#2C4D51"/>
<path d="M47.8357 134.848L47.5391 135.592L50.2102 136.657L50.5068 135.913L47.8357 134.848Z" fill="#2C4D51"/>
<path d="M53.7966 137.238L53.5 137.981L56.1712 139.047L56.4678 138.303L53.7966 137.238Z" fill="#2C4D51"/>
<path d="M89.8328 151.967L61.3714 151.93L36.1641 141.894H24V140.967L36.4179 141.004L61.6161 151.039H89.6605L110.309 142.506H144V143.434H110.39L89.8328 151.967Z" fill="#2C4D51"/>
<path d="M31 141.967H0V137.967H31V141.967ZM0.900901 141.112H30.0991V138.821H0.900901V141.112Z" fill="#2C4D51"/>
<path d="M37.5 113.967C36.1258 113.967 35 112.849 35 111.467C35 110.084 36.1175 108.967 37.5 108.967C38.8825 108.967 40 110.084 40 111.467C40 112.849 38.8825 113.967 37.5 113.967ZM37.5 109.803C36.5811 109.803 35.8278 110.548 35.8278 111.475C35.8278 112.402 36.5728 113.147 37.5 113.147C38.4272 113.147 39.1722 112.402 39.1722 111.475C39.1722 110.548 38.4272 109.803 37.5 109.803Z" fill="#2C4D51"/>
<path d="M70.6716 78.2464C68.9607 78.2464 67.5684 76.8541 67.5684 75.1432C67.5684 73.4324 68.9607 72.04 70.6716 72.04C72.3824 72.04 73.7748 73.4324 73.7748 75.1432C73.7748 76.8541 72.3824 78.2464 70.6716 78.2464ZM70.6716 72.941C69.4612 72.941 68.4784 73.9238 68.4784 75.1341C68.4784 76.3445 69.4612 77.3273 70.6716 77.3273C71.8819 77.3273 72.8647 76.3445 72.8647 75.1341C72.8647 73.9238 71.8819 72.941 70.6716 72.941Z" fill="#2C4D51"/>
<path d="M72.3241 77.1818L71.4795 77.5205L75.3338 87.1327L76.1785 86.794L72.3241 77.1818Z" fill="#2C4D51"/>
<path d="M68.8292 77.176L64.9648 86.7842L65.8091 87.1238L69.6735 77.5156L68.8292 77.176Z" fill="#2C4D51"/>
<path d="M75.2586 80.2666H66.04V81.1766H75.2586V80.2666Z" fill="#2C4D51"/>
<path d="M71.1268 70.5566H70.2168V72.495H71.1268V70.5566Z" fill="#2C4D51"/>
<path d="M81.083 87.1564H99.0197V69.2197L81.083 87.1564ZM98.1097 86.2464H83.2762L98.1097 71.4129V86.2464Z" fill="#2C4D51"/>
<path d="M88.9365 83.762H95.6252V77.0732L88.9365 83.762ZM94.7152 82.8519H91.1297L94.7152 79.2664V82.8519Z" fill="#2C4D51"/>
<path d="M49.9139 84.8896H49.0039V86.6369H49.9139V84.8896Z" fill="#2C4D51"/>
<path d="M53.9364 85.6455H53.0264V86.6374H53.9364V85.6455Z" fill="#2C4D51"/>
<path d="M45.8827 85.6455H44.9727V86.6374H45.8827V85.6455Z" fill="#2C4D51"/>
<path d="M56.6125 79.9121H54.8652V80.8221H56.6125V79.9121Z" fill="#2C4D51"/>
<path d="M56.6208 75.8896H55.6289V76.7997H56.6208V75.8896Z" fill="#2C4D51"/>
<path d="M56.6208 83.9346H55.6289V84.8446H56.6208V83.9346Z" fill="#2C4D51"/>
<path d="M49.869 73.9971H48.959V75.7443H49.869V73.9971Z" fill="#2C4D51"/>
<path d="M53.8915 73.9971H52.9814V74.989H53.8915V73.9971Z" fill="#2C4D51"/>
<path d="M45.8466 73.9971H44.9365V74.989H45.8466V73.9971Z" fill="#2C4D51"/>
<path d="M42.2155 87.2019C40.3955 87.2019 38.9121 85.7185 38.9121 83.8984H39.8221C39.8221 85.218 40.896 86.2918 42.2155 86.2918V87.2019Z" fill="#2C4D51"/>
<path d="M39.8134 83.8983H38.9033V73.2145C38.9033 71.3945 40.3867 69.9111 42.2067 69.9111H42.6617V81.5049H42.2067C40.8872 81.5049 39.8134 82.5788 39.8134 83.8983ZM41.7517 70.8576C40.6506 71.0669 39.8134 72.0406 39.8134 73.2054V81.6141C40.3139 81.0863 40.9964 80.7223 41.7517 80.6131V70.8485V70.8576Z" fill="#2C4D51"/>
<path d="M57.0675 87.2016H42.2158V86.2915H56.1575V74.452H42.2158V73.542H57.0675V87.2016Z" fill="#2C4D51"/>
<path d="M102.459 86.291H51.9619V87.201H102.459V86.291Z" fill="#2C4D51"/>
<path d="M81.6295 62.1847L78.6992 60.492V57.1067L81.6295 55.4141L84.5598 57.1067V60.492L81.6295 62.1847ZM79.6092 59.9642L81.6295 61.1291L83.6498 59.9642V57.6254L81.6295 56.4606L79.6092 57.6254V59.9642Z" fill="#2C4D51"/>
<path d="M64.5 145.967L61 143.967L64.5 141.967L68 143.967L64.5 145.967ZM62.8817 143.967L64.5 144.897L66.1183 143.967L64.5 143.037L62.8817 143.967Z" fill="#2C4D51"/>
<path d="M55.0454 14.791H51.1777V15.701H55.0454V14.791Z" fill="#2C4D51"/>
<path d="M55.0454 17.5938H51.1777V18.5038H55.0454V17.5938Z" fill="#2C4D51"/>
<path d="M55.0454 20.4062H51.1777V21.3163H55.0454V20.4062Z" fill="#2C4D51"/>
<path d="M55.0454 23.209H51.1777V24.119H55.0454V23.209Z" fill="#2C4D51"/>
<path d="M48.2593 14.2656L47.0693 14.8145L47.4505 15.6408L48.6404 15.092L48.2593 14.2656Z" fill="#2C4D51"/>
<path d="M48.2564 16.4492L47.0664 16.998L47.4475 17.8244L48.6375 17.2756L48.2564 16.4492Z" fill="#2C4D51"/>
<path d="M48.2603 18.6328L47.0703 19.1816L47.4514 20.008L48.6414 19.4592L48.2603 18.6328Z" fill="#2C4D51"/>
<path d="M46.6102 28.2776H45.7002V13.3531L49.5769 11.4238L55.5012 12.2429V28.2685H54.5912V13.0346L49.7316 12.3703L46.6102 13.9173V28.2776Z" fill="#2C4D51"/>
<path d="M50.1132 11.8965H49.2031V28.277H50.1132V11.8965Z" fill="#2C4D51"/>
<path d="M63.955 29.2138H54.5908V19.8496H63.955V29.2138ZM55.5009 28.3038H63.045V20.7596H55.5009V28.3038Z" fill="#2C4D51"/>
<path d="M72.4091 29.2144H63.0449V11.9238H72.4091V29.2144ZM63.955 28.3044H71.4991V12.8339H63.955V28.3044Z" fill="#2C4D51"/>
<path d="M57.9491 22.2881H57.0391V23.6986H57.9491V22.2881Z" fill="#2C4D51"/>
<path d="M60.952 22.2881H60.042V23.6986H60.952V22.2881Z" fill="#2C4D51"/>
<path d="M66.6844 19.7041H65.7744V21.1146H66.6844V19.7041Z" fill="#2C4D51"/>
<path d="M69.6874 19.7041H68.7773V21.1146H69.6874V19.7041Z" fill="#2C4D51"/>
<path d="M66.6844 22.5713H65.7744V23.9818H66.6844V22.5713Z" fill="#2C4D51"/>
<path d="M69.6874 22.5713H68.7773V23.9818H69.6874V22.5713Z" fill="#2C4D51"/>
<path d="M66.6844 25.4277H65.7744V26.8383H66.6844V25.4277Z" fill="#2C4D51"/>
<path d="M69.6874 25.4277H68.7773V26.8383H69.6874V25.4277Z" fill="#2C4D51"/>
<path d="M60.9522 29.2137H57.0391V24.9365H60.9522V29.2137ZM57.9491 28.3036H60.0422V25.8466H57.9491V28.3036Z" fill="#2C4D51"/>
<path d="M69.6874 14.3438H68.7773V18.1477H69.6874V14.3438Z" fill="#2C4D51"/>
<path d="M66.6844 14.3438H65.7744V18.1477H66.6844V14.3438Z" fill="#2C4D51"/>
<path d="M69.2326 15.7998H66.2295V16.7098H69.2326V15.7998Z" fill="#2C4D51"/>
<path d="M84.7313 17.7656H83.8213V29.1046H84.7313V17.7656Z" fill="#2C4D51"/>
<path d="M84.731 17.7661H83.8209C83.8209 15.2362 81.7643 13.1796 79.2344 13.1796V12.2695C82.2648 12.2695 84.731 14.7357 84.731 17.7661Z" fill="#2C4D51"/>
<path d="M77.4596 18.085L76.8135 17.4389C78.9611 15.2912 82.4466 15.2912 84.5942 17.4389L83.9481 18.085C82.1554 16.2922 79.2432 16.2922 77.4596 18.085Z" fill="#2C4D51"/>
<path d="M79.6805 22.8071H78.7705C78.7705 19.7767 81.2367 17.3105 84.2671 17.3105V18.2206C81.7372 18.2206 79.6805 20.2772 79.6805 22.8071Z" fill="#2C4D51"/>
<path d="M84.7313 17.7661H83.8213C83.8213 14.7357 86.2875 12.2695 89.3179 12.2695V13.1796C86.788 13.1796 84.7313 15.2362 84.7313 17.7661Z" fill="#2C4D51"/>
<path d="M91.0829 18.085C89.2901 16.2922 86.378 16.2922 84.5944 18.085L83.9482 17.4389C86.0959 15.2912 89.5813 15.2912 91.729 17.4389L91.0829 18.085Z" fill="#2C4D51"/>
<path d="M89.7729 22.8071H88.8629C88.8629 20.2772 86.8063 18.2206 84.2764 18.2206V17.3105C87.3068 17.3105 89.7729 19.7767 89.7729 22.8071Z" fill="#2C4D51"/>
<path d="M102.349 28.3135H23.04V29.2235H102.349V28.3135Z" fill="#2C4D51"/>
<path d="M93.9859 4.87993L90.6006 2.92336L93.9859 0.966797L97.3712 2.92336L93.9859 4.87993ZM92.4206 2.92336L93.9859 3.83339L95.5512 2.92336L93.9859 2.01333L92.4206 2.92336Z" fill="#2C4D51"/>
<path d="M40.4032 28.9407H39.4932C39.4932 27.4847 38.3011 26.3016 36.845 26.3016C35.389 26.3016 34.2059 27.4847 34.2059 28.9407H33.2959C33.2959 26.9842 34.8884 25.3916 36.845 25.3916C38.8016 25.3916 40.4032 26.9842 40.4032 28.9407Z" fill="#2C4D51"/>
</svg>
