<svg width="100" height="147" viewBox="0 0 100 147" fill="none" xmlns="http://www.w3.org/2000/svg">
<path d="M60.8315 132.636H59.9927V142.098H60.8315V132.636Z" fill="#2C4D51"/>
<path d="M63.0039 134.013H62.165V142.107H63.0039V134.013Z" fill="#2C4D51"/>
<path d="M65.1767 132.636H64.3379V142.098H65.1767V132.636Z" fill="#2C4D51"/>
<path d="M67.3491 131.261H66.5103V142.098H67.3491V131.261Z" fill="#2C4D51"/>
<path d="M69.5214 134.013H68.6826V142.107H69.5214V134.013Z" fill="#2C4D51"/>
<path d="M71.6938 132.636H70.855V142.098H71.6938V132.636Z" fill="#2C4D51"/>
<path d="M72.1556 146.787H59.5229V141.679H72.1556V146.787ZM60.3618 145.948H71.3168V142.518H60.3618V145.948Z" fill="#2C4D51"/>
<path d="M7.57466 131.68H6.73584V136.906H7.57466V131.68Z" fill="#2C4D51"/>
<path d="M9.77273 133.878H4.54688V134.717H9.77273V133.878Z" fill="#2C4D51"/>
<path d="M12.2806 137.325H2.03857V131.261H12.2806V137.325ZM2.87739 136.487H11.4418V132.1H2.87739V136.487Z" fill="#2C4D51"/>
<path d="M7.57466 136.906H6.73584V146.788H7.57466V136.906Z" fill="#2C4D51"/>
<path d="M6.79882 136.689L2.10107 144.415L2.81781 144.851L7.51556 137.124L6.79882 136.689Z" fill="#2C4D51"/>
<path d="M7.5085 136.699L6.79199 137.135L11.4938 144.859L12.2103 144.423L7.5085 136.699Z" fill="#2C4D51"/>
<path d="M40.9014 135.219L37.0596 133.742L37.3615 132.954L40.9014 134.313L44.4328 132.945L44.7348 133.725L40.9014 135.219Z" fill="#2C4D51"/>
<path d="M40.9011 132.132L38.0659 131.042L38.3679 130.254L40.9011 131.235L43.4344 130.245L43.7363 131.034L40.9011 132.132Z" fill="#2C4D51"/>
<path d="M40.9013 129.045L39.0811 128.34L39.383 127.56L40.9013 128.147L42.4196 127.552L42.7299 128.332L40.9013 129.045Z" fill="#2C4D51"/>
<path d="M40.9012 139.027L33.2847 136.351L36.3128 134.548L40.9012 122.284L45.4895 134.548L48.5093 136.334L40.8928 139.027H40.9012ZM35.2559 136.15L40.9012 138.138L46.5464 136.141L44.8101 135.118L40.9095 124.675L37.0006 135.118L35.2559 136.158V136.15Z" fill="#2C4D51"/>
<path d="M20 117.967C17.7956 117.967 16 116.396 16 114.467C16 112.538 17.7956 110.967 20 110.967C22.2044 110.967 24 112.538 24 114.467C24 116.396 22.2044 117.967 20 117.967ZM20 111.745C18.2844 111.745 16.8889 112.966 16.8889 114.467C16.8889 115.968 18.2844 117.189 20 117.189C21.7156 117.189 23.1111 115.968 23.1111 114.467C23.1111 112.966 21.7156 111.745 20 111.745Z" fill="#2C4D51"/>
<path d="M84.9565 11.4521H84.1177V16.0657H84.9565V11.4521Z" fill="#2C4D51"/>
<path d="M89.8383 11.4521H88.9995V16.0657H89.8383V11.4521Z" fill="#2C4D51"/>
<path d="M92.6234 16.0656H91.7846C91.7846 13.4149 89.6289 11.2675 86.9866 11.2675C84.3443 11.2675 82.1801 13.4233 82.1801 16.0656H81.3413C81.3413 12.9536 83.8745 10.4287 86.9866 10.4287C90.0986 10.4287 92.6234 12.962 92.6234 16.0656Z" fill="#2C4D51"/>
<path d="M91.3987 4.87598H82.5659V5.7148H91.3987V4.87598Z" fill="#2C4D51"/>
<path d="M86.9781 9.64062C84.9146 9.64062 83.3208 7.30031 83.3208 5.28714C83.3208 3.27397 84.9649 1.62988 86.9781 1.62988C88.9912 1.62988 90.6353 3.27397 90.6353 5.28714C90.6353 7.30031 89.0332 9.64062 86.9781 9.64062ZM86.9781 2.4687C85.4262 2.4687 84.1596 3.73532 84.1596 5.28714C84.1596 6.83896 85.4598 8.8018 86.9781 8.8018C88.4963 8.8018 89.7965 6.87251 89.7965 5.28714C89.7965 3.70177 88.5299 2.4687 86.9781 2.4687Z" fill="#2C4D51"/>
<path d="M87.3969 0.966797H86.5581V3.89428H87.3969V0.966797Z" fill="#2C4D51"/>
<path d="M5.12601 13.154H-2.37305V10.042H5.12601V13.154ZM-1.54261 12.3152H4.28719V10.8808H-1.53423V12.3152H-1.54261Z" fill="#2C4D51"/>
<path d="M11.7946 13.154H4.28711V10.042H11.7946V13.154ZM5.12593 12.3152H10.9557V10.8808H5.12593V12.3152Z" fill="#2C4D51"/>
<path d="M5.12601 17.6921H-2.37305V14.5801H5.12601V17.6921ZM-1.54261 16.8533H4.28719V15.4189H-1.53423V16.8533H-1.54261Z" fill="#2C4D51"/>
<path d="M11.7946 17.6921H4.28711V14.5801H11.7946V17.6921ZM5.12593 16.8533H10.9557V15.4189H5.12593V16.8533Z" fill="#2C4D51"/>
<path d="M2.668 15.4275H-4.83105V12.3154H2.668V15.4275ZM-4.00062 14.5886H1.82918V13.1543H-3.99223V14.5886H-4.00062Z" fill="#2C4D51"/>
<path d="M9.33654 15.4275H1.8291V12.3154H9.33654V15.4275ZM2.66792 14.5886H8.49772V13.1543H2.66792V14.5886Z" fill="#2C4D51"/>
<path d="M5.12601 8.63351H-2.37305V5.52148H5.12601V8.63351ZM-1.54261 7.79469H4.28719V6.3603H-1.53423V7.79469H-1.54261Z" fill="#2C4D51"/>
<path d="M11.7946 8.63351H4.28711V5.52148H11.7946V8.63351ZM5.12593 7.79469H10.9557V6.3603H5.12593V7.79469Z" fill="#2C4D51"/>
<path d="M2.668 10.9069H-4.83105V7.79492H2.668V10.9069ZM-4.00062 10.0681H1.82918V8.63374H-3.99223V10.0681H-4.00062Z" fill="#2C4D51"/>
<path d="M9.33654 10.9069H1.8291V7.79492H9.33654V10.9069ZM2.66792 10.0681H8.49772V8.63374H2.66792V10.0681Z" fill="#2C4D51"/>
<path d="M41.4723 9.7069V4.78302H32.6731V2.55176H28.9487V4.78302H25.3418V7.68534H28.9487V17.4912H29.7875V15.1676H31.8343V17.4912H32.6731V7.68534H40.6335V9.7069C39.9373 9.89144 39.4172 10.5289 39.4172 11.2839H40.256C40.256 10.8393 40.6167 10.487 41.0529 10.487C41.4891 10.487 41.8498 10.8477 41.8498 11.2839H42.6886C42.6886 10.5289 42.1685 9.89144 41.4723 9.7069ZM29.7792 3.39058H31.8259V4.78302H29.7792V3.39058ZM29.7792 10.185H31.8259V11.8375H29.7792V10.185ZM29.7792 9.34621V7.69373H31.8259V9.34621H29.7792ZM31.8259 6.85491H29.7792V5.63023H31.8259V6.85491ZM26.1638 6.85491V5.63023H28.9319V6.85491H26.1638ZM29.7708 14.3372V12.6847H31.8175V14.3372H29.7708ZM32.6563 5.63023H40.6167V6.85491H32.6563V5.63023Z" fill="#2C4D51"/>
<path d="M56.8308 23.2543H38.0076L31.8255 17.8271H-19.9297V16.9883H32.1359L38.3264 22.4154H56.6714L70.1429 16.9883H73.4478V17.8271H70.2267L56.8308 23.2543Z" fill="#2C4D51"/>
<path d="M99.8119 19.37H73.02V15.4443H99.8119V19.37ZM73.8588 18.5312H98.9731V16.2832H73.8588V18.5312Z" fill="#2C4D51"/>
<path d="M53.031 17.7509L48.9795 15.4106V10.73L53.031 8.38965L57.0825 10.73V15.4106L53.031 17.7509ZM49.8183 14.9241L53.031 16.7779L56.2437 14.9241V11.2165L53.031 9.36268L49.8183 11.2165V14.9241Z" fill="#2C4D51"/>
<path d="M61 106.967L53 101.967L61 96.9668V106.958V106.967ZM54.6842 101.967L60.1579 105.382V98.5424L54.6842 101.958V101.967Z" fill="#2C4D51"/>
<path d="M57.2078 72.8119H56.369V61.7143L52.5859 58.0067L53.1731 57.4111L57.2078 61.362V72.8119Z" fill="#2C4D51"/>
<path d="M52.2241 58.4223L51.0376 59.6084L53.042 61.6135L54.2285 60.4275L52.2241 58.4223Z" fill="#2C4D51"/>
<path d="M33.8553 72.7944H21.6337L21.2646 72.1737L24.7038 65.9328L27.3377 57.1504H28.143L30.7769 65.9328L34.216 72.1737L33.847 72.7944H33.8553ZM22.3467 71.9556H33.1507L29.9968 66.218L27.7487 58.7274L25.4671 66.2935L22.3467 71.9472V71.9556Z" fill="#2C4D51"/>
<path d="M33.5955 63.8195L31.2468 62.2509H24.1336L21.8856 63.7189L21.4326 63.0143L23.8904 61.4121H31.5069L34.0653 63.1149L33.5955 63.8195Z" fill="#2C4D51"/>
<path d="M31.0791 59.2061L29.5693 57.6962H25.8197L24.4105 59.1055L23.8149 58.5099L25.4758 56.8574H29.9132L31.6747 58.6106L31.0791 59.2061Z" fill="#2C4D51"/>
<path d="M34.4173 68.0891L32.0686 66.5205H23.3197L21.0716 67.9884L20.6187 67.2838L23.068 65.6816H32.3286L34.887 67.3845L34.4173 68.0891Z" fill="#2C4D51"/>
<path d="M26.9264 71.4775L26.356 70.8567L27.7652 69.5733H26.6412L26.3643 68.8352L28.5788 66.9395L29.1241 67.577L27.7736 68.7345H28.8556L29.1325 69.4643L26.9264 71.4775Z" fill="#2C4D51"/>
<path d="M69.6979 71.9814H-3.40527V72.8203H69.6979V71.9814Z" fill="#2C4D51"/>
<path d="M13.6982 46.9087V39.1748L20.4004 43.0418L13.6982 46.9087ZM14.5371 40.626V45.4576L18.7228 43.0418L14.5371 40.626Z" fill="#2C4D51"/>
</svg>
