<svg width="219" height="33" viewBox="0 0 219 33" fill="none" xmlns="http://www.w3.org/2000/svg">
<path d="M-1 19.7241H27.861L69.397 32.0002H154.75L171.065 21.6023H207.93" stroke="#91A4A7" stroke-miterlimit="10"/>
<path d="M215.66 25.6982L217.885 21.5414L215.264 17.4537L210.402 17.5271L208.177 21.6839L210.809 25.777L215.66 25.6982Z" stroke="#91A4A7" stroke-miterlimit="10"/>
<path d="M102.912 25.3896L106.915 31.9998H98.8975L102.912 25.3896Z" stroke="#91A4A7" stroke-miterlimit="10"/>
<path d="M83.6509 31.5277V19.1386M83.6509 23.2562L87.9447 18.8737M83.6509 26.0977L80.8276 23.1961M83.6509 7.44775L91.4386 27.9518H75.875L83.6509 7.44775Z" stroke="#91A4A7" stroke-miterlimit="10"/>
<path d="M183.17 21.6128V9.99775M183.17 13.8597L187.225 9.74609M183.17 16.5215L180.488 13.8017M190.48 15.0987V6.5326L183.17 2.25439L175.859 6.5326V15.0987L183.17 19.3769L190.48 15.0987Z" stroke="#91A4A7" stroke-miterlimit="10"/>
<path d="M156.995 8.39204C156.995 7.34899 156.15 6.50342 155.108 6.50342C154.066 6.50342 153.222 7.34899 153.222 8.39204C153.222 9.43509 154.066 10.2807 155.108 10.2807C156.15 10.2807 156.995 9.43509 156.995 8.39204Z" stroke="#91A4A7" stroke-miterlimit="10"/>
<path d="M73.0449 8.38946L70.2152 6.50351L70.2152 10.2808L73.0449 8.38946Z" fill="#91A4A7"/>
<path d="M70.4512 8.39209L67.8572 8.39209L60.7829 6.97562L56.3024 6.97562L51.4851 8.39209L45.9267 8.39207" stroke="#91A4A7" stroke-miterlimit="10"/>
<path d="M137.933 22.0884L138.274 22.4544L137.933 21.5884V22.0884ZM129.189 22.0884V21.5884L128.85 21.721L129.189 22.0884ZM123.249 27.5702L122.91 27.2027L123.247 28.0702L123.249 27.5702ZM132.011 27.602L132.01 28.102L132.352 27.968L132.011 27.602ZM127.204 27.602C127.204 29.7488 125.439 31.5002 123.249 31.5002V32.5002C125.979 32.5002 128.204 30.3133 128.204 27.602H127.204ZM123.249 31.5002C121.058 31.5002 119.293 29.7488 119.293 27.602H118.293C118.293 30.3133 120.518 32.5002 123.249 32.5002V31.5002ZM119.293 27.602C119.293 25.4553 121.058 23.7039 123.249 23.7039V22.7039C120.518 22.7039 118.293 24.8908 118.293 27.602H119.293ZM123.249 23.7039C125.439 23.7039 127.204 25.4553 127.204 27.602H128.204C128.204 24.8908 125.979 22.7039 123.249 22.7039V23.7039ZM144.704 27.602C144.704 29.7488 142.939 31.5002 140.748 31.5002V32.5002C143.479 32.5002 145.704 30.3133 145.704 27.602H144.704ZM140.748 31.5002C138.558 31.5002 136.793 29.7488 136.793 27.602H135.793C135.793 30.3133 138.018 32.5002 140.748 32.5002V31.5002ZM136.793 27.602C136.793 25.4553 138.558 23.7039 140.748 23.7039V22.7039C138.018 22.7039 135.793 24.8908 135.793 27.602H136.793ZM140.748 23.7039C142.939 23.7039 144.704 25.4553 144.704 27.602H145.704C145.704 24.8908 143.479 22.7039 140.748 22.7039V23.7039ZM137.933 21.5884H129.189V22.5884H137.933V21.5884ZM128.85 21.721L122.91 27.2027L123.588 27.9376L129.529 22.4559L128.85 21.721ZM123.247 28.0702L132.01 28.102L132.013 27.102L123.25 27.0702L123.247 28.0702ZM132.352 27.968L138.274 22.4544L137.592 21.7225L131.671 27.2361L132.352 27.968ZM132.457 27.3745L128.188 19.0244L127.298 19.4795L131.566 27.8296L132.457 27.3745ZM141.194 27.3747L136.932 19.0246L136.041 19.4793L140.303 27.8293L141.194 27.3747ZM125.793 19.752H129.7V18.752H125.793V19.752ZM134.53 19.752H138.437V18.752H134.53V19.752Z" fill="#91A4A7"/>
<path d="M36.73 11.3807C36.73 10.5285 36.0468 9.83905 35.2023 9.83905C34.3578 9.83905 33.6747 10.5285 33.6747 11.3807M24.1387 19.252V0.837891H20.514V19.252M35.2023 6.28647V3.67229H15.9785V6.28647H35.2023ZM35.2023 6.28647V10.2604M20.514 9.45602H24.1387M20.514 12.616H24.1387M20.514 15.776H24.1387" stroke="#91A4A7" stroke-miterlimit="10"/>
<path d="M7.5105 15.3571V19.2516M11.6991 15.3571V19.2516M14.0917 19.2516C14.0917 16.8167 12.0817 14.8471 9.6113 14.8471C7.1409 14.8471 5.13086 16.8231 5.13086 19.2516M5.81167 10.1558H13.3979M9.60481 8.9702V6.50342M12.3864 10.1558C12.3864 8.64513 11.1415 7.42129 9.60481 7.42129C8.06811 7.42129 6.82317 8.64513 6.82317 10.1558C6.82317 11.6665 8.06811 13.4767 9.60481 13.4767C11.1415 13.4767 12.3864 11.6665 12.3864 10.1558Z" stroke="#91A4A7" stroke-miterlimit="10"/>
</svg>
