<svg width="465" height="253" viewBox="0 0 465 253" fill="none" xmlns="http://www.w3.org/2000/svg">
<path d="M102.415 120.441H90.8583V125.765H102.552C108.285 125.765 111.151 129.496 111.151 136.821V146.558H86.5813V151.882H177.445V136.23C177.445 126.356 172.167 120.441 163.34 120.441H148.006V125.765H163.476C169.073 125.765 171.985 129.314 172.121 136.366V146.558H116.52V136.23C116.52 126.356 111.242 120.441 102.415 120.441Z" fill="#402F82"/>
<path d="M73.7041 108.151H67.8801V113.93H73.7041V108.151Z" fill="#402F82"/>
<path d="M165.069 157.428H159.245V163.207H165.069V157.428Z" fill="#402F82"/>
<path d="M64.6497 108.151H58.8257V113.93H64.6497V108.151Z" fill="#402F82"/>
<path d="M51.9097 136.184C51.9097 149.197 59.6902 151.927 66.2422 151.927C72.7942 151.927 80.6202 149.197 80.6202 136.184C80.6202 123.171 72.7942 120.441 66.2422 120.441C59.6902 120.441 51.9097 123.171 51.9097 136.184ZM66.2422 125.765C72.6577 125.765 75.2512 128.768 75.2512 136.139C75.2512 143.51 72.6577 146.513 66.2422 146.513C59.9632 146.513 57.2787 143.419 57.2787 136.139C57.2787 128.859 59.9632 125.765 66.2422 125.765Z" fill="#402F82"/>
<path d="M176.625 32.4904C177.672 32.4904 178.718 32.6724 179.719 32.9909L180.675 33.3549V30.2154L180.22 30.0789C179.037 29.6694 177.808 29.4419 176.58 29.4419C172.985 29.4419 170.938 31.4439 170.938 34.9019V38.3144C170.938 38.9059 170.574 38.9059 170.437 38.9059H167.889V41.9544H180.675V38.9059H173.941V34.4469C174.032 33.2639 174.487 32.4904 176.625 32.4904Z" fill="#402F82"/>
<path d="M93.5884 49.6416H87.7644V55.4201H93.5884V49.6416Z" fill="#402F82"/>
<path d="M71.8846 49.6416H66.0605V55.4201H71.8846V49.6416Z" fill="#402F82"/>
<path d="M62.8301 49.6416H57.0061V55.4201H62.8301V49.6416Z" fill="#402F82"/>
<path d="M177.49 47.7749H172.166V93.4115H177.49V47.7749Z" fill="#402F82"/>
<path d="M113.471 47.7749V82.9009C113.471 89.8624 117.202 93.4115 124.573 93.4115H131.307C134.538 93.4115 136.995 92.729 138.815 91.364L141.772 92.274C144.275 93.0475 146.868 93.4114 149.507 93.4569C155.923 93.4569 163.385 89.4075 163.385 77.9414C163.385 66.2024 156.514 62.0164 150.053 62.0164C137.541 62.0164 136.904 70.4794 136.904 72.1629V82.4459C136.904 86.1314 135.994 88.0424 130.898 88.1334H124.573C119.614 88.0424 118.795 86.2679 118.795 82.4459V47.8659L113.471 47.7749ZM142.273 82.9009V72.2539C142.364 68.8869 144.912 67.2489 150.053 67.2489C153.921 67.2489 158.016 70.0244 158.016 77.8504C158.016 84.7209 155.195 88.0424 149.462 88.0424C146.868 88.0424 144.32 87.5419 141.954 86.5409L141.818 86.4954C142.136 85.3124 142.273 84.0839 142.273 82.9009Z" fill="#402F82"/>
<path d="M51 76.8533C51 85.4073 56.3235 90.5033 65.196 90.5033C67.8805 90.5033 70.565 90.0938 73.1585 89.3203L74.023 89.0473C75.752 91.9593 78.9825 93.4153 83.669 93.4153H93.588C100.959 93.4153 104.69 89.8663 104.69 82.9048V61.9293H99.3665V82.3588C99.3665 86.1353 98.5475 87.8643 93.9065 88.0463H83.578C78.7095 87.9098 77.8905 86.1808 77.8905 82.3588V71.0293C77.8905 68.6633 76.935 60.8828 64.8775 60.8828C61.647 60.8828 51 62.0658 51 76.8533ZM64.8775 66.2518C69.9735 66.2518 72.5215 67.9353 72.5215 71.2113V83.7693C70.4285 84.6793 68.1535 85.1343 65.8785 85.1343C57.3245 85.1343 56.3235 80.1748 56.3235 76.4893C56.369 67.4803 60.646 66.2518 64.8775 66.2518Z" fill="#402F82"/>
<path d="M233.273 165.983H387.245C402.578 165.983 415 153.516 415 138.183V89.907C415 52.8245 388.974 35.6255 386.016 33.8055L382.877 31.8945C378.145 28.846 372.048 28.8004 367.27 31.8035L363.949 33.8055C362.538 34.67 355.804 39.0835 349.207 47.5465C344.247 19.0634 323.818 5.73194 321.179 4.13944L317.584 1.95544C315.355 0.68144 312.852 0.0444336 310.304 0.0444336C307.574 0.0444336 304.844 0.772429 302.524 2.22843L299.339 4.13944C296.745 5.73194 276.316 19.0634 271.356 47.501C264.713 39.038 257.888 34.6245 256.478 33.76L253.338 31.849C248.606 28.846 242.555 28.846 237.823 31.849L234.592 33.8055C231.635 35.6255 205.563 52.779 205.563 89.9525V138.183C205.563 153.471 217.985 165.938 233.273 165.983ZM322.225 134.588V60.2865C322.225 59.3765 322.18 58.421 322.134 57.42V57.329C322.134 57.2835 322.134 57.1925 322.134 57.147C322.089 56.328 322.043 55.509 321.907 54.69C320.906 45.7265 316.765 37.3545 310.304 31.0755C303.798 37.3545 299.703 45.681 298.702 54.69C298.611 55.509 298.52 56.328 298.474 57.147C298.474 57.238 298.474 57.329 298.474 57.42C298.429 58.239 298.383 59.149 298.383 60.2865V76.439C298.383 83.9465 292.377 90.089 284.87 90.2255C284.597 90.2255 284.369 90.0435 284.324 89.7705C284.324 89.7705 284.324 89.7705 284.324 89.725V60.241C284.324 29.9834 305.754 16.561 306.664 16.0605L310.077 14.0129C310.213 13.9219 310.441 13.9219 310.577 13.9674L313.944 16.0149C314.854 16.5609 336.285 29.8925 336.285 60.1955V133.997C336.285 136.044 337.923 137.682 339.97 137.728H383.241C385.288 137.728 386.926 136.044 386.926 133.997V89.816C386.926 88.8605 386.881 87.905 386.835 86.9495C386.835 86.904 386.835 86.813 386.835 86.7675V86.6765C386.79 85.7665 386.699 84.9475 386.608 84.2195C385.106 71.8435 378.736 64.154 374.96 60.605C371.274 64.063 364.859 71.798 363.357 84.2195C363.266 84.9475 363.221 85.7665 363.13 86.6765V86.7675C363.13 86.813 363.13 86.904 363.13 86.9495C363.084 87.8595 363.039 88.815 363.039 89.816V119.3C363.039 119.573 362.811 119.801 362.538 119.801C355.031 119.664 349.025 113.522 349.025 106.014L348.979 89.816C348.979 60.2865 369.09 47.046 371.365 45.6355L374.732 43.588C374.823 43.5425 374.914 43.497 375.005 43.497C375.142 43.497 375.233 43.5425 375.324 43.588L378.645 45.59C379.555 46.136 400.986 59.604 400.986 89.7705V138.001C400.986 145.599 394.843 151.742 387.245 151.787H284.824C284.551 151.787 284.324 151.56 284.324 151.287C284.415 143.779 290.512 137.728 298.019 137.682H323.363C322.362 137.091 322.271 136.09 322.225 134.588ZM219.623 89.9525C219.623 59.8315 241.053 46.318 241.963 45.772L245.33 43.7245C245.421 43.679 245.512 43.6335 245.603 43.6335C245.694 43.6335 245.785 43.679 245.876 43.7245L249.198 45.7265C250.108 46.2725 271.538 59.5585 271.538 89.907V151.423C271.538 151.696 271.311 151.924 271.038 151.924H233.273C225.674 151.878 219.577 145.736 219.577 138.137L219.623 89.9525Z" fill="url(#paint0_linear_869_10778)"/>
<path d="M237.277 137.818H257.479V89.9518C257.479 89.0418 257.479 88.0862 257.388 87.0852V86.9943C257.388 86.9033 257.388 86.8578 257.388 86.7668C257.297 85.8113 257.251 85.0377 257.16 84.3552C255.659 71.9792 249.289 64.2897 245.558 60.7407C241.872 64.1987 235.457 71.9337 233.955 84.3552C233.864 85.1287 233.773 85.9933 233.728 86.8123V87.0398C233.637 88.0863 233.637 89.0418 233.637 89.9518V134.132C233.637 136.18 235.275 137.818 237.277 137.818Z" fill="url(#paint1_linear_869_10778)"/>
<path d="M284.324 151.424C284.324 151.697 284.552 151.925 284.825 151.925H387.246C394.844 151.879 400.987 145.737 400.987 138.138V89.908C400.987 59.696 379.556 46.2734 378.646 45.7274L375.325 43.7254C375.234 43.6799 375.097 43.6344 375.006 43.6344C374.915 43.6344 374.824 43.6799 374.733 43.7254L371.366 45.773C369.091 47.1835 348.98 60.4695 348.98 89.9535L349.026 106.152C349.026 113.659 355.032 119.802 362.539 119.938C362.812 119.938 363.04 119.711 363.04 119.438V89.9535C363.04 88.907 363.085 87.997 363.131 87.087C363.131 87.0415 363.131 86.996 363.131 86.905V86.814C363.176 85.904 363.267 85.085 363.358 84.357C364.86 71.9355 371.275 64.246 374.961 60.7425C378.692 64.2915 385.062 71.981 386.609 84.357C386.7 85.085 386.745 85.904 386.836 86.814V86.905C386.836 86.9505 386.836 87.0415 386.836 87.087C386.882 88.0425 386.927 88.998 386.927 89.9535V134.134C386.927 136.182 385.289 137.82 383.242 137.865H340.017C337.969 137.865 336.331 136.182 336.331 134.134V60.333C336.331 29.9844 314.9 16.6529 313.99 16.1524L310.623 14.1049C310.441 14.0139 310.259 14.0139 310.123 14.1504L306.71 16.1979C305.8 16.7439 284.37 30.1209 284.37 60.3785V89.8625C284.37 90.1355 284.597 90.363 284.87 90.363C292.378 90.2265 298.384 84.084 298.384 76.5765V60.424C298.384 59.2865 298.429 58.3765 298.475 57.5575C298.475 57.4665 298.475 57.3755 298.475 57.2845C298.52 56.4655 298.611 55.6465 298.702 54.8275C299.703 45.8639 303.798 37.4919 310.305 31.2129C316.811 37.4919 320.906 45.8184 321.907 54.8275C322.044 55.6465 322.089 56.4655 322.135 57.2845C322.135 57.33 322.135 57.421 322.135 57.4665V57.5575C322.18 58.5585 322.226 59.514 322.226 60.424V134.726C322.226 136.182 322.317 137.183 323.318 137.956H298.065C290.512 137.911 284.415 143.962 284.324 151.424Z" fill="white"/>
<path d="M233.274 151.923H271.039C271.312 151.923 271.539 151.695 271.539 151.422V89.9518C271.539 59.6032 250.109 46.3172 249.199 45.7712L245.877 43.7692C245.786 43.7237 245.695 43.6782 245.604 43.6782C245.513 43.6782 245.422 43.6782 245.331 43.7692L241.964 45.8167C241.054 46.3627 219.624 59.8762 219.624 89.9973V138.227C219.578 145.735 225.721 151.923 233.274 151.923ZM233.592 89.9518C233.592 88.9963 233.592 88.0408 233.683 87.0398V86.8123C233.729 85.9933 233.82 85.1743 233.911 84.3553C235.412 71.9337 241.828 64.2442 245.513 60.7407C249.244 64.2897 255.614 71.9792 257.116 84.3553C257.207 85.0378 257.252 85.8113 257.343 86.7668C257.343 86.8578 257.343 86.9033 257.343 86.9943V87.0853C257.389 88.0863 257.434 89.0418 257.434 89.9518V137.863H237.232C235.185 137.863 233.547 136.18 233.547 134.132V89.9518H233.592Z" fill="white"/>
<path d="M226.175 7.917C226.175 12.285 229.724 15.834 234.092 15.834C238.46 15.834 242.009 12.285 242.009 7.917C242.009 3.549 238.46 0 234.092 0C229.724 0 226.175 3.549 226.175 7.917Z" fill="#06A9B6"/>
<path d="M249.153 7.917C249.153 12.285 252.702 15.834 257.07 15.7885C261.438 15.7885 264.987 12.2395 264.941 7.87152C264.941 3.50351 261.392 0 257.024 0C252.702 0 249.153 3.5035 249.153 7.917Z" fill="#06A9B6"/>
<path d="M367.089 187.872C367.089 192.24 370.593 195.789 374.961 195.789C379.329 195.789 382.878 192.286 382.878 187.918C382.878 183.55 379.374 180 375.006 180C375.006 180 375.006 180 374.961 180C370.638 180 367.089 183.549 367.089 187.872Z" fill="#402F82"/>
<defs>
<linearGradient id="paint0_linear_869_10778" x1="310.289" y1="-0.871224" x2="310.289" y2="165.327" gradientUnits="userSpaceOnUse">
<stop stop-color="#06A9B6"/>
<stop offset="0.2" stop-color="#06A9B6"/>
<stop offset="0.37" stop-color="#1D78A1"/>
<stop offset="0.54" stop-color="#305090"/>
<stop offset="0.67" stop-color="#3C3886"/>
<stop offset="0.75" stop-color="#402F82"/>
<stop offset="1" stop-color="#402F82"/>
</linearGradient>
<linearGradient id="paint1_linear_869_10778" x1="245.576" y1="-0.871987" x2="245.576" y2="165.326" gradientUnits="userSpaceOnUse">
<stop stop-color="#06A9B6"/>
<stop offset="0.2" stop-color="#06A9B6"/>
<stop offset="0.37" stop-color="#1D78A1"/>
<stop offset="0.54" stop-color="#305090"/>
<stop offset="0.67" stop-color="#3C3886"/>
<stop offset="0.75" stop-color="#402F82"/>
<stop offset="1" stop-color="#402F82"/>
</linearGradient>
</defs>
</svg>
