<svg width="491" height="77" viewBox="0 0 491 77" fill="none" xmlns="http://www.w3.org/2000/svg">
<g opacity="0.5">
<path d="M132 50H165.487L186.928 76H432.278L476.142 58.4351H491" stroke="#C5883F" stroke-width="2" stroke-miterlimit="10"/>
<rect width="159.59" height="51.7951" transform="translate(1.6543 1)" fill="#FBF9F6"/>
<path d="M101.94 16.0362L91.3635 24.5621H73M101.94 16.0362H83.0828L73 24.5621M101.94 16.0362L112.451 26.2211M73 24.5621V43M101.039 1L112.43 9.5259M101.039 1H121.354L132.209 9.5259M101.039 1L89.7332 11.1849V16.0358M112.43 9.5259H132.209M112.43 9.5259L112.43 26.2208M132.209 9.5259L132.21 42.9997M99.4726 26.1997L109.298 34.7466H126.353M99.4726 26.1997H116.999L126.353 34.7466M99.4726 26.1997L89.7332 36.4056V42.9995M126.353 34.7466L126.353 42.9992M109.277 34.7463V42.9992" stroke="#C5883F" stroke-width="2" stroke-linejoin="bevel"/>
<path d="M33.5 14.936V44M33.5 14.936C33.5 7.79598 27.9747 2 21.1234 2M33.5 14.936C28.6779 9.89598 20.8421 9.87497 16 14.936M33.5 14.936C26.6688 14.936 21.1234 20.711 21.1234 27.872M33.5 14.936C33.5 7.79598 39.0253 2 45.8766 2M33.5 14.936C38.322 9.89598 46.1579 9.87497 51 14.936M33.5 14.936C40.3312 14.936 45.8766 20.711 45.8766 27.872" stroke="#C5883F" stroke-width="2" stroke-miterlimit="10"/>
<path d="M161.244 43.3027H1.6543V52.7951H161.244V43.3027Z" stroke="#C5883F" stroke-width="2" stroke-miterlimit="10"/>
</g>
</svg>
