<svg width="125" height="24" viewBox="0 0 125 24" fill="none" xmlns="http://www.w3.org/2000/svg">
<path d="M2 17H38.2059L54.8086 23H75.8261L92.7224 18.5253H98" stroke="#91A4A7" stroke-miterlimit="10"/>
<path d="M128.94 16.4668H97.6377V19.4129H128.94V16.4668Z" stroke="#91A4A7" stroke-miterlimit="10"/>
<path d="M68.8242 10.1864L64.2076 13.0677L64.2076 7.29687L68.8242 10.1864Z" stroke="#91A4A7" stroke-miterlimit="10"/>
<path d="M97.8804 3.87575C97.8804 2.81338 97.0192 1.95215 95.9568 1.95215C94.8944 1.95215 94.0332 2.81338 94.0332 3.87575C94.0332 4.93811 94.8944 5.79935 95.9568 5.79935C97.0192 5.79935 97.8804 4.93811 97.8804 3.87575Z" stroke="#91A4A7" stroke-miterlimit="10"/>
<path d="M26.7708 9.45458L29.9491 17.37M24.5709 9.45465L21.3926 17.37M21.9391 12.2484H29.5306M25.7585 5.47332V3.87402M27.9448 7.65291C27.9448 8.8604 26.9659 9.83927 25.7584 9.83927C24.5509 9.83927 23.5721 8.8604 23.5721 7.65291C23.5721 6.44542 24.5509 5.46656 25.7584 5.46656C26.9659 5.46656 27.9448 6.44542 27.9448 7.65291Z" stroke="#91A4A7" stroke-miterlimit="10"/>
<path d="M9.79051 16.2774V14.7582M13.2926 16.2773V15.4142M6.28822 16.2773V15.4142M16.0245 10.8209H14.5052M16.0245 7.31841H15.1614M16.0245 14.3226H15.1614M9.75473 5.26453V6.79092M13.2568 5.26453V6.12758M6.25262 5.26453V6.12758M1.00294 13.8878C1.00294 15.2644 2.11565 16.37 3.48513 16.37L16.0244 16.3702V5.26453H3.48504M1.00294 13.8878C1.00294 12.5183 2.11564 11.4056 3.48512 11.4056V2.10449C2.11564 2.10449 1.00293 3.21007 1.00293 4.58669L1.00294 13.8878Z" stroke="#91A4A7" stroke-miterlimit="10"/>
<path d="M109.105 16.4671V8.48607H101.371V16.4671H109.105ZM109.105 16.4671H116.838V1H109.105V16.4671ZM103.612 10.3576V11.6878M106.362 10.3576V11.6878M111.6 7.9138V9.24396M114.343 7.9138V9.24396M111.6 10.6205V11.9507M114.343 10.6205V11.9507M111.6 13.3273V14.6574M114.343 13.3273V14.6574M114.343 2.86378V6.44442M111.6 6.44442V2.86378M114.343 4.6657H111.6M103.612 13.2809H106.362V16.4594H103.612V13.2809Z" stroke="#91A4A7" stroke-miterlimit="10"/>
</svg>
