<svg width="270" height="60" viewBox="0 0 270 60" fill="none" xmlns="http://www.w3.org/2000/svg">
<path d="M0 54H72" stroke="#91A4A7" stroke-width="2" stroke-miterlimit="10"/>
<path d="M98 54L265 54" stroke="#91A4A7" stroke-width="2" stroke-miterlimit="10"/>
<path d="M180.82 54.3255V14.5447L168.07 1" stroke="#91A4A7" stroke-width="2" stroke-miterlimit="10"/>
<path d="M170.536 12.6787L164 5.58643" stroke="#91A4A7" stroke-width="5" stroke-miterlimit="10"/>
<path d="M63.9929 19L59 11L69 11L63.9929 19Z" stroke="#91A4A7" stroke-width="2" stroke-miterlimit="10"/>
<path d="M269.068 54.7493C269.068 52.2453 267.038 50.2153 264.534 50.2153C262.03 50.2153 260 52.2453 260 54.7493C260 57.2532 262.03 59.2832 264.534 59.2832C267.038 59.2832 269.068 57.2532 269.068 54.7493Z" fill="#91A4A7"/>
<path d="M77.6915 48.3945L84.8462 51.2105L91.9862 48.3795M79.6521 43.0471L84.8462 45.0842L90.0402 43.0172M81.598 37.6848L84.8462 38.958L88.0796 37.6698M97.6777 54.1163L84.8462 58.7747L72 54.1463L76.6235 51.3303L84.8462 28.8174L93.0689 51.3303L97.6777 54.1163Z" stroke="#91A4A7" stroke-width="2" stroke-miterlimit="10"/>
<path d="M33.7149 12.4997V6M21.3979 18.3039H46.0057M33.6887 23.3859V35.8771M33.6887 35.8771V59.4952M33.6887 35.8771L22.6821 54.3329M33.6887 35.8771L44.7216 54.3329M39.821 29.6182H27.5827M42.7299 18.3039C42.7299 13.2219 38.6941 9.10273 33.7149 9.10273C28.7357 9.10273 24.6999 13.2219 24.6999 18.3039H42.7561H42.7299ZM22.6821 23.3859H44.7216V35.8771H22.6821V23.3859Z" stroke="#91A4A7" stroke-width="2" stroke-miterlimit="10"/>
<path d="M233.769 38.4427V32.0309L227.892 28.8174L222 32.0309V38.4427L227.892 41.6562L233.769 38.4427Z" stroke="#91A4A7" stroke-width="2" stroke-miterlimit="10"/>
</svg>
