<svg width="491" height="90" viewBox="0 0 491 90" fill="none" xmlns="http://www.w3.org/2000/svg">
<path d="M53 63H119.444L215.069 89H383.5L441.5 66.9778H473" stroke="#91A4A7" stroke-width="2" stroke-miterlimit="10"/>
<path d="M119 54H1V63H119V54Z" stroke="#91A4A7" stroke-width="2" stroke-miterlimit="10"/>
<path d="M25.2262 41.9615V54.1135M33.7902 18.319V54.1135M51.0413 12.488V41.9615M42.3541 41.9615V54.1135M66.299 20.4505H93M66.299 27.384H93M66.299 34.293H93M66.299 41.2265H93M66.299 48.1355H93M66.299 7L19 24.052V41.9615H66.299V7ZM66.299 14.0315H93V54H66.299V14.0315Z" stroke="#91A4A7" stroke-width="2" stroke-miterlimit="10"/>
<path d="M106 55V20.027M106.1 32.7165L98.9491 25.398M106 37.452L110.727 32.6345M93 14H119V40.609H93V14Z" stroke="#91A4A7" stroke-width="2" stroke-miterlimit="10"/>
<path d="M597.816 63H472.816V71H597.816V63Z" stroke="#91A4A7" stroke-width="2" stroke-miterlimit="10"/>
<path d="M485 25.4894L476.012 21L467 25.4894L476.012 30L485 25.4894Z" stroke="#91A4A7" stroke-width="2" stroke-miterlimit="10"/>
<path d="M12 6C12 3.2386 9.7614 1 7 1C4.2386 1 2 3.2386 2 6C2 8.7614 4.2386 11 7 11C9.7614 11 12 8.7614 12 6Z" stroke="#91A4A7" stroke-width="2" stroke-miterlimit="10"/>
</svg>
