<svg width="171" height="34" viewBox="0 0 171 34" fill="none" xmlns="http://www.w3.org/2000/svg">
<path d="M1.5 24H48.1988L78.7076 33H132.445L150.95 25.3769" stroke="#91A4A7" stroke-miterlimit="10"/>
<path d="M44.4552 20.5176H1V23.832H44.4552V20.5176Z" stroke="#91A4A7" stroke-miterlimit="10"/>
<path d="M9.9218 16.0845V20.5597M13.0756 7.37785V20.5597M19.4286 5.2305V16.0845M16.2294 16.0845V20.5597M25.0475 8.1628H34.8805M25.0475 10.7162H34.8805M25.0475 13.2605H34.8805M25.0475 15.8139H34.8805M25.0475 18.3582H34.8805M25.0475 3.20947L7.62891 9.48911V16.0845H25.0475V3.20947ZM25.0475 5.79892H34.8805V20.5179H25.0475V5.79892Z" stroke="#91A4A7" stroke-miterlimit="10"/>
<path d="M39.6683 20.8859V8.00664M39.7052 12.6797L37.0717 9.98458M39.6683 14.4236L41.4092 12.6495M34.8809 5.78711H44.4557V15.5863H34.8809V5.78711Z" stroke="#91A4A7" stroke-miterlimit="10"/>
<path d="M183 24H151V27H183V24Z" stroke="#91A4A7" stroke-miterlimit="10"/>
<path d="M166.24 10.0185L162.93 8.36523L159.611 10.0185L162.93 11.6796L166.24 10.0185Z" stroke="#91A4A7" stroke-miterlimit="10"/>
<path d="M5.04983 2.84132C5.04983 1.8244 4.22544 1 3.20851 1C2.19158 1 1.36719 1.8244 1.36719 2.84132C1.36719 3.85825 2.19158 4.68264 3.20851 4.68264C4.22544 4.68264 5.04983 3.85825 5.04983 2.84132Z" stroke="#91A4A7" stroke-miterlimit="10"/>
<path d="M155.443 19.4131C158.091 19.4131 160.231 21.3887 160.231 23.8323" stroke="#91A4A7" stroke-miterlimit="10"/>
</svg>
