<svg width="114" height="26" viewBox="0 0 114 26" fill="none" xmlns="http://www.w3.org/2000/svg">
<path d="M93.4241 25.8167H92.5464V14.4038L88.5879 10.5909L89.2023 9.96973L93.4241 14.0415V25.8167Z" fill="#91A4A7"/>
<path d="M88.1819 11.0507L86.9404 12.2705L89.0378 14.3326L90.2793 13.1129L88.1819 11.0507Z" fill="#91A4A7"/>
<path d="M58.988 25.7995H46.1997L45.8135 25.1611L49.4121 18.743L52.1681 9.71094H53.0107L55.7667 18.743L59.3654 25.1611L58.9792 25.7995H58.988ZM46.9457 24.9368H58.2507L54.9505 19.0362L52.5982 11.3327L50.2108 19.1139L46.9457 24.9282V24.9368Z" fill="#91A4A7"/>
<path d="M58.7161 16.5609L56.2585 14.9564H48.8155L46.4632 16.4574L45.9893 15.7328L48.561 14.0938H56.5306L59.2076 15.8449L58.7161 16.5609Z" fill="#91A4A7"/>
<path d="M56.0824 11.8244L54.5026 10.263H50.5792L49.1046 11.7123L48.4814 11.1084L50.2193 9.40039H54.8624L56.7056 11.2119L56.0824 11.8244Z" fill="#91A4A7"/>
<path d="M59.5761 20.9516L57.1185 19.347H47.9639L45.6117 20.8481L45.1377 20.1234L47.7006 18.4844H57.3906L60.0676 20.2356L59.5761 20.9516Z" fill="#91A4A7"/>
<path d="M51.7384 24.4367L51.1416 23.7983L52.6162 22.4871H51.44L51.1504 21.7279L53.4675 19.7783L54.0381 20.4339L52.6249 21.6244H53.7572L54.0468 22.3749L51.7384 24.4367Z" fill="#91A4A7"/>
<path d="M114 24.9629H0V25.8255H114V24.9629Z" fill="#91A4A7"/>
<path d="M11.2432 8.7623V0.808594L18.2561 4.78547L11.2432 8.7623ZM12.1209 2.30102V7.26987L16.5007 4.78547L12.1209 2.30102Z" fill="#91A4A7"/>
<path d="M74.1977 5.67327L70.9326 3.81854L74.1977 1.96387L77.4628 3.81854L74.1977 5.67327ZM72.688 3.81854L74.1977 4.6812L75.7074 3.81854L74.1977 2.95589L72.688 3.81854Z" fill="#91A4A7"/>
<path d="M7 25C7 21.134 10.134 18 14 18H15C18.866 18 22 21.134 22 25H7Z" fill="#FBF9F6"/>
<path d="M9.77567 25.6234C8.25743 25.6435 7.01016 24.414 6.99901 22.8892C6.98786 21.3644 8.20987 20.1144 9.73069 20.1006C11.2489 20.0806 12.4962 21.3101 12.5074 22.8349C12.5248 24.3571 11.2965 25.6097 9.77567 25.6234ZM9.72802 20.7076C8.5466 20.7218 7.58959 21.7 7.59546 22.8871C7.60133 24.0742 8.5817 25.0295 9.76571 25.0217C10.9471 25.0075 11.9041 24.0293 11.8983 22.8422C11.8924 21.6551 10.912 20.6997 9.72802 20.7076Z" fill="#91A4A7"/>
<path d="M19.4124 25.5287C17.8942 25.5487 16.6469 24.3193 16.6357 22.7945C16.6246 21.2696 17.8466 20.0196 19.3674 20.0059C20.8856 19.9859 22.1329 21.2154 22.1441 22.7402C22.1552 24.265 20.9332 25.515 19.4124 25.5287ZM19.3647 20.6129C18.1833 20.6271 17.2263 21.6053 17.2322 22.7924C17.238 23.9795 18.2184 24.9349 19.4024 24.927C20.5839 24.9128 21.5409 23.9346 21.535 22.7475C21.5291 21.5604 20.5487 20.605 19.3647 20.6129Z" fill="#91A4A7"/>
<path d="M14.5717 23.1145L9.75117 23.1519L9.53932 22.6336L12.7828 19.5316L12.991 19.4457L17.8064 19.3958L18.0183 19.914L14.7888 23.0324L14.5806 23.1183L14.5717 23.1145ZM10.5033 22.5391L14.4428 22.5104L17.0391 20.0074L13.1048 20.0487L10.497 22.5417L10.5033 22.5391Z" fill="#91A4A7"/>
<path d="M12.4675 17.9859L11.9336 18.2627L14.3259 22.9111L14.8598 22.6343L12.4675 17.9859Z" fill="#91A4A7"/>
<path d="M17.281 17.9313L16.7471 18.208L19.1394 22.8563L19.6733 22.5796L17.281 17.9313Z" fill="#91A4A7"/>
<path d="M11.0863 17.8481L11.0918 18.4482L13.2464 18.4247L13.2408 17.8246L11.0863 17.8481Z" fill="#91A4A7"/>
<path d="M15.887 17.8032L15.8926 18.4033L18.0471 18.3798L18.0416 17.7797L15.887 17.8032Z" fill="#91A4A7"/>
</svg>
