<svg width="210" height="24" viewBox="0 0 210 24" fill="none" xmlns="http://www.w3.org/2000/svg">
<path d="M96.2002 23.52V8.42196L102.735 1.71777" stroke="#C5883F" stroke-opacity="0.7" stroke-miterlimit="10"/>
<path d="M101.473 7.50626L104.834 3.99609" stroke="#C5883F" stroke-opacity="0.7" stroke-miterlimit="10"/>
<path d="M96.1999 23.52V8.42196L89.6543 1.71777" stroke="#C5883F" stroke-opacity="0.7" stroke-miterlimit="10"/>
<path d="M90.928 7.50626L87.5664 3.99609" stroke="#C5883F" stroke-opacity="0.7" stroke-miterlimit="10"/>
<path d="M1.65234 18.0728H17.7573L28.0687 23.2512H146.064L167.159 19.7528H174.305" stroke="#C5883F" stroke-opacity="0.7" stroke-miterlimit="10"/>
<path d="M208.999 18.0728H173.891V21.3771H208.999V18.0728Z" stroke="#C5883F" stroke-opacity="0.7" stroke-miterlimit="10"/>
<path d="M144.979 11.2614L140.848 13.9423L140.848 8.57275L144.979 11.2614Z" fill="#C5883F" fill-opacity="0.7"/>
<path d="M28.9128 11.8773C28.9128 10.9648 28.173 10.2251 27.2606 10.2251C26.3481 10.2251 25.6084 10.9648 25.6084 11.8773C25.6084 12.7897 26.3481 13.5295 27.2606 13.5295C28.173 13.5295 28.9128 12.7897 28.9128 11.8773Z" stroke="#C5883F" stroke-opacity="0.7" stroke-miterlimit="10"/>
<path d="M191.239 18.073V9.12145H182.565V18.073H191.239ZM191.239 18.073H199.913V0.725098H191.239V18.073ZM185.079 11.2205V12.7125M188.163 11.2205V12.7125M194.038 8.47959V9.97149M197.114 8.47959V9.97149M194.038 11.5155V13.0074M197.114 11.5155V13.0074M194.038 14.5513V16.0432M197.114 14.5513V16.0432M197.114 2.8155V6.83154M194.038 6.83154V2.8155M197.114 4.83653H194.038M185.079 14.4993H188.163V18.0643H185.079V14.4993Z" stroke="#C5883F" stroke-opacity="0.7" stroke-miterlimit="10"/>
<path d="M17.7515 18.0726V2.37695H14.6363V18.0726M27.26 7.02117V4.79292H10.7383V7.02117H27.26ZM27.26 7.02117V10.4084M14.6363 9.72282H17.7515M14.6363 12.4163H17.7515M14.6363 15.1098H17.7515" stroke="#C5883F" stroke-opacity="0.7" stroke-miterlimit="10"/>
<path d="M52.7791 19.9705V23.2514M56.2544 19.9705V23.2514M58.2395 23.2514C58.2395 21.2002 56.5718 19.541 54.5221 19.541C52.4724 19.541 50.8047 21.2055 50.8047 23.2514M51.3696 15.589H57.6638M54.5167 14.5902V12.5122M56.8246 15.589C56.8246 14.3164 55.7917 13.2854 54.5167 13.2854C53.2417 13.2854 52.2088 14.3164 52.2088 15.589C52.2088 16.8616 53.2417 18.3865 54.5167 18.3865C55.7917 18.3865 56.8246 16.8616 56.8246 15.589Z" stroke="#C5883F" stroke-opacity="0.7" stroke-miterlimit="10"/>
<path d="M120.245 15.8657L120.589 16.2293L120.245 15.3657V15.8657ZM113.819 15.8657V15.3657L113.477 15.5006L113.819 15.8657ZM109.452 19.9507L109.11 19.5856L109.45 20.4507L109.452 19.9507ZM115.893 19.9745L115.891 20.4745L116.236 20.3381L115.893 19.9745ZM112.227 19.9745C112.227 21.5088 110.984 22.752 109.452 22.752V23.752C111.537 23.752 113.227 22.0604 113.227 19.9745H112.227ZM109.452 22.752C107.92 22.752 106.677 21.5088 106.677 19.9745H105.677C105.677 22.0604 107.367 23.752 109.452 23.752V22.752ZM106.677 19.9745C106.677 18.4401 107.92 17.197 109.452 17.197V16.197C107.367 16.197 105.677 17.8886 105.677 19.9745H106.677ZM109.452 17.197C110.984 17.197 112.227 18.4401 112.227 19.9745H113.227C113.227 17.8886 111.537 16.197 109.452 16.197V17.197ZM125.09 19.9745C125.09 21.5088 123.847 22.752 122.315 22.752V23.752C124.4 23.752 126.09 22.0604 126.09 19.9745H125.09ZM122.315 22.752C120.782 22.752 119.54 21.5088 119.54 19.9745H118.54C118.54 22.0604 120.23 23.752 122.315 23.752V22.752ZM119.54 19.9745C119.54 18.4401 120.782 17.197 122.315 17.197V16.197C120.23 16.197 118.54 17.8886 118.54 19.9745H119.54ZM122.315 17.197C123.847 17.197 125.09 18.4401 125.09 19.9745H126.09C126.09 17.8886 124.4 16.197 122.315 16.197V17.197ZM120.245 15.3657H113.819V16.3657H120.245V15.3657ZM113.477 15.5006L109.11 19.5856L109.793 20.3159L114.16 16.2308L113.477 15.5006ZM109.45 20.4507L115.891 20.4745L115.895 19.4745L109.454 19.4507L109.45 20.4507ZM116.236 20.3381L120.589 16.2293L119.902 15.5021L115.55 19.6109L116.236 20.3381ZM116.339 19.7494L113.202 13.5268L112.309 13.9771L115.446 20.1996L116.339 19.7494ZM122.761 19.7496L119.629 13.5271L118.735 13.9768L121.868 20.1993L122.761 19.7496ZM111.322 14.252H114.194V13.252H111.322V14.252ZM117.744 14.252H120.616V13.252H117.744V14.252Z" fill="#C5883F" fill-opacity="0.7"/>
<path d="M77.6518 15.2831V12.1889L74.9706 10.6382L72.2822 12.1889V15.2831L74.9706 16.8338L77.6518 15.2831Z" stroke="#C5883F" stroke-opacity="0.7" stroke-miterlimit="10"/>
<path d="M176.37 2.37338L173.071 0.725098L169.762 2.37338L173.071 4.02945L176.37 2.37338Z" stroke="#C5883F" stroke-opacity="0.7" stroke-miterlimit="10"/>
<path d="M7.39726 12.617H1.99015V14.4356H7.39726M7.39726 12.617V14.4356M7.39726 12.617H12.8044V14.4356H7.39726M7.39726 16.2542H1.99015V18.0728H7.39726M7.39726 16.2542V18.0728M7.39726 16.2542H12.8044V18.0728H7.39726M5.40711 14.4356H0V16.2542H5.40711M5.40711 14.4356V16.2542M5.40711 14.4356H10.8142V16.2542H5.40711M7.39726 8.98584H1.99015V10.8044H7.39726M7.39726 8.98584V10.8044M7.39726 8.98584H12.8044V10.8044H7.39726M5.40711 10.8044H0V12.6231H5.40711M5.40711 10.8044V12.6231M5.40711 10.8044H10.8142V12.6231H5.40711" stroke="#C5883F" stroke-opacity="0.7" stroke-miterlimit="10"/>
<path d="M156.957 21.3774V9.04601M156.992 13.5203L154.492 10.9398M156.957 15.19L158.609 13.4914M152.413 6.9209H161.5V16.3032H152.413V6.9209Z" stroke="#C5883F" stroke-opacity="0.7" stroke-miterlimit="10"/>
</svg>
