<svg width="586" height="66" viewBox="0 0 586 66" fill="none" xmlns="http://www.w3.org/2000/svg">
<path d="M269.043 65.7509V23.5257L287.32 4.77588" stroke="#91A4A7" stroke-width="2" stroke-miterlimit="10"/>
<path d="M283.787 20.9644L293.189 11.1475" stroke="#91A4A7" stroke-width="4" stroke-miterlimit="10"/>
<path d="M269.042 65.7509V23.5257L250.736 4.77588" stroke="#91A4A7" stroke-width="2" stroke-miterlimit="10"/>
<path d="M254.298 20.9644L244.897 11.1475" stroke="#91A4A7" stroke-width="4" stroke-miterlimit="10"/>
<path d="M4.6207 50.5171H49.662L78.5 64.9998H408.5L467.498 55.2157H487.483" stroke="#91A4A7" stroke-width="2" stroke-miterlimit="10"/>
<path d="M584.517 50.5171H486.328V59.7585H584.517V50.5171Z" stroke="#91A4A7" stroke-width="2" stroke-miterlimit="10"/>
<path d="M405.466 31.4675L393.914 38.9655L393.914 23.9482L405.466 31.4675Z" fill="#91A4A7"/>
<path d="M80.8621 33.1895C80.8621 30.6376 78.7933 28.5688 76.2414 28.5688C73.6895 28.5688 71.6207 30.6376 71.6207 33.1895C71.6207 35.7415 73.6895 37.8102 76.2414 37.8102C78.7933 37.8102 80.8621 35.7415 80.8621 33.1895Z" stroke="#91A4A7" stroke-width="2" stroke-miterlimit="10"/>
<path d="M534.845 50.5172V25.4823H510.586V50.5172H534.845ZM534.845 50.5172H559.103V2H534.845V50.5172ZM517.615 31.3529V35.5254M526.242 31.3529V35.5254M542.672 23.6872V27.8597M551.276 23.6872V27.8597M542.672 32.1777V36.3502M551.276 32.1777V36.3502M542.672 40.6682V44.8407M551.276 40.6682V44.8407M551.276 7.8463V19.0781M542.672 19.0781V7.8463M551.276 13.4986H542.672M517.615 40.5227H526.242V50.493H517.615V40.5227Z" stroke="#91A4A7" stroke-width="2" stroke-miterlimit="10"/>
<path d="M49.6485 50.5172V6.62061H40.9362V50.5172M76.2414 19.6092V13.3774H30.0345V19.6092H76.2414ZM76.2414 19.6092V29.0825M40.9362 27.165H49.6485M40.9362 34.6979H49.6485M40.9362 42.2309H49.6485" stroke="#91A4A7" stroke-width="2" stroke-miterlimit="10"/>
<path d="M147.608 55.8243V64.9998M157.327 55.8243V64.9998M162.879 64.9998C162.879 59.2632 158.215 54.6229 152.483 54.6229C146.75 54.6229 142.086 59.2782 142.086 64.9998M143.666 43.5702H161.269M152.468 40.777V34.9653M158.922 43.5702C158.922 40.0111 156.034 37.1278 152.468 37.1278C148.902 37.1278 146.013 40.0111 146.013 43.5702C146.013 47.1293 148.902 51.3942 152.468 51.3942C156.034 51.3942 158.922 47.1293 158.922 43.5702Z" stroke="#91A4A7" stroke-width="2" stroke-miterlimit="10"/>
<path d="M336.294 44.3428L336.981 45.0699L336.294 43.3428V44.3428ZM318.32 44.3428V43.3428L317.637 43.6125L318.32 44.3428ZM306.108 55.7674L305.425 55.0371L306.104 56.7674L306.108 55.7674ZM324.121 55.8338L324.118 56.8338L324.808 56.561L324.121 55.8338ZM314.267 55.8338C314.267 60.3447 310.613 64.0001 306.108 64.0001V66.0001C311.719 66.0001 316.267 61.4478 316.267 55.8338H314.267ZM306.108 64.0001C301.602 64.0001 297.948 60.3447 297.948 55.8338H295.948C295.948 61.4478 300.496 66.0001 306.108 66.0001V64.0001ZM297.948 55.8338C297.948 51.323 301.602 47.6675 306.108 47.6675V45.6675C300.496 45.6675 295.948 50.2198 295.948 55.8338H297.948ZM306.108 47.6675C310.613 47.6675 314.267 51.323 314.267 55.8338H316.267C316.267 50.2198 311.719 45.6675 306.108 45.6675V47.6675ZM350.241 55.8338C350.241 60.3447 346.588 64.0001 342.082 64.0001V66.0001C347.694 66.0001 352.241 61.4478 352.241 55.8338H350.241ZM342.082 64.0001C337.576 64.0001 333.922 60.3447 333.922 55.8338H331.922C331.922 61.4478 336.47 66.0001 342.082 66.0001V64.0001ZM333.922 55.8338C333.922 51.323 337.576 47.6675 342.082 47.6675V45.6675C336.47 45.6675 331.922 50.2198 331.922 55.8338H333.922ZM342.082 47.6675C346.588 47.6675 350.241 51.323 350.241 55.8338H352.241C352.241 50.2198 347.694 45.6675 342.082 45.6675V47.6675ZM336.294 43.3428H318.32V45.3428H336.294V43.3428ZM317.637 43.6125L305.425 55.0371L306.791 56.4977L319.004 45.073L317.637 43.6125ZM306.104 56.7674L324.118 56.8338L324.125 54.8338L306.111 54.7674L306.104 56.7674ZM324.808 56.561L336.981 45.0699L335.608 43.6156L323.435 55.1067L324.808 56.561ZM325.014 55.3836L316.24 37.9809L314.454 38.8814L323.228 56.284L325.014 55.3836ZM342.975 55.3842L334.214 37.9815L332.427 38.8808L341.189 56.2835L342.975 55.3842ZM311.338 39.4312H319.369V37.4312H311.338V39.4312ZM329.298 39.4312H337.33V37.4312H329.298V39.4312Z" fill="#91A4A7"/>
<path d="M217.172 42.7147V34.0611L209.674 29.7241L202.155 34.0611V42.7147L209.674 47.0517L217.172 42.7147Z" stroke="#91A4A7" stroke-width="2" stroke-miterlimit="10"/>
<path d="M493.259 6.60981L484.03 2L474.776 6.60981L484.03 11.2414L493.259 6.60981Z" stroke="#91A4A7" stroke-width="2" stroke-miterlimit="10"/>
<path d="M20.6881 35.2589H5.56592V40.345H20.6881M20.6881 35.2589V40.345M20.6881 35.2589H35.8103V40.345H20.6881M20.6881 45.4312H5.56592V50.5173H20.6881M20.6881 45.4312V50.5173M20.6881 45.4312H35.8103V50.5173H20.6881M15.1222 40.345H0V45.4312H15.1222M15.1222 40.345V45.4312M15.1222 40.345H30.2444V45.4312H15.1222M20.6881 25.1035H5.56592V30.1897H20.6881M20.6881 25.1035V30.1897M20.6881 25.1035H35.8103V30.1897H20.6881M15.1222 30.1897H0V35.2758H15.1222M15.1222 30.1897V35.2758M15.1222 30.1897H30.2444V35.2758H15.1222" stroke="#91A4A7" stroke-width="2" stroke-miterlimit="10"/>
<path d="M438.965 59.7587V25.271M439.063 37.7844L432.074 30.5675M438.965 42.4542L443.586 37.7035M426.259 19.3276H451.672V45.5674H426.259V19.3276Z" stroke="#91A4A7" stroke-width="2" stroke-miterlimit="10"/>
</svg>
