<svg width="294" height="61" viewBox="0 0 294 61" fill="none" xmlns="http://www.w3.org/2000/svg">
<path d="M224.69 40.741L232 58.9643M219.631 40.7411L212.321 58.9645M213.578 47.1731H231.037M222.362 31.5751V27.8931M227.39 36.5931C227.39 39.373 225.139 41.6267 222.362 41.6267C219.585 41.6267 217.334 39.373 217.334 36.5931C217.334 33.8131 219.585 31.5595 222.362 31.5595C225.139 31.5595 227.39 33.8131 227.39 36.5931Z" stroke="#C5883F" stroke-opacity="0.6" stroke-width="2" stroke-miterlimit="10"/>
<path d="M270.865 59.7777V56.1377M262.414 59.7773V57.7095M279.317 59.7773V57.7095M255.821 46.7046H259.488M255.821 38.3131H257.904M255.821 55.0942H257.904M270.951 33.3923V37.0493M262.5 33.3923V35.4601M279.403 33.3923V35.4601M292.071 54.0525C292.071 57.3507 289.386 59.9995 286.081 59.9995L255.822 59.9998V33.3923H286.082M292.071 54.0525C292.071 50.7714 289.386 48.1054 286.081 48.1054V25.8213C289.386 25.8213 292.071 28.4701 292.071 31.7683L292.071 54.0525Z" stroke="#C5883F" stroke-opacity="0.6" stroke-width="2" stroke-miterlimit="10"/>
<path d="M50.5523 58.9644V21.4593L66.2079 19.3656L72.1428 23.4238V58.9644M55.7303 58.9644V14.9714L61.1767 14.4287V58.9644M66.5986 58.9644V19.3656M48.2322 48.2376H39M48.2322 43.4299H39M48.2322 53.1487H39M48.2322 38.4155H39V58.9644" stroke="#C5883F" stroke-opacity="0.6" stroke-width="2" stroke-miterlimit="10"/>
<path d="M144.679 14.4287L145.641 14.1565L143.717 14.1558L144.679 14.4287ZM152.214 41.0652L151.252 41.3374L151.328 41.5279L152.214 41.0652ZM162.096 60.0001V61.0001L162.983 59.5374L162.096 60.0001ZM127.239 60.0001L126.353 59.5374L127.239 61.0001V60.0001ZM137.121 41.0652L138.008 41.5279L138.084 41.3381L137.121 41.0652ZM134.021 28.1685V27.1685H133.709L133.453 27.3457L134.021 28.1685ZM155.013 28.1685L155.59 27.3518L155.331 27.1685H155.013V28.1685ZM138.693 14.4287V13.4287H138.262L137.966 13.7419L138.693 14.4287ZM150.363 14.4287L151.091 13.7436L150.795 13.4287H150.363V14.4287ZM131.696 41.0652V40.0652H131.384L131.128 40.2424L131.696 41.0652ZM157.36 41.0652L157.935 40.2473L157.676 40.0652H157.36V41.0652ZM141.514 50.2707L140.842 49.5298L141.514 51.2707V50.2707ZM147.822 50.2707L148.515 50.9918L147.822 49.2707V50.2707ZM143.716 14.7009L151.252 41.3374L153.176 40.793L145.641 14.1565L143.716 14.7009ZM151.328 41.5279L161.21 60.4628L162.983 59.5374L153.101 40.6025L151.328 41.5279ZM128.126 60.4628L138.008 41.5279L136.235 40.6025L126.353 59.5374L128.126 60.4628ZM138.084 41.3381L145.641 14.7017L143.717 14.1558L136.159 40.7923L138.084 41.3381ZM127.894 33.6168L134.59 28.9913L133.453 27.3457L126.757 31.9712L127.894 33.6168ZM134.021 29.1685H155.013V27.1685H134.021V29.1685ZM154.436 28.9852L161.433 33.9297L162.587 32.2963L155.59 27.3518L154.436 28.9852ZM135.049 19.741L139.42 15.1155L137.966 13.7419L133.596 18.3674L135.049 19.741ZM138.693 15.4287H150.363V13.4287H138.693V15.4287ZM149.634 15.1138L154.285 20.0584L155.741 18.6881L151.091 13.7436L149.634 15.1138ZM125.568 46.5135L132.264 41.888L131.128 40.2424L124.432 44.8679L125.568 46.5135ZM131.696 42.0652H157.36V40.0652H131.696V42.0652ZM156.785 41.8831L163.782 46.8049L164.932 45.169L157.935 40.2473L156.785 41.8831ZM147.15 43.8106L140.842 49.5298L142.185 51.0115L148.494 45.2923L147.15 43.8106ZM141.514 51.2707H147.822V49.2707H141.514V51.2707ZM147.129 49.5495L140.821 55.6106L142.206 57.0528L148.515 50.9918L147.129 49.5495ZM162.096 59.0001H127.239V61.0001H162.096V59.0001Z" fill="#C5883F" fill-opacity="0.6"/>
<path d="M-1 60L273 60" stroke="#C5883F" stroke-opacity="0.6" stroke-width="2" stroke-miterlimit="10"/>
<path d="M247.536 6.1331L239.261 2L230.964 6.1331L239.261 10.2857L247.536 6.1331Z" stroke="#C5883F" stroke-opacity="0.6" stroke-width="2" stroke-miterlimit="10"/>
<path d="M107.357 36.1786C107.357 33.3185 105.039 31 102.179 31C99.3185 31 97 33.3185 97 36.1786C97 39.0386 99.3185 41.3571 102.179 41.3571C105.039 41.3571 107.357 39.0386 107.357 36.1786Z" fill="#C5883F" fill-opacity="0.6"/>
</svg>
