<svg width="378" height="76" viewBox="0 0 378 76" fill="none" xmlns="http://www.w3.org/2000/svg">
<g opacity="0.5">
<path d="M61.3021 40.0032H24.0175V24.7965L61.3021 11.2271V40.0032ZM26.0549 37.9565H59.2647V14.1334L26.0549 26.2087V37.936V37.9565Z" fill="#C5883F"/>
<path d="M81.2074 49.1517H59.2646V16.9575H81.2074V49.1517ZM61.3021 47.105H79.17V19.0042H61.3021V47.105Z" fill="#C5883F"/>
<path d="M30.6797 38.979H28.6423V49.151H30.6797V38.979Z" fill="#C5883F"/>
<path d="M37.0772 21.1948H35.0398V49.1524H37.0772V21.1948Z" fill="#C5883F"/>
<path d="M49.9334 16.8354H47.896V39.0009H49.9334V16.8354Z" fill="#C5883F"/>
<path d="M43.4544 38.979H41.417V49.151H43.4544V38.979Z" fill="#C5883F"/>
<path d="M80.1887 21.7881H60.2833V23.8348H80.1887V21.7881Z" fill="#C5883F"/>
<path d="M80.1887 27.0068H60.2833V29.0535H80.1887V27.0068Z" fill="#C5883F"/>
<path d="M80.1887 32.2056H60.2833V34.2522H80.1887V32.2056Z" fill="#C5883F"/>
<path d="M80.1887 37.4043H60.2833V39.451H80.1887V37.4043Z" fill="#C5883F"/>
<path d="M80.1887 42.6025H60.2833V44.6492H80.1887V42.6025Z" fill="#C5883F"/>
<path d="M314.778 42.9307H288.923V16.979H314.778V42.9307ZM290.961 40.8841H312.741V19.0257H290.961V40.8841Z" fill="#C5883F"/>
<path d="M302.88 23.4048H300.842V54.8416H302.88V23.4048Z" fill="#C5883F"/>
<path d="M296.126 27.4922L294.685 28.9395L301.24 35.5243L302.681 34.077L296.126 27.4922Z" fill="#C5883F"/>
<path d="M305.459 34.0036L301.137 38.3452L302.578 39.7924L306.9 35.4508L305.459 34.0036Z" fill="#C5883F"/>
<path d="M241.358 75.1454H239.32V30.835L251.117 19.21L252.543 20.6631L241.358 31.6946V75.1454Z" fill="#C5883F"/>
<path d="M254.078 22.3183L248.172 28.252L251.053 31.1464L256.96 25.2128L254.078 22.3183Z" fill="#C5883F"/>
<path d="M241.358 75.1454H239.32V31.6946L228.135 20.6631L229.561 19.21L241.358 30.835V75.1454Z" fill="#C5883F"/>
<path d="M226.573 22.5133L223.692 25.4077L229.598 31.3413L232.48 28.4468L226.573 22.5133Z" fill="#C5883F"/>
<path d="M133.61 56.3761C129.392 54.6979 127.335 49.8677 129.026 45.6311C130.717 41.3945 135.505 39.3274 139.722 41.0261C143.939 42.7044 145.997 47.5345 144.306 51.7711C142.636 56.0077 137.827 58.0749 133.61 56.3761ZM139.029 42.7044C135.749 41.3945 132 43.0114 130.676 46.3066C129.352 49.6017 130.982 53.3675 134.262 54.6979C137.542 56.0077 141.291 54.391 142.615 51.0958C143.939 47.8007 142.309 44.0347 139.029 42.7044Z" fill="#C5883F"/>
<path d="M160.361 67.0993C156.144 65.421 154.086 60.5909 155.777 56.3543C157.468 52.1177 162.256 50.0505 166.473 51.7493C170.691 53.4275 172.748 58.2577 171.057 62.4943C169.366 66.7309 164.578 68.798 160.361 67.0993ZM165.78 53.4275C162.5 52.1177 158.751 53.7346 157.427 57.0297C156.103 60.3248 157.733 64.0908 161.013 65.4211C164.293 66.731 168.042 65.1141 169.366 61.819C170.691 58.5238 169.061 54.7579 165.78 53.4275Z" fill="#C5883F"/>
<path d="M149.705 54.9013L136.34 49.4981V47.8198L148.809 42.9282H149.481L162.846 48.2906V49.9688L150.398 54.9218H149.726L149.705 54.9013ZM139.111 48.659L150.031 53.0797L160.035 49.1092L149.114 44.7293L139.09 48.659H139.111Z" fill="#C5883F"/>
<path d="M149.683 38.2962L147.897 38.4531L149.256 54.0506L151.042 53.8936L149.683 38.2962Z" fill="#C5883F"/>
<path d="M163.054 43.6345L161.268 43.7915L162.626 59.3889L164.412 59.2319L163.054 43.6345Z" fill="#C5883F"/>
<path d="M146.024 36.3383L145.36 38.0112L151.341 40.4068L152.005 38.7338L146.024 36.3383Z" fill="#C5883F"/>
<path d="M159.35 41.6851L158.686 43.3579L164.666 45.7534L165.33 44.0806L159.35 41.6851Z" fill="#C5883F"/>
<path d="M240.084 75.1447L176.089 75.0832L119.429 52.9178H92.0872V50.8711L120 50.953L176.64 73.098H239.677L286.089 54.2891H361.82V56.3358H286.293L240.084 75.1447Z" fill="#C5883F"/>
<path d="M93.1062 56.6839H-2V47.1055H93.1062V56.6839ZM0.0374076 54.6372H91.0688V49.1521H0.0374076V54.6372Z" fill="#C5883F"/>
<path d="M4.15289 38.3653C0.77079 38.3653 -2 35.6022 -2 32.1843C-2 28.7663 0.750416 26.0034 4.15289 26.0034C7.55536 26.0034 10.3059 28.7663 10.3059 32.1843C10.3059 35.6022 7.55536 38.3653 4.15289 38.3653ZM4.15289 28.0706C1.89136 28.0706 0.0374076 29.9125 0.0374076 32.2048C0.0374076 34.497 1.87099 36.3391 4.15289 36.3391C6.43478 36.3391 8.26849 34.497 8.26849 32.2048C8.26849 29.9125 6.43478 28.0706 4.15289 28.0706Z" fill="#C5883F"/>
<path d="M176.58 9.55309L169 5.15283L176.58 0.752441L184.159 5.15283L176.58 9.55309ZM173.075 5.15283L176.58 7.1995L180.084 5.15283L176.58 3.10616L173.075 5.15283Z" fill="#C5883F"/>
<path d="M376.982 59.5857V50.9595L369.255 46.6362L361.507 50.9595V59.5857L369.255 63.909L376.982 59.5857Z" stroke="#C5883F" stroke-width="2" stroke-miterlimit="10"/>
</g>
</svg>
