<svg width="141" height="34" viewBox="0 0 141 34" fill="none" xmlns="http://www.w3.org/2000/svg">
<path d="M27.8335 24H44.0275L67.3336 33H108.384L122.52 25.3769H130.198" stroke="#91A4A7" stroke-miterlimit="10"/>
<path d="M44.187 20.5181H1V23.8324H44.187V20.5181Z" stroke="#91A4A7" stroke-miterlimit="10"/>
<path d="M9.86614 16.0845V20.5597M13.0005 7.37785V20.5597M19.3142 5.2305V16.0845M16.1348 16.0845V20.5597M24.8984 8.1628H34.6707M24.8984 10.7162H34.6707M24.8984 13.2605H34.6707M24.8984 15.8139H34.6707M24.8984 18.3582H34.6707M24.8984 3.20947L7.5874 9.48911V16.0845H24.8984V3.20947ZM24.8984 5.79892H34.6707V20.5179H24.8984V5.79892Z" stroke="#91A4A7" stroke-miterlimit="10"/>
<path d="M39.4293 20.8859V8.00664M39.4659 12.6797L36.8487 9.98458M39.4293 14.4236L41.1594 12.6495M34.6714 5.78711H44.1872V15.5863H34.6714V5.78711Z" stroke="#91A4A7" stroke-miterlimit="10"/>
<path d="M162 24H130.198V27H162V24Z" stroke="#91A4A7" stroke-miterlimit="10"/>
<path d="M135.405 10.0185L132.116 8.36523L128.817 10.0185L132.116 11.6796L135.405 10.0185Z" stroke="#91A4A7" stroke-miterlimit="10"/>
<path d="M5.02515 2.84132C5.02515 1.8244 4.20584 1 3.19519 1C2.18454 1 1.36523 1.8244 1.36523 2.84132C1.36523 3.85825 2.18454 4.68264 3.19519 4.68264C4.20584 4.68264 5.02515 3.85825 5.02515 2.84132Z" stroke="#91A4A7" stroke-miterlimit="10"/>
<path d="M134.613 19.4131C137.244 19.4131 139.371 21.3887 139.371 23.8323" stroke="#91A4A7" stroke-miterlimit="10"/>
</svg>
