<svg width="320" height="60" viewBox="0 0 320 60" fill="none" xmlns="http://www.w3.org/2000/svg">
<path d="M0 43H38.991L93.4158 59H162.312L217.7 47.0674H235" stroke="#C5883F" stroke-opacity="0.6" stroke-width="2" stroke-miterlimit="10"/>
<path d="M320 43H235V51H320V43Z" stroke="#C5883F" stroke-opacity="0.6" stroke-width="2" stroke-miterlimit="10"/>
<path d="M94.8463 25L102.67 37.5362H87L94.8463 25Z" stroke="#C5883F" stroke-opacity="0.6" stroke-width="2" stroke-miterlimit="10"/>
<path d="M238.376 19.6707C238.376 16.7859 236.037 14.4473 233.152 14.4473C230.268 14.4473 227.929 16.7859 227.929 19.6707C227.929 22.5555 230.268 24.8941 233.152 24.8941C236.037 24.8941 238.376 22.5555 238.376 19.6707Z" stroke="#C5883F" stroke-opacity="0.6" stroke-width="2" stroke-miterlimit="10"/>
<path d="M277 43V21.328H256V43H277ZM277 43H298V1H277V43ZM262.084 26.41V30.022M269.552 26.41V30.022M283.776 19.774V23.386M291.224 19.774V23.386M283.776 27.124V30.736M291.224 27.124V30.736M283.776 34.474V38.086M291.224 34.474V38.086M291.224 6.06098V15.784M283.776 15.784V6.06098M291.224 10.954H283.776M262.084 34.348H269.552V42.979H262.084V34.348Z" stroke="#C5883F" stroke-opacity="0.6" stroke-width="2" stroke-miterlimit="10"/>
<path d="M199 29.548V51M199 29.548C199 24.278 194.896 20 189.806 20M199 29.548C195.418 25.828 189.597 25.8125 186 29.548M199 29.548C193.925 29.548 189.806 33.8105 189.806 39.096M199 29.548C199 24.278 203.104 20 208.194 20M199 29.548C202.582 25.828 208.403 25.8125 212 29.548M199 29.548C204.075 29.548 208.194 33.8105 208.194 39.096" stroke="#C5883F" stroke-opacity="0.6" stroke-width="2" stroke-miterlimit="10"/>
<path d="M65 27.1841C65 25.4717 63.6172 24.0863 61.908 24.0863C60.1988 24.0863 58.8161 25.4717 58.8161 27.1841M39.5158 43V6H32.1797V43M61.908 16.948V11.6952H23V16.948H61.908ZM61.908 16.948V24.9329M32.1797 23.3167H39.5158M32.1797 29.6661H39.5158M32.1797 36.0156H39.5158" stroke="#C5883F" stroke-opacity="0.6" stroke-width="2" stroke-miterlimit="10"/>
<path d="M5.78005 35.057V43M14.1939 35.057V43M19 43C19 38.034 14.9624 34.017 10 34.017C5.03764 34.017 1 38.047 1 43M2.36757 24.449H17.6064M9.98698 22.031V17M15.5745 24.449C15.5745 21.368 13.0738 18.872 9.98698 18.872C6.90015 18.872 4.39941 21.368 4.39941 24.449C4.39941 27.53 6.90015 31.222 9.98698 31.222C13.0738 31.222 15.5745 27.53 15.5745 24.449Z" stroke="#C5883F" stroke-opacity="0.6" stroke-width="2" stroke-miterlimit="10"/>
<path d="M151.061 41.1175L151.747 41.8447L151.061 40.1175V41.1175ZM135.501 41.1175V40.1175L134.818 40.3872L135.501 41.1175ZM124.929 51.0075L124.246 50.2772L124.925 52.0075L124.929 51.0075ZM140.523 51.065L140.519 52.065L141.209 51.7922L140.523 51.065ZM131.858 51.065C131.858 54.8958 128.755 58 124.929 58V60C129.861 60 133.858 55.999 133.858 51.065H131.858ZM124.929 58C121.103 58 118 54.8958 118 51.065H116C116 55.999 119.997 60 124.929 60V58ZM118 51.065C118 47.2342 121.103 44.13 124.929 44.13V42.13C119.997 42.13 116 46.131 116 51.065H118ZM124.929 44.13C128.755 44.13 131.858 47.2342 131.858 51.065H133.858C133.858 46.131 129.861 42.13 124.929 42.13V44.13ZM163 51.065C163 54.8958 159.897 58 156.071 58V60C161.003 60 165 55.999 165 51.065H163ZM156.071 58C152.245 58 149.142 54.8958 149.142 51.065H147.142C147.142 55.999 151.139 60 156.071 60V58ZM149.142 51.065C149.142 47.2342 152.245 44.13 156.071 44.13V42.13C151.139 42.13 147.142 46.131 147.142 51.065H149.142ZM156.071 44.13C159.897 44.13 163 47.2342 163 51.065H165C165 46.131 161.003 42.13 156.071 42.13V44.13ZM151.061 40.1175H135.501V42.1175H151.061V40.1175ZM134.818 40.3872L124.246 50.2772L125.612 51.7378L136.184 41.8478L134.818 40.3872ZM124.925 52.0075L140.519 52.065L140.527 50.065L124.933 50.0075L124.925 52.0075ZM141.209 51.7922L151.747 41.8447L150.374 40.3903L139.837 50.3378L141.209 51.7922ZM141.416 50.6148L133.82 35.5498L132.034 36.4502L139.63 51.5152L141.416 50.6148ZM156.964 50.6153L149.38 35.5503L147.593 36.4497L155.178 51.5147L156.964 50.6153ZM129.457 37H136.409V35H129.457V37ZM145.005 37H151.957V35H145.005V37Z" fill="#C5883F" fill-opacity="0.6"/>
</svg>
