<svg width="44" height="50" viewBox="0 0 44 50" fill="none" xmlns="http://www.w3.org/2000/svg">
<path d="M7.4751 6.31018L10.5851 9.46017H22.0051V3.31018L10.5851 3.16016L7.4751 6.31018Z" stroke="#2E4D52" stroke-width="1.5" stroke-miterlimit="10"/>
<path d="M36.5247 9.46054L33.4147 12.6105H22.0046V6.31055H33.4147L36.5247 9.46054Z" stroke="#2E4D52" stroke-width="1.5" stroke-miterlimit="10"/>
<path d="M22.0046 0V17.62" stroke="#2E4D52" stroke-width="1.5" stroke-miterlimit="10"/>
<path d="M27.0349 28.6198L28.0549 19.5498H43.9749" stroke="#BE8847" stroke-width="1.5" stroke-miterlimit="10"/>
<path d="M16.9951 28.6198L15.9451 19.5498H0.0251465" stroke="#BE8847" stroke-width="1.5" stroke-miterlimit="10"/>
<path d="M22.0054 43.6003C23.8887 43.6003 25.4155 42.0735 25.4155 40.1902C25.4155 38.307 23.8887 36.7803 22.0054 36.7803C20.1221 36.7803 18.5955 38.307 18.5955 40.1902C18.5955 42.0735 20.1221 43.6003 22.0054 43.6003Z" stroke="#2C4D51" stroke-width="1.5" stroke-miterlimit="10"/>
<path d="M15.0255 39.1702C16.5939 39.1702 17.8654 37.8987 17.8654 36.3302C17.8654 34.7617 16.5939 33.4902 15.0255 33.4902C13.457 33.4902 12.1854 34.7617 12.1854 36.3302C12.1854 37.8987 13.457 39.1702 15.0255 39.1702Z" stroke="#2C4D51" stroke-width="1.5" stroke-miterlimit="10"/>
<path d="M28.9755 39.1702C30.544 39.1702 31.8155 37.8987 31.8155 36.3302C31.8155 34.7617 30.544 33.4902 28.9755 33.4902C27.407 33.4902 26.1355 34.7617 26.1355 36.3302C26.1355 37.8987 27.407 39.1702 28.9755 39.1702Z" stroke="#2C4D51" stroke-width="1.5" stroke-miterlimit="10"/>
<path d="M27.0359 32.1201C28.0024 32.1201 28.7859 31.3366 28.7859 30.3701C28.7859 29.4036 28.0024 28.6201 27.0359 28.6201C26.0694 28.6201 25.2859 29.4036 25.2859 30.3701C25.2859 31.3366 26.0694 32.1201 27.0359 32.1201Z" stroke="#2C4D51" stroke-width="1.5" stroke-miterlimit="10"/>
<path d="M32.115 32.54C33.0815 32.54 33.865 31.7565 33.865 30.79C33.865 29.8235 33.0815 29.04 32.115 29.04C31.1485 29.04 30.365 29.8235 30.365 30.79C30.365 31.7565 31.1485 32.54 32.115 32.54Z" stroke="#2C4D51" stroke-width="1.5" stroke-miterlimit="10"/>
<path d="M29.9558 27.8594C30.9223 27.8594 31.7058 27.0759 31.7058 26.1094C31.7058 25.1429 30.9223 24.3594 29.9558 24.3594C28.9893 24.3594 28.2058 25.1429 28.2058 26.1094C28.2058 27.0759 28.9893 27.8594 29.9558 27.8594Z" stroke="#2C4D51" stroke-width="1.5" stroke-miterlimit="10"/>
<path d="M24.6257 27.8594C25.5922 27.8594 26.3757 27.0759 26.3757 26.1094C26.3757 25.1429 25.5922 24.3594 24.6257 24.3594C23.6592 24.3594 22.8757 25.1429 22.8757 26.1094C22.8757 27.0759 23.6592 27.8594 24.6257 27.8594Z" stroke="#2C4D51" stroke-width="1.5" stroke-miterlimit="10"/>
<path d="M16.9958 32.1201C17.9623 32.1201 18.7458 31.3366 18.7458 30.3701C18.7458 29.4036 17.9623 28.6201 16.9958 28.6201C16.0294 28.6201 15.2458 29.4036 15.2458 30.3701C15.2458 31.3366 16.0294 32.1201 16.9958 32.1201Z" stroke="#2C4D51" stroke-width="1.5" stroke-miterlimit="10"/>
<path d="M12.0554 32.54C13.0219 32.54 13.8054 31.7565 13.8054 30.79C13.8054 29.8235 13.0219 29.04 12.0554 29.04C11.0889 29.04 10.3054 29.8235 10.3054 30.79C10.3054 31.7565 11.0889 32.54 12.0554 32.54Z" stroke="#2C4D51" stroke-width="1.5" stroke-miterlimit="10"/>
<path d="M14.075 27.8594C15.0414 27.8594 15.825 27.0759 15.825 26.1094C15.825 25.1429 15.0414 24.3594 14.075 24.3594C13.1085 24.3594 12.325 25.1429 12.325 26.1094C12.325 27.0759 13.1085 27.8594 14.075 27.8594Z" stroke="#2C4D51" stroke-width="1.5" stroke-miterlimit="10"/>
<path d="M19.3955 27.8604C20.362 27.8604 21.1455 27.0768 21.1455 26.1104C21.1455 25.1439 20.362 24.3604 19.3955 24.3604C18.429 24.3604 17.6455 25.1439 17.6455 26.1104C17.6455 27.0768 18.429 27.8604 19.3955 27.8604Z" stroke="#2C4D51" stroke-width="1.5" stroke-miterlimit="10"/>
<path d="M22.0054 23.5801C22.9719 23.5801 23.7554 22.7966 23.7554 21.8301C23.7554 20.8636 22.9719 20.0801 22.0054 20.0801C21.0389 20.0801 20.2554 20.8636 20.2554 21.8301C20.2554 22.7966 21.0389 23.5801 22.0054 23.5801Z" stroke="#2C4D51" stroke-width="1.5" stroke-miterlimit="10"/>
<path d="M22.0057 35.72C23.5742 35.72 24.8458 34.4485 24.8458 32.88C24.8458 31.3115 23.5742 30.04 22.0057 30.04C20.4372 30.04 19.1658 31.3115 19.1658 32.88C19.1658 34.4485 20.4372 35.72 22.0057 35.72Z" stroke="#2C4D51" stroke-width="1.5" stroke-miterlimit="10"/>
<path d="M27.0355 49.9997C27.0355 47.2197 24.7854 44.9697 22.0054 44.9697C19.2254 44.9697 16.9755 47.2197 16.9755 49.9997" stroke="#2E4D52" stroke-width="1.5" stroke-miterlimit="10"/>
<path d="M17.045 40.71C14.365 40.71 12.1951 42.88 12.1951 45.56" stroke="#2E4D52" stroke-width="1.5" stroke-miterlimit="10"/>
<path d="M26.5457 40.71C29.2257 40.71 31.3957 42.88 31.3957 45.56" stroke="#2E4D52" stroke-width="1.5" stroke-miterlimit="10"/>
</svg>
