<svg width="60" height="51" viewBox="0 0 60 51" fill="none" xmlns="http://www.w3.org/2000/svg">
<path d="M35.1599 3.48981V1.5498" stroke="#2E4D52" stroke-width="1.5" stroke-miterlimit="10"/>
<path d="M36.27 30.8097V25.9697H34.0601V28.7697" stroke="#BE8847" stroke-width="1.5" stroke-miterlimit="10"/>
<path d="M34.0598 28.7697V25.9697H31.8398V27.8897" stroke="#BE8847" stroke-width="1.5" stroke-miterlimit="10"/>
<path d="M36.27 31.4397V25.9697H38.4801V29.8297" stroke="#BE8847" stroke-width="1.5" stroke-miterlimit="10"/>
<path d="M36.27 19.9102H34.0601V24.1001H36.27V19.9102Z" stroke="#BE8847" stroke-width="1.5" stroke-miterlimit="10"/>
<path d="M34.0601 19.9102H31.8501V24.1001H34.0601V19.9102Z" stroke="#BE8847" stroke-width="1.5" stroke-miterlimit="10"/>
<path d="M38.4801 19.9102H36.27V24.1001H38.4801V19.9102Z" stroke="#BE8847" stroke-width="1.5" stroke-miterlimit="10"/>
<path d="M39.1499 24.0996H31.1899V25.9696H39.1499V24.0996Z" stroke="#2E4D52" stroke-width="1.5" stroke-miterlimit="10"/>
<path d="M35.1898 3.64029L38.4799 19.8403H31.8398L35.1298 3.64029C35.1298 3.64029 35.1898 3.61029 35.1898 3.64029Z" stroke="#2E4D52" stroke-width="1.5" stroke-miterlimit="10"/>
<path d="M36.8298 0C36.8298 0.98 36.0898 1.78 35.1698 1.78C34.2498 1.78 33.5098 0.98 33.5098 0" stroke="#BE8847" stroke-width="1.5" stroke-miterlimit="10"/>
<path d="M12.6299 49.5103C14.6599 49.5103 16.59 48.6504 17.95 47.1504L19.1199 45.8604" stroke="#BE8847" stroke-width="1.5" stroke-miterlimit="10"/>
<path d="M17.2 43.5404C18.7574 43.5404 20.0199 42.2778 20.0199 40.7204C20.0199 39.163 18.7574 37.9004 17.2 37.9004C15.6425 37.9004 14.3799 39.163 14.3799 40.7204C14.3799 42.2778 15.6425 43.5404 17.2 43.5404Z" stroke="#2E4D52" stroke-width="1.5" stroke-miterlimit="10"/>
<path d="M21.7599 50.0004C21.7599 47.4804 19.72 45.4404 17.2 45.4404C14.68 45.4404 12.6399 47.4804 12.6399 50.0004" stroke="#2E4D52" stroke-width="1.5" stroke-miterlimit="10"/>
<path d="M18.0901 25.5504V21.1904H4.98999V34.5904" stroke="#2E4D52" stroke-width="1.5" stroke-miterlimit="10"/>
<path d="M31.1901 27.5804V8.61035H18.0901V25.5504" stroke="#2E4D52" stroke-width="1.5" stroke-miterlimit="10"/>
<path d="M8.78003 23.6699V25.8999" stroke="#2E4D52" stroke-width="1.5" stroke-miterlimit="10"/>
<path d="M13.4302 23.6699V25.8999" stroke="#2E4D52" stroke-width="1.5" stroke-miterlimit="10"/>
<path d="M22.3101 20.2305V22.4705" stroke="#2E4D52" stroke-width="1.5" stroke-miterlimit="10"/>
<path d="M26.96 20.2305V22.4705" stroke="#2E4D52" stroke-width="1.5" stroke-miterlimit="10"/>
<path d="M26.96 11.7402V17.7702" stroke="#BE8847" stroke-width="1.5" stroke-miterlimit="10"/>
<path d="M22.3101 17.7702V11.7402" stroke="#BE8847" stroke-width="1.5" stroke-miterlimit="10"/>
<path d="M26.9601 14.7705H22.3101" stroke="#BE8847" stroke-width="1.5" stroke-miterlimit="10"/>
<path d="M44.2402 16.8594H49.7103" stroke="#2E4D52" stroke-width="1.5" stroke-miterlimit="10"/>
<path d="M46.9803 8.83984L49.7103 12.0498L49.7003 21.9998H44.2502L44.2402 12.0498L46.9803 8.83984Z" stroke="#BE8847" stroke-width="1.5" stroke-miterlimit="10"/>
<path d="M39.1401 22H53.8002L56.3601 28.18" stroke="#2E4D52" stroke-width="1.5" stroke-miterlimit="10"/>
<path d="M47.2002 28.1997L58.9302 28.1797L56.3601 36.3597" stroke="#2E4D52" stroke-width="1.5" stroke-miterlimit="10"/>
<path d="M3.25 39.1299V49.9999" stroke="#BE8847" stroke-width="1.5" stroke-miterlimit="10"/>
<path d="M6.62012 39.1299V49.9999" stroke="#BE8847" stroke-width="1.5" stroke-miterlimit="10"/>
<path d="M4.98999 34.2197V32.1797" stroke="#BE8847" stroke-width="1.5" stroke-miterlimit="10"/>
<path d="M9.13 46.3701H0.790039V50.0001H9.13V46.3701Z" stroke="#2E4D52" stroke-width="1.5" stroke-miterlimit="10"/>
<path d="M9.14001 39.1301V46.3701H0.790039V39.1301L2.43005 36.6201H7.5L9.14001 39.1301Z" stroke="#2E4D52" stroke-width="1.5" stroke-miterlimit="10"/>
<path d="M4.67993 34.2197H5.28992C6.52992 34.2197 7.53992 35.2297 7.53992 36.4697V36.6097H2.41992V36.4697C2.41992 35.2297 3.42992 34.2197 4.66992 34.2197H4.67993Z" stroke="#2E4D52" stroke-width="1.5" stroke-miterlimit="10"/>
<path d="M9.35986 34.7193L22.1599 29.5293L35.1499 34.7193" stroke="#BE8847" stroke-width="1.5" stroke-miterlimit="10"/>
<path d="M9.35986 37.1904L11.21 36.4404" stroke="#BE8847" stroke-width="1.5" stroke-miterlimit="10"/>
<path d="M14.3599 35.16L22.1599 32L31.71 35.82" stroke="#BE8847" stroke-width="1.5" stroke-miterlimit="10"/>
<path d="M33.29 36.4502L35.15 37.1902" stroke="#BE8847" stroke-width="1.5" stroke-miterlimit="10"/>
<path d="M28.85 47.1297H25.1399V38.1396L28.85 39.2097V47.1297Z" stroke="#BE8847" stroke-width="1.5" stroke-miterlimit="10"/>
<path d="M22.1599 49.9995H35.1499V29.2195L22.1599 24.0195L9.16992 29.2195V49.9995H22.1599Z" stroke="#2E4D52" stroke-width="1.5" stroke-miterlimit="10"/>
<path d="M44.4399 27.4993V25.9893" stroke="#2E4D52" stroke-width="1.5" stroke-miterlimit="10"/>
<path d="M45.97 24.0195C45.97 24.8695 45.2799 25.5495 44.4399 25.5495C43.5999 25.5495 42.9099 24.8595 42.9099 24.0195" stroke="#BE8847" stroke-width="1.5" stroke-miterlimit="10"/>
<path d="M57.2699 41.06C57.2699 31.37 46.5799 27.5 44.4399 27.5C43.1799 27.5 38.4999 29.01 35.1499 32.49" stroke="#2E4D52" stroke-width="1.5" stroke-miterlimit="10"/>
<path d="M58.09 41.0596H35.1499V45.4396H58.09V41.0596Z" stroke="#2E4D52" stroke-width="1.5" stroke-miterlimit="10"/>
<path d="M59.21 45.4395H35.1499V49.9995H59.21V45.4395Z" stroke="#2E4D52" stroke-width="1.5" stroke-miterlimit="10"/>
<path d="M40.0898 42.3096V44.3696" stroke="#BE8847" stroke-width="1.5" stroke-miterlimit="10"/>
<path d="M44.4399 42.3096V44.3696" stroke="#BE8847" stroke-width="1.5" stroke-miterlimit="10"/>
<path d="M48.79 42.3096V44.3696" stroke="#BE8847" stroke-width="1.5" stroke-miterlimit="10"/>
<path d="M53.1399 42.3096V44.3696" stroke="#BE8847" stroke-width="1.5" stroke-miterlimit="10"/>
<path d="M38.7598 46.6699V48.7299" stroke="#BE8847" stroke-width="1.5" stroke-miterlimit="10"/>
<path d="M44.4399 46.6699V48.7299" stroke="#BE8847" stroke-width="1.5" stroke-miterlimit="10"/>
<path d="M50.1199 46.6699V48.7299" stroke="#BE8847" stroke-width="1.5" stroke-miterlimit="10"/>
<path d="M55.7998 46.6699V48.7299" stroke="#BE8847" stroke-width="1.5" stroke-miterlimit="10"/>
<path d="M0.790039 39.1299H9.14001" stroke="#2E4D52" stroke-width="1.5" stroke-miterlimit="10"/>
</svg>
