<svg width="26" height="15" viewBox="0 0 26 15" fill="none" xmlns="http://www.w3.org/2000/svg">
<path d="M24.9455 2.75562H24.9264C24.8366 1.97511 24.1288 1.36328 23.2631 1.36328C22.3974 1.36328 21.6896 1.97511 21.5998 2.75562H21.2104V3.08042H21.5916C21.676 3.89619 22.3756 4.77237 23.2631 4.77237C24.1506 4.77237 24.8502 3.89619 24.9346 3.08042H25.3157V2.75562H24.9428H24.9455ZM23.2658 4.44758C22.6043 4.44758 22.0326 3.73253 21.9455 3.08042H24.5834C24.499 3.73253 23.9246 4.44758 23.2631 4.44758H23.2658Z" fill="#2E4D52"/>
<path d="M23.7348 0.835938H23.0356V2.18414H23.7348V0.835938Z" fill="#BE8847"/>
<path d="M15.4345 5.59146C15.4345 7.36113 14.4698 8.90656 13.0389 9.73331C11.6054 8.90656 10.6406 7.36113 10.6406 5.59146C10.6406 5.52122 10.6433 5.45368 10.6461 5.38613C11.3479 4.98357 12.1609 4.75391 13.0281 4.75391C13.8953 4.75391 14.7218 4.98626 15.4291 5.39964C15.4345 5.46178 15.4345 5.52662 15.4345 5.59146Z" fill="#BE8847"/>
<path d="M13.0386 9.73358C12.334 10.1415 11.5156 10.3739 10.6403 10.3739C9.76502 10.3739 8.94391 10.1388 8.23662 9.72817C6.80577 8.90142 5.84375 7.3587 5.84375 5.59173C5.84375 2.94938 7.99001 0.80957 10.6403 0.80957C11.5156 0.80957 12.334 1.04192 13.0386 1.44989C14.418 2.24692 15.3638 3.70859 15.4288 5.39991C14.7215 4.98653 13.9004 4.75418 13.0278 4.75418C12.1552 4.75418 11.3476 4.98384 10.6458 5.3864C10.6431 5.45395 10.6403 5.52149 10.6403 5.59173C10.6403 7.3614 11.6051 8.90683 13.0386 9.73358Z" stroke="#2E4D52" stroke-width="0.75" stroke-miterlimit="10"/>
<path d="M20.2311 5.59173C20.2311 7.36681 19.2582 8.92034 17.8165 9.74168C17.1146 10.1443 16.3017 10.3739 15.4345 10.3739C14.5673 10.3739 13.7434 10.1415 13.0389 9.73358C14.4697 8.90683 15.4345 7.3614 15.4345 5.59173C15.4345 5.52689 15.4345 5.46205 15.4291 5.39991C14.7218 4.98653 13.9006 4.75418 13.028 4.75418C12.1554 4.75418 11.3479 4.98384 10.646 5.3864C10.7165 3.70049 11.6622 2.24152 13.0389 1.44989C13.7434 1.04192 14.5619 0.80957 15.4345 0.80957C18.0848 0.80957 20.2311 2.94938 20.2311 5.59173Z" stroke="#2E4D52" stroke-width="0.75" stroke-miterlimit="10"/>
<path d="M17.8219 9.53666C17.8219 9.60691 17.8192 9.67446 17.8165 9.742C17.7108 12.2898 15.6079 14.3188 13.0281 14.3188C10.4482 14.3188 8.33714 12.2817 8.23687 9.72849C8.23145 9.66635 8.23145 9.60151 8.23145 9.53666C8.23145 7.76159 9.20432 6.20806 10.646 5.38672C10.6433 5.45426 10.6406 5.5218 10.6406 5.59205C10.6406 7.36172 11.6053 8.90715 13.0389 9.7339C14.4697 8.90715 15.4345 7.36172 15.4345 5.59205C15.4345 5.52721 15.4345 5.46237 15.4291 5.40022C16.8599 6.22427 17.8219 7.76969 17.8219 9.53666Z" stroke="#2E4D52" stroke-width="0.75" stroke-miterlimit="10"/>
<path d="M0.684082 5.46387H4.8845L7.49146 6.62294" stroke="#BE8847" stroke-width="0.75" stroke-miterlimit="10" stroke-linecap="square"/>
<path d="M25.1494 5.46387H21.1902L18.3447 6.62294" stroke="#BE8847" stroke-width="0.75" stroke-miterlimit="10" stroke-linecap="square"/>
<path d="M0.781738 12.9782H7.8574L10.4644 11.8164" stroke="#BE8847" stroke-width="0.75" stroke-miterlimit="10" stroke-linecap="square"/>
<path d="M25.2471 12.9782H18.4099L15.5645 11.8164" stroke="#BE8847" stroke-width="0.75" stroke-miterlimit="10" stroke-linecap="square"/>
<path d="M4.45103 3.78059V1.71372L2.65433 0.681641L0.860352 1.71372V3.78059L2.65433 4.81537L4.45103 3.78059Z" fill="#2E4D52"/>
<path d="M2.65433 3.46971L0.860352 2.45654V2.17285L2.65433 3.23196L4.45103 2.19717V2.43493L2.65433 3.46971Z" fill="#BE8847"/>
<path d="M2.65713 12.0261C2.65713 12.0261 1.25879 10.1942 1.25879 9.24862C1.25879 8.47861 1.8848 7.85449 2.65713 7.85449C3.42946 7.85449 4.06086 8.47861 4.06086 9.24862C4.06086 10.1942 2.65713 12.0261 2.65713 12.0261Z" fill="#2E4D52"/>
<path d="M2.65971 9.98293C3.06531 9.98293 3.39409 9.65512 3.39409 9.25075C3.39409 8.84637 3.06531 8.51855 2.65971 8.51855C2.25412 8.51855 1.92529 8.84637 1.92529 9.25075C1.92529 9.65512 2.25412 9.98293 2.65971 9.98293Z" fill="#BE8847"/>
<path d="M23.3827 12.2727C24.5172 12.2727 25.4369 11.3558 25.4369 10.2247C25.4369 9.09366 24.5172 8.17676 23.3827 8.17676C22.2483 8.17676 21.3286 9.09366 21.3286 10.2247C21.3286 11.3558 22.2483 12.2727 23.3827 12.2727Z" fill="#2E4D52"/>
<path d="M24.1227 9.54102L23.0821 9.9598L22.6431 10.9027L23.6864 10.4866L24.1227 9.54102Z" fill="#BE8847"/>
<path d="M23.4857 8.5498H23.2798V9.13339H23.4857V8.5498Z" fill="white"/>
<path d="M25.0604 10.1221H24.4751V10.3274H25.0604V10.1221Z" fill="white"/>
<path d="M23.4857 11.3135H23.2798V11.8971H23.4857V11.3135Z" fill="white"/>
<path d="M22.2909 10.1221H21.7056V10.3274H22.2909V10.1221Z" fill="white"/>
</svg>
