<svg width="31" height="27" viewBox="0 0 31 27" fill="none" xmlns="http://www.w3.org/2000/svg">
<path d="M0.0770078 17.6514C0.0628867 13.6381 0.727152 10.1124 2.0698 7.0743C3.45912 4.03606 5.57497 1.90527 8.41735 0.681925C9.49446 1.75148 10.4309 2.63485 11.2267 3.33206C12.069 3.98243 12.981 4.56256 13.9628 5.07244C11.586 5.96747 9.83967 7.02362 8.72395 8.24089C7.65489 9.45799 6.9599 10.8838 6.63899 12.5183L13.7089 12.4934L13.7582 26.4933L0.178287 26.5411L0.0770078 17.6514ZM16.1769 17.5947C16.1628 13.5814 16.8271 10.0557 18.1697 7.01765C19.559 3.97941 21.6749 1.84862 24.5173 0.625277C25.5944 1.69483 26.5308 2.5782 27.3266 3.27541C28.1689 3.92578 29.0809 4.50591 30.0627 5.01579C27.6859 5.91082 25.9396 6.96698 24.8239 8.18424C23.7548 9.40135 23.0598 10.8271 22.7389 12.4616L29.1088 12.4392L29.1581 26.4391L16.2782 26.4844L16.1769 17.5947Z" fill="url(#paint0_linear_540_8293)" fill-opacity="0.3"/>
<defs>
<linearGradient id="paint0_linear_540_8293" x1="4" y1="0.99902" x2="4" y2="26.499" gradientUnits="userSpaceOnUse">
<stop stop-color="#FBF9F6"/>
<stop offset="1" stop-color="#9A6734"/>
</linearGradient>
</defs>
</svg>
