<svg width="31" height="27" viewBox="0 0 31 27" fill="none" xmlns="http://www.w3.org/2000/svg">
<path d="M30.1464 9.46C30.1464 13.4733 29.4697 16.9967 28.1164 20.03C26.7164 23.0633 24.5931 25.1867 21.7464 26.4C20.6731 25.3267 19.7397 24.44 18.9464 23.74C18.1064 23.0867 17.1964 22.5033 16.2164 21.99C18.5964 21.1033 20.3464 20.0533 21.4664 18.84C22.5397 17.6267 23.2397 16.2033 23.5664 14.57L16.4964 14.57V0.570001H30.0764L30.1464 9.46ZM14.0464 9.46C14.0464 13.4733 13.3697 16.9967 12.0164 20.03C10.6164 23.0633 8.49307 25.1867 5.64641 26.4C4.57307 25.3267 3.63974 24.44 2.8464 23.74C2.0064 23.0867 1.09641 22.5033 0.116406 21.99C2.49641 21.1033 4.24641 20.0533 5.3664 18.84C6.43974 17.6267 7.13974 16.2033 7.4664 14.57H1.09641V0.570001H13.9764L14.0464 9.46Z" fill="url(#paint0_linear_540_8294)" fill-opacity="0.3"/>
<defs>
<linearGradient id="paint0_linear_540_8294" x1="26.1648" y1="26.0985" x2="26.2546" y2="0.598607" gradientUnits="userSpaceOnUse">
<stop stop-color="#FBF9F6"/>
<stop offset="1" stop-color="#9A6734"/>
</linearGradient>
</defs>
</svg>
