<svg width="137" height="36" viewBox="0 0 137 36" fill="none" xmlns="http://www.w3.org/2000/svg">
<path d="M0 25H48.1229L64.2304 35H105.818L118.149 26.5299H122" stroke="#91A4A7" stroke-miterlimit="10"/>
<path d="M153.492 25.3618H122.189V28.3079H153.492V25.3618Z" stroke="#91A4A7" stroke-miterlimit="10"/>
<path d="M7.82031 4.08188L3.20367 6.96318L3.20367 1.19238L7.82031 4.08188Z" stroke="#91A4A7" stroke-miterlimit="10"/>
<path d="M125.432 5.77126C125.432 4.70889 124.571 3.84766 123.509 3.84766C122.446 3.84766 121.585 4.70889 121.585 5.77126C121.585 6.83362 122.446 7.69485 123.509 7.69485C124.571 7.69485 125.432 6.83362 125.432 5.77126Z" stroke="#91A4A7" stroke-miterlimit="10"/>
<path d="M39.7679 17.3501L42.9462 25.2655M37.568 17.3502L34.3896 25.2655M34.9362 20.1439H42.5277M38.7556 13.3688V11.7695M40.9418 15.5484C40.9418 16.7559 39.963 17.7348 38.7555 17.7348C37.548 17.7348 36.5692 16.7559 36.5692 15.5484C36.5692 14.3409 37.548 13.3621 38.7555 13.3621C39.963 13.3621 40.9418 14.3409 40.9418 15.5484Z" stroke="#91A4A7" stroke-miterlimit="10"/>
<path d="M122.895 25.2353L136.36 11.7695L136.36 25.2353L122.895 25.2353Z" stroke="#91A4A7" stroke-miterlimit="10"/>
<path d="M129.351 22.4477L133.573 18.2262L133.573 22.4477L129.351 22.4477Z" stroke="#91A4A7" stroke-miterlimit="10"/>
<path d="M22.7876 24.1729V22.6537M26.2897 24.1728V23.3097M19.2853 24.1728V23.3097M29.0215 18.7164H27.5023M29.0215 15.2139H28.1585M29.0215 22.2181H28.1585M22.7518 13.16V14.6864M26.2539 13.16V14.0231M19.2497 13.16V14.0231M14 21.7833C14 23.16 15.1127 24.2655 16.4822 24.2655L29.0214 24.2657V13.16H16.4821M14 21.7833C14 20.4139 15.1127 19.3011 16.4822 19.3011V10C15.1127 10 14 11.1056 14 12.4822L14 21.7833Z" stroke="#91A4A7" stroke-miterlimit="10"/>
</svg>
