<svg width="466" height="69" viewBox="0 0 466 69" fill="none" xmlns="http://www.w3.org/2000/svg">
<path d="M13.5361 40.6533H82.9492L168.149 67.8151H388.128L453.348 44.8089H473.719" stroke="#91A4A7" stroke-width="2" stroke-miterlimit="10"/>
<path d="M136.287 10.3687L123.75 18.1927L123.75 2.52246L136.287 10.3687Z" stroke="#91A4A7" stroke-width="2" stroke-miterlimit="10"/>
<path d="M477.376 17.6707C477.376 14.7859 475.037 12.4473 472.152 12.4473C469.268 12.4473 466.929 14.7859 466.929 17.6707C466.929 20.5555 469.268 22.8941 472.152 22.8941C475.037 22.8941 477.376 20.5555 477.376 17.6707Z" stroke="#91A4A7" stroke-width="2" stroke-miterlimit="10"/>
<path d="M70.9725 19.243L79.603 40.7368M64.9987 19.2432L56.3682 40.737M57.8523 26.8295H78.4666M68.2236 8.43214V4.08936M74.1603 14.3507C74.1603 17.6296 71.5022 20.2876 68.2234 20.2876C64.9445 20.2876 62.2865 17.6296 62.2865 14.3507C62.2865 11.0718 64.9445 8.4138 68.2234 8.4138C71.5022 8.4138 74.1603 11.0718 74.1603 14.3507Z" stroke="#91A4A7" stroke-width="2" stroke-miterlimit="10"/>
<path d="M24.8621 40.4858V36.3603M34.3719 40.4853V38.1417M15.3519 40.4853V38.1417M41.7901 25.6688H37.6646M41.7901 16.1581H39.4465M41.7901 35.1776H39.4465M24.765 10.5809V14.7257M34.2748 10.5809V12.9245M15.2552 10.5809V12.9245M1.00002 33.9969C1.00002 37.7351 4.02153 40.7371 7.74027 40.7371L41.7898 40.7376V10.5809H7.74003M1.00002 33.9969C1.00002 30.2782 4.0215 27.2565 7.74025 27.2565V2C4.0215 2 1 5.00214 1 8.74025L1.00002 33.9969Z" stroke="#91A4A7" stroke-width="2" stroke-miterlimit="10"/>
</svg>
