<svg width="207" height="60" viewBox="0 0 207 60" fill="none" xmlns="http://www.w3.org/2000/svg">
<path d="M0 53.687H114.48" stroke="#91A4A7" stroke-width="2" stroke-miterlimit="10"/>
<path d="M140.157 53.687H199.002" stroke="#91A4A7" stroke-width="2" stroke-miterlimit="10"/>
<path d="M80.3062 12.7731L90.5075 6.54783L90.5075 19.0161L80.3062 12.7731Z" stroke="#91A4A7" stroke-width="2" stroke-miterlimit="10"/>
<path d="M207 53.9411C207 51.4371 204.97 49.4072 202.466 49.4072C199.962 49.4072 197.932 51.4371 197.932 53.9411C197.932 56.4451 199.962 58.4751 202.466 58.4751C204.97 58.4751 207 56.4451 207 53.9411Z" fill="#91A4A7"/>
<path d="M120.171 47.5864L127.326 50.4024L134.466 47.5714M122.132 42.239L127.326 44.2761L132.52 42.2091M124.078 36.8767L127.326 38.1499L130.559 36.8617M140.157 53.3082L127.326 57.9666L114.48 53.3382L119.103 50.5222L127.326 28.0093L135.549 50.5222L140.157 53.3082Z" stroke="#91A4A7" stroke-width="2" stroke-miterlimit="10"/>
<path d="M33.7149 6.69162V0.191895M21.3979 12.4958H46.0057M33.6887 17.5778V30.069M33.6887 30.069V53.6871M33.6887 30.069L22.6821 48.5248M33.6887 30.069L44.7216 48.5248M39.821 23.8101H27.5827M42.7299 12.4958C42.7299 7.41376 38.6941 3.29462 33.7149 3.29462C28.7357 3.29462 24.6999 7.41376 24.6999 12.4958H42.7561H42.7299ZM22.6821 17.5778H44.7216V30.069H22.6821V17.5778Z" stroke="#91A4A7" stroke-width="2" stroke-miterlimit="10"/>
<path d="M175.464 37.6346V31.2228L169.588 28.0093L163.695 31.2228V37.6346L169.588 40.8481L175.464 37.6346Z" stroke="#91A4A7" stroke-width="2" stroke-miterlimit="10"/>
</svg>
