<svg width="162" height="19" viewBox="0 0 162 19" fill="none" xmlns="http://www.w3.org/2000/svg">
<path d="M29.9551 6.75098H88.7452L95.7461 12.9064H116.787L131.957 6.75098H135.699" stroke="#91A4A7" stroke-miterlimit="10"/>
<path d="M-24 15.4907H58.785" stroke="#91A4A7" stroke-miterlimit="10"/>
<path d="M18 5.49647L14.5047 4L11 5.49647L14.5047 7L18 5.49647Z" stroke="#91A4A7" stroke-miterlimit="10"/>
<path d="M161 5H136V8H161V5Z" stroke="#91A4A7" stroke-miterlimit="10"/>
<path d="M65 15C65 13.3431 63.6569 12 62 12C60.3431 12 59 13.3431 59 15C59 16.6569 60.3431 18 62 18C63.6569 18 65 16.6569 65 15Z" stroke="#91A4A7" stroke-miterlimit="10"/>
<path d="M109 6V2L105.5 0L102 2V6L105.5 8L109 6Z" fill="#91A4A7"/>
<path d="M77 14.5L83 11V18L77 14.5Z" fill="#91A4A7"/>
</svg>
