<svg width="99" height="53" viewBox="0 0 99 53" fill="none" xmlns="http://www.w3.org/2000/svg">
<path d="M30.4849 29.1104H15.0549" stroke="#2E4D52" stroke-width="1.5" stroke-miterlimit="10"/>
<path d="M64.1448 20.8496H45.1848V1.88965C55.6548 1.88965 64.1448 10.3796 64.1448 20.8496Z" fill="#2E4D52"/>
<path d="M55.0947 36.0098L68.2648 47.6898" stroke="#2E4D52" stroke-width="1.5" stroke-miterlimit="10"/>
<path d="M97.1849 42.29H68.2649V51.5H97.1849V42.29Z" stroke="#BE8847" stroke-width="1.5" stroke-miterlimit="10"/>
<path d="M97.1849 17.54H73.835" stroke="#2E4D52" stroke-width="1.5" stroke-miterlimit="10" stroke-linecap="square"/>
<path d="M97.1849 13.2197H73.835" stroke="#2E4D52" stroke-width="1.5" stroke-miterlimit="10" stroke-linecap="square"/>
<path d="M97.1848 8.90039H86.0947" stroke="#2E4D52" stroke-width="1.5" stroke-miterlimit="10" stroke-linecap="square"/>
<path d="M15.3849 22.6805C15.1149 24.1205 14.9749 25.6105 14.9749 27.1305C14.9749 40.5905 25.8949 51.5005 39.3249 51.5005C52.7549 51.5005 63.6949 40.5905 63.6949 27.1305H48.1749C48.1749 32.0105 44.2049 35.9805 39.3249 35.9805C37.9649 35.9805 36.6749 35.6705 35.5249 35.1305C34.6149 34.6905 33.7948 34.1105 33.0948 33.4005C31.4748 31.8105 30.4749 29.5805 30.4749 27.1305C30.4749 26.8705 30.4849 26.6105 30.5149 26.3505C30.7549 23.5605 32.2849 21.1505 34.4949 19.7005C35.1749 19.2705 35.9149 18.9205 36.6949 18.6705C37.5249 18.4205 38.4049 18.2805 39.3249 18.2805V2.73047C30.0049 2.73047 21.8949 7.99046 17.8049 15.7105" stroke="#2E4D52" stroke-width="1.5" stroke-miterlimit="10"/>
<path d="M36.395 35.4697L32.075 50.3997" stroke="#2E4D52" stroke-width="1.5" stroke-miterlimit="10"/>
<path d="M32.4149 21.6405C31.1949 23.1505 30.4849 25.0505 30.4849 27.1105C30.4849 32.0205 34.4749 36.0105 39.3649 36.0105C44.2549 36.0105 48.2649 32.0205 48.2649 27.1105C48.2649 22.2005 44.2749 18.2305 39.3649 18.2305C38.3349 18.2305 37.3348 18.4105 36.4048 18.7605" stroke="#BE8847" stroke-width="1.5" stroke-miterlimit="10"/>
<path d="M52.645 40.52L45.585 33.46" stroke="#BE8847" stroke-width="1.5" stroke-miterlimit="10"/>
<path d="M27.0849 14.96L20.2349 17.84" stroke="#2E4D52" stroke-width="1.5" stroke-miterlimit="10"/>
<path d="M32.5049 16.6299L37.2449 23.9399L39.2549 27.0299" stroke="#2E4D52" stroke-width="1.5" stroke-miterlimit="10"/>
<path d="M14.5048 16.3997L7.6748 7.96973" stroke="#2E4D52" stroke-width="1.5" stroke-miterlimit="10"/>
<path d="M39.2549 30.7301C41.2984 30.7301 42.955 29.0735 42.955 27.0301C42.955 24.9866 41.2984 23.3301 39.2549 23.3301C37.2115 23.3301 35.5549 24.9866 35.5549 27.0301C35.5549 29.0735 37.2115 30.7301 39.2549 30.7301Z" stroke="#2E4D52" stroke-width="1.5" stroke-miterlimit="10"/>
<path d="M30.4849 17.2301C32.5284 17.2301 34.1849 15.5735 34.1849 13.5301C34.1849 11.4866 32.5284 9.83008 30.4849 9.83008C28.4415 9.83008 26.7849 11.4866 26.7849 13.5301C26.7849 15.5735 28.4415 17.2301 30.4849 17.2301Z" stroke="#2E4D52" stroke-width="1.5" stroke-miterlimit="10"/>
<path d="M16.825 22.9703C18.8685 22.9703 20.525 21.3138 20.525 19.2703C20.525 17.2269 18.8685 15.5703 16.825 15.5703C14.7816 15.5703 13.125 17.2269 13.125 19.2703C13.125 21.3138 14.7816 22.9703 16.825 22.9703Z" stroke="#2E4D52" stroke-width="1.5" stroke-miterlimit="10"/>
<path d="M5.22485 8.9C7.26831 8.9 8.92487 7.24346 8.92487 5.2C8.92487 3.15655 7.26831 1.5 5.22485 1.5C3.1814 1.5 1.5249 3.15655 1.5249 5.2C1.5249 7.24346 3.1814 8.9 5.22485 8.9Z" stroke="#BE8847" stroke-width="1.5" stroke-miterlimit="10"/>
<path d="M77.205 29.3698C77.205 27.8298 75.955 26.5898 74.425 26.5898C72.895 26.5898 71.645 27.8398 71.645 29.3698C71.645 30.8998 72.895 32.7298 74.425 32.7298C75.955 32.7298 77.205 30.9098 77.205 29.3698Z" stroke="#2E4D52" stroke-width="1.5" stroke-miterlimit="10"/>
<path d="M77.5549 37.1298L79.955 32.9998L79.8049 28.5598C79.5949 25.7298 77.235 23.5498 74.395 23.5498C71.555 23.5498 69.2049 25.7298 68.9849 28.5598L68.835 32.9998L71.2349 37.1298" stroke="#BE8847" stroke-width="1.5" stroke-miterlimit="10"/>
<path d="M94.005 31.8001C94.005 33.6401 92.515 35.1301 90.675 35.1301C88.835 35.1301 87.345 33.6401 87.345 31.8001C87.345 31.2801 87.465 30.7801 87.685 30.3301H93.665C93.885 30.7801 94.005 31.2701 94.005 31.8001Z" stroke="#2E4D52" stroke-width="1.5" stroke-miterlimit="10"/>
<path d="M95.995 37.1298L97.475 30.8898L94.625 23.5498H86.715L83.875 30.8898L85.345 37.1298" stroke="#BE8847" stroke-width="1.5" stroke-miterlimit="10"/>
<path d="M94.1149 27.5498H91.1649H88.8549H87.2749" stroke="#2E4D52" stroke-width="1.5" stroke-miterlimit="10"/>
</svg>
