<svg width="64" height="51" viewBox="0 0 64 51" fill="none" xmlns="http://www.w3.org/2000/svg">
<path d="M31.1301 21.93L43.0201 10.16L49.1501 15.21L54.7902 9.29004" stroke="#2E4D52" stroke-width="1.5" stroke-miterlimit="10"/>
<path d="M57.24 9.60015C59.0183 9.60015 60.46 8.15851 60.46 6.38016C60.46 4.6018 59.0183 3.16016 57.24 3.16016C55.4616 3.16016 54.02 4.6018 54.02 6.38016C54.02 8.15851 55.4616 9.60015 57.24 9.60015Z" stroke="#BE8847" stroke-width="1.5" stroke-miterlimit="10"/>
<path d="M52.03 18.2198C52.03 15.3398 54.36 13.0098 57.24 13.0098C60.12 13.0098 62.46 15.3398 62.46 18.2198" stroke="#BE8847" stroke-width="1.5" stroke-miterlimit="10"/>
<path d="M27.59 36.6598C33.7535 36.6598 38.75 31.6633 38.75 25.4998C38.75 19.3363 33.7535 14.3398 27.59 14.3398C21.4265 14.3398 16.4299 19.3363 16.4299 25.4998C16.4299 31.6633 21.4265 36.6598 27.59 36.6598Z" stroke="#BE8847" stroke-width="1.5" stroke-miterlimit="10"/>
<path d="M27.5901 8.12V0.5" stroke="#2E4D52" stroke-width="1.5" stroke-miterlimit="10"/>
<path d="M35.4202 33.3398L45.2701 43.1798" stroke="#BE8847" stroke-width="1.5" stroke-miterlimit="10"/>
<path d="M27.5901 42.8799V50.4999" stroke="#2E4D52" stroke-width="1.5" stroke-miterlimit="10"/>
<path d="M15.3002 37.79L9.91016 43.18" stroke="#2E4D52" stroke-width="1.5" stroke-miterlimit="10"/>
<path d="M24.07 21.9903L9.91003 7.82031H0.540039" stroke="#2E4D52" stroke-width="1.5" stroke-miterlimit="10"/>
<path d="M47.96 25.4898C43.65 18.7698 36.15 14.3398 27.59 14.3398C19.03 14.3398 11.53 18.7698 7.25 25.4898C11.32 31.8798 18.31 36.1898 26.36 36.6098H26.54C26.87 36.6398 27.23 36.6398 27.59 36.6398C27.95 36.6398 28.31 36.6398 28.64 36.6098H28.8199C36.8699 36.1898 43.86 31.8798 47.96 25.4898Z" stroke="#2E4D52" stroke-width="1.5" stroke-miterlimit="10"/>
<path d="M0.540039 2.58008H10.6401" stroke="#BE8847" stroke-width="1.5" stroke-miterlimit="10"/>
<path d="M27.5701 29.7402C29.9173 29.7402 31.8201 27.8374 31.8201 25.4902C31.8201 23.143 29.9173 21.2402 27.5701 21.2402C25.2229 21.2402 23.3201 23.143 23.3201 25.4902C23.3201 27.8374 25.2229 29.7402 27.5701 29.7402Z" stroke="#2E4D52" stroke-width="1.5" stroke-miterlimit="10"/>
<path d="M26.5099 29.46L25.8799 31.83" stroke="#2E4D52" stroke-width="1.5" stroke-miterlimit="10"/>
<path d="M23.6 26.5596L21.23 27.1996" stroke="#2E4D52" stroke-width="1.5" stroke-miterlimit="10"/>
<path d="M24.6599 22.5796L22.9199 20.8496" stroke="#2E4D52" stroke-width="1.5" stroke-miterlimit="10"/>
<path d="M28.63 21.5097L29.26 19.1396" stroke="#2E4D52" stroke-width="1.5" stroke-miterlimit="10"/>
<path d="M31.54 24.4095L33.91 23.7695" stroke="#2E4D52" stroke-width="1.5" stroke-miterlimit="10"/>
<path d="M30.48 28.3896L32.22 30.1197" stroke="#2E4D52" stroke-width="1.5" stroke-miterlimit="10"/>
</svg>
