<svg width="595" height="57" viewBox="0 0 595 57" fill="none" xmlns="http://www.w3.org/2000/svg">
<path d="M146.513 21.0483H306.154L325.164 37.763H382.299L423.492 21.0483H433.655" stroke="#91A4A7" stroke-width="2" stroke-miterlimit="10"/>
<path d="M0 44.7803H224.798" stroke="#91A4A7" stroke-width="2" stroke-miterlimit="10"/>
<path d="M87.8459 21.663L76.4527 15.9722L65.0288 21.663L76.4527 27.3807L87.8459 21.663Z" stroke="#91A4A7" stroke-width="2" stroke-miterlimit="10"/>
<path d="M593.244 16.3027H433.655V25.7951H593.244V16.3027Z" stroke="#91A4A7" stroke-width="2" stroke-miterlimit="10"/>
<path d="M245.458 44.7796C245.458 39.0813 240.839 34.4619 235.14 34.4619C229.442 34.4619 224.823 39.0813 224.823 44.7796C224.823 50.478 229.442 55.0974 235.14 55.0974C240.839 55.0974 245.458 50.478 245.458 44.7796Z" stroke="#91A4A7" stroke-width="2" stroke-miterlimit="10"/>
<path d="M366.666 19.3458V6.44858L355.497 0L344.328 6.44858V19.3458L355.497 25.7943L366.666 19.3458Z" fill="#91A4A7"/>
<path d="M270.532 44.7793L291.167 32.8623V56.6962L270.532 44.7793Z" fill="#91A4A7"/>
</svg>
