<svg width="515" height="59" viewBox="0 0 515 59" fill="none" xmlns="http://www.w3.org/2000/svg">
<path d="M0 58L462.274 57.9712" stroke="#91A4A7" stroke-width="2" stroke-miterlimit="10"/>
<path d="M261.418 21.4062L247.065 32.9771H222.143M261.418 21.4062H235.826L222.143 32.9771M261.418 21.4062L275.684 35.2286M222.143 32.9771V58M260.195 1L275.655 12.5709M260.195 1H287.766L302.498 12.5709M260.195 1L244.852 14.8223V21.4057M275.655 12.5709H302.498M275.655 12.5709L275.655 35.2283M302.498 12.5709L302.498 57.9996M258.07 35.1996L271.404 46.799H294.55M258.07 35.1996H281.856L294.55 46.799M258.07 35.1996L244.852 49.0505V57.9994M294.55 46.799L294.55 57.9989M271.375 46.7985V57.9989M216 57.9994H311" stroke="#91A4A7" stroke-width="2" stroke-linejoin="bevel"/>
<path d="M414.599 36.2445L424.134 30.4259L424.134 42.0796L414.599 36.2445Z" fill="#91A4A7"/>
<path d="M112.475 24.0697C112.475 21.7293 110.578 19.832 108.238 19.832C105.897 19.832 104 21.7293 104 24.0697C104 26.4101 105.897 28.3074 108.238 28.3074C110.578 28.3074 112.475 26.4101 112.475 24.0697Z" stroke="#91A4A7" stroke-width="2" stroke-miterlimit="10"/>
<path d="M0 24H104" stroke="#91A4A7" stroke-width="2" stroke-miterlimit="10"/>
<path d="M424 36.4999L434.5 36.4999L457 29.9999L476 29.9999L489 36.4999L515 36.5" stroke="#91A4A7" stroke-width="2" stroke-miterlimit="10"/>
<path d="M371.004 57.7843V18.4612L388.025 1" stroke="#91A4A7" stroke-width="2" stroke-miterlimit="10"/>
<path d="M384.735 16.0759L393.491 6.93359" stroke="#91A4A7" stroke-width="4" stroke-miterlimit="10"/>
<path d="M371.004 57.7843V18.4612L353.955 1" stroke="#91A4A7" stroke-width="2" stroke-miterlimit="10"/>
<path d="M357.273 16.0759L348.518 6.93359" stroke="#91A4A7" stroke-width="4" stroke-miterlimit="10"/>
<path d="M182.575 58.4858V36.6829M182.575 43.9293L190.175 36.2167M182.575 48.9298L177.578 43.8234M182.575 16.1089L196.358 52.1928H168.813L182.575 16.1089Z" stroke="#91A4A7" stroke-width="2" stroke-miterlimit="10"/>
</svg>
