<svg width="23" height="20" viewBox="0 0 23 20" fill="none" xmlns="http://www.w3.org/2000/svg">
<g clip-path="url(#clip0_1719_5300)">
<path d="M4.27473 14.5097L4.2002 14.4578V14.2031L4.27473 14.255V14.5097Z" stroke="#BE8847" stroke-width="0.75" stroke-miterlimit="10"/>
<path d="M5.61653 15.1581L5.54199 15.1062V14.8516L5.61653 14.9034V15.1581Z" stroke="#BE8847" stroke-width="0.75" stroke-miterlimit="10"/>
<path d="M6.88801 15.8026L6.81348 15.7508V15.4961L6.88801 15.548V15.8026Z" stroke="#BE8847" stroke-width="0.75" stroke-miterlimit="10"/>
<path d="M8.15461 16.5722L8.08008 16.5156V16.2656L8.15461 16.3128V16.5722Z" stroke="#BE8847" stroke-width="0.75" stroke-miterlimit="10"/>
<path d="M9.49641 17.2206L9.42188 17.164V16.9141L9.49641 16.9612V17.2206Z" stroke="#BE8847" stroke-width="0.75" stroke-miterlimit="10"/>
<path d="M10.7679 16.2675L10.6934 16.2156V15.9609L10.7679 16.0128V16.2675Z" stroke="#BE8847" stroke-width="0.75" stroke-miterlimit="10"/>
<path d="M10.7679 17.8651L10.6934 17.8085V17.5586L10.7679 17.6058V17.8651Z" stroke="#BE8847" stroke-width="0.75" stroke-miterlimit="10"/>
<path d="M19.4575 12.8378L19.5321 12.7812V12.5312L19.4575 12.5784V12.8378Z" stroke="#BE8847" stroke-width="0.75" stroke-miterlimit="10"/>
<path d="M19.4575 14.4307L19.5321 14.3788V14.1289L19.4575 14.1761V14.4307Z" stroke="#BE8847" stroke-width="0.75" stroke-miterlimit="10"/>
<path d="M18.1157 13.4862L18.1903 13.4296V13.1797L18.1157 13.2268V13.4862Z" stroke="#BE8847" stroke-width="0.75" stroke-miterlimit="10"/>
<path d="M18.1157 15.0792L18.1903 15.0273V14.7773L18.1157 14.8245V15.0792Z" stroke="#BE8847" stroke-width="0.75" stroke-miterlimit="10"/>
<path d="M16.8486 14.1308L16.9232 14.0742V13.8242L16.8486 13.8714V14.1308Z" stroke="#BE8847" stroke-width="0.75" stroke-miterlimit="10"/>
<path d="M16.8491 15.7237L16.9237 15.6718V15.4219L16.8491 15.469V15.7237Z" stroke="#BE8847" stroke-width="0.75" stroke-miterlimit="10"/>
<path d="M15.5776 14.8956L15.6522 14.8437V14.5938L15.5776 14.6409V14.8956Z" stroke="#BE8847" stroke-width="0.75" stroke-miterlimit="10"/>
<path d="M15.5776 16.494L15.6522 16.4422V16.1875L15.5776 16.2394V16.494Z" stroke="#BE8847" stroke-width="0.75" stroke-miterlimit="10"/>
<path d="M14.2358 15.5401L14.3104 15.4882V15.2383L14.2358 15.2854V15.5401Z" stroke="#BE8847" stroke-width="0.75" stroke-miterlimit="10"/>
<path d="M14.2358 17.1386L14.3104 17.0867V16.832L14.2358 16.8839V17.1386Z" stroke="#BE8847" stroke-width="0.75" stroke-miterlimit="10"/>
<path d="M12.9644 16.1846L13.0389 16.1328V15.8828L12.9644 15.93V16.1846Z" stroke="#BE8847" stroke-width="0.75" stroke-miterlimit="10"/>
<path d="M12.9644 17.7831L13.0389 17.7312V17.4766L12.9644 17.5284V17.7831Z" stroke="#BE8847" stroke-width="0.75" stroke-miterlimit="10"/>
<path d="M20.9308 11.5273V14.7813L11.8641 19.7377L2.80176 14.7813V11.5273" stroke="#2E4D52" stroke-width="0.75" stroke-miterlimit="10"/>
<path d="M10.8993 12.0965L2.34557 7.192C0.605006 7.15427 -0.267468 8.93687 0.499783 10.229L8.76418 15.3552C7.47519 14.5535 8.76418 12.2898 10.8993 12.0965Z" stroke="#2E4D52" stroke-width="0.75" stroke-miterlimit="10"/>
<path d="M6.48894 7.78125L4.88867 8.64897" stroke="#2E4D52" stroke-width="0.75" stroke-miterlimit="10"/>
<path d="M17.252 7.84766L21.1189 9.94622L20.8734 10.0877C20.8734 10.0877 20.5402 10.3188 19.9834 10.7008" stroke="#2E4D52" stroke-width="0.75" stroke-miterlimit="10"/>
<path d="M8.75977 15.3564C9.96545 16.1298 12.8021 14.9462 15.4239 13.5078" stroke="#2E4D52" stroke-width="0.75" stroke-miterlimit="10"/>
<path d="M10.1367 10.3906L22.1409 10.7726L16.266 14.003L10.1367 10.3906Z" stroke="#2E4D52" stroke-width="0.75" stroke-miterlimit="10"/>
<path d="M14.4155 11.5273L17.8791 11.6358L16.1824 12.5696L14.4155 11.5273Z" stroke="#BE8847" stroke-width="0.75" stroke-miterlimit="10"/>
<path d="M7.84766 2.28125V8.74671" stroke="#BE8847" stroke-width="0.75" stroke-miterlimit="10"/>
<path d="M10.5879 1.27734V6.33275" stroke="#BE8847" stroke-width="0.75" stroke-miterlimit="10"/>
<path d="M18.5977 4.28125H15.9058V7.17679H18.5977V4.28125Z" stroke="#2E4D52" stroke-width="0.75" stroke-miterlimit="10"/>
<path d="M17.2471 8.74321V4.9375" stroke="#BE8847" stroke-width="0.75" stroke-miterlimit="10"/>
<path d="M17.2605 6.32042L16.5195 5.52344" stroke="#BE8847" stroke-width="0.75" stroke-miterlimit="10"/>
<path d="M17.2471 6.83175L18.0538 5.96875" stroke="#BE8847" stroke-width="0.75" stroke-miterlimit="10"/>
<path d="M13.0122 0.335938L5.50195 3.26449V6.33452H13.0122V0.335938Z" stroke="#2E4D52" stroke-width="0.75" stroke-miterlimit="10"/>
<path d="M17.2474 4.28289V1.54297H13.0122V7.17843H15.9058" stroke="#2E4D52" stroke-width="0.75" stroke-miterlimit="10"/>
<path d="M6.48828 6.33594V8.74575" stroke="#2E4D52" stroke-width="0.75" stroke-miterlimit="10"/>
<path d="M9.20654 6.33594V8.74575" stroke="#2E4D52" stroke-width="0.75" stroke-miterlimit="10"/>
<path d="M13.0122 2.44922H17.2474" stroke="#2E4D52" stroke-width="0.75" stroke-miterlimit="10"/>
<path d="M13.0122 3.42188H17.2474" stroke="#2E4D52" stroke-width="0.75" stroke-miterlimit="10"/>
<path d="M13.0122 4.39062H15.9058" stroke="#2E4D52" stroke-width="0.75" stroke-miterlimit="10"/>
<path d="M14.4509 7.0988C14.9667 7.0988 15.3848 6.64908 15.3848 6.09432C15.3848 5.53956 14.9667 5.08984 14.4509 5.08984C13.9352 5.08984 13.5171 5.53956 13.5171 6.09432C13.5171 6.64908 13.9352 7.0988 14.4509 7.0988Z" stroke="#2E4D52" stroke-width="0.75" stroke-miterlimit="10"/>
<path d="M14.8848 6.92188L16.2395 10.5578" stroke="#2E4D52" stroke-width="0.75" stroke-miterlimit="10"/>
<path d="M13.9421 6.92188L12.5874 10.5578" stroke="#2E4D52" stroke-width="0.75" stroke-miterlimit="10"/>
<path d="M12.7671 8.20312H16.1167" stroke="#BE8847" stroke-width="0.75" stroke-miterlimit="10"/>
<path d="M14.4507 5.09033V4.35938" stroke="#2E4D52" stroke-width="0.75" stroke-miterlimit="10"/>
</g>
<defs>
<clipPath id="clip0_1719_5300">
<rect width="23" height="20" fill="white"/>
</clipPath>
</defs>
</svg>
