<svg width="175" height="24" viewBox="0 0 175 24" fill="none" xmlns="http://www.w3.org/2000/svg">
<path d="M131.688 23.1445V4.90537L139.302 3.88721L142.188 5.86071V23.1445M134.206 23.1445V1.75025L136.855 1.48633V23.1445M139.492 23.1445V3.88721M130.56 17.9279H126.07M130.56 15.5899H126.07M130.56 20.3162H126.07M130.56 13.1513H126.07V23.1445" stroke="#91A4A7" stroke-miterlimit="10"/>
<path d="M0.0800781 23.3706L175.08 23.3706" stroke="#91A4A7" stroke-miterlimit="10"/>
<path d="M107.086 3.00997L103.062 1L99.0273 3.00997L103.062 5.02942L107.086 3.00997Z" stroke="#91A4A7" stroke-miterlimit="10"/>
<path d="M20.2346 3.00997L16.2106 1L12.1758 3.00997L16.2106 5.02942L20.2346 3.00997Z" stroke="#91A4A7" stroke-miterlimit="10"/>
<path d="M160.353 9.2362V23.3703M160.353 9.2362C160.353 5.76395 157.666 2.94531 154.334 2.94531M160.353 9.2362C158.008 6.7852 154.198 6.77499 151.843 9.2362M160.353 9.2362C157.031 9.2362 154.334 12.0446 154.334 15.5271M160.353 9.2362C160.353 5.76395 163.04 2.94531 166.372 2.94531M160.353 9.2362C162.698 6.7852 166.509 6.77499 168.864 9.2362M160.353 9.2362C163.675 9.2362 166.372 12.0446 166.372 15.5271" stroke="#91A4A7" stroke-miterlimit="10"/>
<path d="M83.0889 23.37C83.0889 21.2187 84.9342 19.4795 87.2165 19.4795C89.4988 19.4795 91.3561 21.2187 91.3561 23.37" stroke="#91A4A7" stroke-miterlimit="10"/>
<path d="M65.7447 23.3967V10.3671M65.7447 13.4829L67.8101 11.2924M58.0447 13.3035L49.5476 7.60063L41.0596 13.3035M43.0706 11.9533V23.274H56.0337V4.51318M55.5264 23.274H71.3611M71.3611 10.3671C71.3611 13.6001 68.8465 16.221 65.7447 16.221C62.6428 16.221 60.1282 13.6001 60.1282 10.3671C60.1282 7.13406 62.6428 4.51318 65.7447 4.51318C68.8465 4.51318 71.3611 7.13406 71.3611 10.3671Z" stroke="#91A4A7" stroke-miterlimit="10"/>
<path d="M126.07 5.57471H120.997M126.07 9.40002H120.997M126.07 13.2365H120.997M126.07 17.0618H120.997M115.849 5.52998L117.408 4.78056M115.849 8.50521L117.408 7.75581M115.849 11.4916L117.408 10.7422M114.398 23.3703V3.37124L118.987 1M118.987 1L126.07 2.01783V23.3591M118.987 1V23.3703" stroke="#91A4A7" stroke-miterlimit="10"/>
</svg>
