<svg width="295" height="61" viewBox="0 0 295 61" fill="none" xmlns="http://www.w3.org/2000/svg">
<path d="M0 57.8018H295" stroke="#91A4A7" stroke-width="2" stroke-miterlimit="10"/>
<path d="M239.544 27.57L227.679 37.1348H207.078M239.544 27.57H218.389L207.078 37.1348M239.544 27.57L251.336 38.9959M207.078 37.1348V57.8193M238.533 10.7017L251.312 20.2664M238.533 10.7017H261.324L273.502 20.2664M238.533 10.7017L225.85 22.1275V27.5696M251.312 20.2664H273.502M251.312 20.2664L251.312 38.9956M273.502 20.2664L273.502 57.8189M236.776 38.9719L247.799 48.5603H266.931M236.776 38.9719H256.438L266.931 48.5603M236.776 38.9719L225.85 50.4214V57.8188M266.931 48.5603L266.932 57.8184M247.775 48.5599V57.8184M202 57.8188H280.529" stroke="#91A4A7" stroke-width="2" stroke-linejoin="bevel"/>
<path d="M178.921 58.0298V40.007M178.921 45.9971L185.203 39.6216M178.921 50.1306L174.791 45.9095M178.921 23L190.315 52.8279H167.545L178.921 23Z" stroke="#91A4A7" stroke-width="2" stroke-miterlimit="10"/>
<path d="M114.105 57.2105V28.2059H86V57.2105H114.105ZM114.105 57.2105H142.211V1H114.105V57.2105ZM94.1429 35.0073V39.8415M104.138 35.0073V39.8415M123.174 26.1261V30.9602M133.142 26.1261V30.9602M123.174 35.963V40.797M133.142 35.963V40.797M123.174 45.7998V50.6339M133.142 45.7998V50.6339M133.142 7.77334V20.7861M123.174 20.7861V7.77334M133.142 14.3219H123.174M94.1429 45.6311H104.138V57.1824H94.1429V45.6311Z" stroke="#91A4A7" stroke-width="2" stroke-miterlimit="10"/>
<path d="M57.8135 57.034L61.22 50.8886L57.6013 44.866L50.5762 44.9887L47.1698 51.134L50.7884 57.1567L57.8135 57.034Z" fill="#91A4A7"/>
</svg>
