<svg width="351" height="54" viewBox="0 0 351 54" fill="none" xmlns="http://www.w3.org/2000/svg">
<g opacity="0.2">
<path d="M252.37 52.4255V10.893L269.707 8.57449L276.279 13.0684V52.4255M258.104 52.4255V3.7084L264.135 3.10742V52.4255M270.139 52.4255V8.57449M249.801 40.5468H239.577M249.801 35.2228H239.577M249.801 45.9852H239.577M249.801 29.6699H239.577V52.4255" stroke="#91A4A7" stroke-width="2" stroke-miterlimit="10"/>
<path d="M21 52.9395L351 52.9394" stroke="#91A4A7" stroke-width="2" stroke-miterlimit="10"/>
<path d="M196.351 6.57692L187.188 2L178 6.57692L187.188 11.1755L196.351 6.57692Z" stroke="#91A4A7" stroke-width="2" stroke-miterlimit="10"/>
<path d="M21.3509 6.57692L12.1878 2L3 6.57692L12.1878 11.1755L21.3509 6.57692Z" stroke="#91A4A7" stroke-width="2" stroke-miterlimit="10"/>
<path d="M317.648 20.7548V52.9398M317.648 20.7548C317.648 12.848 311.529 6.42969 303.942 6.42969M317.648 20.7548C312.308 15.1736 303.631 15.1503 298.268 20.7548M317.648 20.7548C310.083 20.7548 303.942 27.1499 303.942 35.0799M317.648 20.7548C317.648 12.848 323.766 6.42969 331.353 6.42969M317.648 20.7548C322.987 15.1736 331.665 15.1503 337.027 20.7548M317.648 20.7548C325.212 20.7548 331.353 27.1499 331.353 35.0799" stroke="#91A4A7" stroke-width="2" stroke-miterlimit="10"/>
<path d="M141.705 52.9396C141.705 48.041 145.907 44.0806 151.104 44.0806C156.301 44.0806 160.53 48.041 160.53 52.9396" stroke="#91A4A7" stroke-width="2" stroke-miterlimit="10"/>
<path d="M102.211 53V23.33M102.211 30.425L106.914 25.437M84.6772 30.0165L65.3283 17.0305L46 30.0165M50.5794 26.942V52.7205H80.0978V10M78.9426 52.7205H115M115 23.33C115 30.692 109.274 36.66 102.211 36.66C95.1475 36.66 89.4215 30.692 89.4215 23.33C89.4215 15.968 95.1475 10 102.211 10C109.274 10 115 15.968 115 23.33Z" stroke="#91A4A7" stroke-width="2" stroke-miterlimit="10"/>
<path d="M239.577 12.4171H228.026M239.577 21.1278H228.026M239.577 29.864H228.026M239.577 38.5746H228.026M216.304 12.3153L219.852 10.6088M216.304 19.0902L219.852 17.3837M216.304 25.8906L219.852 24.1842M213 52.9396V7.39958L223.45 2M223.45 2L239.577 4.31772V52.9141M223.45 2V52.9396" stroke="#91A4A7" stroke-width="2" stroke-miterlimit="10"/>
</g>
</svg>
