<svg width="160" height="87" viewBox="0 0 160 87" fill="none" xmlns="http://www.w3.org/2000/svg">
<path d="M22.6001 53.4062H17.5201V55.7463H22.6601C25.1801 55.7463 26.4401 57.3863 26.4401 60.6063V64.8863H15.6401V67.2263H55.5802V60.3463C55.5802 56.0063 53.2602 53.4062 49.3801 53.4062H42.6401V55.7463H49.4401C51.9001 55.7463 53.1801 57.3063 53.2401 60.4063V64.8863H28.8001V60.3463C28.8001 56.0063 26.4801 53.4062 22.6001 53.4062Z" fill="#402F82"/>
<path d="M9.97992 48.0039H7.41992V50.5439H9.97992V48.0039Z" fill="#402F82"/>
<path d="M50.1401 69.6641H47.5801V72.2041H50.1401V69.6641Z" fill="#402F82"/>
<path d="M5.99994 48.0039H3.43994V50.5439H5.99994V48.0039Z" fill="#402F82"/>
<path d="M0.399902 60.3263C0.399902 66.0463 3.8199 67.2463 6.6999 67.2463C9.5799 67.2463 13.0199 66.0463 13.0199 60.3263C13.0199 54.6063 9.5799 53.4062 6.6999 53.4062C3.8199 53.4062 0.399902 54.6063 0.399902 60.3263ZM6.6999 55.7463C9.5199 55.7463 10.6599 57.0663 10.6599 60.3063C10.6599 63.5463 9.5199 64.8663 6.6999 64.8663C3.9399 64.8663 2.7599 63.5063 2.7599 60.3063C2.7599 57.1063 3.9399 55.7463 6.6999 55.7463Z" fill="#402F82"/>
<path d="M55.2199 14.7462C55.6799 14.7462 56.1399 14.8262 56.5799 14.9662L56.9999 15.1263V13.7462L56.7999 13.6862C56.2799 13.5062 55.7399 13.4062 55.1999 13.4062C53.6199 13.4062 52.7199 14.2863 52.7199 15.8063V17.3063C52.7199 17.5663 52.5599 17.5662 52.4999 17.5662H51.3799V18.9063H56.9999V17.5662H54.0399V15.6063C54.0799 15.0863 54.2799 14.7462 55.2199 14.7462Z" fill="#402F82"/>
<path d="M18.72 22.2852H16.16V24.8252H18.72V22.2852Z" fill="#402F82"/>
<path d="M9.18005 22.2852H6.62005V24.8252H9.18005V22.2852Z" fill="#402F82"/>
<path d="M5.19998 22.2852H2.63998V24.8252H5.19998V22.2852Z" fill="#402F82"/>
<path d="M55.5998 21.4648H53.2598V41.5249H55.5998V21.4648Z" fill="#402F82"/>
<path d="M27.46 21.4648V36.9049C27.46 39.9649 29.1 41.5249 32.34 41.5249H35.3C36.72 41.5249 37.8 41.2249 38.6 40.6249L39.9 41.0249C41 41.3649 42.14 41.5248 43.3 41.5448C46.12 41.5448 49.4 39.7649 49.4 34.7249C49.4 29.5648 46.38 27.7248 43.54 27.7248C38.04 27.7248 37.76 31.4448 37.76 32.1848V36.7049C37.76 38.3249 37.36 39.1649 35.12 39.2049H32.34C30.16 39.1649 29.8 38.3849 29.8 36.7049V21.5048L27.46 21.4648ZM40.12 36.9049V32.2249C40.16 30.7449 41.28 30.0248 43.54 30.0248C45.24 30.0248 47.04 31.2448 47.04 34.6848C47.04 37.7048 45.8 39.1649 43.28 39.1649C42.14 39.1649 41.02 38.9449 39.98 38.5049L39.92 38.4848C40.06 37.9648 40.12 37.4249 40.12 36.9049Z" fill="#402F82"/>
<path d="M0 34.2466C0 38.0066 2.34 40.2466 6.24 40.2466C7.42 40.2466 8.6 40.0666 9.74 39.7266L10.12 39.6066C10.88 40.8866 12.3 41.5266 14.36 41.5266H18.72C21.96 41.5266 23.6 39.9666 23.6 36.9066V27.6866H21.26V36.6666C21.26 38.3266 20.9 39.0866 18.86 39.1666H14.32C12.18 39.1066 11.82 38.3466 11.82 36.6666V31.6866C11.82 30.6466 11.4 27.2266 6.1 27.2266C4.68 27.2266 0 27.7466 0 34.2466ZM6.1 29.5866C8.34 29.5866 9.46 30.3266 9.46 31.7666V37.2866C8.54 37.6866 7.54 37.8866 6.54 37.8866C2.78 37.8866 2.34 35.7066 2.34 34.0866C2.36 30.1266 4.24 29.5866 6.1 29.5866Z" fill="#402F82"/>
<path d="M80.1199 73.4244H147.8C154.54 73.4244 160 67.9444 160 61.2044V39.9844C160 23.6844 148.56 16.1244 147.26 15.3244L145.88 14.4844C143.8 13.1444 141.12 13.1244 139.02 14.4444L137.56 15.3244C136.94 15.7044 133.98 17.6444 131.08 21.3644C128.9 8.84438 119.92 2.98438 118.76 2.28438L117.18 1.32438C116.2 0.764378 115.1 0.484375 113.98 0.484375C112.78 0.484375 111.58 0.804373 110.56 1.44437L109.16 2.28438C108.02 2.98438 99.0399 8.84437 96.8599 21.3444C93.9399 17.6244 90.9399 15.6844 90.3199 15.3044L88.94 14.4644C86.86 13.1444 84.1999 13.1444 82.1199 14.4644L80.6999 15.3244C79.3999 16.1244 67.9399 23.6644 67.9399 40.0044V61.2044C67.9399 67.9244 73.3999 73.4044 80.1199 73.4244ZM119.22 59.6244V26.9644C119.22 26.5644 119.2 26.1444 119.18 25.7044V25.6644C119.18 25.6444 119.18 25.6044 119.18 25.5844C119.16 25.2244 119.14 24.8644 119.08 24.5044C118.64 20.5644 116.82 16.8844 113.98 14.1244C111.12 16.8844 109.32 20.5444 108.88 24.5044C108.84 24.8644 108.8 25.2244 108.78 25.5844C108.78 25.6244 108.78 25.6644 108.78 25.7044C108.76 26.0644 108.74 26.4644 108.74 26.9644V34.0644C108.74 37.3644 106.1 40.0644 102.8 40.1244C102.68 40.1244 102.58 40.0444 102.56 39.9244C102.56 39.9244 102.56 39.9244 102.56 39.9044V26.9444C102.56 13.6444 111.98 7.74438 112.38 7.52438L113.88 6.62438C113.94 6.58438 114.04 6.58438 114.1 6.60438L115.58 7.50438C115.98 7.74438 125.4 13.6044 125.4 26.9244V59.3644C125.4 60.2644 126.12 60.9844 127.02 61.0044H146.04C146.94 61.0044 147.66 60.2644 147.66 59.3644V39.9444C147.66 39.5244 147.64 39.1044 147.62 38.6844C147.62 38.6644 147.62 38.6244 147.62 38.6044V38.5644C147.6 38.1644 147.56 37.8044 147.52 37.4844C146.86 32.0444 144.06 28.6644 142.4 27.1044C140.78 28.6244 137.96 32.0244 137.3 37.4844C137.26 37.8044 137.24 38.1644 137.2 38.5644V38.6044C137.2 38.6244 137.2 38.6644 137.2 38.6844C137.18 39.0844 137.16 39.5044 137.16 39.9444V52.9044C137.16 53.0244 137.06 53.1244 136.94 53.1244C133.64 53.0644 131 50.3644 131 47.0644L130.98 39.9444C130.98 26.9644 139.82 21.1444 140.82 20.5244L142.3 19.6244C142.34 19.6044 142.38 19.5844 142.42 19.5844C142.48 19.5844 142.52 19.6044 142.56 19.6244L144.02 20.5044C144.42 20.7444 153.84 26.6644 153.84 39.9244V61.1244C153.84 64.4644 151.14 67.1644 147.8 67.1844H102.78C102.66 67.1844 102.56 67.0844 102.56 66.9644C102.6 63.6644 105.28 61.0044 108.58 60.9844H119.72C119.28 60.7244 119.24 60.2844 119.22 59.6244ZM74.1199 40.0044C74.1199 26.7644 83.54 20.8244 83.94 20.5844L85.4199 19.6844C85.4599 19.6644 85.5 19.6444 85.54 19.6444C85.58 19.6444 85.6199 19.6644 85.6599 19.6844L87.1199 20.5644C87.5199 20.8044 96.94 26.6444 96.94 39.9844V67.0244C96.94 67.1444 96.8399 67.2444 96.7199 67.2444H80.1199C76.7799 67.2244 74.0999 64.5244 74.0999 61.1844L74.1199 40.0044Z" fill="url(#paint0_linear_540_10522)"/>
<path d="M81.8798 61.0441H90.7598V40.0041C90.7598 39.6041 90.7598 39.1841 90.7198 38.7441V38.7041C90.7198 38.6641 90.7198 38.6441 90.7198 38.6041C90.6798 38.1841 90.6598 37.8441 90.6198 37.5441C89.9598 32.1041 87.1598 28.7241 85.5198 27.1641C83.8998 28.6841 81.0798 32.0841 80.4198 37.5441C80.3798 37.8841 80.3398 38.2641 80.3198 38.6241V38.7241C80.2798 39.1841 80.2798 39.6041 80.2798 40.0041V59.4241C80.2798 60.3241 80.9998 61.0441 81.8798 61.0441Z" fill="url(#paint1_linear_540_10522)"/>
<path d="M102.56 67.0246C102.56 67.1446 102.66 67.2446 102.78 67.2446H147.8C151.14 67.2246 153.84 64.5246 153.84 61.1846V39.9846C153.84 26.7046 144.42 20.8046 144.02 20.5646L142.56 19.6846C142.52 19.6646 142.46 19.6446 142.42 19.6446C142.38 19.6446 142.34 19.6646 142.3 19.6846L140.82 20.5846C139.82 21.2046 130.98 27.0446 130.98 40.0046L131 47.1246C131 50.4246 133.64 53.1246 136.94 53.1846C137.06 53.1846 137.16 53.0846 137.16 52.9646V40.0046C137.16 39.5446 137.18 39.1446 137.2 38.7446C137.2 38.7246 137.2 38.7046 137.2 38.6646V38.6246C137.22 38.2246 137.26 37.8646 137.3 37.5446C137.96 32.0846 140.78 28.7046 142.4 27.1646C144.04 28.7246 146.84 32.1046 147.52 37.5446C147.56 37.8646 147.58 38.2246 147.62 38.6246V38.6646C147.62 38.6846 147.62 38.7246 147.62 38.7446C147.64 39.1646 147.66 39.5846 147.66 40.0046V59.4246C147.66 60.3246 146.94 61.0446 146.04 61.0646H127.04C126.14 61.0646 125.42 60.3246 125.42 59.4246V26.9846C125.42 13.6446 116 7.7846 115.6 7.5646L114.12 6.6646C114.04 6.6246 113.96 6.6246 113.9 6.6846L112.4 7.5846C112 7.8246 102.58 13.7046 102.58 27.0046V39.9646C102.58 40.0846 102.68 40.1846 102.8 40.1846C106.1 40.1246 108.74 37.4246 108.74 34.1246V27.0246C108.74 26.5246 108.76 26.1246 108.78 25.7646C108.78 25.7246 108.78 25.6846 108.78 25.6446C108.8 25.2846 108.84 24.9246 108.88 24.5646C109.32 20.6246 111.12 16.9446 113.98 14.1846C116.84 16.9446 118.64 20.6046 119.08 24.5646C119.14 24.9246 119.16 25.2846 119.18 25.6446C119.18 25.6646 119.18 25.7046 119.18 25.7246V25.7646C119.2 26.2046 119.22 26.6246 119.22 27.0246V59.6846C119.22 60.3246 119.26 60.7646 119.7 61.1046H108.6C105.28 61.0846 102.6 63.7446 102.56 67.0246Z" fill="white"/>
<path d="M80.1202 67.2441H96.7202C96.8402 67.2441 96.9402 67.1441 96.9402 67.0241V40.0041C96.9402 26.6641 87.5202 20.8241 87.1202 20.5841L85.6602 19.7041C85.6202 19.6841 85.5802 19.6641 85.5402 19.6641C85.5002 19.6641 85.4602 19.6641 85.4202 19.7041L83.9402 20.6041C83.5402 20.8441 74.1202 26.7841 74.1202 40.0241V61.2241C74.1002 64.5241 76.8002 67.2441 80.1202 67.2441ZM80.2602 40.0041C80.2602 39.5841 80.2602 39.1641 80.3002 38.7241V38.6241C80.3202 38.2641 80.3602 37.9041 80.4002 37.5441C81.0602 32.0841 83.8802 28.7041 85.5002 27.1641C87.1402 28.7241 89.9402 32.1041 90.6002 37.5441C90.6402 37.8441 90.6602 38.1841 90.7002 38.6041C90.7002 38.6441 90.7002 38.6641 90.7002 38.7041V38.7441C90.7202 39.1841 90.7402 39.6041 90.7402 40.0041V61.0641H81.8602C80.9602 61.0641 80.2402 60.3241 80.2402 59.4241V40.0041H80.2602Z" fill="white"/>
<path d="M77 3.94484C77 5.86484 78.56 7.42485 80.48 7.42485C82.4 7.42485 83.96 5.86484 83.96 3.94484C83.96 2.02484 82.4 0.464844 80.48 0.464844C78.56 0.464844 77 2.02484 77 3.94484Z" fill="#06A9B6"/>
<path d="M87.1001 3.94484C87.1001 5.86484 88.6601 7.42485 90.5801 7.40485C92.5001 7.40485 94.0601 5.84485 94.0401 3.92485C94.0401 2.00485 92.4801 0.464844 90.5601 0.464844C88.6601 0.464844 87.1001 2.00484 87.1001 3.94484Z" fill="#06A9B6"/>
<path d="M138.94 83.0459C138.94 84.9659 140.48 86.5259 142.4 86.5259C144.32 86.5259 145.88 84.9859 145.88 83.0659C145.88 81.1459 144.34 79.5859 142.42 79.5859C142.42 79.5859 142.42 79.5859 142.4 79.5859C140.5 79.5859 138.94 81.1459 138.94 83.0459Z" fill="#402F82"/>
<defs>
<linearGradient id="paint0_linear_540_10522" x1="113.973" y1="0.0818885" x2="113.973" y2="73.136" gradientUnits="userSpaceOnUse">
<stop stop-color="#06A9B6"/>
<stop offset="0.2" stop-color="#06A9B6"/>
<stop offset="0.37" stop-color="#1D78A1"/>
<stop offset="0.54" stop-color="#305090"/>
<stop offset="0.67" stop-color="#3C3886"/>
<stop offset="0.75" stop-color="#402F82"/>
<stop offset="1" stop-color="#402F82"/>
</linearGradient>
<linearGradient id="paint1_linear_540_10522" x1="85.5278" y1="0.0815683" x2="85.5278" y2="73.1357" gradientUnits="userSpaceOnUse">
<stop stop-color="#06A9B6"/>
<stop offset="0.2" stop-color="#06A9B6"/>
<stop offset="0.37" stop-color="#1D78A1"/>
<stop offset="0.54" stop-color="#305090"/>
<stop offset="0.67" stop-color="#3C3886"/>
<stop offset="0.75" stop-color="#402F82"/>
<stop offset="1" stop-color="#402F82"/>
</linearGradient>
</defs>
</svg>
