<svg width="176" height="95" viewBox="0 0 176 95" fill="none" xmlns="http://www.w3.org/2000/svg">
<path d="M119.97 25.9805V55.543L103.912 63.4367V33.8741L119.97 25.9805Z" fill="#79B3D7"/>
<path d="M161.374 36.1953V59.7603L165.707 57.6708V38.3235L161.374 36.1953Z" fill="#79B3D7"/>
<path d="M134.636 0.945312L122.911 8.80029V24.7424L131.076 28.7666V76.0513L134.636 77.1347V0.945312Z" fill="#386489"/>
<path d="M157.891 24.4695V34.4527L153.635 32.3632V59.8363L142.568 54.4965V33.911L149.688 30.4285V20.4453L157.891 24.4695Z" fill="#A3C04D"/>
<path d="M136.299 87.077L152.125 93.8485H176L144.27 83.6719L136.299 87.077Z" fill="#386489"/>
<path d="M109.058 73.1875H103.796L125.31 82.3968L132.623 80.2299L109.058 73.1875Z" fill="#79B3D7"/>
<path d="M160.445 73.1875L137.267 80.0751L134.752 80.849L127.051 83.132L126.316 83.3641L93.542 93.8503H117.339L133.668 86.8853L134.752 86.421L142.452 83.132L144.619 82.2033L165.707 73.1875H160.445Z" fill="#A3C04D"/>
<path d="M11.703 55H8.8783V62.2358L3.19022 55H1.1781L1.2168 67.4596H4.00281V60.2624L9.61351 67.4596H11.703V55Z" fill="#386489"/>
<path d="M70.2481 64.4811C69.8611 63.7072 69.745 62.856 69.745 61.7725C69.745 60.9599 69.9385 59.9152 70.5963 59.0252C71.9893 57.0905 74.9688 57.2453 76.207 59.2574C76.8261 60.2634 76.9809 61.3469 76.9035 62.5077C76.8648 63.2429 76.71 63.9781 76.3618 64.6359C75.704 65.8354 74.6979 66.4932 73.3436 66.4932C71.9119 66.4932 70.9446 65.758 70.2868 64.5198M76.0909 68.8536C78.0644 68.1571 79.38 66.8028 80.0765 64.8681C80.6569 63.2816 80.6956 61.6564 80.3473 60.0313C79.9217 58.1352 78.8769 56.6261 77.1357 55.6975C75.9362 55.0397 74.6592 54.8075 73.3436 54.8075C72.3763 54.8075 71.4089 54.9623 70.5189 55.2718C68.5842 55.9683 67.2299 57.2839 66.5721 59.2187C66.3786 59.7991 66.2238 60.3795 66.1464 60.9986C66.0691 61.5403 66.0691 61.966 65.953 62.3529C65.8369 62.7399 65.6434 63.0494 65.4499 63.2429C65.2565 63.4751 65.0243 63.6298 64.7921 63.7459C64.56 63.8233 64.3278 63.9394 64.0956 63.9394H55.8924C55.8537 63.9394 55.7763 63.9394 55.7376 63.9394H50.8234V61.4243C50.8234 60.4182 50.7073 59.4895 50.5139 58.6382C50.3204 57.787 49.9335 57.0905 49.4304 56.5101C48.8113 55.8522 48.0761 55.3879 47.2635 55.1171C46.4123 54.8462 45.2901 54.6914 44.168 54.6914H39.9116V58.1352H44.671C45.0966 58.1352 45.5223 58.2126 45.8705 58.4061C46.2188 58.5609 46.5283 58.793 46.7218 59.0639C46.954 59.3348 47.1088 59.6443 47.2248 60.0313C47.3409 60.3795 47.3796 60.8438 47.3796 61.3082V63.9781H36.6613V67.4219H50.9008H55.6989C55.7763 67.4219 55.815 67.4219 55.8924 67.4219H63.2057C63.5152 67.4219 63.8248 67.4219 64.173 67.3445C64.5213 67.2671 64.8695 67.2284 65.1791 67.1124C65.4886 66.9963 65.8369 66.8415 66.1078 66.6093C66.4173 66.4159 66.6495 66.1063 66.8816 65.7967C67.6168 67.3058 68.8164 68.3506 70.4415 68.931C72.2989 69.5888 74.1949 69.6275 76.0909 68.931" fill="#386489"/>
<path d="M27.9162 51.2852H24.5498V54.6516H27.9162V51.2852Z" fill="#386489"/>
<path d="M30.4315 54.6914V61.8886C30.4315 62.6238 30.3541 63.2429 30.1993 63.7459C30.0445 64.249 29.7736 64.6746 29.3867 65.0228C28.9611 65.3711 28.4193 65.642 27.8002 65.758C27.3359 65.8741 26.7942 65.9128 26.2525 65.9128C25.7107 65.9128 25.2077 65.8354 24.7047 65.758C24.0856 65.642 23.5438 65.3711 23.1182 65.0228C22.7313 64.7133 22.4604 64.2876 22.3056 63.7459C22.1508 63.2042 22.0734 62.6238 22.0734 61.8886V54.6914H18.6683V62.2755C18.6683 63.2816 18.7844 64.2102 19.0166 65.1389C19.2487 66.0676 19.6744 66.7641 20.2935 67.3445C20.6804 67.6928 21.0674 68.0023 21.493 68.2732C21.9187 68.544 22.383 68.7375 22.886 68.8923C23.3891 69.0471 23.9308 69.1632 24.5499 69.2405C24.9755 69.2792 25.4786 69.3179 25.9816 69.3179C25.9816 69.3179 26.1751 69.3179 26.2525 69.3179H26.5233C27.0263 69.3179 27.5294 69.2792 27.955 69.2405C28.5354 69.1632 29.1158 69.0471 29.6189 68.8923C30.1219 68.7375 30.5862 68.5054 31.0119 68.2732C31.4375 68.041 31.8245 67.7315 32.2114 67.3445C32.8305 66.7641 33.2562 66.0289 33.4883 65.1389C33.7205 64.2489 33.8366 63.2816 33.8366 62.2755V54.6914H30.3928H30.4315Z" fill="#386489"/>
<path d="M0.481812 79.418H1.217V83.5196H1.99089V84.1H0.481812V79.418Z" fill="#3F5F7A"/>
<path d="M1.48816 83.7891C1.48816 83.6343 1.75902 83.5182 1.8751 83.5182H2.76507V81.0031H3.50027V83.5182H4.27416V84.0987H1.8751C1.75902 84.0987 1.48816 83.9826 1.48816 83.7891ZM3.15202 79.6875C3.38418 79.6875 3.53896 79.881 3.53896 80.0744C3.53896 80.2679 3.34549 80.4614 3.15202 80.4614C2.95854 80.4614 2.76507 80.2679 2.76507 80.0744C2.76507 79.881 2.95854 79.6875 3.15202 79.6875Z" fill="#3F5F7A"/>
<path d="M3.77075 83.7892C3.77075 83.6344 4.04161 83.5183 4.1577 83.5183H5.04767V81.0032H5.78286V81.2353C5.78286 81.5449 5.78287 81.9705 5.70548 82.3188C6.01503 81.4288 6.71153 80.9258 7.44673 80.9258C8.18192 80.9258 8.80104 81.5062 8.80104 82.4349C8.80104 83.3635 8.68495 83.2474 8.45279 83.557H9.30406V84.1374H4.19639C4.08031 84.1374 3.80945 84.0213 3.80945 83.8279L3.77075 83.7892ZM6.94369 83.5183C7.83367 83.5183 8.10453 83.054 8.10453 82.4736C8.10453 81.8931 7.87236 81.5062 7.36933 81.5062C6.55675 81.5062 5.93764 82.5509 5.82156 83.557H6.98239L6.94369 83.5183Z" fill="#3F5F7A"/>
<path d="M9.18809 84.1C9.07201 84.1 8.80115 83.9839 8.80115 83.7904C8.80115 83.597 9.07201 83.5196 9.18809 83.5196H10.0781V79.418H10.8133V84.0613H9.22679L9.18809 84.1Z" fill="#3F5F7A"/>
<path d="M11.9745 79.418H12.7097V84.0613H11.9745V79.418Z" fill="#3F5F7A"/>
<path d="M18.5136 83.6731C18.5136 84.95 17.8945 85.6078 16.7337 85.6078C15.5728 85.6078 15.0311 85.1048 15.0311 83.7505C15.0311 82.3962 15.0698 82.8992 15.1859 82.5122L15.9211 82.3575C15.805 82.7831 15.7276 83.2475 15.7276 83.6344C15.7276 84.7178 16.2693 84.9887 16.7337 84.9887C17.198 84.9887 17.7397 84.6791 17.7397 83.6731V80.9258H18.4749V83.6344L18.5136 83.6731ZM16.695 80.9645C16.9272 80.9645 17.0819 81.1579 17.0819 81.3514C17.0819 81.5449 16.8885 81.7384 16.695 81.7384C16.5015 81.7384 16.308 81.5449 16.308 81.3514C16.308 81.1579 16.5015 80.9645 16.695 80.9645Z" fill="#3F5F7A"/>
<path d="M19.481 83.5176H21.5318C21.5318 82.3954 21.0287 81.7763 19.9066 81.4668L20.1001 80.8477C21.4931 81.2346 22.1896 82.0085 22.267 83.5176H22.6926V84.098H19.5196V83.5176H19.481Z" fill="#3F5F7A"/>
<path d="M23.6601 83.5179C23.544 83.8662 23.2731 84.0984 22.7314 84.0984H22.5766C22.4606 84.0984 22.1897 83.9823 22.1897 83.7888C22.1897 83.5953 22.4606 83.5179 22.5766 83.5179H22.654C23.0797 83.5179 23.3505 83.3245 23.3505 82.5119C23.3505 81.6993 23.9309 80.8867 25.0144 80.8867C26.0978 80.8867 26.4848 81.4671 26.4848 82.3958V83.5179H27.1039V84.0984H25.2079C24.2405 84.0984 23.9309 83.8662 23.6988 83.5179H23.6601ZM25.7496 82.5119C25.7496 81.7767 25.44 81.5058 24.937 81.5058C24.434 81.5058 24.047 81.9315 24.047 82.5119C24.047 83.0923 24.3953 83.5566 25.1692 83.5566H25.7496V82.5506V82.5119Z" fill="#3F5F7A"/>
<path d="M26.562 83.7888C26.562 83.634 26.8329 83.5179 26.949 83.5179H27.8389V79.6484H28.5741V83.5179H29.348V84.0983H26.949C26.7942 84.0983 26.562 83.9822 26.562 83.7888Z" fill="#3F5F7A"/>
<path d="M29.2315 84.1C29.1155 84.1 28.8446 83.9839 28.8446 83.7904C28.8446 83.597 29.1155 83.5196 29.2315 83.5196H30.1215V79.418H30.8567V84.0613H29.2702L29.2315 84.1Z" fill="#3F5F7A"/>
<path d="M34.9198 84.0987C33.6429 84.0987 33.1786 83.5182 33.1786 82.5509C33.1786 81.5835 33.7203 80.887 34.8811 80.887C36.042 80.887 36.2355 81.1192 36.2355 81.1192V83.5182H37.0093V84.0987H34.9198ZM35.5003 81.6222C35.5003 81.6222 35.1907 81.4674 34.7651 81.4674C34.3394 81.4674 33.8751 81.8931 33.8751 82.4735C33.8751 83.0539 34.1846 83.5182 34.9972 83.5182H35.5003V81.6222ZM34.262 79.6875C34.4942 79.6875 34.649 79.8423 34.649 80.0744C34.649 80.3066 34.4942 80.4614 34.262 80.4614C34.0299 80.4614 33.8751 80.3066 33.8751 80.0744C33.8751 79.8423 34.0299 79.6875 34.262 79.6875ZM35.2681 79.6875C35.4616 79.6875 35.655 79.8423 35.655 80.0744C35.655 80.3066 35.5003 80.4614 35.2681 80.4614C35.0359 80.4614 34.8811 80.3066 34.8811 80.0744C34.8811 79.8423 35.0359 79.6875 35.2681 79.6875Z" fill="#3F5F7A"/>
<path d="M36.8932 84.0995C36.7771 84.0995 36.5062 83.9834 36.5062 83.7899C36.5062 83.5964 36.7771 83.519 36.8932 83.519H37.7831V81.0039H38.5183V84.0995H36.9319H36.8932ZM37.5897 84.6412C37.7831 84.6412 37.9766 84.796 37.9766 85.0281C37.9766 85.2603 37.8218 85.4151 37.5897 85.4151C37.3575 85.4151 37.2027 85.2603 37.2027 85.0281C37.2027 84.796 37.3575 84.6412 37.5897 84.6412ZM38.5957 84.6412C38.7892 84.6412 38.9827 84.796 38.9827 85.0281C38.9827 85.2603 38.8279 85.4151 38.5957 85.4151C38.3636 85.4151 38.2088 85.2603 38.2088 85.0281C38.2088 84.796 38.3636 84.6412 38.5957 84.6412Z" fill="#3F5F7A"/>
<path d="M39.4086 83.5176H41.4594C41.4594 82.3954 40.9563 81.7763 39.8342 81.4668L40.0277 80.8477C41.4594 81.2733 42.1946 82.0472 42.1946 83.711V84.098H39.4473V83.5176H39.4086Z" fill="#3F5F7A"/>
<path d="M43.0845 85.6458V85.0267C43.1232 85.0267 43.6649 85.1427 44.1679 85.1427C44.6709 85.1427 45.3674 84.8719 45.3674 84.1754V84.0593H44.7483C43.4714 84.0593 43.0071 83.4789 43.0071 82.5115C43.0071 81.5442 43.5488 80.8477 44.7096 80.8477C45.8705 80.8477 46.0639 81.0798 46.0639 81.0798V83.4789H46.8378V84.0593H46.0639V84.1367C46.0639 84.988 45.5222 85.7232 44.0905 85.7232C43.5875 85.7232 43.0458 85.6071 43.0458 85.6071L43.0845 85.6458ZM45.3674 81.6215C45.3674 81.6215 45.0579 81.4668 44.6323 81.4668C44.2066 81.4668 43.7423 81.8924 43.7423 82.4728C43.7423 83.0532 44.0518 83.5176 44.8644 83.5176H45.3674V81.6215Z" fill="#3F5F7A"/>
<path d="M46.7604 84.0984C46.6443 84.0984 46.3734 83.9823 46.3734 83.7888C46.3734 83.5953 46.6443 83.5179 46.7604 83.5179H46.9151C47.6116 83.5179 48.1534 83.4019 48.6177 83.2471C48.1534 82.8215 47.7277 82.3571 47.1086 82.1636L47.186 81.6606C47.689 81.2737 48.4242 80.8867 49.1207 80.8867C50.0494 80.8867 50.4363 81.3898 50.4363 81.9315C50.4363 82.4732 50.1655 82.8602 49.7011 83.2471C49.9333 83.4019 50.2429 83.4793 50.5524 83.4793H50.862V84.0597H50.4363C49.8559 84.0597 49.469 83.8662 49.082 83.5953C48.5016 83.8662 47.7664 84.0597 46.8764 84.0597H46.7604V84.0984ZM49.1981 82.8988C49.5464 82.628 49.7011 82.3184 49.7011 82.0089C49.7011 81.6993 49.5077 81.3897 49.0046 81.3897C48.5016 81.3897 48.1147 81.6606 47.8438 81.8541C48.3468 82.0476 48.7725 82.5119 49.1981 82.8602V82.8988Z" fill="#3F5F7A"/>
<path d="M53.8029 83.5942C53.6869 83.8651 53.3386 84.136 52.7969 84.136C52.2552 84.136 52.023 83.9038 51.9456 83.5942C51.8295 83.9038 51.5587 84.0972 51.0556 84.0972H50.7848C50.6687 84.0972 50.3978 83.9812 50.3978 83.7877C50.3978 83.5942 50.6687 83.5168 50.7848 83.5168H51.0556C51.52 83.5168 51.7134 83.3234 51.7134 82.6656V81.3886H52.4486V82.5882C52.4486 83.246 52.4873 83.5555 52.9517 83.5555C53.416 83.5555 53.5708 83.3234 53.5708 82.5882V81.1178H54.2673V82.7816C54.2673 83.4008 54.4994 83.5168 55.1572 83.5168H55.3507C55.3507 83.246 55.3894 82.8977 55.3894 82.6656C55.3894 81.9691 55.312 81.3499 55.1959 80.8856L55.8924 80.7695C56.0085 81.2726 56.1246 81.9304 56.1246 82.6269C56.1246 83.3234 56.1246 83.246 56.0859 83.5555H56.8211V84.136H55.1185C54.3447 84.136 53.9964 84.0199 53.8029 83.6329V83.5942Z" fill="#3F5F7A"/>
<path d="M56.7052 84.1C56.5891 84.1 56.3182 83.9839 56.3182 83.7904C56.3182 83.597 56.5891 83.5196 56.7052 83.5196H57.5952V79.418H58.3304V84.0613H56.7439L56.7052 84.1Z" fill="#3F5F7A"/>
<path d="M59.4911 79.418H60.2263V84.0613H59.4911V79.418Z" fill="#3F5F7A"/>
<path d="M64.289 84.0987C63.0121 84.0987 62.5477 83.5182 62.5477 82.5509C62.5477 81.5835 63.0894 80.887 64.2503 80.887C65.4111 80.887 65.6046 81.1192 65.6046 81.1192V83.5182H66.3785V84.0987H64.289ZM64.9081 81.6222C64.9081 81.6222 64.5985 81.4674 64.1729 81.4674C63.7473 81.4674 63.2829 81.8931 63.2829 82.4735C63.2829 83.0539 63.5925 83.5182 64.4051 83.5182H64.9081V81.6222ZM63.6699 79.6875C63.902 79.6875 64.0568 79.8423 64.0568 80.0744C64.0568 80.3066 63.902 80.4614 63.6699 80.4614C63.4377 80.4614 63.2829 80.3066 63.2829 80.0744C63.2829 79.8423 63.4377 79.6875 63.6699 79.6875ZM64.6759 79.6875C64.8694 79.6875 65.0629 79.8423 65.0629 80.0744C65.0629 80.3066 64.9081 80.4614 64.6759 80.4614C64.4438 80.4614 64.289 80.3066 64.289 80.0744C64.289 79.881 64.4825 79.6875 64.6759 79.6875Z" fill="#3F5F7A"/>
<path d="M65.8755 83.7893C65.8755 83.6346 66.1463 83.5185 66.2624 83.5185H67.1524V81.0033H67.8876V83.5185H68.6615V84.0989H66.2624C66.1077 84.0989 65.8755 83.9828 65.8755 83.7893ZM66.572 80.2294C66.7268 80.2294 66.9202 80.2294 66.9976 80.2681C66.8816 80.1908 66.8042 80.0747 66.8042 79.9586C66.8042 79.649 67.0363 79.3008 67.6941 79.3008C68.3519 79.3008 68.0037 79.3008 68.0811 79.3008L68.0037 79.6877C67.965 79.6877 67.8102 79.6877 67.6554 79.6877C67.4233 79.6877 67.3072 79.8038 67.3072 79.9586C67.3072 80.1134 67.4233 80.2294 67.8102 80.2294H68.1972V80.6551H66.5333V80.2294H66.572Z" fill="#3F5F7A"/>
<path d="M68.5455 84.0995C68.4294 84.0995 68.1586 83.9834 68.1586 83.7899C68.1586 83.5964 68.4294 83.519 68.5455 83.519H69.4355V81.0039H70.1707V83.519H70.9446V84.0995H68.5455ZM69.2807 84.6412C69.4742 84.6412 69.6677 84.796 69.6677 85.0281C69.6677 85.2603 69.5129 85.4151 69.2807 85.4151C69.0486 85.4151 68.8938 85.2603 68.8938 85.0281C68.8938 84.796 69.0486 84.6412 69.2807 84.6412ZM70.2868 84.6412C70.4802 84.6412 70.6737 84.796 70.6737 85.0281C70.6737 85.2603 70.5189 85.4151 70.2868 85.4151C70.0546 85.4151 69.8998 85.2603 69.8998 85.0281C69.8998 84.8347 70.0933 84.6412 70.2868 84.6412Z" fill="#3F5F7A"/>
<path d="M70.4415 83.7898C70.4415 83.635 70.7124 83.5189 70.8285 83.5189H71.525C71.6797 83.5189 71.7958 83.5189 71.7958 83.5189C71.7958 83.5189 71.5637 83.3254 71.5637 82.9772C71.5637 82.3194 72.028 81.855 72.8019 81.855C73.5758 81.855 74.0014 82.4742 74.0014 83.2481V83.4415H74.7366V83.3254C74.7366 81.8163 74.1562 81.1585 72.8019 81.1585C71.4476 81.1585 71.7958 81.2746 71.4089 81.3907L71.3315 80.8103C71.7958 80.6555 72.3762 80.5781 72.918 80.5781C74.5431 80.5781 75.4331 81.352 75.4331 83.3254V83.4028H75.8588V83.9832H70.7511C70.635 83.9832 70.3641 83.8671 70.3641 83.7124L70.4415 83.7898ZM73.4597 83.3254C73.4597 82.745 73.2662 82.4355 72.8406 82.4355C72.4149 82.4355 72.2602 82.6289 72.2602 82.9772C72.2602 83.3254 72.5697 83.5576 72.9567 83.5576H73.4984V83.3254H73.4597Z" fill="#3F5F7A"/>
<path d="M75.8199 84.1C75.7038 84.1 75.433 83.9839 75.433 83.7904C75.433 83.597 75.7038 83.5196 75.8199 83.5196H76.7099V79.418H77.4451V84.0613H75.8586L75.8199 84.1Z" fill="#3F5F7A"/>
<path d="M78.6444 79.418H79.3796V84.0613H78.6444V79.418Z" fill="#3F5F7A"/>
<path d="M0.0947266 92.4583V90.9492H0.636447V92.3035C0.636447 92.6905 0.829915 92.8839 1.13947 92.8839C1.44903 92.8839 1.6812 92.6518 1.6812 92.3035V90.9492H2.22292V93.3483H1.6812V92.9613C1.52643 93.1935 1.29425 93.387 0.945998 93.387C0.404275 93.387 0.0947266 93.0387 0.0947266 92.4583Z" fill="#3F5F7A"/>
<path d="M2.72559 92.9993L2.95776 92.6123C3.22862 92.8058 3.49948 92.9219 3.73164 92.9219C3.96381 92.9219 4.11859 92.8058 4.11859 92.6511C4.11859 92.4576 3.84773 92.3802 3.57687 92.3028C3.22862 92.1867 2.84168 92.0706 2.84168 91.6063C2.84168 91.142 3.22861 90.8711 3.69295 90.8711C4.15728 90.8711 4.31207 90.9872 4.58293 91.142L4.35076 91.5289C4.11859 91.3741 3.88642 91.2967 3.69295 91.2967C3.49948 91.2967 3.3447 91.4128 3.3447 91.5289C3.3447 91.7224 3.61556 91.7998 3.88642 91.8772C4.23467 91.9932 4.62161 92.148 4.62161 92.5737C4.62161 93.0767 4.23467 93.3475 3.73164 93.3475C3.38339 93.3475 3.03514 93.2315 2.72559 92.9993Z" fill="#3F5F7A"/>
<path d="M5.24119 92.6494V91.4112H4.93164V90.9469H5.24119V90.2891H5.78291V90.9469H6.44072V91.4112H5.78291V92.572C5.78291 92.7655 5.899 92.8816 6.09248 92.8816C6.28595 92.8816 6.32464 92.8816 6.44072 92.8042V93.2685C6.28595 93.3459 6.16987 93.3846 5.9377 93.3846C5.55075 93.3846 5.24119 93.1912 5.24119 92.6881V92.6494Z" fill="#3F5F7A"/>
<path d="M6.98242 90.9486H7.52414V91.4904C7.67892 91.1421 7.94979 90.8712 8.37543 90.9099V91.4904C7.91109 91.4904 7.56284 91.7999 7.56284 92.419V93.309H7.02112V90.9099L6.98242 90.9486Z" fill="#3F5F7A"/>
<path d="M8.87842 90.0586H9.45884V90.5616H8.87842V90.0586ZM8.91711 90.9486H9.45884V93.3476H8.91711V90.9486Z" fill="#3F5F7A"/>
<path d="M10.0006 92.6127C10.0006 92.071 10.3876 91.8388 10.968 91.8388C11.5484 91.8388 11.4323 91.8775 11.6258 91.9549V91.8775C11.6258 91.5293 11.4323 91.3745 11.0454 91.3745C10.6584 91.3745 10.581 91.4519 10.3489 91.5293L10.1941 91.1036C10.4649 90.9875 10.6971 90.9102 11.0841 90.9102C11.471 90.9102 11.7032 90.9875 11.8579 91.181C12.0514 91.3358 12.1288 91.6066 12.1288 91.9162V93.3479H11.5871V93.0384C11.4323 93.2318 11.1614 93.3866 10.8132 93.3866C10.3489 93.3866 9.96191 93.1157 9.96191 92.6514L10.0006 92.6127ZM11.6258 92.4579V92.3031C11.471 92.2645 11.3162 92.2258 11.0841 92.2258C10.7358 92.2258 10.5036 92.3805 10.5036 92.6127C10.5036 92.8449 10.6971 92.9996 10.968 92.9996C11.3162 92.9996 11.6258 92.8062 11.6258 92.4966V92.4579Z" fill="#3F5F7A"/>
<path d="M12.8643 90.0195H13.406V93.3086H12.8643V90.0195Z" fill="#3F5F7A"/>
<path d="M15.2242 91.7615C15.2242 90.8329 15.882 90.0977 16.8494 90.0977C17.8168 90.0977 17.7781 90.2911 18.0876 90.6007L17.7394 91.0263C17.4685 90.7942 17.1977 90.6394 16.8494 90.6394C16.2303 90.6394 15.8047 91.1424 15.8047 91.7615C15.8047 92.3807 16.2303 92.8837 16.8494 92.8837C17.4685 92.8837 17.4685 92.7289 17.7394 92.458L18.0876 92.8063C17.7394 93.1545 17.3911 93.3867 16.8107 93.3867C15.882 93.3867 15.1855 92.6515 15.1855 91.7615H15.2242Z" fill="#3F5F7A"/>
<path d="M18.668 90.0586H19.2484V90.5616H18.668V90.0586ZM18.668 90.9486H19.2097V93.3476H18.668V90.9486Z" fill="#3F5F7A"/>
<path d="M20.0615 92.6494V91.4112H19.752V90.9469H20.0615V90.2891H20.6032V90.9469H21.261V91.4112H20.6032V92.572C20.6032 92.7655 20.7193 92.8816 20.9128 92.8816C21.1063 92.8816 21.145 92.8816 21.261 92.8042V93.2685C21.1063 93.3459 20.9902 93.3846 20.758 93.3846C20.3711 93.3846 20.0615 93.1912 20.0615 92.6881V92.6494Z" fill="#3F5F7A"/>
<path d="M21.8027 90.0586H22.3832V90.5616H21.8027V90.0586ZM21.8414 90.9486H22.3832V93.3476H21.8414V90.9486Z" fill="#3F5F7A"/>
<path d="M22.9629 92.1484C22.9629 91.4519 23.4272 90.9102 24.1237 90.9102C24.8202 90.9102 25.2846 91.4906 25.2846 92.1871C25.2846 92.8836 25.2846 92.3032 25.2846 92.3419H23.5433C23.6207 92.7288 23.8916 92.961 24.2398 92.961C24.5881 92.961 24.7041 92.8449 24.8976 92.6901L25.2072 92.961C24.975 93.2318 24.6654 93.4253 24.2398 93.4253C23.5433 93.4253 23.0016 92.9223 23.0016 92.1871L22.9629 92.1484ZM24.7041 91.9549C24.7041 91.6067 24.472 91.3358 24.085 91.3358C23.6981 91.3358 23.5046 91.6067 23.4659 91.9549H24.7041Z" fill="#3F5F7A"/>
<path d="M25.6333 92.9993L25.8655 92.6123C26.1363 92.8058 26.4072 92.9219 26.6394 92.9219C26.8715 92.9219 27.0263 92.8058 27.0263 92.6511C27.0263 92.4576 26.7554 92.3802 26.4846 92.3028C26.1363 92.1867 25.7494 92.0706 25.7494 91.6063C25.7494 91.142 26.1363 90.8711 26.6007 90.8711C27.065 90.8711 27.2198 90.9872 27.4906 91.142L27.2585 91.5289C27.0263 91.3741 26.7941 91.2967 26.6007 91.2967C26.4072 91.2967 26.2524 91.4128 26.2524 91.5289C26.2524 91.7224 26.5233 91.7998 26.7941 91.8772C27.1424 91.9932 27.5293 92.148 27.5293 92.5737C27.5293 93.0767 27.1424 93.3475 26.6394 93.3475C26.2911 93.3475 25.9042 93.2315 25.6333 92.9993Z" fill="#3F5F7A"/>
<path d="M29.1158 92.6127C29.1158 92.071 29.5028 91.8388 30.0832 91.8388C30.6636 91.8388 30.5475 91.8775 30.741 91.9549V91.8775C30.741 91.5293 30.5475 91.3745 30.1606 91.3745C29.7736 91.3745 29.6963 91.4519 29.4641 91.5293L29.3093 91.1036C29.5802 90.9875 29.8123 90.9102 30.1993 90.9102C30.5862 90.9102 30.8184 90.9875 30.9732 91.181C31.1666 91.3358 31.244 91.6066 31.244 91.9162V93.3479H30.7023V93.0384C30.5475 93.2318 30.2767 93.3866 29.9284 93.3866C29.4641 93.3866 29.0771 93.1157 29.0771 92.6514L29.1158 92.6127ZM30.741 92.4579V92.3031C30.5862 92.2645 30.4315 92.2258 30.1993 92.2258C29.851 92.2258 29.6189 92.3805 29.6189 92.6127C29.6189 92.8449 29.8123 92.9996 30.0832 92.9996C30.4315 92.9996 30.741 92.8062 30.741 92.4966V92.4579Z" fill="#3F5F7A"/>
<path d="M31.9404 90.9485H32.4822V91.2967C32.6369 91.0646 32.8691 90.8711 33.2174 90.8711C33.7591 90.8711 34.0686 91.2194 34.0686 91.7998V93.3089H33.5269V91.9546C33.5269 91.5676 33.3334 91.3741 33.0239 91.3741C32.7143 91.3741 32.4822 91.6063 32.4822 91.9546V93.3089H31.9404V90.9098V90.9485Z" fill="#3F5F7A"/>
<path d="M34.6104 92.1481C34.6104 91.3355 35.1521 90.9099 35.7325 90.9099C36.3129 90.9099 36.3903 91.1033 36.5451 91.3355V90.0586H37.0868V93.3476H36.5451V92.9607C36.3516 93.1928 36.1194 93.425 35.7325 93.425C35.1521 93.425 34.6104 92.9607 34.6104 92.1868V92.1481ZM36.5451 92.1481C36.5451 91.6838 36.2355 91.3742 35.8486 91.3742C35.4616 91.3742 35.1521 91.6451 35.1521 92.1481C35.1521 92.6124 35.4616 92.922 35.8486 92.922C36.2355 92.922 36.5451 92.6124 36.5451 92.1481Z" fill="#3F5F7A"/>
<path d="M39.7951 90.6749H38.7891V90.1719H41.3429V90.6749H40.3368V93.3448H39.7564V90.6749H39.7951Z" fill="#3F5F7A"/>
<path d="M41.2271 92.1484C41.2271 91.4519 41.6914 90.9102 42.3879 90.9102C43.0844 90.9102 43.5487 91.4906 43.5487 92.1871C43.5487 92.8836 43.5487 92.3032 43.5487 92.3419H41.8075C41.8849 92.7288 42.1557 92.961 42.504 92.961C42.8522 92.961 42.9683 92.8449 43.1618 92.6901L43.4713 92.961C43.2392 93.2318 42.9296 93.4253 42.504 93.4253C41.8075 93.4253 41.2657 92.9223 41.2657 92.1871L41.2271 92.1484ZM43.007 91.9549C43.007 91.6067 42.7748 91.3358 42.3879 91.3358C42.0009 91.3358 41.8075 91.6067 41.7688 91.9549H43.007Z" fill="#3F5F7A"/>
<path d="M43.9746 92.1484C43.9746 91.4519 44.5163 90.9102 45.2128 90.9102C45.9093 90.9102 45.948 91.0649 46.1802 91.3358L45.8319 91.684C45.6772 91.4906 45.4837 91.3745 45.2128 91.3745C44.8259 91.3745 44.5163 91.7227 44.5163 92.1484C44.5163 92.574 44.8259 92.9223 45.2128 92.9223C45.5998 92.9223 45.6772 92.8062 45.8319 92.6127L46.1802 92.9223C45.948 93.1931 45.6772 93.3866 45.2128 93.3866C44.5163 93.3866 43.9746 92.8449 43.9746 92.1484Z" fill="#3F5F7A"/>
<path d="M46.6831 90.0195H47.2248V91.2964C47.3796 91.0643 47.6118 90.8708 47.96 90.8708C48.5017 90.8708 48.8113 91.2191 48.8113 91.7995V93.3086H48.2696V91.9543C48.2696 91.5673 48.0761 91.3738 47.7665 91.3738C47.457 91.3738 47.2248 91.606 47.2248 91.9543V93.3086H46.6831V90.0195Z" fill="#3F5F7A"/>
<path d="M49.5078 90.9485H50.0495V91.2967C50.2043 91.0646 50.4365 90.8711 50.7847 90.8711C51.3265 90.8711 51.636 91.2194 51.636 91.7998V93.3089H51.0943V91.9546C51.0943 91.5676 50.9008 91.3741 50.5913 91.3741C50.2817 91.3741 50.0495 91.6063 50.0495 91.9546V93.3089H49.5078V90.9098V90.9485Z" fill="#3F5F7A"/>
<path d="M52.1777 92.1484C52.1777 91.4519 52.7195 90.9102 53.4546 90.9102C54.1898 90.9102 54.7316 91.4519 54.7316 92.1484C54.7316 92.8449 54.1898 93.3866 53.4546 93.3866C52.7195 93.3866 52.1777 92.8449 52.1777 92.1484ZM54.1511 92.1484C54.1511 91.7227 53.8416 91.3745 53.416 91.3745C52.9903 91.3745 52.6808 91.7227 52.6808 92.1484C52.6808 92.574 52.9903 92.9223 53.416 92.9223C53.8416 92.9223 54.1511 92.574 54.1511 92.1871V92.1484Z" fill="#3F5F7A"/>
<path d="M55.3115 90.0195H55.8533V93.3086H55.3115V90.0195Z" fill="#3F5F7A"/>
<path d="M56.4336 92.1484C56.4336 91.4519 56.9753 90.9102 57.7105 90.9102C58.4457 90.9102 58.9874 91.4519 58.9874 92.1484C58.9874 92.8449 58.4457 93.3866 57.7105 93.3866C56.9753 93.3866 56.4336 92.8449 56.4336 92.1484ZM58.4457 92.1484C58.4457 91.7227 58.1361 91.3745 57.7105 91.3745C57.2849 91.3745 56.9753 91.7227 56.9753 92.1484C56.9753 92.574 57.2849 92.9223 57.7105 92.9223C58.1361 92.9223 58.4457 92.574 58.4457 92.1871V92.1484Z" fill="#3F5F7A"/>
<path d="M59.5298 93.7732L59.7233 93.3476C59.9941 93.5023 60.265 93.6184 60.5745 93.6184C61.0776 93.6184 61.3097 93.3475 61.3097 92.8832V92.6897C61.1163 92.9606 60.8454 93.1154 60.4585 93.1154C59.878 93.1154 59.375 92.6897 59.375 91.9932C59.375 91.2967 59.9167 90.8711 60.4585 90.8711C61.0002 90.8711 61.1163 91.0646 61.3097 91.2967V90.9485H61.8515V92.8445C61.8515 93.2315 61.7354 93.541 61.5419 93.7345C61.3484 93.928 61.0002 94.044 60.5745 94.044C60.1876 94.044 59.8006 93.928 59.4911 93.7732H59.5298ZM61.3484 91.9932C61.3484 91.6063 61.0389 91.3354 60.6519 91.3354C60.265 91.3354 59.9554 91.6063 59.9554 91.9932C59.9554 92.3802 60.265 92.6511 60.6519 92.6511C61.0389 92.6511 61.3484 92.3802 61.3484 91.9932Z" fill="#3F5F7A"/>
<path d="M64.2115 90.9485H64.7919L63.8245 93.3862C63.631 93.8893 63.4376 94.044 63.0506 94.044C62.6637 94.044 62.6637 94.0054 62.4702 93.8893L62.6637 93.4636C62.7798 93.5023 62.8572 93.541 62.9732 93.541C63.0893 93.541 63.2054 93.4636 63.3215 93.2702L62.3154 90.8711H62.8958L63.5537 92.6511L64.1728 90.8711L64.2115 90.9485Z" fill="#3F5F7A"/>
<path d="M66.417 92.9192L68.2743 90.6749H66.4557V90.1719H69.0095V90.5975L67.1522 92.8418H69.0095V93.3448H66.417V92.9192Z" fill="#3F5F7A"/>
<path d="M69.3965 92.1484C69.3965 91.4519 69.9382 90.9102 70.6734 90.9102C71.4086 90.9102 71.9503 91.4519 71.9503 92.1484C71.9503 92.8449 71.4086 93.3866 70.6734 93.3866C69.9382 93.3866 69.3965 92.8449 69.3965 92.1484ZM71.3699 92.1484C71.3699 91.7227 71.0604 91.3745 70.6347 91.3745C70.2091 91.3745 69.8995 91.7227 69.8995 92.1484C69.8995 92.574 70.2091 92.9223 70.6347 92.9223C71.0604 92.9223 71.3699 92.574 71.3699 92.1871V92.1484Z" fill="#3F5F7A"/>
<path d="M72.4922 90.9485H73.0339V91.2967C73.1887 91.0646 73.4209 90.8711 73.7691 90.8711C74.3108 90.8711 74.6204 91.2194 74.6204 91.7998V93.3089H74.0787V91.9546C74.0787 91.5676 73.8852 91.3741 73.5756 91.3741C73.2661 91.3741 73.0339 91.6063 73.0339 91.9546V93.3089H72.4922V90.9098V90.9485Z" fill="#3F5F7A"/>
<path d="M75.1621 92.1484C75.1621 91.4519 75.6264 90.9102 76.3229 90.9102C77.0194 90.9102 77.4838 91.4906 77.4838 92.1871C77.4838 92.8836 77.4838 92.3032 77.4838 92.3419H75.7425C75.8199 92.7288 76.0908 92.961 76.439 92.961C76.7873 92.961 76.9034 92.8449 77.0968 92.6901L77.4064 92.961C77.1742 93.2318 76.8647 93.4253 76.439 93.4253C75.7425 93.4253 75.2008 92.9223 75.2008 92.1871L75.1621 92.1484ZM76.9421 91.9549C76.9421 91.6067 76.7099 91.3358 76.3229 91.3358C75.936 91.3358 75.7425 91.6067 75.7038 91.9549H76.9421Z" fill="#3F5F7A"/>
<path d="M77.832 92.9993L78.0642 92.6123C78.3351 92.8058 78.6059 92.9219 78.8381 92.9219C79.0702 92.9219 79.225 92.8058 79.225 92.6511C79.225 92.4576 78.9542 92.3802 78.6833 92.3028C78.3351 92.1867 77.9481 92.0706 77.9481 91.6063C77.9481 91.142 78.3351 90.8711 78.7994 90.8711C79.2637 90.8711 79.4185 90.9872 79.6894 91.142L79.4572 91.5289C79.225 91.3741 78.9929 91.2967 78.7994 91.2967C78.6059 91.2967 78.4511 91.4128 78.4511 91.5289C78.4511 91.7224 78.722 91.7998 78.9929 91.8772C79.3411 91.9932 79.7281 92.148 79.7281 92.5737C79.7281 93.0767 79.3411 93.3475 78.8381 93.3475C78.4898 93.3475 78.1029 93.2315 77.832 92.9993Z" fill="#3F5F7A"/>
</svg>
