<svg width="270" height="63" viewBox="0 0 270 63" fill="none" xmlns="http://www.w3.org/2000/svg">
<path d="M5.13821 37.6312V36.9105C5.13821 36.7942 5.18471 36.7477 5.30096 36.7477H7.37019C7.48644 36.7477 7.53294 36.7942 7.53294 36.9105V42.0952C7.53294 42.4439 7.60269 42.6764 7.71893 42.7927C7.85843 42.9322 8.04443 42.9787 8.34668 42.9787H8.85818C9.29992 42.9787 9.53242 43.3274 9.53242 44.0017C9.53242 44.3969 9.48592 44.6527 9.36967 44.8154C9.25342 44.9549 9.09067 45.0247 8.85818 45.0247H7.09119C6.5332 45.0247 6.1147 44.9317 5.7892 44.7689C5.48695 44.5829 5.27771 44.2574 5.16146 43.7924C4.90571 44.0017 4.62671 44.1412 4.30121 44.2574C3.97572 44.3504 3.62697 44.4202 3.27822 44.4202C2.83648 44.4202 2.41798 44.3504 2.02273 44.2342C1.62749 44.1179 1.27874 43.9087 0.976492 43.6529C0.674245 43.3972 0.441746 43.0484 0.255748 42.6299C0.0697495 42.2114 0 41.6999 0 41.1187C0 40.4444 0.0929995 39.8864 0.302248 39.4447C0.488246 39.003 0.767244 38.6542 1.06949 38.3752C1.39499 38.1195 1.76699 37.9335 2.16223 37.8172C2.58073 37.701 2.99922 37.6545 3.41772 37.6545H5.13821V37.6312ZM1.69724 35.5387C1.58099 35.5387 1.53449 35.4922 1.53449 35.376V33.7252C1.53449 33.609 1.58099 33.5625 1.69724 33.5625H3.39447C3.51072 33.5625 3.55722 33.609 3.55722 33.7252V35.376C3.55722 35.4922 3.51072 35.5387 3.39447 35.5387H1.69724ZM3.74322 42.3509C4.16172 42.3509 4.51046 42.2347 4.76621 41.9789C5.02196 41.7464 5.13821 41.3512 5.13821 40.8397V39.6772H3.78972C3.37122 39.6772 3.02247 39.7702 2.76673 39.9794C2.51098 40.1887 2.37148 40.5607 2.37148 41.0954C2.37148 41.5604 2.51098 41.8859 2.76673 42.0719C3.02247 42.2579 3.34797 42.3509 3.74322 42.3509ZM4.30121 35.5387C4.18497 35.5387 4.13847 35.4922 4.13847 35.376V33.7252C4.13847 33.609 4.18497 33.5625 4.30121 33.5625H5.99845C6.1147 33.5625 6.1612 33.609 6.1612 33.7252V35.376C6.1612 35.4922 6.1147 35.5387 5.99845 35.5387H4.30121Z" fill="#36302B"/>
<path d="M10.9043 38.0963C10.9043 37.9801 10.9508 37.9336 11.0671 37.9336H13.1131C13.2293 37.9336 13.2758 37.9801 13.2758 38.0963V42.0721C13.2991 42.3511 13.4153 42.5836 13.6478 42.7463C13.8571 42.9091 14.1826 43.002 14.5778 43.002H14.9731C15.2056 43.002 15.3683 43.0718 15.4846 43.2345C15.6008 43.3973 15.6473 43.653 15.6473 44.0018C15.6473 44.6993 15.4148 45.0248 14.9731 45.0248C14.5546 45.0248 14.1826 44.9783 13.8571 44.862C13.5316 44.769 13.2758 44.5365 13.0666 44.1645C12.8806 44.5133 12.6248 44.7458 12.2528 44.862C11.9041 44.955 11.4158 45.0248 10.7881 45.0248H9.04436C8.81186 45.0248 8.64911 44.955 8.53287 44.8155C8.41662 44.676 8.37012 44.4203 8.37012 44.025C8.37012 43.653 8.41662 43.374 8.53287 43.2113C8.64911 43.0486 8.81186 42.9788 9.04436 42.9788H10.0906C10.4394 42.9788 10.6718 42.8858 10.7648 42.6766C10.8578 42.4673 10.9043 42.1186 10.9043 41.6071V38.0963ZM9.85811 48.5123C9.74186 48.5123 9.69536 48.4658 9.69536 48.3495V46.6988C9.69536 46.5825 9.74186 46.536 9.85811 46.536H11.5553C11.6716 46.536 11.7181 46.5825 11.7181 46.6988V48.3495C11.7181 48.4658 11.6716 48.5123 11.5553 48.5123H9.85811ZM12.4388 48.5123C12.3226 48.5123 12.2761 48.4658 12.2761 48.3495V46.6988C12.2761 46.5825 12.3226 46.536 12.4388 46.536H14.1361C14.2523 46.536 14.2988 46.5825 14.2988 46.6988V48.3495C14.2988 48.4658 14.2523 48.5123 14.1361 48.5123H12.4388Z" fill="#36302B"/>
<path d="M16.879 38.0978C16.879 37.9815 16.9255 37.935 17.0417 37.935H19.0877C19.2039 37.935 19.2504 37.9815 19.2504 38.0978V42.0735C19.2737 42.3525 19.3899 42.585 19.6224 42.7477C19.8317 42.9105 20.1572 43.0035 20.5524 43.0035H20.9477C21.1802 43.0035 21.3429 43.0732 21.4592 43.236C21.5754 43.3987 21.6219 43.6545 21.6219 44.0032C21.6219 44.7007 21.3894 45.0262 20.9477 45.0262C20.5292 45.0262 20.1572 44.9797 19.8317 44.8634C19.5062 44.7704 19.2504 44.5379 19.0412 44.1659C18.8552 44.5147 18.5994 44.7472 18.2274 44.8634C17.8787 44.9564 17.3905 45.0262 16.7627 45.0262H15.019C14.7865 45.0262 14.6237 44.9564 14.5075 44.8169C14.3912 44.6774 14.3447 44.4217 14.3447 44.0264C14.3447 43.6545 14.3912 43.3755 14.5075 43.2127C14.6237 43.05 14.7865 42.9802 15.019 42.9802H16.0652C16.414 42.9802 16.6465 42.8872 16.7395 42.678C16.8325 42.4687 16.879 42.12 16.879 41.6085V38.0978ZM15.9025 36.2145C15.7862 36.2145 15.7397 36.168 15.7397 36.0518V34.401C15.7397 34.2848 15.7862 34.2383 15.9025 34.2383H17.5997C17.7159 34.2383 17.7624 34.2848 17.7624 34.401V36.0518C17.7624 36.168 17.7159 36.2145 17.5997 36.2145H15.9025ZM18.4832 36.2145C18.3669 36.2145 18.3204 36.168 18.3204 36.0518V34.401C18.3204 34.2848 18.3669 34.2383 18.4832 34.2383H20.1804C20.2967 34.2383 20.3432 34.2848 20.3432 34.401V36.0518C20.3432 36.168 20.2967 36.2145 20.1804 36.2145H18.4832Z" fill="#36302B"/>
<path d="M31.1078 45.048C30.6661 45.048 30.3174 44.955 30.0384 44.7923C29.7594 44.6295 29.5501 44.4203 29.4106 44.1413C29.2479 44.49 29.0154 44.7225 28.6899 44.862C28.3644 44.9783 27.9226 45.048 27.3879 45.048H26.7369C26.2951 45.048 25.9464 44.955 25.6674 44.7923C25.3884 44.6295 25.1791 44.4203 25.0164 44.1413C24.8537 44.49 24.6212 44.7458 24.2957 44.862C23.9702 44.9783 23.5284 45.048 22.9704 45.048H20.9477C20.7152 45.048 20.5524 44.9783 20.4362 44.862C20.3199 44.7225 20.2734 44.49 20.2734 44.118C20.2734 43.7228 20.3199 43.4438 20.4362 43.281C20.5524 43.1183 20.7152 43.0253 20.9477 43.0253H22.0869C22.4124 43.0253 22.6217 42.9323 22.7147 42.7696C22.8077 42.6068 22.8542 42.3046 22.8542 41.8628V39.3286C22.8542 39.2123 22.9007 39.1658 23.0169 39.1658H25.0861C25.2024 39.1658 25.2489 39.2123 25.2489 39.3286V42.0953C25.2489 42.4673 25.3651 42.6998 25.5976 42.8161C25.8301 42.9323 26.0626 43.002 26.3416 43.002C26.5509 43.002 26.7369 42.9788 26.8531 42.9323C26.9926 42.8858 27.0856 42.8161 27.1321 42.7231C27.1786 42.6301 27.2251 42.5138 27.2484 42.3511C27.2716 42.1883 27.2716 42.0023 27.2716 41.7931V39.3053C27.2716 39.1891 27.3181 39.1426 27.4344 39.1426H29.5036C29.6199 39.1426 29.6664 39.1891 29.6664 39.3053V42.0488C29.6664 42.4208 29.7826 42.6766 30.0151 42.7928C30.2476 42.9091 30.5034 42.9788 30.8056 42.9788C31.0148 42.9788 31.1776 42.9556 31.2938 42.9091C31.4101 42.8626 31.4798 42.7928 31.5496 42.6998C31.5961 42.6068 31.6426 42.4906 31.6426 42.3278C31.6426 42.1651 31.6658 41.9791 31.6658 41.7698V38.0963C31.6658 37.9801 31.7123 37.9336 31.8286 37.9336H33.8978C34.0141 37.9336 34.0606 37.9801 34.0606 38.0963V42.0721C34.0838 42.3511 34.2001 42.5836 34.4326 42.7463C34.6418 42.9091 34.9673 43.002 35.3626 43.002H35.7578C35.9903 43.002 36.1531 43.0718 36.2693 43.2345C36.3856 43.3973 36.4321 43.653 36.4321 44.0018C36.4321 44.6993 36.1996 45.0248 35.7578 45.0248C35.3393 45.0248 34.9673 44.9783 34.6418 44.862C34.3163 44.769 34.0606 44.5365 33.8513 44.1645C33.6886 44.49 33.4561 44.7225 33.1538 44.8388C32.8516 44.955 32.5028 45.0248 32.1076 45.0248H31.1078V45.048Z" fill="#36302B"/>
<path d="M35.6884 45.0495C35.4559 45.0495 35.2932 44.9798 35.1769 44.817C35.0607 44.6543 35.0142 44.3985 35.0142 44.0498C35.0142 43.6778 35.0607 43.422 35.1769 43.236C35.2932 43.0733 35.4559 42.9803 35.6884 42.9803H39.8734C40.1524 42.9803 40.3616 42.957 40.5244 42.9105C40.6871 42.864 40.8266 42.7943 40.9196 42.678C41.0126 42.5618 41.0824 42.4223 41.1289 42.2363C41.1754 42.0503 41.1986 41.8178 41.1986 41.5155C41.1986 41.283 41.1754 41.0505 41.1056 40.8413C41.0591 40.632 40.9429 40.4228 40.8266 40.26C40.6871 40.074 40.5244 39.9345 40.2919 39.8415C40.0594 39.7485 39.8036 39.6788 39.4781 39.6788C39.1061 39.6788 38.8039 39.7485 38.5249 39.888C38.2459 40.0275 37.9901 40.2135 37.7576 40.4228C37.6879 40.4925 37.5949 40.5158 37.5251 40.446L36.5254 39.237C36.4324 39.144 36.4091 39.0511 36.4789 38.9813C36.8741 38.6093 37.3159 38.2838 37.8274 38.0281C38.3389 37.7723 38.9666 37.6328 39.7339 37.6328C40.4546 37.6328 41.0591 37.7491 41.5706 37.9583C42.0821 38.1676 42.4773 38.4698 42.8028 38.8186C43.1283 39.1905 43.3376 39.609 43.4771 40.074C43.6166 40.5623 43.6863 41.0738 43.6863 41.6085C43.6863 42.3293 43.6166 42.8873 43.5003 43.329C43.3608 43.7708 43.1748 44.1195 42.9423 44.3753C42.7098 44.631 42.4076 44.7938 42.0589 44.8868C41.7101 44.9798 41.2916 45.0263 40.8499 45.0263H35.6884V45.0495ZM38.7341 48.4672C38.6179 48.4672 38.5714 48.4207 38.5714 48.3045V46.6537C38.5714 46.5375 38.6179 46.491 38.7341 46.491H40.8266C40.9429 46.491 40.9894 46.5375 40.9894 46.6537V48.3045C40.9894 48.4207 40.9429 48.4672 40.8266 48.4672H38.7341Z" fill="#36302B"/>
<path d="M46.8248 48.5137C46.7085 48.5137 46.662 48.4672 46.662 48.351V46.6305C46.662 46.5142 46.7085 46.4677 46.8248 46.4677H48.7777C49.0102 46.4677 49.2195 46.4445 49.4055 46.398C49.5915 46.3515 49.7542 46.2817 49.8705 46.1887C49.9867 46.0957 50.0797 45.933 50.1495 45.747C50.2192 45.561 50.2425 45.3285 50.2425 45.0263H48.615C47.5222 45.0263 46.662 44.7705 46.0808 44.2358C45.4995 43.701 45.1973 42.7943 45.1973 41.5155C45.1973 40.7948 45.2903 40.1903 45.4995 39.702C45.7088 39.2138 45.9878 38.8186 46.3365 38.4931C46.6853 38.1908 47.0805 37.9583 47.5222 37.8421C47.964 37.7026 48.429 37.6328 48.894 37.6328C49.3822 37.6328 49.8705 37.7026 50.3122 37.8188C50.754 37.9351 51.1492 38.1443 51.498 38.4466C51.8467 38.7256 52.1025 39.1208 52.3117 39.609C52.4977 40.0973 52.614 40.7018 52.614 41.4225V43.0035H53.7532C54.1949 43.0035 54.4274 43.3523 54.4274 44.0265C54.4274 44.445 54.3809 44.724 54.2647 44.8635C54.1484 45.003 53.9857 45.0495 53.7532 45.0495H52.614V45.375C52.614 46.4445 52.335 47.2117 51.8002 47.7465C51.2655 48.258 50.4285 48.5137 49.2892 48.5137H46.8248ZM48.9172 39.6788C48.4755 39.6788 48.1267 39.8415 47.871 40.1438C47.6385 40.4693 47.499 40.8878 47.499 41.4225C47.499 42.0503 47.6385 42.4455 47.8942 42.6548C48.15 42.864 48.4987 42.957 48.9405 42.957H50.2425V41.3295C50.2657 40.2368 49.824 39.6788 48.9172 39.6788Z" fill="#36302B"/>
<path d="M55.1486 33.7252C55.1486 33.609 55.1951 33.5625 55.3114 33.5625H57.3806C57.4969 33.5625 57.5434 33.609 57.5434 33.7252V42.0952C57.5666 42.3974 57.6829 42.6067 57.8921 42.7694C58.1014 42.9322 58.4269 43.0019 58.8221 43.0019H59.2174C59.4499 43.0019 59.6126 43.0717 59.7288 43.2344C59.8451 43.3972 59.8916 43.6529 59.8916 44.0017C59.8916 44.6992 59.6591 45.0247 59.2174 45.0247C58.7989 45.0247 58.4269 44.9782 58.1014 44.8619C57.7759 44.7689 57.5201 44.5364 57.3109 44.1644C57.1481 44.4899 56.8924 44.7224 56.5669 44.8387C56.2414 44.9549 55.7996 45.0247 55.2649 45.0247H53.7537C53.5212 45.0247 53.3584 44.9782 53.2422 44.9084C53.1259 44.8387 53.0794 44.6759 53.0794 44.4434C53.0794 44.3039 53.1027 44.1644 53.1259 43.9784C53.1492 43.8157 53.1957 43.6529 53.2422 43.5134C53.2887 43.3739 53.3584 43.2344 53.4514 43.1414C53.5444 43.0484 53.6374 42.9787 53.7537 42.9787H54.3349C54.5209 42.9787 54.6836 42.9554 54.7999 42.8857C54.9161 42.8159 54.9859 42.7229 55.0556 42.5834C55.1021 42.4439 55.1486 42.3044 55.1486 42.0952C55.1486 41.9092 55.1719 41.6767 55.1719 41.4442V33.7252H55.1486Z" fill="#36302B"/>
<path d="M59.2173 45.0481C58.9848 45.0481 58.822 45.0016 58.7058 44.9318C58.5895 44.8621 58.543 44.6994 58.543 44.4669C58.543 44.3274 58.5663 44.1879 58.5895 44.0019C58.6128 43.8391 58.6593 43.6764 58.7058 43.5369C58.7523 43.3974 58.822 43.2579 58.915 43.1649C59.008 43.0719 59.101 43.0021 59.2173 43.0021H59.7985C60.0775 43.0021 60.2868 42.9324 60.4263 42.8161C60.5658 42.6766 60.6123 42.4441 60.6123 42.1186V33.7487C60.6123 33.6324 60.6588 33.5859 60.775 33.5859H62.8442C62.9605 33.5859 63.007 33.6324 63.007 33.7487V42.9091C63.007 43.6299 62.8442 44.1879 62.542 44.5133C62.2397 44.8621 61.7282 45.0248 61.0308 45.0248H59.2173V45.0481Z" fill="#36302B"/>
<path d="M67.4244 44.8619C67.4244 44.9782 67.3779 45.0247 67.2616 45.0247H65.2157C65.0994 45.0247 65.0529 44.9782 65.0529 44.8619V33.7252C65.0529 33.609 65.0994 33.5625 65.2157 33.5625H67.2616C67.3779 33.5625 67.4244 33.609 67.4244 33.7252V44.8619Z" fill="#36302B"/>
<path d="M83.4437 42.7945C83.5832 42.655 83.6297 42.4225 83.6297 42.097V38.098C83.6297 37.9818 83.6762 37.9353 83.7924 37.9353H85.8617C85.9779 37.9353 86.0244 37.9818 86.0244 38.098V42.9107C86.0244 43.6315 85.8616 44.1895 85.5594 44.515C85.2572 44.8637 84.7457 45.0265 84.0017 45.0265H75.2365C74.5157 45.0265 74.0275 44.8637 73.7253 44.515C73.423 44.1662 73.2603 43.6315 73.2603 42.9107V39.1907C73.2603 39.0745 73.3068 39.028 73.423 39.028H75.4922C75.6085 39.028 75.655 39.0745 75.655 39.1907V42.1202C75.655 42.469 75.7247 42.7015 75.841 42.8177C75.9805 42.9572 76.1665 43.0037 76.4687 43.0037H82.7927C83.0949 43.0037 83.3042 42.934 83.4437 42.7945ZM77.4917 37.2145C77.3755 37.2145 77.329 37.168 77.329 37.0518V35.401C77.329 35.2848 77.3755 35.2383 77.4917 35.2383H79.189C79.3052 35.2383 79.3517 35.2848 79.3517 35.401V37.0518C79.3517 37.168 79.3052 37.2145 79.189 37.2145H77.4917ZM80.0957 37.2145C79.9794 37.2145 79.933 37.168 79.933 37.0518V35.401C79.933 35.2848 79.9794 35.2383 80.0957 35.2383H81.7929C81.9092 35.2383 81.9557 35.2848 81.9557 35.401V37.0518C81.9557 37.168 81.9092 37.2145 81.7929 37.2145H80.0957Z" fill="#36302B"/>
<path d="M87.8843 33.7252C87.8843 33.609 87.9308 33.5625 88.047 33.5625H90.093C90.2093 33.5625 90.2558 33.609 90.2558 33.7252V42.0952C90.2558 42.4439 90.3255 42.6764 90.4418 42.7927C90.5813 42.9322 90.7673 42.9787 91.0695 42.9787H91.5345C91.767 42.9787 91.9297 43.0717 92.046 43.2344C92.1622 43.3972 92.2087 43.6762 92.2087 44.0482C92.2087 44.4434 92.1622 44.7224 92.046 44.8387C91.9297 44.9549 91.767 45.0247 91.5345 45.0247H89.8605C89.1398 45.0247 88.6515 44.8619 88.3493 44.5132C88.047 44.1644 87.8843 43.6297 87.8843 42.9089V33.7252Z" fill="#36302B"/>
<path d="M96.7891 45.1659C96.1846 45.1659 95.6498 45.0962 95.1383 44.9334C94.6268 44.7707 94.2083 44.5149 93.8828 44.1197C93.7201 44.3522 93.5341 44.5149 93.3248 44.6312C93.1156 44.7474 92.9063 44.8404 92.6971 44.9102C92.4878 44.9799 92.2786 45.0032 92.0693 45.0264C91.8601 45.0264 91.6973 45.0497 91.5346 45.0497C91.3021 45.0497 91.1393 44.9799 91.0231 44.8404C90.9068 44.7009 90.8604 44.4452 90.8604 44.0732C90.8604 43.678 90.9068 43.399 91.0231 43.2595C91.1393 43.0967 91.3021 43.027 91.5346 43.027H92.0228C92.2786 43.027 92.5111 42.9107 92.7203 42.7015C92.9296 42.4922 93.0458 42.097 93.0691 41.4925V41.1437C93.0691 40.4695 93.1621 39.9115 93.3713 39.4697C93.5806 39.028 93.8596 38.656 94.2083 38.4002C94.5571 38.1212 94.9523 37.9353 95.3941 37.819C95.8358 37.7028 96.3008 37.6562 96.7891 37.6562C97.2773 37.6562 97.7655 37.726 98.2073 37.8422C98.649 37.9585 99.0443 38.1677 99.393 38.47C99.7418 38.7722 100.021 39.1442 100.207 39.6325C100.416 40.1207 100.509 40.7485 100.509 41.4925C100.509 42.19 100.416 42.748 100.23 43.2362C100.044 43.7012 99.765 44.0964 99.4395 44.3754C99.114 44.6544 98.7188 44.8637 98.2538 45.0032C97.812 45.0962 97.3238 45.1659 96.7891 45.1659ZM96.7891 39.679C95.8591 39.679 95.3941 40.237 95.3941 41.3762C95.3941 42.0272 95.5103 42.469 95.7428 42.7247C95.9753 42.9805 96.3241 43.0967 96.7891 43.0967C97.254 43.0967 97.6028 42.9805 97.8353 42.7247C98.0678 42.469 98.184 42.0272 98.184 41.3762C98.1608 40.2602 97.719 39.679 96.7891 39.679Z" fill="#36302B"/>
<path d="M105.113 43.0039C105.392 43.0039 105.624 42.9806 105.787 42.9341C105.95 42.8876 106.089 42.8411 106.159 42.7481C106.252 42.6551 106.298 42.5389 106.322 42.3994C106.345 42.2599 106.368 42.0739 106.368 41.8647V40.9579C106.368 40.5162 106.252 40.1907 105.996 40.0047C105.74 39.8187 105.368 39.7024 104.857 39.7024H102.904C102.788 39.7024 102.741 39.6559 102.741 39.5397V37.8424C102.741 37.7262 102.788 37.6797 102.904 37.6797H105.578C106.624 37.6797 107.438 37.9122 107.996 38.3539C108.554 38.7957 108.856 39.5862 108.856 40.7022V42.0972C108.879 42.3761 108.995 42.6086 109.228 42.7714C109.437 42.9341 109.763 43.0271 110.158 43.0271H110.53C110.762 43.0271 110.925 43.0969 111.041 43.2596C111.158 43.4224 111.204 43.6781 111.204 44.0269C111.204 44.7244 110.972 45.0499 110.53 45.0499C110.065 45.0499 109.67 44.9801 109.321 44.8639C108.972 44.7476 108.693 44.4919 108.484 44.0966C108.275 44.4686 107.996 44.7011 107.647 44.8406C107.298 44.9801 106.856 45.0499 106.322 45.0499H102.23C102.113 45.0499 102.067 45.0034 102.067 44.8871V43.1899C102.067 43.0736 102.113 43.0271 102.23 43.0271H105.113V43.0039Z" fill="#36302B"/>
<path d="M111.25 39.0008C111.646 38.6055 112.087 38.28 112.599 38.0243C113.11 37.7685 113.715 37.6523 114.435 37.6523C115.179 37.6523 115.807 37.7685 116.319 37.9778C116.83 38.187 117.249 38.4893 117.574 38.8613C117.9 39.2333 118.132 39.675 118.272 40.1865C118.411 40.698 118.481 41.256 118.481 41.8605V42.1395C118.504 42.4185 118.644 42.6277 118.853 42.7905C119.062 42.9532 119.364 43.023 119.76 43.023H120.155C120.387 43.023 120.55 43.0927 120.666 43.2555C120.783 43.4182 120.829 43.674 120.829 44.0227C120.829 44.7202 120.597 45.0457 120.155 45.0457C119.69 45.0457 119.271 44.976 118.923 44.8597C118.574 44.7435 118.295 44.4412 118.062 44.0227C117.83 44.418 117.528 44.697 117.109 44.8365C116.691 44.976 116.202 45.0457 115.644 45.0457H110.506C110.274 45.0457 110.111 44.976 109.995 44.8132C109.879 44.6505 109.832 44.3947 109.832 44.046C109.832 43.6972 109.879 43.4182 109.995 43.2555C110.088 43.0927 110.274 42.9997 110.53 42.9997H114.714C114.993 42.9997 115.203 42.9765 115.365 42.93C115.528 42.8835 115.668 42.8137 115.761 42.7207C115.854 42.6277 115.923 42.4882 115.97 42.3255C116.016 42.1627 116.04 41.9535 116.04 41.6978C116.04 41.4188 116.016 41.163 115.947 40.9073C115.9 40.6515 115.784 40.4423 115.668 40.2563C115.528 40.0703 115.365 39.9308 115.133 39.8145C114.9 39.6983 114.645 39.6518 114.319 39.6518C113.947 39.6518 113.645 39.7215 113.366 39.861C113.087 40.0005 112.831 40.1865 112.599 40.3958C112.529 40.4655 112.436 40.4888 112.366 40.419L111.367 39.21C111.204 39.1403 111.204 39.0473 111.25 39.0008ZM113.482 36.234C113.366 36.234 113.32 36.1875 113.32 36.0713V34.4206C113.32 34.3043 113.366 34.2578 113.482 34.2578H115.575C115.691 34.2578 115.737 34.3043 115.737 34.4206V36.0713C115.737 36.1875 115.691 36.234 115.575 36.234H113.482Z" fill="#36302B"/>
<path d="M120.155 45.0481C119.922 45.0481 119.76 45.0016 119.643 44.9318C119.527 44.8621 119.481 44.6994 119.481 44.4669C119.481 44.3274 119.504 44.1879 119.527 44.0019C119.55 43.8159 119.597 43.6764 119.643 43.5369C119.69 43.3974 119.76 43.2579 119.853 43.1649C119.946 43.0719 120.039 43.0021 120.155 43.0021H120.736C121.015 43.0021 121.224 42.9324 121.364 42.8161C121.503 42.6766 121.55 42.4441 121.55 42.1186V33.7487C121.55 33.6324 121.596 33.5859 121.713 33.5859H123.782C123.898 33.5859 123.945 33.6324 123.945 33.7487V42.9091C123.945 43.6299 123.782 44.1879 123.48 44.5133C123.177 44.8621 122.666 45.0248 121.968 45.0248H120.155V45.0481Z" fill="#36302B"/>
<path d="M128.362 44.8619C128.362 44.9782 128.316 45.0247 128.199 45.0247H126.153C126.037 45.0247 125.991 44.9782 125.991 44.8619V33.7252C125.991 33.609 126.037 33.5625 126.153 33.5625H128.199C128.316 33.5625 128.362 33.609 128.362 33.7252V44.8619Z" fill="#36302B"/>
<path d="M131.733 48.5139C131.617 48.5139 131.571 48.4674 131.571 48.3512V46.6307C131.571 46.5144 131.617 46.4679 131.733 46.4679H133.686C133.919 46.4679 134.105 46.4447 134.291 46.4214C134.477 46.3982 134.616 46.3284 134.756 46.2354C134.895 46.1424 134.988 45.9797 135.058 45.7937C135.128 45.6077 135.174 45.3519 135.174 45.0497H134.454C133.779 45.0497 133.175 45.0032 132.64 44.9334C132.105 44.8637 131.64 44.6777 131.268 44.4452C130.896 44.1894 130.594 43.8407 130.408 43.3757C130.222 42.9107 130.106 42.3062 130.106 41.539C130.106 40.8182 130.199 40.2137 130.408 39.7255C130.617 39.2372 130.896 38.842 131.245 38.5165C131.594 38.2142 131.989 37.9817 132.431 37.8655C132.873 37.7493 133.338 37.6562 133.803 37.6562C134.291 37.6562 134.779 37.726 135.221 37.8422C135.663 37.9585 136.058 38.1677 136.407 38.47C136.755 38.749 137.011 39.1442 137.22 39.6325C137.43 40.1207 137.523 40.7252 137.523 41.446V45.3752C137.523 46.4447 137.244 47.2119 136.709 47.7467C136.174 48.2582 135.337 48.5139 134.198 48.5139H131.733ZM133.826 39.679C133.361 39.679 133.012 39.8417 132.78 40.144C132.547 40.4695 132.431 40.888 132.431 41.4227C132.431 42.0505 132.57 42.4457 132.826 42.655C133.082 42.8642 133.431 42.9572 133.872 42.9572H135.174V41.3297C135.151 40.237 134.709 39.679 133.826 39.679Z" fill="#36302B"/>
<path d="M151.751 44.6759C151.751 45.3967 151.635 46.0011 151.426 46.4894C151.217 47.0009 150.914 47.3961 150.519 47.7216C150.147 48.0471 149.682 48.2796 149.171 48.4424C148.636 48.6051 148.078 48.6749 147.497 48.6749C146.915 48.6749 146.357 48.6051 145.823 48.4424C145.288 48.2796 144.846 48.0471 144.451 47.7216C144.056 47.3961 143.753 46.9776 143.521 46.4661C143.288 45.9546 143.172 45.3502 143.172 44.6294C143.172 44.0714 143.265 43.4902 143.428 42.9089C143.591 42.3277 143.823 41.7929 144.102 41.2814C144.149 41.2117 144.242 41.1884 144.358 41.2349L146.171 41.8162C146.218 41.8394 146.264 41.8627 146.264 41.9092C146.264 41.9557 146.264 42.0022 146.241 42.0254C146.078 42.3509 145.939 42.6997 145.799 43.0949C145.66 43.4902 145.59 43.9319 145.59 44.4202C145.59 44.8154 145.637 45.1409 145.753 45.4199C145.869 45.6989 146.009 45.9081 146.195 46.0709C146.381 46.2336 146.59 46.3499 146.822 46.4429C147.055 46.5126 147.287 46.5591 147.52 46.5591C148.101 46.5591 148.543 46.3964 148.868 46.0709C149.194 45.7454 149.357 45.2339 149.357 44.5597V33.7252C149.357 33.609 149.403 33.5625 149.519 33.5625H151.565C151.682 33.5625 151.728 33.609 151.728 33.7252V42.0952C151.751 42.3742 151.868 42.6067 152.1 42.7694C152.309 42.9322 152.635 43.0252 153.03 43.0252H153.425C153.658 43.0252 153.821 43.0949 153.937 43.2577C154.053 43.4204 154.1 43.6762 154.1 44.0249C154.1 44.7224 153.867 45.0479 153.425 45.0479C153.077 45.0479 152.751 45.0247 152.472 44.9549C152.193 44.8852 151.961 44.7457 151.751 44.5132V44.6759Z" fill="#36302B"/>
<path d="M158.168 37.6328C158.75 37.6328 159.261 37.7025 159.726 37.8188C160.191 37.9583 160.586 38.1442 160.912 38.3767C161.237 38.6092 161.493 38.9115 161.656 39.2835C161.842 39.6555 161.912 40.0507 161.912 40.539C161.912 41.0737 161.795 41.5387 161.54 41.9572C161.284 42.3757 160.982 42.7245 160.586 43.0035C160.679 43.0035 160.772 42.9802 160.865 42.9802C160.958 42.9802 161.051 42.9802 161.144 42.9802H162.865C163.097 42.9802 163.26 43.05 163.376 43.1895C163.493 43.329 163.539 43.608 163.539 44.0032C163.539 44.3752 163.493 44.6542 163.376 44.8169C163.26 44.9797 163.097 45.0494 162.865 45.0494H160.354C159.959 45.0494 159.563 45.0262 159.215 45.0029C158.843 44.9797 158.517 44.8402 158.192 44.6542C157.82 44.8634 157.424 44.9797 157.006 45.0029C156.587 45.0262 156.215 45.0494 155.89 45.0494H153.449C153.216 45.0494 153.03 44.9797 152.937 44.8169C152.821 44.6542 152.774 44.3985 152.774 44.0032C152.774 43.6545 152.821 43.3755 152.937 43.236C153.053 43.0732 153.216 43.0035 153.449 43.0035H155.75C155.378 42.7477 155.053 42.399 154.82 41.9805C154.588 41.562 154.448 41.0737 154.448 40.5622C154.448 40.0972 154.541 39.6787 154.704 39.3067C154.89 38.958 155.123 38.6557 155.448 38.4C155.774 38.1675 156.169 37.9815 156.634 37.842C157.076 37.7025 157.61 37.6328 158.168 37.6328ZM156.076 36.2145C155.96 36.2145 155.913 36.168 155.913 36.0518V34.401C155.913 34.2848 155.96 34.2383 156.076 34.2383H157.773C157.889 34.2383 157.936 34.2848 157.936 34.401V36.0518C157.936 36.168 157.889 36.2145 157.773 36.2145H156.076ZM158.168 39.3067C157.82 39.3067 157.494 39.423 157.215 39.6555C156.936 39.888 156.797 40.2367 156.797 40.725C156.797 41.2365 156.936 41.655 157.192 41.9572C157.471 42.2595 157.773 42.5152 158.145 42.7012C158.517 42.5152 158.843 42.2827 159.098 41.9572C159.354 41.6317 159.494 41.2365 159.494 40.725C159.494 40.2367 159.354 39.8647 159.075 39.6555C158.843 39.423 158.517 39.3067 158.168 39.3067ZM158.657 36.2145C158.54 36.2145 158.494 36.168 158.494 36.0518V34.401C158.494 34.2848 158.54 34.2383 158.657 34.2383H160.354C160.47 34.2383 160.517 34.2848 160.517 34.401V36.0518C160.517 36.168 160.47 36.2145 160.354 36.2145H158.657Z" fill="#36302B"/>
<path d="M166.492 44.1892C166.306 44.5379 166.027 44.7704 165.702 44.8634C165.353 44.9797 164.888 45.0262 164.283 45.0262H162.935C162.702 45.0262 162.54 44.9797 162.423 44.9099C162.307 44.8402 162.261 44.6774 162.261 44.4217C162.261 44.2822 162.261 44.1194 162.284 43.9567C162.307 43.794 162.354 43.6312 162.4 43.4917C162.447 43.3522 162.54 43.236 162.609 43.1197C162.702 43.0267 162.819 42.9802 162.958 42.9802H163.516C163.865 42.9802 164.097 42.8872 164.19 42.678C164.283 42.492 164.33 42.12 164.33 41.6317V38.0745C164.33 37.9815 164.423 37.935 164.586 37.9118C164.748 37.8885 164.888 37.8885 165.027 37.8885H166.585C166.701 37.8885 166.748 37.935 166.748 38.0513V42.027C166.771 42.306 166.887 42.5385 167.12 42.7012C167.329 42.864 167.655 42.957 168.05 42.957H168.445C168.678 42.957 168.84 43.0267 168.957 43.1895C169.073 43.3522 169.119 43.608 169.119 43.9567C169.119 44.6542 168.887 44.9797 168.445 44.9797C168.027 44.9797 167.655 44.9332 167.329 44.8169C166.98 44.7937 166.725 44.5612 166.492 44.1892ZM164.493 36.2145C164.376 36.2145 164.33 36.168 164.33 36.0518V34.401C164.33 34.2848 164.376 34.2383 164.493 34.2383H166.585C166.701 34.2383 166.748 34.2848 166.748 34.401V36.0518C166.748 36.168 166.701 36.2145 166.585 36.2145H164.493Z" fill="#36302B"/>
<path d="M168.352 45.0481C168.119 45.0481 167.957 45.0016 167.84 44.9318C167.724 44.8621 167.678 44.6994 167.678 44.4669C167.678 44.3274 167.701 44.1879 167.724 44.0019C167.747 43.8159 167.794 43.6764 167.84 43.5369C167.887 43.3974 167.957 43.2579 168.05 43.1649C168.143 43.0719 168.236 43.0021 168.352 43.0021H168.933C169.212 43.0021 169.421 42.9324 169.561 42.8161C169.7 42.6766 169.747 42.4441 169.747 42.1186V33.7487C169.747 33.6324 169.793 33.5859 169.91 33.5859H171.979C172.095 33.5859 172.142 33.6324 172.142 33.7487V42.9091C172.142 43.6299 171.979 44.1879 171.677 44.5133C171.374 44.8621 170.863 45.0248 170.165 45.0248H168.352V45.0481Z" fill="#36302B"/>
<path d="M176.559 44.8619C176.559 44.9782 176.512 45.0247 176.396 45.0247H174.35C174.234 45.0247 174.188 44.9782 174.188 44.8619V33.7252C174.188 33.609 174.234 33.5625 174.35 33.5625H176.396C176.512 33.5625 176.559 33.609 176.559 33.7252V44.8619Z" fill="#36302B"/>
<path d="M185.998 45.1657C185.463 45.1657 184.975 45.0959 184.51 44.9797C184.045 44.8634 183.65 44.6542 183.324 44.3519C182.999 44.073 182.72 43.6777 182.534 43.2127C182.348 42.7477 182.255 42.1665 182.255 41.469C182.255 40.725 182.348 40.1205 182.557 39.609C182.766 39.1207 183.022 38.7255 183.371 38.4465C183.72 38.1442 184.115 37.935 184.557 37.8188C184.998 37.7025 185.487 37.6328 185.975 37.6328C186.463 37.6328 186.951 37.7025 187.393 37.8188C187.835 37.935 188.23 38.1442 188.579 38.4465C188.928 38.7487 189.207 39.1207 189.393 39.609C189.602 40.0972 189.695 40.725 189.695 41.469C189.695 42.1665 189.602 42.7245 189.416 43.2127C189.23 43.6777 188.974 44.073 188.625 44.3519C188.3 44.6309 187.905 44.8402 187.44 44.9797C187.021 45.0959 186.51 45.1657 185.998 45.1657ZM183.836 36.2145C183.72 36.2145 183.673 36.168 183.673 36.0518V34.401C183.673 34.2848 183.72 34.2383 183.836 34.2383H185.533C185.649 34.2383 185.696 34.2848 185.696 34.401V36.0518C185.696 36.168 185.649 36.2145 185.533 36.2145H183.836ZM185.998 39.6787C185.068 39.6787 184.603 40.2367 184.603 41.376C184.603 42.027 184.719 42.4687 184.952 42.7245C185.184 42.9802 185.533 43.0965 185.975 43.0965C186.44 43.0965 186.789 42.9802 187.021 42.7245C187.254 42.4687 187.37 42.027 187.37 41.376C187.37 40.26 186.905 39.6787 185.998 39.6787ZM186.44 36.2145C186.324 36.2145 186.277 36.168 186.277 36.0518V34.401C186.277 34.2848 186.324 34.2383 186.44 34.2383H188.137C188.253 34.2383 188.3 34.2848 188.3 34.401V36.0518C188.3 36.168 188.253 36.2145 188.137 36.2145H186.44Z" fill="#36302B"/>
<path d="M190.741 48.5124C190.625 48.5124 190.579 48.4659 190.579 48.3497V46.6292C190.579 46.513 190.625 46.4665 190.741 46.4665H191.113C191.578 46.4665 191.904 46.3502 192.09 46.1177C192.276 45.8852 192.392 45.5132 192.392 45.0482V38.1198C192.392 38.0035 192.439 37.957 192.555 37.957H194.624C194.74 37.957 194.787 38.0035 194.787 38.1198V45.118C194.787 46.2805 194.508 47.1407 193.973 47.6755C193.438 48.2334 192.601 48.5124 191.509 48.5124H190.741Z" fill="#36302B"/>
<path d="M199.135 44.8619C199.135 44.9782 199.088 45.0247 198.972 45.0247H196.926C196.81 45.0247 196.763 44.9782 196.763 44.8619V33.7252C196.763 33.609 196.81 33.5625 196.926 33.5625H198.972C199.088 33.5625 199.135 33.609 199.135 33.7252V44.8619Z" fill="#36302B"/>
<path d="M200.367 48.5137C200.251 48.5137 200.204 48.4672 200.204 48.3509V46.6304C200.204 46.5142 200.251 46.4677 200.367 46.4677H200.739C201.204 46.4677 201.529 46.3514 201.715 46.1189C201.901 45.8864 202.018 45.5144 202.018 45.0494V38.121C202.018 38.0047 202.064 37.9583 202.18 37.9583H204.25C204.366 37.9583 204.412 38.0047 204.412 38.121V45.1192C204.412 46.2817 204.133 47.1419 203.599 47.6767C203.064 48.2347 202.227 48.5137 201.134 48.5137H200.367ZM202.157 36.2145C202.041 36.2145 201.994 36.168 201.994 36.0518V34.401C201.994 34.2848 202.041 34.2383 202.157 34.2383H204.25C204.366 34.2383 204.412 34.2848 204.412 34.401V36.0518C204.412 36.168 204.366 36.2145 204.25 36.2145H202.157Z" fill="#36302B"/>
<path d="M207.737 48.5139C207.621 48.5139 207.574 48.4674 207.574 48.3512V46.6307C207.574 46.5144 207.621 46.4679 207.737 46.4679H209.69C209.922 46.4679 210.108 46.4447 210.294 46.4214C210.48 46.3982 210.62 46.3284 210.759 46.2354C210.899 46.1424 210.992 45.9797 211.062 45.7937C211.131 45.6077 211.178 45.3519 211.178 45.0497H210.457C209.783 45.0497 209.178 45.0032 208.644 44.9334C208.109 44.8637 207.644 44.6777 207.272 44.4452C206.9 44.1894 206.598 43.8407 206.412 43.3757C206.226 42.9107 206.109 42.3062 206.109 41.539C206.109 40.8182 206.202 40.2137 206.412 39.7255C206.621 39.2372 206.9 38.842 207.249 38.5165C207.597 38.2142 207.993 37.9817 208.434 37.8655C208.876 37.7493 209.341 37.6562 209.806 37.6562C210.294 37.6562 210.783 37.726 211.224 37.8422C211.666 37.9585 212.061 38.1677 212.41 38.47C212.759 38.749 213.015 39.1442 213.224 39.6325C213.433 40.1207 213.526 40.7252 213.526 41.446V45.3752C213.526 46.4447 213.247 47.2119 212.712 47.7467C212.178 48.2582 211.341 48.5139 210.201 48.5139H207.737ZM209.829 39.679C209.364 39.679 209.016 39.8417 208.783 40.144C208.551 40.4695 208.434 40.888 208.434 41.4227C208.434 42.0505 208.574 42.4457 208.83 42.655C209.085 42.8642 209.434 42.9572 209.876 42.9572H211.178V41.3297C211.178 40.237 210.736 39.679 209.829 39.679Z" fill="#36302B"/>
<path d="M0.0693359 52.718C0.0693359 52.6483 0.0925857 52.625 0.162335 52.625H1.37132C1.46432 52.625 1.51082 52.6483 1.53407 52.718L3.30106 56.6937H3.34756L5.06804 52.718C5.09129 52.6483 5.16104 52.625 5.23079 52.625H6.41653C6.48628 52.625 6.50953 52.6483 6.50953 52.718V59.4604C6.50953 59.5302 6.48628 59.5534 6.41653 59.5534H5.25404C5.18429 59.5534 5.16104 59.5302 5.16104 59.4604V55.5312H5.13779L3.85905 58.484C3.81255 58.577 3.74281 58.6235 3.67306 58.6235H2.97556C2.88256 58.6235 2.81281 58.577 2.78956 58.484L1.51082 55.5545H1.46432V59.4837C1.46432 59.5534 1.44107 59.5767 1.37132 59.5767H0.208834C0.139085 59.5767 0.115835 59.5534 0.115835 59.4837V52.718H0.0693359Z" fill="#36302B"/>
<path d="M8.43919 53.834C8.36944 53.834 8.34619 53.8107 8.34619 53.741V52.718C8.34619 52.6483 8.36944 52.625 8.43919 52.625H9.67143C9.74118 52.625 9.76443 52.6483 9.76443 52.718V53.741C9.76443 53.8107 9.74118 53.834 9.67143 53.834H8.43919ZM8.43919 59.5767C8.36944 59.5767 8.34619 59.5534 8.34619 59.4837V54.7407C8.34619 54.671 8.36944 54.6477 8.43919 54.6477H9.67143C9.74118 54.6477 9.76443 54.671 9.76443 54.7407V59.4837C9.76443 59.5534 9.74118 59.5767 9.67143 59.5767H8.43919Z" fill="#36302B"/>
<path d="M14.6237 59.5763C14.5539 59.5763 14.5307 59.553 14.5307 59.4833V56.6235C14.5307 56.3445 14.4609 56.1353 14.3447 55.9726C14.2284 55.8098 14.0192 55.7168 13.7634 55.7168C13.5077 55.7168 13.3217 55.8098 13.1822 55.9726C13.0427 56.1353 12.9729 56.3445 12.9729 56.6235V59.46C12.9729 59.5298 12.9497 59.553 12.8799 59.553H11.6477C11.5779 59.553 11.5547 59.5298 11.5547 59.46V54.7171C11.5547 54.6473 11.5779 54.6241 11.6477 54.6241H12.8799C12.9497 54.6241 12.9729 54.6473 12.9729 54.7171V55.0658C13.0892 54.9031 13.2519 54.7868 13.4612 54.6706C13.6704 54.5543 13.9262 54.5078 14.2517 54.5078C14.5307 54.5078 14.7632 54.5543 14.9724 54.6473C15.1817 54.7403 15.3677 54.8566 15.5072 55.0193C15.6467 55.1821 15.7629 55.3681 15.8327 55.6006C15.9024 55.8331 15.9489 56.0655 15.9489 56.3445V59.46C15.9489 59.5298 15.9257 59.553 15.8559 59.553H14.6237V59.5763Z" fill="#36302B"/>
<path d="M17.7859 53.834C17.7161 53.834 17.6929 53.8107 17.6929 53.741V52.718C17.6929 52.6483 17.7161 52.625 17.7859 52.625H19.0181C19.0879 52.625 19.1111 52.6483 19.1111 52.718V53.741C19.1111 53.8107 19.0879 53.834 19.0181 53.834H17.7859ZM17.7859 59.5767C17.7161 59.5767 17.6929 59.5534 17.6929 59.4837V54.7407C17.6929 54.671 17.7161 54.6477 17.7859 54.6477H19.0181C19.0879 54.6477 19.1111 54.671 19.1111 54.7407V59.4837C19.1111 59.5534 19.0879 59.5767 19.0181 59.5767H17.7859Z" fill="#36302B"/>
<path d="M22.8313 59.6925C22.3198 59.6925 21.8781 59.6228 21.5061 59.46C21.1341 59.2973 20.8318 59.1345 20.5993 58.9253C20.5528 58.8788 20.5528 58.8323 20.5993 58.7858L21.2736 58.0418C21.3201 57.9953 21.3666 57.9953 21.4131 58.0418C21.6223 58.2045 21.8781 58.344 22.1338 58.437C22.3896 58.53 22.6686 58.5765 22.9243 58.5765C23.1801 58.5765 23.3661 58.53 23.5056 58.437C23.6218 58.344 23.6916 58.2278 23.6916 58.0883C23.6916 57.972 23.6451 57.879 23.5521 57.8093C23.4591 57.7395 23.2731 57.693 22.9941 57.6698L22.4361 57.6C21.9013 57.5535 21.5061 57.3908 21.2271 57.135C20.9481 56.8793 20.8086 56.5306 20.8086 56.0888C20.8086 55.6006 20.9946 55.2053 21.3433 54.9263C21.6921 54.6473 22.2036 54.5078 22.8546 54.5078C23.2731 54.5078 23.6683 54.5543 23.9938 54.6706C24.3425 54.7868 24.6215 54.9263 24.854 55.1123C24.9005 55.1588 24.9005 55.2053 24.854 55.2751L24.2728 55.9726C24.2263 56.0191 24.1798 56.019 24.1333 55.9958C23.9705 55.8795 23.7613 55.7866 23.5288 55.7168C23.2963 55.6471 23.0406 55.6006 22.7848 55.6006C22.5756 55.6006 22.4128 55.6471 22.3198 55.7168C22.2268 55.7866 22.1571 55.8796 22.1571 56.0191C22.1571 56.1353 22.2036 56.2283 22.2966 56.2981C22.3896 56.3678 22.5756 56.4143 22.8546 56.4376L23.3893 56.5073C23.9705 56.5538 24.389 56.7165 24.6448 56.9955C24.9005 57.2513 25.04 57.6 25.04 58.0185C25.04 58.53 24.8308 58.9485 24.4588 59.2508C24.0868 59.553 23.5288 59.6925 22.8313 59.6925Z" fill="#36302B"/>
<path d="M28.2014 59.6232C27.6202 59.6232 27.225 59.4837 26.9925 59.228C26.76 58.9722 26.6437 58.5537 26.6437 57.9725V55.7173C26.6437 55.6708 26.6205 55.6475 26.574 55.6475H26.2717C26.202 55.6475 26.1787 55.6243 26.1787 55.5545V54.6943C26.1787 54.6245 26.202 54.6013 26.2717 54.6013H26.574C26.6205 54.6013 26.6437 54.578 26.6437 54.5315V53.2063C26.6437 53.1365 26.667 53.1133 26.7367 53.1133H27.9457C28.0154 53.1133 28.0387 53.1365 28.0387 53.2063V54.5315C28.0387 54.578 28.0619 54.6013 28.1084 54.6013H28.7362C28.8059 54.6013 28.8292 54.6245 28.8292 54.6943V55.5545C28.8292 55.6243 28.8059 55.6475 28.7362 55.6475H28.1084C28.0619 55.6475 28.0387 55.6708 28.0387 55.7173V57.9027C28.0387 58.0887 28.0619 58.205 28.1317 58.298C28.2014 58.3677 28.3177 58.4142 28.4804 58.4142H28.7362C28.8059 58.4142 28.8292 58.4375 28.8292 58.5072V59.5302C28.8292 59.6 28.8059 59.6232 28.7362 59.6232H28.2014Z" fill="#36302B"/>
<path d="M30.5036 59.5765C30.4339 59.5765 30.4106 59.5532 30.4106 59.4835V54.7405C30.4106 54.6707 30.4339 54.6475 30.5036 54.6475H31.7359C31.8056 54.6475 31.8289 54.6707 31.8289 54.7405V55.159C31.9451 54.9497 32.1079 54.8103 32.3404 54.694C32.5496 54.5778 32.8286 54.5312 33.1309 54.5312C33.2936 54.5312 33.4564 54.5545 33.5959 54.601C33.7354 54.6475 33.8749 54.7173 33.9911 54.8103C34.0376 54.8568 34.0376 54.9032 34.0144 54.9497L33.4331 55.996C33.4099 56.0425 33.3401 56.0425 33.2936 56.0192C33.0379 55.8565 32.8054 55.7867 32.5729 55.7867C32.3171 55.81 32.1079 55.903 31.9916 56.089C31.8754 56.275 31.8056 56.5307 31.8056 56.8562V59.4602C31.8056 59.53 31.7824 59.5532 31.7126 59.5532H30.5036V59.5765Z" fill="#36302B"/>
<path d="M35.5487 61.4102C35.4789 61.4102 35.4557 61.387 35.4557 61.3172V60.3175C35.4557 60.2477 35.4789 60.2245 35.5487 60.2245H35.7579C35.9439 60.2245 36.0834 60.178 36.1764 60.1082C36.2927 60.0385 36.3624 59.899 36.4322 59.713L36.5717 59.341L34.7349 54.7375C34.7117 54.6678 34.7349 54.6445 34.8279 54.6445H36.1299C36.1997 54.6445 36.2229 54.6678 36.2462 54.7375L37.2459 57.5973H37.2692L38.1992 54.7375C38.2224 54.6678 38.2689 54.6445 38.3154 54.6445H39.5942C39.6639 54.6445 39.6872 54.6678 39.6872 54.7375L37.6877 60.0152C37.5947 60.2942 37.4784 60.5267 37.3622 60.6895C37.2459 60.8522 37.1297 61.015 36.9902 61.1312C36.8507 61.2475 36.7112 61.3172 36.5252 61.3637C36.3624 61.4102 36.1532 61.4335 35.9207 61.4335H35.5487V61.4102Z" fill="#36302B"/>
<path d="M45.8714 59.6927C45.3366 59.6927 44.8949 59.5765 44.4996 59.344C44.1276 59.1115 43.8486 58.7627 43.7091 58.321C43.6626 58.135 43.6161 57.9722 43.5929 57.763C43.5696 57.577 43.5464 57.3677 43.5464 57.112C43.5464 56.8562 43.5696 56.647 43.5929 56.461C43.6161 56.275 43.6626 56.089 43.7091 55.903C43.8486 55.4612 44.1044 55.1125 44.4996 54.88C44.8716 54.6475 45.3366 54.5312 45.8714 54.5312C46.4061 54.5312 46.8479 54.6475 47.2431 54.88C47.6151 55.1125 47.8941 55.4612 48.0336 55.903C48.0801 56.089 48.1266 56.2517 48.1498 56.461C48.1731 56.647 48.1963 56.8562 48.1963 57.112C48.1963 57.3677 48.1731 57.577 48.1498 57.763C48.1266 57.949 48.0801 58.135 48.0336 58.321C47.8941 58.7627 47.6384 59.1115 47.2431 59.344C46.8479 59.5765 46.3829 59.6927 45.8714 59.6927ZM45.8714 58.4837C46.2666 58.4837 46.5224 58.2977 46.6386 57.949C46.6619 57.8327 46.6851 57.7165 46.7084 57.6002C46.7316 57.484 46.7316 57.3212 46.7316 57.112C46.7316 56.9027 46.7316 56.74 46.7084 56.6237C46.6851 56.5075 46.6619 56.3912 46.6386 56.275C46.5224 55.9262 46.2666 55.7402 45.8714 55.7402C45.4761 55.7402 45.2204 55.9262 45.1041 56.275C45.0809 56.3912 45.0576 56.5075 45.0344 56.6237C45.0111 56.74 45.0111 56.9027 45.0111 57.112C45.0111 57.3212 45.0111 57.484 45.0344 57.6002C45.0576 57.7165 45.0809 57.8327 45.1041 57.949C45.2204 58.2977 45.4761 58.4837 45.8714 58.4837Z" fill="#36302B"/>
<path d="M49.9867 59.5767C49.917 59.5767 49.8937 59.5534 49.8937 59.4837V55.7405C49.8937 55.694 49.8705 55.6707 49.824 55.6707H49.5217C49.452 55.6707 49.4287 55.6475 49.4287 55.5777V54.7175C49.4287 54.6477 49.452 54.6245 49.5217 54.6245H49.824C49.8705 54.6245 49.8937 54.6012 49.8937 54.5547V54.3222C49.8937 53.7177 50.0332 53.276 50.3122 53.0202C50.5912 52.7645 51.0329 52.625 51.6374 52.625H52.1954C52.2652 52.625 52.2884 52.6483 52.2884 52.718V53.6712C52.2884 53.741 52.2652 53.7642 52.1954 53.7642H51.8699C51.6374 53.7642 51.4979 53.8107 51.4282 53.8805C51.3584 53.9502 51.3119 54.0897 51.3119 54.299V54.5547C51.3119 54.6012 51.3352 54.6245 51.3817 54.6245H52.1954C52.2652 54.6245 52.2884 54.6477 52.2884 54.7175V55.5777C52.2884 55.6475 52.2652 55.6707 52.1954 55.6707H51.3817C51.3352 55.6707 51.3119 55.694 51.3119 55.7405V59.4837C51.3119 59.5534 51.2887 59.5767 51.2189 59.5767H49.9867Z" fill="#36302B"/>
<path d="M57.9846 59.5767C57.9149 59.5767 57.8916 59.5534 57.8916 59.4837V54.02C57.8916 53.9735 57.8684 53.9502 57.8219 53.9502H56.0549C55.9852 53.9502 55.9619 53.927 55.9619 53.8572V52.718C55.9619 52.6483 55.9852 52.625 56.0549 52.625H61.1931C61.2629 52.625 61.2861 52.6483 61.2861 52.718V53.8572C61.2861 53.927 61.2629 53.9502 61.1931 53.9502H59.4261C59.3796 53.9502 59.3564 53.9735 59.3564 54.02V59.4837C59.3564 59.5534 59.3331 59.5767 59.2634 59.5767H57.9846Z" fill="#36302B"/>
<path d="M62.7043 59.5765C62.6346 59.5765 62.6113 59.5532 62.6113 59.4835V54.7405C62.6113 54.6707 62.6346 54.6475 62.7043 54.6475H63.9366C64.0063 54.6475 64.0296 54.6707 64.0296 54.7405V55.159C64.1458 54.9497 64.3086 54.8103 64.5411 54.694C64.7503 54.5778 65.0293 54.5312 65.3316 54.5312C65.4943 54.5312 65.657 54.5545 65.7965 54.601C65.936 54.6475 66.0755 54.7173 66.1918 54.8103C66.2383 54.8568 66.2383 54.9032 66.215 54.9497L65.6338 55.996C65.6106 56.0425 65.5408 56.0425 65.4943 56.0192C65.2386 55.8565 65.0061 55.7867 64.7736 55.7867C64.5178 55.81 64.3086 55.903 64.1923 56.089C64.0761 56.275 64.0063 56.5307 64.0063 56.8562V59.4602C64.0063 59.53 63.9831 59.5532 63.9133 59.5532H62.7043V59.5765Z" fill="#36302B"/>
<path d="M70.0981 59.5763C70.0283 59.5763 70.0051 59.553 70.0051 59.4833V59.1578C69.8656 59.3205 69.7028 59.46 69.4936 59.553C69.2843 59.646 69.0053 59.6925 68.6566 59.6925C68.4473 59.6925 68.2381 59.6693 68.0288 59.5995C67.8196 59.553 67.6569 59.46 67.4941 59.3205C67.3546 59.2043 67.2151 59.0415 67.1454 58.8555C67.0524 58.6695 67.0059 58.437 67.0059 58.1813C67.0059 57.6465 67.1919 57.228 67.5639 56.9723C67.9359 56.7165 68.4473 56.577 69.0518 56.577H69.9353C69.9818 56.577 70.0051 56.5538 70.0051 56.5073V56.3213C70.0051 56.0888 69.9353 55.9261 69.7958 55.8098C69.6563 55.6936 69.3773 55.6471 68.9821 55.6471C68.7263 55.6471 68.5171 55.6703 68.3311 55.7401C68.1451 55.8098 68.0056 55.8796 67.8893 55.9726C67.8428 56.0191 67.7963 55.9958 67.7498 55.9493L67.2849 55.1356C67.2616 55.0658 67.2616 55.0193 67.3081 54.9961C67.5174 54.8566 67.7731 54.7171 68.0754 54.6473C68.3776 54.5543 68.7263 54.5078 69.1448 54.5078C69.5401 54.5078 69.8888 54.5543 70.1678 54.6241C70.4468 54.6938 70.6793 54.8101 70.8421 54.9496C71.0048 55.0891 71.1443 55.2751 71.2141 55.5076C71.2838 55.7401 71.3303 55.9958 71.3303 56.2981V59.46C71.3303 59.5298 71.3071 59.553 71.2373 59.553H70.0981V59.5763ZM69.0751 58.5998C69.6796 58.5998 70.0051 58.3673 70.0051 57.9255V57.5768C70.0051 57.5303 69.9818 57.507 69.9353 57.507H69.2378C68.6566 57.507 68.3543 57.693 68.3543 58.065C68.3543 58.437 68.5868 58.5998 69.0751 58.5998Z" fill="#36302B"/>
<path d="M76.1661 59.5763C76.0964 59.5763 76.0731 59.553 76.0731 59.4833V56.6235C76.0731 56.3445 76.0034 56.1353 75.8871 55.9726C75.7709 55.8098 75.5616 55.7168 75.3059 55.7168C75.0502 55.7168 74.8642 55.8098 74.7247 55.9726C74.5852 56.1353 74.5154 56.3445 74.5154 56.6235V59.46C74.5154 59.5298 74.4922 59.553 74.4224 59.553H73.1902C73.1204 59.553 73.0972 59.5298 73.0972 59.46V54.7171C73.0972 54.6473 73.1204 54.6241 73.1902 54.6241H74.4224C74.4922 54.6241 74.5154 54.6473 74.5154 54.7171V55.0658C74.6317 54.9031 74.7944 54.7868 75.0037 54.6706C75.2129 54.5543 75.4686 54.5078 75.7941 54.5078C76.0731 54.5078 76.3056 54.5543 76.5149 54.6473C76.7241 54.7403 76.9101 54.8566 77.0496 55.0193C77.1891 55.1821 77.3054 55.3681 77.3751 55.6006C77.4449 55.8331 77.4914 56.0655 77.4914 56.3445V59.46C77.4914 59.5298 77.4681 59.553 77.3984 59.553H76.1661V59.5763Z" fill="#36302B"/>
<path d="M81.1648 59.6925C80.6533 59.6925 80.2116 59.6228 79.8396 59.46C79.4676 59.2973 79.1653 59.1345 78.9328 58.9253C78.8863 58.8788 78.8863 58.8323 78.9328 58.7858L79.6071 58.0418C79.6536 57.9953 79.7001 57.9953 79.7466 58.0418C79.9558 58.2045 80.2116 58.344 80.4673 58.437C80.7231 58.53 81.0021 58.5765 81.2578 58.5765C81.5136 58.5765 81.6996 58.53 81.839 58.437C81.9553 58.344 82.0251 58.2278 82.0251 58.0883C82.0251 57.972 81.9786 57.879 81.8856 57.8093C81.7926 57.7395 81.6066 57.693 81.3276 57.6698L80.7696 57.6C80.2348 57.5535 79.8396 57.3908 79.5606 57.135C79.2816 56.8793 79.1421 56.5306 79.1421 56.0888C79.1421 55.6006 79.3281 55.2053 79.6768 54.9263C80.0256 54.6473 80.5371 54.5078 81.1881 54.5078C81.6066 54.5078 82.0018 54.5543 82.3273 54.6706C82.676 54.7868 82.955 54.9263 83.1875 55.1123C83.234 55.1588 83.234 55.2053 83.1875 55.2751L82.6063 55.9726C82.5598 56.0191 82.5133 56.019 82.4668 55.9958C82.304 55.8795 82.0948 55.7866 81.8623 55.7168C81.6298 55.6471 81.3741 55.6006 81.1183 55.6006C80.9091 55.6006 80.7463 55.6471 80.6533 55.7168C80.5603 55.7866 80.4906 55.8796 80.4906 56.0191C80.4906 56.1353 80.5371 56.2283 80.6301 56.2981C80.7231 56.3678 80.9091 56.4143 81.1881 56.4376L81.7228 56.5073C82.304 56.5538 82.7225 56.7165 82.9783 56.9955C83.234 57.2513 83.3735 57.6 83.3735 58.0185C83.3735 58.53 83.1643 58.9485 82.7923 59.2508C82.4203 59.553 81.8856 59.6925 81.1648 59.6925Z" fill="#36302B"/>
<path d="M84.9778 61.413C84.908 61.413 84.8848 61.3898 84.8848 61.32V54.7403C84.8848 54.6706 84.908 54.6473 84.9778 54.6473H86.21C86.2798 54.6473 86.303 54.6706 86.303 54.7403V55.0891C86.4193 54.9263 86.582 54.7868 86.7913 54.6706C87.0005 54.5543 87.2795 54.5078 87.605 54.5078C88.0235 54.5078 88.3722 54.6008 88.6512 54.8101C88.9302 55.0193 89.1395 55.2983 89.279 55.6936C89.3487 55.9028 89.3952 56.0888 89.4185 56.2981C89.4417 56.5073 89.465 56.763 89.465 57.0885C89.465 57.414 89.4417 57.6698 89.4185 57.879C89.3952 58.0883 89.3487 58.2975 89.279 58.4835C89.1395 58.8788 88.9302 59.1578 88.6512 59.367C88.3722 59.5763 88.0235 59.6693 87.605 59.6693C87.2795 59.6693 87.0005 59.6228 86.7913 59.5065C86.582 59.3903 86.4193 59.274 86.303 59.088V61.2968C86.303 61.3665 86.2798 61.3898 86.21 61.3898H84.9778V61.413ZM87.14 58.4835C87.5352 58.4835 87.791 58.2975 87.9072 57.9488C87.9305 57.8558 87.9537 57.7395 87.977 57.6233C88.0002 57.507 88.0002 57.321 88.0002 57.1118C88.0002 56.9025 88.0002 56.7165 87.977 56.6003C87.9537 56.484 87.9305 56.3678 87.9072 56.2748C87.791 55.9261 87.5352 55.7401 87.14 55.7401C86.7448 55.7401 86.489 55.9261 86.3728 56.2748C86.3495 56.3678 86.3263 56.484 86.303 56.6003C86.2798 56.7165 86.2798 56.9025 86.2798 57.1118C86.2798 57.321 86.2798 57.507 86.303 57.6233C86.3263 57.7395 86.3495 57.8558 86.3728 57.9488C86.5123 58.2975 86.768 58.4835 87.14 58.4835Z" fill="#36302B"/>
<path d="M93.0452 59.6927C92.5104 59.6927 92.0687 59.5765 91.6735 59.344C91.3015 59.1115 91.0225 58.7627 90.883 58.321C90.8365 58.135 90.79 57.9722 90.7667 57.763C90.7435 57.577 90.7202 57.3677 90.7202 57.112C90.7202 56.8562 90.7435 56.647 90.7667 56.461C90.79 56.275 90.8365 56.089 90.883 55.903C91.0225 55.4612 91.2782 55.1125 91.6735 54.88C92.0455 54.6475 92.5104 54.5312 93.0452 54.5312C93.5799 54.5312 94.0217 54.6475 94.4169 54.88C94.7889 55.1125 95.0679 55.4612 95.2074 55.903C95.2539 56.089 95.3004 56.2517 95.3237 56.461C95.3469 56.647 95.3702 56.8562 95.3702 57.112C95.3702 57.3677 95.3469 57.577 95.3237 57.763C95.3004 57.949 95.2539 58.135 95.2074 58.321C95.0679 58.7627 94.8122 59.1115 94.4169 59.344C94.0217 59.5765 93.5799 59.6927 93.0452 59.6927ZM93.0452 58.4837C93.4404 58.4837 93.6962 58.2977 93.8124 57.949C93.8357 57.8327 93.8589 57.7165 93.8822 57.6002C93.9054 57.484 93.9054 57.3212 93.9054 57.112C93.9054 56.9027 93.9054 56.74 93.8822 56.6237C93.8589 56.5075 93.8357 56.3912 93.8124 56.275C93.6962 55.9262 93.4404 55.7402 93.0452 55.7402C92.6499 55.7402 92.3942 55.9262 92.2779 56.275C92.2547 56.3912 92.2315 56.5075 92.2082 56.6237C92.185 56.74 92.1849 56.9027 92.1849 57.112C92.1849 57.3212 92.185 57.484 92.2082 57.6002C92.2315 57.7165 92.2547 57.8327 92.2779 57.949C92.3942 58.2977 92.6499 58.4837 93.0452 58.4837Z" fill="#36302B"/>
<path d="M96.9978 59.5765C96.928 59.5765 96.9048 59.5532 96.9048 59.4835V54.7405C96.9048 54.6707 96.928 54.6475 96.9978 54.6475H98.23C98.2998 54.6475 98.323 54.6707 98.323 54.7405V55.159C98.4393 54.9497 98.602 54.8103 98.8345 54.694C99.0438 54.5778 99.3228 54.5312 99.625 54.5312C99.7878 54.5312 99.9505 54.5545 100.09 54.601C100.23 54.6475 100.369 54.7173 100.485 54.8103C100.532 54.8568 100.532 54.9032 100.509 54.9497L99.9273 55.996C99.904 56.0425 99.8343 56.0425 99.7878 56.0192C99.532 55.8565 99.2995 55.7867 99.067 55.7867C98.8113 55.81 98.602 55.903 98.4858 56.089C98.3695 56.275 98.2998 56.5307 98.2998 56.8562V59.4602C98.2998 59.53 98.2765 59.5532 98.2068 59.5532H96.9978V59.5765Z" fill="#36302B"/>
<path d="M103.415 59.6232C102.834 59.6232 102.438 59.4837 102.206 59.228C101.973 58.9722 101.857 58.5537 101.857 57.9725V55.7173C101.857 55.6708 101.834 55.6475 101.787 55.6475H101.485C101.415 55.6475 101.392 55.6243 101.392 55.5545V54.6943C101.392 54.6245 101.415 54.6013 101.485 54.6013H101.787C101.834 54.6013 101.857 54.578 101.857 54.5315V53.2063C101.857 53.1365 101.88 53.1133 101.95 53.1133H103.159C103.229 53.1133 103.252 53.1365 103.252 53.2063V54.5315C103.252 54.578 103.275 54.6013 103.322 54.6013H103.95C104.019 54.6013 104.043 54.6245 104.043 54.6943V55.5545C104.043 55.6243 104.019 55.6475 103.95 55.6475H103.322C103.275 55.6475 103.252 55.6708 103.252 55.7173V57.9027C103.252 58.0887 103.275 58.205 103.345 58.298C103.415 58.3677 103.531 58.4142 103.694 58.4142H103.95C104.019 58.4142 104.043 58.4375 104.043 58.5072V59.5302C104.043 59.6 104.019 59.6232 103.95 59.6232H103.415Z" fill="#36302B"/>
<path d="M111.39 59.5763C111.32 59.5763 111.297 59.553 111.297 59.4833V59.1578C111.157 59.3205 110.994 59.46 110.785 59.553C110.576 59.646 110.297 59.6925 109.948 59.6925C109.739 59.6925 109.53 59.6693 109.32 59.5995C109.111 59.553 108.948 59.46 108.786 59.3205C108.646 59.2043 108.507 59.0415 108.437 58.8555C108.344 58.6695 108.297 58.437 108.297 58.1813C108.297 57.6465 108.483 57.228 108.855 56.9723C109.227 56.7165 109.739 56.577 110.343 56.577H111.227C111.273 56.577 111.297 56.5538 111.297 56.5073V56.3213C111.297 56.0888 111.227 55.9261 111.087 55.8098C110.948 55.6936 110.669 55.6471 110.274 55.6471C110.018 55.6471 109.809 55.6703 109.623 55.7401C109.437 55.8098 109.297 55.8796 109.181 55.9726C109.134 56.0191 109.088 55.9958 109.041 55.9493L108.576 55.1356C108.553 55.0658 108.553 55.0193 108.6 54.9961C108.809 54.8566 109.065 54.7171 109.367 54.6473C109.669 54.5543 110.018 54.5078 110.436 54.5078C110.832 54.5078 111.18 54.5543 111.459 54.6241C111.738 54.6938 111.971 54.8101 112.134 54.9496C112.296 55.0891 112.436 55.2751 112.506 55.5076C112.575 55.7401 112.622 55.9958 112.622 56.2981V59.46C112.622 59.5298 112.599 59.553 112.529 59.553H111.39V59.5763ZM110.343 58.5998C110.948 58.5998 111.273 58.3673 111.273 57.9255V57.5768C111.273 57.5303 111.25 57.507 111.204 57.507H110.506C109.925 57.507 109.623 57.693 109.623 58.065C109.646 58.437 109.878 58.5998 110.343 58.5998Z" fill="#36302B"/>
<path d="M117.458 59.5763C117.388 59.5763 117.365 59.553 117.365 59.4833V56.6235C117.365 56.3445 117.295 56.1353 117.179 55.9726C117.062 55.8098 116.853 55.7168 116.597 55.7168C116.342 55.7168 116.156 55.8098 116.016 55.9726C115.877 56.1353 115.807 56.3445 115.807 56.6235V59.46C115.807 59.5298 115.784 59.553 115.714 59.553H114.482C114.412 59.553 114.389 59.5298 114.389 59.46V54.7171C114.389 54.6473 114.412 54.6241 114.482 54.6241H115.714C115.784 54.6241 115.807 54.6473 115.807 54.7171V55.0658C115.923 54.9031 116.086 54.7868 116.295 54.6706C116.504 54.5543 116.76 54.5078 117.086 54.5078C117.365 54.5078 117.597 54.5543 117.806 54.6473C118.016 54.7403 118.202 54.8566 118.341 55.0193C118.481 55.1821 118.597 55.3681 118.667 55.6006C118.736 55.8331 118.783 56.0655 118.783 56.3445V59.46C118.783 59.5298 118.76 59.553 118.69 59.553H117.458V59.5763Z" fill="#36302B"/>
<path d="M123.526 59.5771C123.456 59.5771 123.433 59.5538 123.433 59.4841V59.1353C123.317 59.2981 123.154 59.4376 122.945 59.5538C122.735 59.6701 122.456 59.7166 122.131 59.7166C121.712 59.7166 121.364 59.6236 121.085 59.4143C120.806 59.2051 120.596 58.9261 120.457 58.5308C120.387 58.3216 120.341 58.1356 120.317 57.9263C120.294 57.7171 120.271 57.4613 120.271 57.1358C120.271 56.8103 120.294 56.5313 120.317 56.3453C120.341 56.1593 120.387 55.9501 120.457 55.7409C120.596 55.3456 120.806 55.0434 121.085 54.8574C121.364 54.6481 121.712 54.5551 122.131 54.5551C122.456 54.5551 122.735 54.6016 122.945 54.7179C123.154 54.8341 123.317 54.9504 123.433 55.1364V52.7649C123.433 52.6951 123.456 52.6719 123.526 52.6719H124.758C124.828 52.6719 124.851 52.6951 124.851 52.7649V59.5073C124.851 59.5771 124.828 59.6003 124.758 59.6003H123.526V59.5771ZM122.573 58.4843C122.968 58.4843 123.224 58.2983 123.34 57.9496C123.363 57.8566 123.386 57.7403 123.41 57.6241C123.433 57.5078 123.433 57.3218 123.433 57.1126C123.433 56.9033 123.433 56.7173 123.41 56.6011C123.386 56.4848 123.363 56.3686 123.34 56.2756C123.224 55.9268 122.968 55.7409 122.573 55.7409C122.177 55.7409 121.922 55.9268 121.805 56.2756C121.782 56.3686 121.759 56.4848 121.736 56.6011C121.712 56.7173 121.712 56.9033 121.712 57.1126C121.712 57.3218 121.712 57.5078 121.736 57.6241C121.759 57.7403 121.782 57.8566 121.805 57.9496C121.922 58.2983 122.177 58.4843 122.573 58.4843Z" fill="#36302B"/>
<path d="M129.547 52.718C129.547 52.6483 129.571 52.625 129.64 52.625H130.942C131.012 52.625 131.035 52.6483 131.035 52.718V58.1817C131.035 58.2282 131.059 58.2515 131.105 58.2515H134.174C134.244 58.2515 134.267 58.2747 134.267 58.3445V59.4837C134.267 59.5534 134.244 59.5767 134.174 59.5767H129.64C129.571 59.5767 129.547 59.5534 129.547 59.4837V52.718Z" fill="#36302B"/>
<path d="M137.708 59.6927C137.174 59.6927 136.732 59.5765 136.337 59.344C135.941 59.1115 135.686 58.7627 135.546 58.321C135.5 58.135 135.453 57.9722 135.43 57.763C135.407 57.5537 135.383 57.3677 135.383 57.112C135.383 56.8562 135.407 56.647 135.43 56.461C135.453 56.275 135.5 56.089 135.546 55.903C135.686 55.4612 135.941 55.1125 136.337 54.88C136.709 54.6475 137.174 54.5312 137.708 54.5312C138.243 54.5312 138.685 54.6475 139.08 54.88C139.452 55.1125 139.731 55.4612 139.871 55.903C139.917 56.089 139.964 56.2517 139.987 56.461C140.01 56.647 140.033 56.8562 140.033 57.112C140.033 57.3677 140.01 57.577 139.987 57.763C139.964 57.949 139.917 58.135 139.871 58.321C139.731 58.7627 139.475 59.1115 139.08 59.344C138.685 59.5765 138.22 59.6927 137.708 59.6927ZM137.708 58.4837C138.104 58.4837 138.359 58.2977 138.476 57.949C138.499 57.8327 138.522 57.7165 138.545 57.6002C138.569 57.484 138.569 57.3212 138.569 57.112C138.569 56.9027 138.569 56.74 138.545 56.6237C138.522 56.5075 138.499 56.3912 138.476 56.275C138.359 55.9262 138.104 55.7402 137.708 55.7402C137.313 55.7402 137.057 55.9262 136.941 56.275C136.918 56.3912 136.895 56.5075 136.871 56.6237C136.848 56.74 136.848 56.9027 136.848 57.112C136.848 57.3212 136.848 57.484 136.871 57.6002C136.895 57.7165 136.918 57.8327 136.941 57.949C137.034 58.2977 137.29 58.4837 137.708 58.4837Z" fill="#36302B"/>
<path d="M143.335 61.5293C143.149 61.5293 142.963 61.506 142.777 61.4828C142.591 61.4363 142.428 61.3898 142.242 61.32C142.079 61.2503 141.917 61.1805 141.777 61.0875C141.638 60.9945 141.521 60.9015 141.428 60.7853C141.382 60.7388 141.382 60.669 141.428 60.6225L142.149 59.8785C142.196 59.832 142.242 59.832 142.312 59.8785C142.475 60.018 142.637 60.111 142.8 60.204C142.963 60.2738 143.149 60.3203 143.335 60.3203C143.684 60.3203 143.939 60.2273 144.102 60.0413C144.265 59.8553 144.335 59.5763 144.335 59.2275V58.809C144.218 58.995 144.056 59.1345 143.846 59.2275C143.637 59.3205 143.381 59.3903 143.056 59.3903C142.637 59.3903 142.312 59.2973 142.01 59.088C141.731 58.8788 141.521 58.5998 141.382 58.1813C141.335 57.9953 141.289 57.8093 141.266 57.6233C141.242 57.4373 141.219 57.2048 141.219 56.949C141.219 56.6933 141.242 56.4608 141.266 56.2748C141.289 56.0888 141.335 55.9028 141.382 55.7168C141.521 55.3216 141.707 55.0193 142.01 54.8101C142.289 54.6008 142.637 54.5078 143.056 54.5078C143.358 54.5078 143.637 54.5543 143.846 54.6706C144.056 54.7636 144.218 54.9031 144.335 55.0891V54.7403C144.335 54.6706 144.358 54.6473 144.428 54.6473H145.66C145.73 54.6473 145.753 54.6706 145.753 54.7403V59.0648C145.799 60.6923 144.986 61.5293 143.335 61.5293ZM143.544 58.1813C143.73 58.1813 143.893 58.1348 144.009 58.0418C144.125 57.9488 144.218 57.8093 144.265 57.6465C144.288 57.5535 144.311 57.4605 144.335 57.3443C144.358 57.228 144.358 57.1118 144.358 56.949C144.358 56.7863 144.358 56.67 144.335 56.5538C144.311 56.4376 144.288 56.3445 144.265 56.2515C144.218 56.0655 144.125 55.9493 144.009 55.8563C143.893 55.7633 143.73 55.7168 143.544 55.7168C143.335 55.7168 143.195 55.7633 143.079 55.8563C142.963 55.9493 142.87 56.0888 142.823 56.2515C142.8 56.3445 142.777 56.4376 142.754 56.5538C142.73 56.67 142.73 56.7863 142.73 56.949C142.73 57.1118 142.73 57.228 142.754 57.3443C142.777 57.4605 142.777 57.5535 142.823 57.6465C142.893 57.8325 142.963 57.9488 143.079 58.0418C143.172 58.1348 143.335 58.1813 143.544 58.1813Z" fill="#36302B"/>
<path d="M147.659 53.834C147.59 53.834 147.566 53.8107 147.566 53.741V52.718C147.566 52.6483 147.59 52.625 147.659 52.625H148.892C148.961 52.625 148.985 52.6483 148.985 52.718V53.741C148.985 53.8107 148.961 53.834 148.892 53.834H147.659ZM147.659 59.5767C147.59 59.5767 147.566 59.5534 147.566 59.4837V54.7407C147.566 54.671 147.59 54.6477 147.659 54.6477H148.892C148.961 54.6477 148.985 54.671 148.985 54.7407V59.4837C148.985 59.5534 148.961 59.5767 148.892 59.5767H147.659Z" fill="#36302B"/>
<path d="M152.704 59.6925C152.193 59.6925 151.751 59.6228 151.379 59.46C151.007 59.2973 150.705 59.1345 150.472 58.9253C150.426 58.8788 150.426 58.8323 150.472 58.7858L151.147 58.0418C151.193 57.9953 151.24 57.9953 151.286 58.0418C151.495 58.2045 151.751 58.344 152.007 58.437C152.263 58.53 152.542 58.5765 152.797 58.5765C153.053 58.5765 153.239 58.53 153.379 58.437C153.495 58.344 153.565 58.2278 153.565 58.0883C153.565 57.972 153.518 57.879 153.425 57.8093C153.332 57.7395 153.146 57.693 152.867 57.6698L152.309 57.6C151.774 57.5535 151.379 57.3908 151.1 57.135C150.821 56.8793 150.682 56.5306 150.682 56.0888C150.682 55.6006 150.868 55.2053 151.216 54.9263C151.565 54.6473 152.077 54.5078 152.728 54.5078C153.146 54.5078 153.541 54.5543 153.867 54.6706C154.216 54.7868 154.495 54.9263 154.727 55.1123C154.774 55.1588 154.774 55.2053 154.727 55.2751L154.146 55.9726C154.099 56.0191 154.053 56.019 154.006 55.9958C153.844 55.8795 153.634 55.7866 153.402 55.7168C153.169 55.6471 152.914 55.6006 152.658 55.6006C152.449 55.6006 152.286 55.6471 152.193 55.7168C152.1 55.7866 152.03 55.8796 152.03 56.0191C152.03 56.1353 152.077 56.2283 152.17 56.2981C152.263 56.3678 152.449 56.4143 152.728 56.4376L153.262 56.5073C153.844 56.5538 154.262 56.7165 154.518 56.9955C154.774 57.2513 154.89 57.6 154.89 58.0185C154.89 58.53 154.681 58.9485 154.309 59.2508C153.937 59.553 153.425 59.6925 152.704 59.6925Z" fill="#36302B"/>
<path d="M158.098 59.6232C157.517 59.6232 157.122 59.4837 156.889 59.228C156.657 58.9722 156.541 58.5537 156.541 57.9725V55.7173C156.541 55.6708 156.517 55.6475 156.471 55.6475H156.169C156.099 55.6475 156.076 55.6243 156.076 55.5545V54.6943C156.076 54.6245 156.099 54.6013 156.169 54.6013H156.471C156.517 54.6013 156.541 54.578 156.541 54.5315V53.2063C156.541 53.1365 156.564 53.1133 156.634 53.1133H157.843C157.912 53.1133 157.936 53.1365 157.936 53.2063V54.5315C157.936 54.578 157.959 54.6013 158.005 54.6013H158.633C158.703 54.6013 158.726 54.6245 158.726 54.6943V55.5545C158.726 55.6243 158.703 55.6475 158.633 55.6475H158.005C157.959 55.6475 157.936 55.6708 157.936 55.7173V57.9027C157.936 58.0887 157.959 58.205 158.029 58.298C158.098 58.3677 158.215 58.4142 158.377 58.4142H158.633C158.703 58.4142 158.726 58.4375 158.726 58.5072V59.5302C158.726 59.6 158.703 59.6232 158.633 59.6232H158.098Z" fill="#36302B"/>
<path d="M160.377 53.834C160.307 53.834 160.284 53.8107 160.284 53.741V52.718C160.284 52.6483 160.307 52.625 160.377 52.625H161.609C161.679 52.625 161.702 52.6483 161.702 52.718V53.741C161.702 53.8107 161.679 53.834 161.609 53.834H160.377ZM160.377 59.5767C160.307 59.5767 160.284 59.5534 160.284 59.4837V54.7407C160.284 54.671 160.307 54.6477 160.377 54.6477H161.609C161.679 54.6477 161.702 54.671 161.702 54.7407V59.4837C161.702 59.5534 161.679 59.5767 161.609 59.5767H160.377Z" fill="#36302B"/>
<path d="M165.538 59.6927C165.003 59.6927 164.562 59.5765 164.19 59.344C163.818 59.1115 163.562 58.7627 163.399 58.2977C163.353 58.1582 163.306 57.9722 163.283 57.7862C163.26 57.6002 163.236 57.3677 163.236 57.112C163.236 56.8562 163.26 56.6237 163.283 56.4377C163.306 56.2517 163.353 56.0657 163.399 55.9262C163.539 55.4612 163.818 55.1125 164.19 54.88C164.562 54.6475 165.003 54.5312 165.538 54.5312C165.957 54.5312 166.352 54.6243 166.654 54.787C166.98 54.9497 167.212 55.1822 167.398 55.4612C167.421 55.5077 167.421 55.5542 167.375 55.6007L166.491 56.1587C166.422 56.2052 166.375 56.182 166.329 56.1355C166.212 55.996 166.096 55.8797 165.98 55.81C165.864 55.7402 165.701 55.717 165.538 55.717C165.352 55.717 165.189 55.7635 165.05 55.8565C164.91 55.9495 164.817 56.089 164.771 56.2517C164.748 56.3447 164.724 56.461 164.701 56.6005C164.678 56.74 164.678 56.9027 164.678 57.112C164.678 57.3212 164.678 57.484 164.701 57.6235C164.724 57.763 164.748 57.8792 164.771 57.9722C164.817 58.1582 164.91 58.2745 165.05 58.3675C165.189 58.4605 165.352 58.507 165.538 58.507C165.724 58.507 165.864 58.4837 165.98 58.414C166.096 58.3442 166.212 58.228 166.329 58.0885C166.375 58.042 166.422 58.0187 166.491 58.0652L167.375 58.6465C167.421 58.693 167.421 58.7395 167.398 58.786C167.212 59.065 166.98 59.2742 166.654 59.4602C166.329 59.5997 165.957 59.6927 165.538 59.6927Z" fill="#36302B"/>
<path d="M174.141 59.6918C173.862 59.6918 173.606 59.6686 173.327 59.6221C173.071 59.5756 172.815 59.5058 172.583 59.4128C172.35 59.3198 172.141 59.2268 171.932 59.1106C171.746 58.9943 171.583 58.8781 171.444 58.7386C171.397 58.6921 171.397 58.6223 171.444 58.5758L172.211 57.6923C172.257 57.6458 172.304 57.6458 172.374 57.6923C172.606 57.8783 172.885 58.0411 173.187 58.1806C173.49 58.3201 173.838 58.3898 174.21 58.3898C174.582 58.3898 174.861 58.3201 175.047 58.1573C175.233 57.9946 175.35 57.8086 175.35 57.5528C175.35 57.3436 175.28 57.1808 175.117 57.0413C174.978 56.9018 174.675 56.8088 174.257 56.7623L173.885 56.7158C173.164 56.6228 172.629 56.4136 172.257 56.0648C171.885 55.7161 171.699 55.2511 171.699 54.6234C171.699 54.2979 171.746 54.0189 171.862 53.7399C171.978 53.4841 172.141 53.2516 172.35 53.0656C172.56 52.8796 172.815 52.7401 173.118 52.6471C173.42 52.5541 173.769 52.4844 174.141 52.4844C174.606 52.4844 175.047 52.5541 175.443 52.6704C175.861 52.8099 176.21 52.9726 176.489 53.2051C176.559 53.2516 176.559 53.2981 176.512 53.3679L175.884 54.2979C175.838 54.3444 175.791 54.3676 175.745 54.3211C175.489 54.1351 175.21 54.0189 174.954 53.9259C174.699 53.8329 174.42 53.7864 174.141 53.7864C173.838 53.7864 173.606 53.8561 173.443 53.9956C173.28 54.1351 173.211 54.3211 173.211 54.5304C173.211 54.7396 173.28 54.9024 173.443 55.0186C173.606 55.1581 173.885 55.2511 174.28 55.2976L174.652 55.3441C175.373 55.4371 175.931 55.6463 176.28 55.9951C176.628 56.3438 176.838 56.8088 176.838 57.4598C176.838 57.7621 176.791 58.0643 176.675 58.3433C176.559 58.6223 176.396 58.8548 176.163 59.0408C175.931 59.2268 175.652 59.3896 175.303 59.5058C174.954 59.6221 174.606 59.6918 174.141 59.6918Z" fill="#36302B"/>
<path d="M180.464 59.6923C179.906 59.6923 179.418 59.5761 179.046 59.3203C178.674 59.0646 178.418 58.7158 178.279 58.2741C178.232 58.1113 178.186 57.9486 178.163 57.7626C178.139 57.5766 178.116 57.3674 178.116 57.0884C178.116 56.8326 178.139 56.6001 178.163 56.4141C178.186 56.2281 178.232 56.0654 178.279 55.9026C178.418 55.4609 178.674 55.1121 179.046 54.8564C179.418 54.6239 179.86 54.4844 180.395 54.4844C180.953 54.4844 181.394 54.6006 181.766 54.8564C182.138 55.1121 182.394 55.4376 182.534 55.8794C182.557 55.9724 182.58 56.0421 182.603 56.1351C182.627 56.2281 182.65 56.3211 182.65 56.4374C182.673 56.5536 182.673 56.6931 182.673 56.8326C182.673 56.9721 182.673 57.1581 182.673 57.3906C182.673 57.4604 182.627 57.4836 182.557 57.4836H179.558C179.511 57.4836 179.488 57.5069 179.488 57.5534C179.488 57.6464 179.511 57.7394 179.558 57.8324C179.627 58.0416 179.744 58.2043 179.93 58.3206C180.116 58.4368 180.325 58.4833 180.581 58.4833C180.836 58.4833 181.046 58.4368 181.232 58.3671C181.418 58.2973 181.58 58.1811 181.72 58.0416C181.79 57.9951 181.836 57.9951 181.859 58.0416L182.534 58.6693C182.58 58.7158 182.58 58.7623 182.534 58.8088C182.301 59.0646 181.999 59.2738 181.65 59.4133C181.325 59.5993 180.929 59.6923 180.464 59.6923ZM181.232 56.5769C181.278 56.5769 181.301 56.5536 181.301 56.5071C181.301 56.4374 181.301 56.3676 181.278 56.2979C181.255 56.2281 181.255 56.1816 181.232 56.1351C181.185 55.9724 181.069 55.8329 180.929 55.7399C180.79 55.6469 180.604 55.6004 180.395 55.6004C180.185 55.6004 180.023 55.6469 179.86 55.7399C179.72 55.8329 179.604 55.9724 179.558 56.1351C179.534 56.1816 179.534 56.2514 179.511 56.2979C179.511 56.3444 179.488 56.4141 179.488 56.5071C179.488 56.5536 179.511 56.5769 179.558 56.5769H181.232Z" fill="#36302B"/>
<path d="M184.324 59.5765C184.254 59.5765 184.231 59.5532 184.231 59.4835V54.7405C184.231 54.6707 184.254 54.6475 184.324 54.6475H185.556C185.626 54.6475 185.649 54.6707 185.649 54.7405V55.159C185.765 54.9497 185.928 54.8103 186.161 54.694C186.37 54.5778 186.649 54.5312 186.951 54.5312C187.114 54.5312 187.277 54.5545 187.416 54.601C187.579 54.6475 187.695 54.7173 187.811 54.8103C187.858 54.8568 187.858 54.9032 187.835 54.9497L187.253 55.996C187.23 56.0425 187.16 56.0425 187.114 56.0192C186.858 55.8565 186.626 55.7867 186.393 55.7867C186.137 55.81 185.928 55.903 185.812 56.089C185.696 56.275 185.626 56.5307 185.626 56.8562V59.4602C185.626 59.53 185.603 59.5532 185.533 59.5532H184.324V59.5765Z" fill="#36302B"/>
<path d="M190.462 59.5735C190.392 59.5735 190.369 59.5502 190.346 59.4805L188.579 54.7375C188.555 54.6678 188.579 54.6445 188.672 54.6445H189.95C190.02 54.6445 190.067 54.6678 190.09 54.7375L191.043 57.667H191.066L191.996 54.7375C192.02 54.6678 192.066 54.6445 192.136 54.6445H193.415C193.484 54.6445 193.508 54.6678 193.508 54.7375L191.741 59.4805C191.717 59.5502 191.671 59.5735 191.624 59.5735H190.462Z" fill="#36302B"/>
<path d="M194.833 53.834C194.763 53.834 194.74 53.8107 194.74 53.741V52.718C194.74 52.6483 194.763 52.625 194.833 52.625H196.065C196.135 52.625 196.158 52.6483 196.158 52.718V53.741C196.158 53.8107 196.135 53.834 196.065 53.834H194.833ZM194.833 59.5767C194.763 59.5767 194.74 59.5534 194.74 59.4837V54.7407C194.74 54.671 194.763 54.6477 194.833 54.6477H196.065C196.135 54.6477 196.158 54.671 196.158 54.7407V59.4837C196.158 59.5534 196.135 59.5767 196.065 59.5767H194.833Z" fill="#36302B"/>
<path d="M199.995 59.6927C199.46 59.6927 199.018 59.5765 198.646 59.344C198.274 59.1115 198.018 58.7627 197.856 58.2977C197.809 58.1582 197.763 57.9722 197.739 57.7862C197.716 57.6002 197.693 57.3677 197.693 57.112C197.693 56.8562 197.716 56.6237 197.739 56.4377C197.763 56.2517 197.809 56.0657 197.856 55.9262C197.995 55.4612 198.274 55.1125 198.646 54.88C199.018 54.6475 199.46 54.5312 199.995 54.5312C200.413 54.5312 200.808 54.6243 201.111 54.787C201.436 54.9497 201.669 55.1822 201.855 55.4612C201.878 55.5077 201.878 55.5542 201.831 55.6007L200.948 56.182C200.878 56.2285 200.832 56.2052 200.785 56.1587C200.669 56.0192 200.553 55.903 200.436 55.8332C200.32 55.7635 200.157 55.7402 199.995 55.7402C199.809 55.7402 199.646 55.7867 199.506 55.8797C199.367 55.9727 199.274 56.1122 199.227 56.275C199.204 56.368 199.181 56.4842 199.158 56.6237C199.134 56.7632 199.134 56.926 199.134 57.1352C199.134 57.3445 199.134 57.5072 199.158 57.6467C199.181 57.7862 199.204 57.9025 199.227 57.9955C199.274 58.1815 199.367 58.2977 199.506 58.3907C199.646 58.4837 199.809 58.5302 199.995 58.5302C200.181 58.5302 200.32 58.507 200.436 58.4372C200.553 58.3675 200.669 58.2512 200.785 58.1117C200.832 58.0652 200.878 58.042 200.948 58.0885L201.831 58.6697C201.878 58.7162 201.878 58.7627 201.855 58.8092C201.669 59.0882 201.436 59.2975 201.111 59.4835C200.785 59.5997 200.413 59.6927 199.995 59.6927Z" fill="#36302B"/>
<path d="M205.459 59.6923C204.901 59.6923 204.412 59.5761 204.04 59.3203C203.668 59.0646 203.413 58.7158 203.273 58.2741C203.227 58.1113 203.18 57.9486 203.157 57.7626C203.134 57.5766 203.11 57.3674 203.11 57.0884C203.11 56.8326 203.134 56.6001 203.157 56.4141C203.18 56.2281 203.227 56.0654 203.273 55.9026C203.413 55.4609 203.668 55.1121 204.04 54.8564C204.412 54.6239 204.854 54.4844 205.389 54.4844C205.947 54.4844 206.389 54.6006 206.761 54.8564C207.133 55.1121 207.388 55.4376 207.528 55.8794C207.551 55.9724 207.574 56.0421 207.598 56.1351C207.621 56.2281 207.644 56.3211 207.644 56.4374C207.667 56.5536 207.667 56.6931 207.667 56.8326C207.667 56.9721 207.667 57.1581 207.667 57.3906C207.667 57.4604 207.621 57.4836 207.551 57.4836H204.552C204.505 57.4836 204.482 57.5069 204.482 57.5534C204.482 57.6464 204.505 57.7394 204.552 57.8324C204.622 58.0416 204.738 58.2043 204.924 58.3206C205.11 58.4368 205.319 58.4833 205.575 58.4833C205.831 58.4833 206.04 58.4368 206.226 58.3671C206.412 58.2973 206.575 58.1811 206.714 58.0416C206.784 57.9951 206.83 57.9951 206.854 58.0416L207.528 58.6693C207.574 58.7158 207.574 58.7623 207.528 58.8088C207.295 59.0646 206.993 59.2738 206.644 59.4133C206.319 59.5993 205.924 59.6923 205.459 59.6923ZM206.226 56.5769C206.272 56.5769 206.296 56.5536 206.296 56.5071C206.296 56.4374 206.296 56.3676 206.272 56.2979C206.249 56.2281 206.249 56.1816 206.226 56.1351C206.179 55.9724 206.063 55.8329 205.924 55.7399C205.784 55.6469 205.598 55.6004 205.389 55.6004C205.18 55.6004 205.017 55.6469 204.854 55.7399C204.715 55.8329 204.598 55.9724 204.552 56.1351C204.529 56.1816 204.529 56.2514 204.505 56.2979C204.505 56.3444 204.482 56.4141 204.482 56.5071C204.482 56.5536 204.505 56.5769 204.552 56.5769H206.226Z" fill="#36302B"/>
<path d="M211.155 59.6925C210.643 59.6925 210.201 59.6228 209.829 59.46C209.457 59.2973 209.155 59.1345 208.923 58.9253C208.876 58.8788 208.876 58.8323 208.923 58.7858L209.597 58.0418C209.643 57.9953 209.69 57.9953 209.736 58.0418C209.946 58.2045 210.201 58.344 210.457 58.437C210.713 58.53 210.992 58.5765 211.248 58.5765C211.503 58.5765 211.689 58.53 211.829 58.437C211.945 58.344 212.015 58.2278 212.015 58.0883C212.015 57.972 211.968 57.879 211.875 57.8093C211.782 57.7395 211.596 57.693 211.317 57.6698L210.759 57.6C210.225 57.5535 209.829 57.3908 209.55 57.135C209.271 56.8793 209.132 56.5306 209.132 56.0888C209.132 55.6006 209.318 55.2053 209.667 54.9263C210.015 54.6473 210.527 54.5078 211.178 54.5078C211.596 54.5078 211.992 54.5543 212.317 54.6706C212.666 54.7868 212.945 54.9263 213.177 55.1123C213.224 55.1588 213.224 55.2053 213.177 55.2751L212.596 55.9726C212.55 56.0191 212.503 56.019 212.457 55.9958C212.294 55.8795 212.085 55.7866 211.852 55.7168C211.62 55.6471 211.364 55.6006 211.108 55.6006C210.899 55.6006 210.736 55.6471 210.643 55.7168C210.55 55.7866 210.48 55.8796 210.48 56.0191C210.48 56.1353 210.527 56.2283 210.62 56.2981C210.713 56.3678 210.899 56.4143 211.178 56.4376L211.713 56.5073C212.294 56.5538 212.712 56.7165 212.968 56.9955C213.224 57.2513 213.34 57.6 213.34 58.0185C213.34 58.53 213.131 58.9485 212.759 59.2508C212.387 59.553 211.875 59.6925 211.155 59.6925Z" fill="#36302B"/>
<path d="M243.496 34.9609H240.217V43.5169H243.496V34.9609Z" fill="#00665E"/>
<path d="M243.496 24.3594H240.217V33.7755H243.496V24.3594Z" fill="#00665E"/>
<path d="M243.193 16.8499L242.961 16.4082C242.798 16.1524 242.659 15.8967 242.519 15.6409C242.356 15.3154 242.147 15.0132 241.938 14.7109C241.729 15.0132 241.543 15.3154 241.357 15.6409C241.217 15.8967 241.054 16.1524 240.915 16.3849L240.496 17.1522L240.217 17.6637V23.3134H243.496V17.4079L243.356 17.1754L243.193 16.8499Z" fill="#00665E"/>
<path d="M249.68 47.375V51.1182C249.68 54.8614 247.03 58.0002 243.519 58.7442V52.5365H240.241V58.7442C236.707 58.0002 234.079 54.8614 234.079 51.1182V47.375L231.104 52.7457L231.127 52.8619C231.917 57.6747 235.707 61.3016 240.427 61.9294L241.938 62.9524L243.472 61.9061C248.146 61.2551 251.912 57.6514 252.679 52.8619L252.703 52.7457L249.68 47.375Z" fill="#00665E"/>
<path d="M242.356 9.10649L241.961 8.66474L241.822 8.52524L241.682 8.38574C241.473 8.15324 241.264 7.944 241.054 7.7115C240.613 7.26975 240.171 6.85126 239.729 6.43276C239.264 6.03751 238.822 5.64227 238.381 5.27027C237.916 4.92152 237.474 4.57277 237.032 4.24728C236.59 3.92178 236.149 3.64278 235.707 3.36379C235.265 3.08479 234.87 2.80579 234.428 2.59654C234.01 2.36404 233.614 2.1548 233.242 1.94555C232.87 1.7363 232.475 1.57355 232.15 1.4108C231.452 1.0853 230.848 0.806306 230.313 0.620308C229.267 0.248311 228.685 0.0390625 228.685 0.0390625C228.685 0.0390625 229.15 0.480809 229.987 1.1783C230.406 1.52705 230.894 1.9688 231.475 2.45704C232.057 2.92204 232.661 3.50328 233.335 4.13103C233.684 4.43328 234.01 4.75877 234.358 5.10752C234.707 5.45627 235.102 5.78177 235.451 6.15376C235.823 6.52576 236.172 6.89776 236.567 7.26975C236.893 7.64175 237.241 7.9905 237.59 8.36249C238.66 8.52524 239.659 8.73449 240.613 8.99024L241.031 9.10649L241.171 9.12974L241.24 9.15299L241.45 9.19949L241.705 9.26924L241.868 9.31574L242.054 9.26924L242.403 9.17624L242.356 9.10649Z" fill="#00665E"/>
<path d="M242.659 8.85168L242.682 8.87493L242.845 9.08418L243.17 8.99118C244.193 8.71218 245.263 8.50293 246.402 8.34018C246.727 7.99144 247.053 7.64269 247.378 7.29394C247.75 6.92194 248.122 6.54995 248.494 6.17795C248.843 5.80595 249.238 5.48046 249.587 5.13171C249.936 4.78296 250.285 4.45746 250.633 4.17847C251.308 3.57397 251.935 2.99273 252.517 2.52773C253.098 2.03949 253.586 1.59774 254.005 1.27224C254.842 0.574747 255.307 0.15625 255.307 0.15625C255.307 0.15625 254.702 0.342249 253.656 0.714246C253.121 0.900244 252.517 1.15599 251.819 1.48149C251.47 1.64424 251.098 1.80699 250.703 2.01623C250.331 2.22548 249.936 2.43473 249.494 2.66723C249.076 2.87648 248.657 3.15547 248.215 3.43447C247.774 3.71347 247.332 3.99247 246.89 4.31797C246.448 4.64346 246.007 4.96896 245.542 5.34096C245.1 5.71295 244.635 6.08495 244.193 6.4802C243.751 6.87545 243.31 7.31719 242.868 7.73569C242.659 7.94493 242.449 8.17743 242.24 8.40993L242.496 8.71218L242.659 8.85168Z" fill="#00665E"/>
<path d="M249.076 25.5217C249.029 24.5684 248.913 23.5222 248.727 22.4295C248.541 21.3367 248.262 20.1975 247.913 19.035C247.634 18.1283 247.285 17.2215 246.89 16.3148L245.123 15.4545C244.891 15.3615 244.658 15.2453 244.426 15.1523C244.03 14.9895 243.635 14.8035 243.24 14.664L242.659 14.4315L242.217 14.2455L242.054 14.1758L242.147 14.3385C242.38 14.7105 242.612 15.0593 242.821 15.4313C242.961 15.687 243.124 15.9428 243.263 16.1753C243.403 16.431 243.542 16.6868 243.682 16.9425C243.961 17.454 244.193 17.9655 244.472 18.477C244.705 18.9885 244.96 19.5 245.17 20.0115C245.611 21.0345 245.983 22.0342 246.332 22.9875C246.658 23.964 246.96 24.8939 247.169 25.7542C247.657 27.4979 247.936 29.0092 248.122 30.0554C248.192 30.5901 248.262 31.0086 248.308 31.3109C248.355 31.6131 248.355 31.7526 248.355 31.7526C248.355 31.7526 248.401 31.6131 248.494 31.3109C248.564 31.0319 248.68 30.6134 248.773 30.0554C248.866 29.4974 248.983 28.8464 249.029 28.0559C249.099 27.3584 249.122 26.4749 249.076 25.5217Z" fill="#00665E"/>
<path d="M241.821 14.1758L241.635 14.2455L241.124 14.4548L240.543 14.6873C240.147 14.85 239.752 15.0128 239.357 15.1755C239.125 15.2685 238.892 15.3848 238.683 15.4778L236.962 16.2915C236.567 17.1983 236.218 18.105 235.916 18.9885C235.544 20.151 235.265 21.2902 235.056 22.3597C234.87 23.4525 234.73 24.4754 234.684 25.4519C234.637 26.4052 234.637 27.2887 234.684 28.0559C234.73 28.8232 234.823 29.4974 234.916 30.0554C234.986 30.6134 235.102 31.0319 235.172 31.3109C235.242 31.5899 235.312 31.7526 235.312 31.7526C235.312 31.7526 235.335 31.5899 235.358 31.3109C235.405 31.0319 235.474 30.5901 235.544 30.0554C235.73 28.9859 236.032 27.4979 236.521 25.7542C236.753 24.8939 237.055 23.964 237.404 22.9875C237.753 22.011 238.148 21.0112 238.59 20.0115C238.822 19.5 239.055 18.9885 239.31 18.477C239.566 17.9655 239.822 17.454 240.101 16.9425C240.24 16.6868 240.38 16.431 240.519 16.1753C240.682 15.9195 240.822 15.687 240.961 15.4313C241.17 15.0593 241.403 14.7105 241.635 14.3385L241.821 14.1758Z" fill="#00665E"/>
<path d="M240.985 9.5029L240.775 9.4564L240.543 9.38665C239.706 9.15415 238.869 8.9914 238.009 8.8519L237.706 8.8054L237.404 8.7589C237.009 8.7124 236.637 8.64266 236.242 8.59616C235.033 8.45666 233.824 8.41016 232.684 8.41016H232.173C230.894 8.45666 229.662 8.54966 228.569 8.7124C227.453 8.87515 226.453 9.0844 225.593 9.3169C224.71 9.5494 223.966 9.80514 223.361 10.0376C222.757 10.2469 222.292 10.5026 221.989 10.6421C221.687 10.8049 221.524 10.8979 221.524 10.8979C221.524 10.8979 221.71 10.8746 222.059 10.8514C222.408 10.8281 222.896 10.8049 223.524 10.7816C223.919 10.7816 224.361 10.7584 224.849 10.7584C225.919 10.7584 227.221 10.7816 228.662 10.8979C229.708 10.9676 230.848 11.1071 232.033 11.2466C233.196 11.4094 234.405 11.6186 235.637 11.8976C235.986 11.7116 236.358 11.5256 236.73 11.3164C236.962 11.2001 237.195 11.1071 237.427 10.9909C237.869 10.7816 238.334 10.5724 238.799 10.3864L238.985 10.3166L239.171 10.2469L239.38 10.1771C239.729 10.0376 240.078 9.92139 240.45 9.7819L240.798 9.66565L240.938 9.61915L241.147 9.5494L240.985 9.5029Z" fill="#85AF9A"/>
<path d="M261.258 24.5886C260.933 24.0306 260.491 23.4028 259.956 22.6589C259.701 22.2869 259.422 21.8916 259.096 21.5196C258.771 21.1244 258.422 20.7291 258.073 20.3106C257.724 19.8689 257.329 19.4736 256.911 19.0319C256.492 18.6134 256.074 18.1484 255.585 17.7299C255.12 17.2881 254.632 16.8464 254.121 16.4047C253.609 15.9862 253.051 15.5677 252.493 15.1259C251.935 14.7074 251.331 14.3122 250.749 13.8937C250.145 13.4984 249.517 13.1264 248.866 12.7544C248.611 12.6149 248.355 12.4754 248.099 12.3359C247.495 12.4754 246.867 12.6382 246.309 12.7777C246.076 12.8474 245.844 12.9172 245.611 12.9637L245.588 12.9869L245.425 13.0334L245.239 13.0799C244.96 13.1497 244.681 13.2427 244.402 13.3357L243.449 13.6379C243.1 13.7542 242.798 13.8704 242.519 13.9634C242.821 14.0797 243.124 14.2192 243.426 14.3354C244.054 14.5912 244.681 14.8702 245.309 15.1492C245.774 15.3584 246.216 15.5909 246.681 15.8002L246.96 15.9397L247.169 16.0327L247.239 16.0792C247.82 16.3814 248.378 16.6837 248.936 16.9859C249.517 17.3114 250.075 17.6369 250.656 17.9624C251.214 18.3111 251.749 18.6599 252.284 18.9621C252.819 19.3109 253.33 19.6596 253.818 19.9851C254.33 20.3106 254.795 20.6594 255.26 20.9849C255.725 21.3104 256.19 21.6126 256.608 21.9614C257.469 22.5891 258.259 23.1703 258.933 23.7283C259.631 24.2631 260.235 24.7281 260.724 25.1466C261.7 25.9371 262.305 26.3788 262.305 26.3788C262.305 26.3788 261.909 25.6813 261.258 24.5886Z" fill="#85AF9A"/>
<path d="M261.793 10.6421C261.491 10.5026 261.026 10.2701 260.421 10.0376C259.817 9.80514 259.073 9.5494 258.189 9.3169C257.329 9.0844 256.306 8.87515 255.213 8.7124C254.097 8.54966 252.888 8.45666 251.609 8.41016H251.098C249.959 8.41016 248.773 8.45666 247.541 8.59616C247.215 8.64266 246.89 8.6659 246.564 8.7124L246.262 8.7589L245.96 8.8054C245.053 8.9449 244.146 9.1309 243.239 9.3634L243.1 9.4099L242.891 9.4564L242.681 9.5029L242.565 9.52615L242.216 9.61915L242.17 9.6424L241.891 9.7354C241.635 9.8284 241.356 9.89814 241.1 9.99114L240.728 10.1074L240.38 10.2236L240.031 10.3631L239.473 10.5724L239.287 10.6421L239.101 10.7119L238.985 10.7584C238.287 11.0374 237.613 11.3629 236.915 11.6884C236.683 11.8046 236.474 11.9209 236.241 12.0371L235.986 12.1766L235.73 12.3161C235.474 12.4556 235.218 12.5951 234.963 12.7346C234.312 13.1066 233.684 13.4786 233.079 13.8739C232.475 14.2924 231.894 14.6876 231.336 15.1061C230.778 15.5478 230.243 15.9663 229.708 16.3848C229.197 16.8266 228.708 17.2683 228.243 17.7101C227.778 18.1286 227.337 18.5936 226.918 19.0353C226.5 19.4771 226.104 19.8723 225.756 20.3141C225.407 20.7326 225.058 21.1511 224.733 21.5463C224.407 21.9415 224.151 22.3368 223.872 22.6855C223.338 23.4063 222.896 24.0573 222.57 24.6153C221.896 25.708 221.547 26.359 221.547 26.359C221.547 26.359 222.152 25.9173 223.128 25.1268C223.617 24.7083 224.221 24.2665 224.919 23.7085C225.593 23.1505 226.383 22.5925 227.244 21.9415C227.662 21.616 228.127 21.2906 228.592 20.9651C229.057 20.6396 229.522 20.2676 230.034 19.9653C230.545 19.6398 231.057 19.2911 231.568 18.9423C232.103 18.6168 232.661 18.2681 233.196 17.9426C233.754 17.6171 234.335 17.2916 234.916 16.9661C235.497 16.6638 236.102 16.3383 236.683 16.0361L236.962 15.8966L237.241 15.7571C237.659 15.5478 238.101 15.3386 238.52 15.1294C239.147 14.8736 239.775 14.5714 240.403 14.3156C240.705 14.1994 241.007 14.0831 241.333 13.9436L241.426 13.9204L241.612 13.8506L241.798 13.7809L241.914 13.7344L242.216 13.6414L242.333 13.5949L242.519 13.5251L242.844 13.4089L243.309 13.2461C243.635 13.1531 243.96 13.0369 244.286 12.9439C244.518 12.8741 244.774 12.8044 245.03 12.7346L245.216 12.6881L245.425 12.6416C245.681 12.5719 245.96 12.5021 246.215 12.4091C246.68 12.2929 247.145 12.1766 247.61 12.0836L247.889 12.0139L248.122 11.9674L248.168 11.9441C249.401 11.6651 250.633 11.4559 251.795 11.2931C252.981 11.1304 254.097 11.0141 255.143 10.9444C256.585 10.8281 257.887 10.8049 258.956 10.8049C259.445 10.8049 259.886 10.8049 260.282 10.8281C260.909 10.8514 261.421 10.8746 261.746 10.8979C262.095 10.9211 262.281 10.9444 262.281 10.9444C262.281 10.9444 262.118 10.7816 261.793 10.6421Z" fill="#85AF9A"/>
<path d="M244.681 39.1914V44.7946H239.055V39.1914L213.782 23.707C213.782 24.1023 213.968 24.4743 214.294 24.7068L235.8 40.5631V50.7233C235.8 52.9553 237.009 55.0478 238.985 56.0475L239.032 56.0708L239.078 56.094V51.3046H244.704V56.094L244.751 56.0708L244.797 56.0475C246.797 55.0478 247.983 52.9553 247.983 50.7233V40.5631L269.489 24.7068C269.814 24.4743 270 24.1023 270 23.707L244.681 39.1914ZM239.055 46.6313H244.681V49.4678H239.055V46.6313Z" fill="#85AF9A"/>
</svg>
