<svg width="180" height="53" viewBox="0 0 180 53" fill="none" xmlns="http://www.w3.org/2000/svg">
<path d="M158.222 51.8076L158.2 51.2913C157.795 43.1192 156.022 35.9798 152.789 29.4241L152.07 27.9648L151.352 29.4241C148.119 35.9573 146.346 43.1192 145.941 51.2913L145.919 51.8076C147.917 52.122 149.96 52.3016 152.07 52.3016C154.181 52.3016 156.246 52.122 158.222 51.8076Z" fill="#007167"/>
<path d="M131.214 21.9938C134.223 25.9003 138.623 32.0069 141.878 39.8422L142.844 42.1771L143.405 39.7075C144.662 34.1622 146.638 29.1332 149.422 24.3961L149.669 23.9695L149.377 23.5429C147.693 21.0509 145.807 18.6935 143.45 16.1117C141.766 14.3381 139.925 12.5645 138.017 10.8806L137.456 10.3867L136.917 10.9255C134.133 13.687 131.91 16.5832 130.092 19.7712L129.822 20.2426L130.181 20.6692C130.518 21.1182 130.855 21.5672 131.214 21.9938Z" fill="#00958A"/>
<path d="M141.114 50.7293L141.047 50.4599C138.286 38.9875 132.695 30.7032 128.744 25.4721L127.868 24.3047L127.352 25.6742C125.781 29.8051 124.725 34.4974 124.187 39.6611C128.25 44.7574 134.155 48.6863 141.114 50.7293Z" fill="#007167"/>
<path d="M146.413 13.3498C148.322 15.4377 149.983 17.4134 151.42 19.3891L152.071 20.2646L152.722 19.3891C154.181 17.4134 155.798 15.4602 157.729 13.3722C159.345 11.6884 161.096 9.98215 162.915 8.36569L163.633 7.71462L162.87 7.13089C158.469 3.74081 154.428 1.74269 152.43 0.844656L152.093 0.6875L151.757 0.844656C149.736 1.74269 145.717 3.76327 141.317 7.13089L140.554 7.71462L141.272 8.36569C143.068 9.98215 144.797 11.666 146.413 13.3498Z" fill="#6ABF4B"/>
<path d="M179.999 39.6611C179.438 34.4974 178.383 29.7827 176.811 25.6742L176.295 24.3047L175.419 25.4721C171.468 30.7032 165.9 38.9651 163.116 50.4599L163.049 50.7293C169.986 48.6863 175.913 44.7574 179.999 39.6611Z" fill="#007167"/>
<path d="M160.692 16.1547C158.357 18.6916 156.426 21.1163 154.765 23.5634L154.473 23.99L154.72 24.4166C157.504 29.1762 159.457 34.1827 160.736 39.7281L161.298 42.1976L162.263 39.8628C165.518 32.0274 169.896 25.9432 172.905 22.0368C173.264 21.5878 173.623 21.1612 173.982 20.7122L174.342 20.2856L174.072 19.8141C172.254 16.6261 170.031 13.73 167.247 10.9685L166.708 10.4297L166.147 10.9236C164.216 12.6074 162.398 14.3586 160.692 16.1547Z" fill="#00958A"/>
<path d="M5.43311 46.3724V41.1863L3.39008 46.3724H2.6941L0.673525 41.1863V46.3724H0V40.625H1.18989L3.07577 45.4744L4.93919 40.625H6.12908V46.3724H5.43311Z" fill="#9D9D9C"/>
<path d="M10.1032 46.3702C10.0808 46.2804 10.0808 46.1906 10.0583 46.0784C10.0359 45.9661 10.0359 45.8763 10.0359 45.7865C9.85626 46.0335 9.67666 46.1906 9.45215 46.3029C9.22764 46.3927 8.98068 46.4376 8.68882 46.4376C8.50921 46.4376 8.3296 46.4151 8.15 46.3702C7.97039 46.3253 7.83569 46.258 7.70098 46.1457C7.56628 46.0559 7.47647 45.9212 7.38667 45.7865C7.31932 45.6293 7.27441 45.4722 7.27441 45.2477C7.27441 44.9558 7.34177 44.7089 7.49892 44.5293C7.65608 44.3496 7.83569 44.2149 8.06019 44.1251C8.2847 44.0353 8.53166 43.968 8.80107 43.9455C9.07048 43.9231 9.31744 43.9006 9.5644 43.9006C9.63175 43.9006 9.69911 43.9006 9.76646 43.9006C9.83381 43.9006 9.90116 43.9006 9.94607 43.9231V43.6761C9.94607 43.3618 9.87871 43.1373 9.74401 42.9577C9.6093 42.7781 9.38479 42.7107 9.04803 42.7107C8.80107 42.7107 8.59901 42.7556 8.46431 42.8679C8.3296 42.9801 8.2398 43.1597 8.21735 43.4292H7.52137C7.52137 43.2047 7.58873 43.0251 7.67853 42.8903C7.76833 42.7332 7.88059 42.6209 8.01529 42.5311C8.15 42.4413 8.30715 42.374 8.48676 42.3291C8.66637 42.2842 8.84597 42.2617 9.02558 42.2617C9.54195 42.2617 9.92361 42.374 10.1706 42.576C10.4175 42.8005 10.5522 43.1598 10.5522 43.6986V45.1803C10.5522 45.4497 10.5747 45.6967 10.5971 45.8988C10.6196 46.1233 10.6645 46.258 10.6869 46.3478H10.1032V46.3702ZM9.96852 44.3497C9.87871 44.3497 9.81136 44.3272 9.76646 44.3272H9.6093C9.45215 44.3272 9.27254 44.3272 9.09293 44.3497C8.89088 44.3721 8.73372 44.3946 8.55411 44.4619C8.39696 44.5293 8.2398 44.6191 8.12755 44.7313C8.01529 44.8436 7.97039 45.0007 7.97039 45.2252C7.97039 45.3375 7.99284 45.4497 8.03774 45.562C8.08264 45.6518 8.15 45.7416 8.2398 45.809C8.3296 45.8763 8.41941 45.9212 8.53166 45.9437C8.64392 45.9661 8.75617 45.9886 8.86843 45.9886C9.11538 45.9886 9.31744 45.9437 9.4746 45.8539C9.6093 45.7641 9.72156 45.6293 9.81136 45.4946C9.87871 45.3375 9.94606 45.1579 9.96852 44.9783C9.94606 44.7538 9.96852 44.5517 9.96852 44.3497Z" fill="#9D9D9C"/>
<path d="M14.7276 46.3704L14.6827 45.7643C14.5031 45.9888 14.3235 46.1684 14.1439 46.2806C13.9418 46.3929 13.6949 46.4378 13.403 46.4378C13.1112 46.4378 12.8418 46.3704 12.6172 46.2582C12.3927 46.1459 12.2131 45.9888 12.0784 45.7867C11.9437 45.5847 11.8315 45.3602 11.7641 45.1132C11.6968 44.8662 11.6519 44.5968 11.6519 44.3274C11.6519 44.058 11.6968 43.8111 11.7641 43.5641C11.8315 43.3171 11.9437 43.0926 12.0784 42.913C12.2131 42.711 12.3927 42.5763 12.6172 42.4415C12.8418 42.3293 13.0887 42.2619 13.3806 42.2619C13.6724 42.2619 13.9418 42.3293 14.1439 42.4191C14.346 42.5314 14.5256 42.711 14.6827 42.9579V40.5781H15.3787V45.203C15.3787 45.3826 15.3787 45.5847 15.3787 45.7867C15.3787 45.9888 15.3787 46.1908 15.4011 46.3704H14.7276ZM14.6827 44.3723C14.6827 44.1927 14.6603 43.9907 14.6154 43.7886C14.5705 43.5865 14.5031 43.4294 14.4133 43.2722C14.3235 43.1151 14.1888 43.0028 14.0316 42.913C13.8745 42.8232 13.6949 42.7783 13.4704 42.7783C13.2459 42.7783 13.0663 42.8232 12.9316 42.9355C12.7968 43.0253 12.6846 43.16 12.5948 43.3171C12.505 43.4743 12.4601 43.6314 12.4152 43.8335C12.3703 44.0131 12.3703 44.2152 12.3703 44.3948C12.3703 44.5968 12.3927 44.7764 12.4376 44.9785C12.4825 45.1581 12.5499 45.3377 12.6397 45.4949C12.7295 45.652 12.8642 45.7643 12.9989 45.8541C13.1561 45.9439 13.3357 45.9888 13.5602 45.9888C13.7847 45.9888 13.9643 45.9439 14.099 45.8541C14.2337 45.7643 14.346 45.6296 14.4358 45.4949C14.5256 45.3377 14.5929 45.1806 14.6154 44.9785C14.6603 44.7315 14.6827 44.5519 14.6827 44.3723Z" fill="#9D9D9C"/>
<path d="M16.6357 40.625H17.4215V41.3434H16.6357V40.625ZM16.6806 42.3537H17.3766V46.3724H16.6806V42.3537Z" fill="#9D9D9C"/>
<path d="M21.4182 46.3693V44.1466C21.4182 43.967 21.4182 43.8099 21.3958 43.6527C21.3733 43.4956 21.3509 43.3609 21.2835 43.2486C21.2161 43.1364 21.1263 43.0241 20.9916 42.9567C20.8569 42.8894 20.6998 42.8445 20.4753 42.8445C20.2508 42.8445 20.0712 42.8894 19.9364 42.9792C19.8017 43.069 19.6895 43.1813 19.5997 43.3384C19.5099 43.4731 19.465 43.6527 19.4201 43.8323C19.3752 44.0119 19.3752 44.1915 19.3752 44.3936V46.3917H18.6792V43.4058C18.6792 43.316 18.6792 43.2262 18.6792 43.1364C18.6792 43.0465 18.6792 42.9343 18.6792 42.8445C18.6792 42.7547 18.6792 42.6649 18.6792 42.5751C18.6792 42.4853 18.6792 42.4179 18.6792 42.373H19.3752L19.3976 43.0241C19.5548 42.7996 19.7568 42.62 19.9589 42.5077C20.161 42.3955 20.4079 42.3281 20.6998 42.3281C21.2161 42.3281 21.5978 42.4628 21.7999 42.7322C22.0244 43.0016 22.1142 43.3833 22.1142 43.8772V46.3693H21.4182Z" fill="#9D9D9C"/>
<path d="M25.9528 46.3702C25.9304 46.2804 25.9304 46.1906 25.9079 46.0784C25.8855 45.9661 25.8855 45.8763 25.8855 45.7865C25.7059 46.0335 25.5263 46.1906 25.3018 46.3029C25.0772 46.3927 24.8303 46.4376 24.5384 46.4376C24.3588 46.4376 24.1792 46.4151 23.9996 46.3702C23.82 46.3253 23.6853 46.258 23.5506 46.1457C23.4159 46.0559 23.3261 45.9212 23.2363 45.7865C23.1689 45.6293 23.124 45.4722 23.124 45.2477C23.124 44.9558 23.1914 44.7089 23.3485 44.5293C23.5057 44.3496 23.6853 44.2149 23.9098 44.1251C24.1343 44.0353 24.3813 43.968 24.6507 43.9455C24.9201 43.9231 25.1671 43.9006 25.414 43.9006C25.4814 43.9006 25.5487 43.9006 25.6161 43.9006C25.6834 43.9006 25.7508 43.9006 25.7957 43.9231V43.6761C25.7957 43.3618 25.7283 43.1373 25.5936 42.9577C25.4589 42.7781 25.2344 42.7107 24.8976 42.7107C24.6507 42.7107 24.4486 42.7556 24.3139 42.8679C24.1792 42.9801 24.0894 43.1597 24.067 43.4292H23.3934C23.3934 43.2047 23.4608 43.0251 23.5506 42.8903C23.6404 42.7332 23.7526 42.6209 23.8874 42.5311C24.0221 42.4413 24.1792 42.374 24.3588 42.3291C24.5384 42.2842 24.718 42.2617 24.8976 42.2617C25.414 42.2617 25.7957 42.374 26.0426 42.576C26.2896 42.8005 26.4243 43.1598 26.4243 43.6986V45.1803C26.4243 45.4497 26.4467 45.6967 26.4692 45.8988C26.4916 46.1233 26.5366 46.258 26.559 46.3478H25.9528V46.3702ZM25.8181 44.3497C25.7283 44.3497 25.661 44.3272 25.6161 44.3272H25.4589C25.3018 44.3272 25.1446 44.3272 24.9425 44.3497C24.7629 44.3721 24.5833 44.3946 24.4037 44.4619C24.2466 44.5293 24.0894 44.6191 23.9772 44.7313C23.8649 44.8436 23.82 45.0007 23.82 45.2252C23.82 45.3375 23.8424 45.4497 23.8874 45.562C23.9323 45.6518 23.9996 45.7416 24.0894 45.809C24.1792 45.8763 24.269 45.9212 24.3813 45.9437C24.4935 45.9661 24.6058 45.9886 24.718 45.9886C24.965 45.9886 25.1671 45.9437 25.3242 45.8539C25.4589 45.7641 25.5712 45.6293 25.661 45.4946C25.7283 45.3375 25.7957 45.1579 25.8181 44.9783C25.7957 44.7538 25.8181 44.5517 25.8181 44.3497Z" fill="#9D9D9C"/>
<path d="M30.5105 46.3724V44.1498C30.5105 43.9702 30.5105 43.813 30.488 43.6559C30.4656 43.4987 30.4431 43.364 30.3758 43.2293C30.3084 43.117 30.2186 43.0048 30.0839 42.9374C29.9492 42.8701 29.7921 42.8252 29.5676 42.8252C29.3655 42.8252 29.1859 42.8701 29.0512 42.9374C28.9165 43.0272 28.8042 43.117 28.7144 43.2517C28.6246 43.3865 28.5573 43.5436 28.5348 43.7008C28.4899 43.8804 28.4675 44.06 28.4675 44.2396V46.3724H27.7715V40.625H28.4675V42.9823C28.6246 42.7578 28.8042 42.5782 29.0287 42.466C29.2308 42.3537 29.4777 42.2864 29.7696 42.2864C30.039 42.2864 30.2635 42.3313 30.4431 42.3986C30.6227 42.466 30.7799 42.5782 30.8922 42.7129C31.0044 42.8476 31.0942 43.0048 31.1391 43.2068C31.184 43.4089 31.2065 43.611 31.2065 43.8804V46.3724H30.5105Z" fill="#9D9D9C"/>
<path d="M38.2339 46.3695C38.1441 46.145 38.0767 45.898 38.0767 45.6735C38.0543 45.4266 38.0318 45.2021 38.0094 44.9551C37.9869 44.753 37.9645 44.551 37.942 44.3938C37.9196 44.2367 37.8747 44.102 37.8073 44.0122C37.74 43.8999 37.6277 43.8326 37.493 43.7876C37.3583 43.7427 37.1562 43.7203 36.9317 43.7203H35.6969V46.3919H34.9561V40.6445H36.9991C37.2236 40.6445 37.4705 40.667 37.6951 40.7119C37.9196 40.7568 38.1216 40.8241 38.3237 40.9364C38.5033 41.0486 38.6604 41.1833 38.7727 41.363C38.885 41.5426 38.9523 41.7671 38.9523 42.0589C38.9523 42.4406 38.84 42.7325 38.638 42.957C38.4359 43.1815 38.1441 43.3386 37.8073 43.4284C37.9869 43.4733 38.1441 43.5182 38.2563 43.5856C38.3686 43.6529 38.4808 43.7428 38.5482 43.8326C38.6155 43.9224 38.6829 44.0571 38.7053 44.1693C38.7502 44.304 38.7727 44.4387 38.7727 44.5959C38.7951 44.7755 38.8176 44.9775 38.8176 45.1796C38.8176 45.3817 38.8625 45.5837 38.9074 45.8082C38.9299 45.9205 38.9523 46.0103 38.9748 46.1001C38.9972 46.1899 39.0421 46.2797 39.087 46.347H38.2339V46.3695ZM38.1441 42.1263C38.1441 41.9242 38.0992 41.7671 38.0318 41.6324C37.9645 41.5201 37.8522 41.4079 37.7175 41.3405C37.5828 41.2731 37.4481 41.2283 37.2909 41.2058C37.1338 41.1834 36.9766 41.1834 36.797 41.1834H35.652V43.1366H36.595C36.7746 43.1366 36.9542 43.1366 37.1338 43.1141C37.3134 43.0917 37.493 43.0468 37.6277 42.9794C37.7849 42.9121 37.8971 42.7998 37.9869 42.6651C38.0992 42.5304 38.1441 42.3508 38.1441 42.1263Z" fill="#9D9D9C"/>
<path d="M40.569 44.4853V44.5751C40.569 44.7548 40.5915 44.9344 40.6364 45.114C40.6813 45.2936 40.7711 45.4283 40.8609 45.563C40.9507 45.6977 41.0854 45.8099 41.2426 45.8773C41.3997 45.9446 41.5793 45.9895 41.7814 45.9895C42.0732 45.9895 42.2977 45.8997 42.4773 45.7426C42.657 45.5854 42.7692 45.3609 42.8141 45.0691H43.4876C43.3978 45.5405 43.2182 45.8997 42.8815 46.1242C42.5672 46.3488 42.1855 46.461 41.714 46.461C41.3997 46.461 41.1303 46.4161 40.9058 46.3039C40.6813 46.2141 40.4792 46.0569 40.3221 45.8773C40.1649 45.6977 40.0527 45.4732 39.9853 45.2262C39.9179 44.9793 39.873 44.7098 39.873 44.418C39.873 44.1261 39.9179 43.8343 39.9853 43.5649C40.0527 43.2954 40.1874 43.0709 40.3445 42.8913C40.5017 42.6893 40.7037 42.5546 40.9282 42.4423C41.1752 42.3301 41.4446 42.2852 41.7814 42.2852C42.1181 42.2852 42.3875 42.3525 42.6121 42.4648C42.8366 42.577 43.0162 42.7566 43.1509 42.9587C43.2856 43.1607 43.3754 43.3852 43.4203 43.6547C43.4652 43.9241 43.5101 44.1935 43.5101 44.4853H40.569ZM42.8141 44.0139C42.8141 43.8567 42.7917 43.6996 42.7468 43.5424C42.7019 43.3852 42.6345 43.2505 42.5447 43.1383C42.4549 43.026 42.3426 42.9362 42.2079 42.8464C42.0732 42.7791 41.9161 42.7342 41.7365 42.7342C41.5569 42.7342 41.3997 42.7791 41.2426 42.8464C41.1078 42.9138 40.9956 43.0036 40.8833 43.1383C40.7935 43.2505 40.7037 43.3852 40.6588 43.5424C40.6139 43.6996 40.569 43.8567 40.5466 44.0139H42.8141Z" fill="#9D9D9C"/>
<path d="M48.0452 42.3525C48.0227 42.577 48.0227 42.824 48.0227 43.0485C48.0227 43.273 48.0227 43.52 48.0227 43.7445V45.2262C48.0227 45.6079 48.0003 45.9671 47.9778 46.3039C47.9554 46.6406 47.888 46.9325 47.7533 47.1794C47.641 47.4264 47.439 47.6285 47.192 47.7632C46.9451 47.8979 46.5859 47.9652 46.1368 47.9652C45.9348 47.9652 45.7327 47.9428 45.5307 47.9203C45.3286 47.8754 45.149 47.8305 44.9918 47.7183C44.8347 47.6285 44.7 47.4938 44.6102 47.3366C44.5204 47.1794 44.453 46.9774 44.453 46.7304H45.1265C45.1265 46.8651 45.149 46.9998 45.2164 47.0896C45.2837 47.1794 45.3511 47.2692 45.4409 47.3142C45.5307 47.3815 45.6429 47.4039 45.7552 47.4489C45.8674 47.4713 46.0021 47.4938 46.1144 47.4938C46.3164 47.4938 46.4961 47.4713 46.6532 47.4039C46.7879 47.3366 46.9226 47.2692 47.0124 47.157C47.1022 47.0447 47.1696 46.9325 47.2145 46.7753C47.2594 46.6182 47.3043 46.461 47.3043 46.2814C47.3043 46.1692 47.3267 46.0569 47.3267 45.9446V45.6079C47.0124 46.0793 46.5859 46.3263 46.0021 46.3263C45.7103 46.3263 45.4409 46.2814 45.2164 46.1692C44.9918 46.0569 44.8122 45.9222 44.6775 45.7426C44.5204 45.563 44.4306 45.3385 44.3408 45.0915C44.2734 44.8446 44.2285 44.5751 44.2285 44.3057C44.2285 44.0363 44.2734 43.7894 44.3408 43.5424C44.4081 43.2954 44.5204 43.0709 44.6775 42.8913C44.8122 42.7117 45.0143 42.5546 45.2164 42.4423C45.4409 42.3301 45.6878 42.2852 45.9797 42.2852C46.5859 42.2852 47.0349 42.5321 47.3492 43.0485V42.375H48.0452V42.3525ZM47.3267 44.2608C47.3267 44.0812 47.3043 43.9016 47.2594 43.722C47.2145 43.5424 47.1471 43.3853 47.0573 43.2281C46.9675 43.0934 46.8328 42.9587 46.6981 42.8689C46.541 42.7791 46.3838 42.7342 46.1817 42.7342C45.9572 42.7342 45.7776 42.7791 45.6205 42.8689C45.4633 42.9587 45.3511 43.0934 45.2613 43.2281C45.1714 43.3853 45.1041 43.5424 45.0592 43.722C45.0143 43.9016 44.9918 44.1037 44.9918 44.2833C44.9918 44.4629 45.0143 44.665 45.0592 44.8446C45.1041 45.0242 45.1714 45.1813 45.2613 45.3385C45.3511 45.4732 45.4858 45.6079 45.6205 45.6977C45.7776 45.7875 45.9572 45.8324 46.1817 45.8324C46.4062 45.8324 46.5859 45.7875 46.743 45.6977C46.9002 45.6079 47.0124 45.4732 47.1022 45.3385C47.192 45.1813 47.2594 45.0242 47.3043 44.8221C47.3043 44.6425 47.3267 44.4629 47.3267 44.2608Z" fill="#9D9D9C"/>
<path d="M49.2798 40.625H50.0656V41.3434H49.2798V40.625ZM49.3247 42.3537H50.0207V46.3724H49.3247V42.3537Z" fill="#9D9D9C"/>
<path d="M55.0046 44.3497C55.0046 44.6415 54.9597 44.9334 54.8699 45.1803C54.7801 45.4273 54.6453 45.6518 54.4882 45.8539C54.3086 46.0559 54.1065 46.1906 53.8596 46.3029C53.6126 46.4151 53.3432 46.46 53.0289 46.46C52.7146 46.46 52.4227 46.4151 52.1758 46.3029C51.9288 46.1906 51.7267 46.0559 51.5471 45.8539C51.39 45.6743 51.2553 45.4497 51.1655 45.1803C51.0757 44.9109 51.0308 44.6415 51.0308 44.3272C51.0308 44.0129 51.0757 43.7435 51.1655 43.4965C51.2553 43.2496 51.39 43.025 51.5471 42.8454C51.7267 42.6658 51.9288 42.5087 52.1758 42.4189C52.4227 42.3066 52.7146 42.2617 53.0289 42.2617C53.3432 42.2617 53.6351 42.3066 53.882 42.4189C54.129 42.5087 54.331 42.6658 54.5106 42.8454C54.6678 43.025 54.8025 43.2496 54.8923 43.4965C54.9597 43.7435 55.0046 44.0353 55.0046 44.3497ZM54.2637 44.3497C54.2637 44.1476 54.2412 43.968 54.1963 43.7659C54.1514 43.5863 54.0841 43.4067 53.9718 43.2496C53.882 43.0924 53.7473 42.9802 53.5902 42.8903C53.433 42.8005 53.2309 42.7556 53.0064 42.7556C52.7819 42.7556 52.6023 42.8005 52.4227 42.8903C52.2656 42.9802 52.1309 43.0924 52.041 43.2496C51.9512 43.4067 51.8614 43.5639 51.8165 43.7659C51.7716 43.9455 51.7492 44.1476 51.7492 44.3497C51.7492 44.5517 51.7716 44.7313 51.8165 44.9334C51.8614 45.1354 51.9288 45.2926 52.041 45.4497C52.1309 45.6069 52.2656 45.7416 52.4227 45.8314C52.5799 45.9212 52.7819 45.9886 53.0064 45.9886C53.2309 45.9886 53.4105 45.9437 53.5677 45.8314C53.7249 45.7416 53.8596 45.6069 53.9494 45.4497C54.0392 45.2926 54.129 45.113 54.1739 44.9109C54.2412 44.7313 54.2637 44.5293 54.2637 44.3497Z" fill="#9D9D9C"/>
<path d="M58.7312 46.3693V44.1466C58.7312 43.967 58.7312 43.8099 58.7087 43.6527C58.6863 43.4956 58.6638 43.3609 58.5965 43.2486C58.5291 43.1364 58.4393 43.0241 58.3046 42.9567C58.1699 42.8894 58.0128 42.8445 57.7883 42.8445C57.5637 42.8445 57.3841 42.8894 57.2494 42.9792C57.1147 43.069 57.0025 43.1813 56.9127 43.3384C56.8229 43.4731 56.778 43.6527 56.7331 43.8323C56.6882 44.0119 56.6882 44.1915 56.6882 44.3936V46.3917H55.9922V43.4058C55.9922 43.316 55.9922 43.2262 55.9922 43.1364C55.9922 43.0465 55.9922 42.9343 55.9922 42.8445C55.9922 42.7547 55.9922 42.6649 55.9922 42.5751C55.9922 42.4853 55.9922 42.4179 55.9922 42.373H56.6882L56.7106 43.0241C56.8678 42.7996 57.0698 42.62 57.2719 42.5077C57.4739 42.3955 57.7433 42.3281 58.0352 42.3281C58.5516 42.3281 58.9332 42.4628 59.1353 42.7322C59.3598 43.0016 59.4496 43.3833 59.4496 43.8772V46.3693H58.7312Z" fill="#9D9D9C"/>
<path d="M63.2663 46.3702C63.2439 46.2804 63.2439 46.1906 63.2214 46.0784C63.199 45.9661 63.199 45.8763 63.199 45.7865C63.0193 46.0335 62.8397 46.1906 62.6152 46.3029C62.3907 46.3927 62.1438 46.4376 61.8519 46.4376C61.6723 46.4376 61.4927 46.4151 61.3131 46.3702C61.1335 46.3253 60.9988 46.258 60.8641 46.1457C60.7294 46.0559 60.6396 45.9212 60.5498 45.7865C60.4824 45.6293 60.4375 45.4722 60.4375 45.2477C60.4375 44.9558 60.5049 44.7089 60.662 44.5293C60.8192 44.3496 60.9988 44.2149 61.2233 44.1251C61.4478 44.0353 61.6947 43.968 61.9642 43.9455C62.2336 43.9231 62.503 43.9006 62.7275 43.9006C62.7948 43.9006 62.8622 43.9006 62.9295 43.9006C62.9969 43.9006 63.0642 43.9006 63.1091 43.9231V43.6761C63.1091 43.3618 63.0418 43.1373 62.9071 42.9577C62.7724 42.7781 62.5479 42.7107 62.2111 42.7107C61.9642 42.7107 61.7621 42.7556 61.6274 42.8679C61.4927 42.9801 61.4029 43.1597 61.3804 43.4292H60.7069C60.7069 43.2047 60.7743 43.0251 60.8641 42.8903C60.9539 42.7332 61.0661 42.6209 61.2008 42.5311C61.3355 42.4413 61.4927 42.374 61.6723 42.3291C61.8519 42.2842 62.0315 42.2617 62.2111 42.2617C62.7275 42.2617 63.1092 42.374 63.3561 42.576C63.6031 42.8005 63.7378 43.1598 63.7378 43.6986V45.1803C63.7378 45.4497 63.7602 45.6967 63.7827 45.8988C63.8051 46.1233 63.85 46.258 63.8725 46.3478H63.2663V46.3702ZM63.1316 44.3497C63.0418 44.3497 62.9744 44.3272 62.9295 44.3272H62.7724C62.6152 44.3272 62.4581 44.3272 62.256 44.3497C62.0764 44.3721 61.8968 44.3946 61.7172 44.4619C61.56 44.5293 61.4029 44.6191 61.2906 44.7313C61.1784 44.8436 61.1335 45.0007 61.1335 45.2252C61.1335 45.3375 61.1559 45.4497 61.2008 45.562C61.2457 45.6518 61.3131 45.7416 61.4029 45.809C61.4927 45.8763 61.5825 45.9212 61.6947 45.9437C61.807 45.9661 61.9193 45.9886 62.0315 45.9886C62.2785 45.9886 62.4805 45.9437 62.6377 45.8539C62.7724 45.7641 62.8846 45.6293 62.9744 45.4946C63.0418 45.3375 63.1092 45.1579 63.1316 44.9783C63.1092 44.7538 63.1316 44.5517 63.1316 44.3497Z" fill="#9D9D9C"/>
<path d="M65.7809 40.625H65.085V46.3724H65.7809V40.625Z" fill="#9D9D9C"/>
<path d="M74.9634 46.3724V41.1863L72.9204 46.3724H72.2468L70.2038 41.1863V46.3724H69.5303V40.625H70.7202L72.6285 45.4744L74.4695 40.625H75.6594V46.3724H74.9634Z" fill="#9D9D9C"/>
<path d="M79.8357 46.3693L79.8132 45.7407C79.6336 45.9652 79.454 46.1448 79.2519 46.257C79.0499 46.3693 78.8029 46.4142 78.5111 46.4142C78.2417 46.4142 78.0172 46.3693 77.8375 46.3019C77.6579 46.2346 77.5008 46.1223 77.3885 45.9876C77.2763 45.8529 77.1865 45.6957 77.1416 45.4937C77.0967 45.2916 77.0742 45.0896 77.0742 44.8202V42.3281H77.7702V44.5508C77.7702 44.7304 77.7702 44.8875 77.7926 45.0447C77.8151 45.2018 77.86 45.3365 77.9049 45.4712C77.9722 45.5835 78.0621 45.6957 78.1968 45.7631C78.3315 45.8305 78.4886 45.8754 78.7131 45.8754C78.9152 45.8754 79.0948 45.8305 79.2519 45.7631C79.3867 45.6957 79.4989 45.5835 79.5887 45.4488C79.6785 45.3141 79.7459 45.1569 79.7683 44.9998C79.8132 44.8426 79.8357 44.663 79.8357 44.461V42.3281H80.5316V44.2814V45.3141C80.5316 45.6508 80.5316 46.0101 80.5541 46.3468H79.8357V46.3693Z" fill="#9D9D9C"/>
<path d="M84.5495 46.3693V44.1466C84.5495 43.967 84.5495 43.8099 84.5271 43.6527C84.5046 43.4956 84.4822 43.3609 84.4148 43.2486C84.3475 43.1364 84.2577 43.0241 84.123 42.9567C83.9883 42.8894 83.8311 42.8445 83.6066 42.8445C83.3821 42.8445 83.2025 42.8894 83.0678 42.9792C82.9331 43.069 82.8208 43.1813 82.731 43.3384C82.6412 43.4731 82.5963 43.6527 82.5514 43.8323C82.5065 44.0119 82.5065 44.1915 82.5065 44.3936V46.3917H81.8105V43.4058C81.8105 43.316 81.8105 43.2262 81.8105 43.1364C81.8105 43.0465 81.8105 42.9343 81.8105 42.8445C81.8105 42.7547 81.8105 42.6649 81.8105 42.5751C81.8105 42.4853 81.8105 42.4179 81.8105 42.373H82.5065L82.529 43.0241C82.6861 42.7996 82.8882 42.62 83.0902 42.5077C83.2923 42.3955 83.5393 42.3281 83.8311 42.3281C84.3475 42.3281 84.7292 42.4628 84.9312 42.7322C85.1557 43.0016 85.2455 43.3833 85.2455 43.8772V46.3693H84.5495Z" fill="#9D9D9C"/>
<path d="M86.4805 40.625H87.2662V41.3434H86.4805V40.625ZM86.5254 42.3537H87.2213V46.3724H86.5254V42.3537Z" fill="#9D9D9C"/>
<path d="M91.7113 45.6508C91.6215 45.8304 91.4868 45.9876 91.3521 46.0998C91.195 46.2121 91.0154 46.3019 90.8357 46.3692C90.6337 46.4366 90.4316 46.459 90.1847 46.459C89.8704 46.459 89.5785 46.4141 89.354 46.3019C89.107 46.2121 88.905 46.0549 88.7478 45.8753C88.5907 45.6957 88.456 45.4712 88.3662 45.2242C88.2763 44.9773 88.2314 44.6854 88.2314 44.3936C88.2314 44.0793 88.2763 43.8098 88.3662 43.5404C88.456 43.271 88.5682 43.0465 88.7478 42.8445C88.905 42.6424 89.1295 42.5077 89.3764 42.3954C89.6234 42.2832 89.9153 42.2383 90.2296 42.2383C90.6786 42.2383 91.0603 42.3505 91.3521 42.575C91.644 42.7996 91.8236 43.1588 91.8685 43.6302H91.195C91.1725 43.3384 91.0827 43.1139 90.9255 42.9567C90.7684 42.7996 90.5439 42.7098 90.252 42.7098C90.0051 42.7098 89.8255 42.7547 89.6459 42.8445C89.4887 42.9343 89.354 43.069 89.2642 43.2261C89.1744 43.3833 89.107 43.5629 89.0621 43.7425C89.0172 43.9445 88.9948 44.1466 88.9948 44.3487C88.9948 44.5507 89.0172 44.7303 89.0621 44.9324C89.107 45.1344 89.1744 45.2916 89.2642 45.4488C89.354 45.6059 89.4887 45.7182 89.6459 45.8304C89.803 45.9202 89.9826 45.9651 90.2071 45.9651C90.499 45.9651 90.7459 45.8753 90.9255 45.6957C91.1052 45.5161 91.195 45.2916 91.2174 44.9997H91.8685H91.8909C91.8685 45.2691 91.8011 45.4712 91.7113 45.6508Z" fill="#9D9D9C"/>
<path d="M92.7446 40.625H93.5304V41.3434H92.7446V40.625ZM92.7895 42.3537H93.4855V46.3724H92.7895V42.3537Z" fill="#9D9D9C"/>
<path d="M98.5593 44.3047C98.5593 44.5742 98.5144 44.8436 98.4471 45.0905C98.3797 45.3375 98.2675 45.5844 98.1103 45.7641C97.9532 45.9437 97.7736 46.1233 97.549 46.2355C97.3245 46.3478 97.0551 46.4151 96.7633 46.4151C96.4714 46.4151 96.2245 46.3702 96.0448 46.258C95.8428 46.1457 95.6632 45.9661 95.506 45.7416V47.852H94.81V43.4741C94.81 43.2945 94.81 43.0924 94.81 42.9128C94.81 42.7107 94.81 42.5311 94.7876 42.3291H95.4836L95.506 43.025C95.6632 42.7556 95.8428 42.576 96.0673 42.4413C96.2918 42.3291 96.5612 42.2617 96.8755 42.2617C97.1674 42.2617 97.4144 42.3291 97.6389 42.4189C97.8634 42.5311 98.0205 42.6883 98.1777 42.8679C98.3124 43.0475 98.4246 43.272 98.492 43.519C98.5144 43.7884 98.5593 44.0353 98.5593 44.3047ZM97.8185 44.3497C97.8185 44.17 97.796 43.9904 97.7736 43.8108C97.7287 43.6312 97.6838 43.4516 97.594 43.2945C97.5042 43.1373 97.3919 43.025 97.2572 42.9128C97.1225 42.823 96.9429 42.7556 96.7184 42.7556C96.4939 42.7556 96.3143 42.8005 96.1571 42.8903C95.9999 42.9801 95.8877 43.1148 95.7979 43.2496C95.7081 43.4067 95.6407 43.5639 95.5958 43.7659C95.5509 43.9455 95.5285 44.1476 95.5285 44.3272C95.5285 44.5068 95.5509 44.6864 95.5734 44.8885C95.6183 45.0681 95.6632 45.2477 95.753 45.4048C95.8428 45.562 95.955 45.6742 96.0897 45.7641C96.2244 45.8539 96.4041 45.8988 96.6286 45.8988C96.8531 45.8988 97.0551 45.8539 97.2123 45.7641C97.3694 45.6742 97.4817 45.5395 97.5715 45.4048C97.6613 45.2477 97.7287 45.0905 97.7736 44.8885C97.796 44.7313 97.8185 44.5293 97.8185 44.3497Z" fill="#9D9D9C"/>
<path d="M102.107 46.3702C102.084 46.2804 102.084 46.1906 102.062 46.0784C102.039 45.9661 102.039 45.8763 102.039 45.7865C101.86 46.0335 101.68 46.1906 101.456 46.3029C101.231 46.3927 100.984 46.4376 100.692 46.4376C100.513 46.4376 100.333 46.4151 100.153 46.3702C99.9738 46.3253 99.8391 46.258 99.7044 46.1457C99.5697 46.0559 99.4799 45.9212 99.3901 45.7865C99.3227 45.6293 99.2778 45.4722 99.2778 45.2477C99.2778 44.9558 99.3452 44.7089 99.5023 44.5293C99.6595 44.3496 99.8391 44.2149 100.064 44.1251C100.288 44.0353 100.535 43.968 100.804 43.9455C101.074 43.9231 101.321 43.9006 101.568 43.9006C101.635 43.9006 101.703 43.9006 101.77 43.9006C101.837 43.9006 101.905 43.9006 101.949 43.9231V43.6761C101.949 43.3618 101.882 43.1373 101.747 42.9577C101.613 42.7781 101.388 42.7107 101.051 42.7107C100.804 42.7107 100.602 42.7556 100.468 42.8679C100.333 42.9801 100.243 43.1597 100.221 43.4292H99.5472C99.5472 43.2047 99.6146 43.0251 99.7044 42.8903C99.7942 42.7332 99.9065 42.6209 100.041 42.5311C100.176 42.4413 100.333 42.374 100.513 42.3291C100.692 42.2842 100.872 42.2617 101.051 42.2617C101.568 42.2617 101.949 42.374 102.196 42.576C102.443 42.8005 102.578 43.1598 102.578 43.6986V45.1803C102.578 45.4497 102.601 45.6967 102.623 45.8988C102.645 46.1233 102.69 46.258 102.713 46.3478H102.107V46.3702ZM101.949 44.3497C101.86 44.3497 101.792 44.3272 101.747 44.3272H101.59C101.433 44.3272 101.254 44.3272 101.074 44.3497C100.872 44.3721 100.715 44.3946 100.535 44.4619C100.378 44.5293 100.221 44.6191 100.109 44.7313C99.9963 44.8436 99.9514 45.0007 99.9514 45.2252C99.9514 45.3375 99.9738 45.4497 100.019 45.562C100.064 45.6518 100.131 45.7416 100.221 45.809C100.311 45.8763 100.4 45.9212 100.513 45.9437C100.625 45.9661 100.737 45.9886 100.849 45.9886C101.096 45.9886 101.298 45.9437 101.456 45.8539C101.59 45.7641 101.703 45.6293 101.792 45.4946C101.86 45.3375 101.927 45.1579 101.949 44.9783C101.949 44.7538 101.949 44.5517 101.949 44.3497Z" fill="#9D9D9C"/>
<path d="M104.621 40.625H103.925V46.3724H104.621V40.625Z" fill="#9D9D9C"/>
<path d="M105.9 40.625H106.686V41.3434H105.9V40.625ZM105.923 42.3537H106.619V46.3724H105.923V42.3537Z" fill="#9D9D9C"/>
<path d="M109.178 46.4137C108.864 46.4137 108.617 46.3463 108.438 46.1892C108.28 46.0545 108.191 45.8075 108.191 45.4708V42.8216H107.405V42.3276H108.191V41.5419L108.887 41.25V42.3276H109.785V42.8216H108.887V45.2014C108.887 45.3136 108.887 45.4259 108.909 45.5157C108.909 45.6055 108.954 45.6728 108.976 45.7177C109.021 45.7626 109.066 45.8075 109.134 45.83C109.201 45.8524 109.291 45.8749 109.425 45.8749C109.493 45.8749 109.56 45.8749 109.605 45.8524C109.672 45.8524 109.717 45.83 109.807 45.83V46.3688C109.583 46.3912 109.38 46.4137 109.178 46.4137Z" fill="#9D9D9C"/>
<path d="M111.872 47.8745H111.176L111.827 46.3703L110.121 42.3516H110.929L112.187 45.6294L113.444 42.3516H114.162L111.872 47.8745Z" fill="#9D9D9C"/>
<path d="M3.0306 25.4681C3.18776 25.3109 3.27756 25.1089 3.27756 24.8844C3.27756 24.6599 3.18776 24.4578 3.0306 24.2782C2.87345 24.121 2.67139 24.0312 2.42443 24.0312C2.19992 24.0312 1.99786 24.121 1.84071 24.2782C1.68355 24.4578 1.59375 24.6374 1.59375 24.8844C1.59375 25.1089 1.68355 25.3109 1.84071 25.4681C1.99786 25.6477 2.19992 25.7151 2.42443 25.7151C2.67139 25.7375 2.87345 25.6477 3.0306 25.4681Z" fill="#007167"/>
<path d="M0.740878 27.983C0.246959 28.5218 0 29.3076 0 30.3404V32.6977H6.37604V31.2608H4.82693H4.0187H1.54911V30.4751C1.54911 29.8464 1.68381 29.375 1.97567 29.0607C2.26754 28.7464 2.71655 28.5892 3.34518 28.5892H4.80448V30.5873H6.35359V27.1523H3.03086C1.99813 27.1523 1.2348 27.4217 0.740878 27.983Z" fill="#007167"/>
<path d="M4.60252 25.7385C4.82703 25.7385 5.02909 25.6487 5.18624 25.4915C5.36585 25.3119 5.4332 25.1323 5.4332 24.9078C5.4332 24.6833 5.3434 24.4813 5.18624 24.3016C5.02909 24.1445 4.82703 24.0547 4.60252 24.0547C4.44537 24.0547 4.31066 24.0996 4.17596 24.1669C4.04125 24.2567 3.929 24.3466 3.86164 24.4813C3.77184 24.616 3.74939 24.7507 3.74939 24.9078C3.74939 25.065 3.79429 25.1997 3.86164 25.3344C3.95145 25.4691 4.04125 25.5813 4.17596 25.6487C4.31066 25.6936 4.46782 25.7385 4.60252 25.7385Z" fill="#007167"/>
<path d="M9.42969 32.6528C9.42969 33.2814 9.29498 33.7529 9.00312 34.0897C8.71126 34.4264 8.28469 34.606 7.72342 34.606H7.25195V36.0653H7.83567C8.89086 36.0653 9.67664 35.7735 10.193 35.1673C10.7094 34.5836 10.9788 33.7529 10.9788 32.6977V27.1523H9.42969V32.6528Z" fill="#007167"/>
<path d="M27.0756 25.7385C27.3001 25.7385 27.5021 25.6487 27.6817 25.4915C27.8389 25.3344 27.9287 25.1323 27.9287 24.9078C27.9287 24.6609 27.8389 24.4588 27.6817 24.3016C27.5246 24.1445 27.3225 24.0547 27.0756 24.0547C26.851 24.0547 26.649 24.1445 26.4918 24.3016C26.3347 24.4813 26.2449 24.6833 26.2449 24.9078C26.2449 25.1323 26.3347 25.3344 26.4918 25.4915C26.649 25.6487 26.851 25.7385 27.0756 25.7385Z" fill="#007167"/>
<path d="M47.2142 31.2632H45.0141H41.5791H40.5688V30.3427C40.5688 29.31 40.3218 28.5242 39.8279 27.9854C39.334 27.4466 38.5707 27.1772 37.5379 27.1772H34.1927V31.2632H32.2395H28.8045H27.8392V27.1772H26.3125V31.2632H24.0899H20.6549H19.6446V27.1772H16.2994C15.2667 27.1772 14.5034 27.4466 14.0094 27.9854C13.5155 28.5242 13.2686 29.31 13.2686 30.3427V32.7001H18.0955C18.0955 33.1715 18.0506 33.5532 17.9608 33.8226C17.871 34.092 17.6914 34.2941 17.4444 34.4288C17.1975 34.5635 16.8382 34.6308 16.3892 34.6308H14.3462V36.0677H16.6362C17.7138 36.0677 18.4772 35.7758 18.9262 35.1921C19.3752 34.6084 19.6221 33.7777 19.6446 32.6776H20.6773H24.1123H28.827H32.262H41.6015H45.0365H48.7858V23.7422H47.2367V31.2632H47.2142ZM18.073 31.2632H14.7952V30.4774C14.7952 29.8488 14.9299 29.3774 15.2218 29.063C15.5136 28.7487 15.9627 28.5916 16.5913 28.5916H18.0506V31.2632H18.073ZM38.9972 31.2632H35.7194V28.5916H37.1787C37.8073 28.5916 38.2563 28.7487 38.5482 29.063C38.8401 29.3774 38.9748 29.8488 38.9748 30.4774V31.2632H38.9972Z" fill="#007167"/>
<path d="M52.4231 23.7422H50.874V32.6776H52.4231V23.7422Z" fill="#007167"/>
<path d="M59.3822 24.2782C59.2251 24.4354 59.1353 24.6374 59.1353 24.8844C59.1353 25.1089 59.2251 25.3109 59.3822 25.4681C59.5394 25.6477 59.7414 25.7151 59.9659 25.7151C60.1904 25.7151 60.3925 25.6253 60.5721 25.4681C60.7293 25.2885 60.8191 25.1089 60.8191 24.8844C60.8191 24.6599 60.7293 24.4578 60.5721 24.2782C60.415 24.121 60.2129 24.0312 59.9659 24.0312C59.7414 24.0312 59.5394 24.121 59.3822 24.2782Z" fill="#007167"/>
<path d="M61.7176 24.1425C61.5829 24.2323 61.4706 24.3221 61.4033 24.4568C61.3135 24.5915 61.291 24.7262 61.291 24.8834C61.291 25.0406 61.3359 25.1753 61.4033 25.31C61.4931 25.4447 61.5829 25.5569 61.7176 25.6243C61.8523 25.6916 61.987 25.7365 62.1442 25.7365C62.3687 25.7365 62.5707 25.6467 62.7279 25.4896C62.9075 25.31 62.9748 25.1304 62.9748 24.9059C62.9748 24.6813 62.885 24.4793 62.7279 24.2997C62.5707 24.1425 62.3687 24.0527 62.1442 24.0527C61.987 24.0303 61.8523 24.0752 61.7176 24.1425Z" fill="#007167"/>
<path d="M71.3712 25.7385C71.5957 25.7385 71.7977 25.6487 71.9773 25.4915C72.1345 25.3344 72.2243 25.1323 72.2243 24.9078C72.2243 24.6609 72.1345 24.4588 71.9773 24.3016C71.8202 24.1445 71.6181 24.0547 71.3712 24.0547C71.1466 24.0547 70.9446 24.1445 70.7874 24.3016C70.6303 24.4813 70.5405 24.6833 70.5405 24.9078C70.5405 25.1323 70.6303 25.3344 70.7874 25.4915C70.9446 25.6487 71.1466 25.7385 71.3712 25.7385Z" fill="#007167"/>
<path d="M80.6212 33.6641C80.464 33.6641 80.3293 33.709 80.1946 33.7763C80.0599 33.8661 79.9477 33.9559 79.8803 34.0906C79.7905 34.2253 79.7681 34.36 79.7681 34.5172C79.7681 34.6519 79.813 34.7866 79.8803 34.9213C79.9701 35.056 80.0599 35.1458 80.1946 35.2356C80.3293 35.303 80.464 35.3479 80.6212 35.3479C80.7784 35.3479 80.9131 35.303 81.0478 35.2356C81.1825 35.1683 81.2947 35.056 81.3621 34.9213C81.4294 34.7866 81.4743 34.6519 81.4743 34.5172C81.4743 34.2702 81.3845 34.0682 81.2274 33.8886C81.0478 33.7314 80.8457 33.6641 80.6212 33.6641Z" fill="#007167"/>
<path d="M80.8455 27.1553H79.3188V31.2413H76.5125H73.0775H72.1121V27.1553H70.5854V31.2413H68.3628H64.9278H64.4339H63.9175H62.3684H61.5378H59.0906V30.4555C59.0906 29.8269 59.2253 29.3554 59.5172 29.0411C59.809 28.7268 60.2581 28.5697 60.8867 28.5697H62.3684V30.5678H63.9175V27.1328H60.5724C59.5396 27.1328 58.7763 27.4022 58.2824 27.941C57.7885 28.4799 57.5415 29.2656 57.5415 30.2984V32.6557H64.9278H68.3628H73.0775H76.5125H80.823V27.1553H80.8455Z" fill="#007167"/>
<path d="M78.4435 33.6641C78.219 33.6641 78.0169 33.7539 77.8598 33.911C77.7026 34.0906 77.6128 34.2927 77.6128 34.5396C77.6128 34.6743 77.6577 34.8091 77.725 34.9438C77.7924 35.0785 77.9047 35.1683 78.0394 35.2581C78.1741 35.3254 78.3088 35.3703 78.4659 35.3703C78.6904 35.3703 78.8925 35.2805 79.0721 35.1234C79.2293 34.9662 79.3191 34.7642 79.3191 34.5396C79.3191 34.2927 79.2293 34.0906 79.0721 33.911C78.87 33.7314 78.6904 33.6641 78.4435 33.6641Z" fill="#007167"/>
<path d="M108.931 31.2603H106.507H103.072H102.062V30.3398C102.062 29.3071 101.815 28.5213 101.321 27.9825C100.827 27.4437 100.063 27.1743 99.0307 27.1743H95.6855V31.2603H93.7323H90.2973H89.2646V30.25C89.2646 28.207 88.2767 27.1743 86.2786 27.1743H83.6518V28.6111H85.9194C86.548 28.6111 86.997 28.7458 87.2889 29.0377C87.5807 29.3295 87.7154 29.7561 87.7154 30.3398V31.2603H82.5293V32.6972H90.2973H93.7323H103.072H106.507H110.481V23.7617H108.931V31.2603ZM100.49 31.2603H97.2121V28.5887H98.6715C99.3001 28.5887 99.7715 28.7458 100.041 29.0601C100.333 29.3744 100.468 29.8459 100.468 30.4745V31.2603H100.49Z" fill="#007167"/>
<path d="M114.162 23.7422H112.613V32.6776H114.162V23.7422Z" fill="#007167"/>
<path d="M4.17608 10.47C4.31078 10.5373 4.44549 10.5823 4.60264 10.5823C4.82715 10.5823 5.02921 10.4925 5.18637 10.3353C5.36597 10.1781 5.43333 9.97608 5.43333 9.75157C5.43333 9.52707 5.34352 9.32501 5.18637 9.1454C5.02921 8.98824 4.82715 8.89844 4.60264 8.89844C4.44549 8.89844 4.31078 8.94334 4.17608 9.01069C4.04137 9.1005 3.92912 9.1903 3.86177 9.32501C3.77196 9.45971 3.74951 9.59442 3.74951 9.75157C3.74951 9.90873 3.79441 10.0434 3.86177 10.1781C3.92912 10.2904 4.04137 10.4026 4.17608 10.47Z" fill="#007167"/>
<path d="M2.42443 10.6057C2.64894 10.6057 2.851 10.5159 3.0306 10.3587C3.18776 10.2016 3.27756 9.99952 3.27756 9.77501C3.27756 9.5505 3.18776 9.34844 3.0306 9.16884C2.87345 9.01168 2.67139 8.92188 2.42443 8.92188C2.19992 8.92188 1.99786 9.01168 1.84071 9.16884C1.6611 9.32599 1.59375 9.52805 1.59375 9.77501C1.59375 9.99952 1.68355 10.2016 1.84071 10.3587C1.99786 10.5159 2.19992 10.6057 2.42443 10.6057Z" fill="#007167"/>
<path d="M18.2526 10.6057C18.4771 10.6057 18.6791 10.5159 18.8587 10.3587C19.0159 10.2016 19.1057 9.99952 19.1057 9.77501C19.1057 9.5505 19.0159 9.34844 18.8587 9.16884C18.7016 9.01168 18.4995 8.92188 18.2526 8.92188C18.028 8.92188 17.826 9.01168 17.6688 9.16884C17.5117 9.32599 17.4219 9.52805 17.4219 9.77501C17.4219 9.99952 17.5117 10.2016 17.6688 10.3587C17.8484 10.5159 18.028 10.6057 18.2526 10.6057Z" fill="#007167"/>
<path d="M20.0037 10.47C20.1384 10.5373 20.2731 10.5823 20.4303 10.5823C20.6548 10.5823 20.8568 10.4925 21.014 10.3353C21.1712 10.1781 21.261 9.97608 21.261 9.75157C21.261 9.52707 21.1712 9.32501 21.014 9.1454C20.8568 8.98824 20.6548 8.89844 20.4303 8.89844C20.2731 8.89844 20.1384 8.94334 20.0037 9.01069C19.869 9.1005 19.7568 9.1903 19.6894 9.32501C19.5996 9.45971 19.5771 9.59442 19.5771 9.75157C19.5771 9.90873 19.6221 10.0434 19.6894 10.1781C19.7568 10.2904 19.869 10.4026 20.0037 10.47Z" fill="#007167"/>
<path d="M52.5123 10.6057C52.7368 10.6057 52.9389 10.5159 53.1185 10.3587C53.2756 10.2016 53.3655 9.99952 53.3655 9.77501C53.3655 9.52805 53.2756 9.32599 53.1185 9.16884C52.9613 9.01168 52.7593 8.92188 52.5123 8.92188C52.2878 8.92188 52.0858 9.01168 51.9286 9.16884C51.7714 9.34844 51.6816 9.5505 51.6816 9.77501C51.6816 9.99952 51.7714 10.2016 51.9286 10.3587C52.0858 10.5159 52.2878 10.6057 52.5123 10.6057Z" fill="#007167"/>
<path d="M68.3853 17.5673V15.2099C68.3853 14.1772 68.1383 13.3914 67.6444 12.8526C67.1505 12.3138 66.3872 12.0444 65.3544 12.0444H62.0092V16.1304H60.056H54.2412H53.2759V12.0444H51.7492V16.1304H49.5266H44.4976H43.4648V15.1201C43.4648 13.0771 42.477 12.0444 40.4789 12.0444H34.3947V8.60938H32.8456V16.108H30.825H23.4162H22.4059V12.0219H19.0383C18.0056 12.0219 17.2423 12.2913 16.7483 12.8301C16.2544 13.369 16.0075 14.1547 16.0075 15.1875V16.108H14.0093H7.38633H6.89241H6.37604H4.82693H3.9738H1.52666V15.3446C1.52666 14.716 1.66136 14.2445 1.95322 13.9302C2.24508 13.6159 2.6941 13.4588 3.32272 13.4588H4.80448V15.4569H6.35359V12.0219H3.03086C1.99813 12.0219 1.2348 12.2913 0.740878 12.8301C0.246959 13.369 0 14.1547 0 15.1875V17.5448H7.38633H14.0093H23.3938H30.8026H44.4751H49.5041H54.2188H60.0336H68.3853V17.5673ZM63.5583 13.4588H65.0176C65.6463 13.4588 66.1177 13.6159 66.3872 13.9302C66.679 14.2445 66.8137 14.716 66.8137 15.3446V16.1304H63.5359V13.4588H63.5583ZM20.8344 16.1304H17.5566V15.3446C17.5566 14.716 17.6913 14.2445 17.9831 13.9302C18.275 13.6159 18.724 13.4588 19.3526 13.4588H20.8119V16.1304H20.8344ZM41.9157 16.1304H34.3947V13.4812H40.1197C40.7483 13.4812 41.1973 13.6159 41.4892 13.9078C41.781 14.1996 41.9157 14.6262 41.9157 15.2099V16.1304Z" fill="#007167"/>
<path d="M77.3436 10.47C77.4783 10.5373 77.613 10.5823 77.7701 10.5823C77.9946 10.5823 78.1967 10.4925 78.3538 10.3353C78.511 10.1781 78.6008 9.97608 78.6008 9.75157C78.6008 9.52707 78.511 9.32501 78.3538 9.1454C78.1967 8.98824 77.9946 8.89844 77.7701 8.89844C77.613 8.89844 77.4783 8.94334 77.3436 9.01069C77.2089 9.1005 77.0966 9.1903 77.0292 9.32501C76.9394 9.45971 76.917 9.59442 76.917 9.75157C76.917 9.90873 76.9619 10.0434 77.0292 10.1781C77.0966 10.2904 77.2089 10.4026 77.3436 10.47Z" fill="#007167"/>
<path d="M80.5533 17.5649H88.7703H92.5196V12.042H90.9929V16.128H88.7703H80.5533H80.2614H79.5206H77.9715H77.3428H74.6936V15.3423C74.6936 14.7136 74.8283 14.2422 75.1202 13.9279C75.4121 13.6135 75.8611 13.4564 76.4897 13.4564H77.949V15.4545H79.4981V12.0195H76.1529C75.1202 12.0195 74.3569 12.2889 73.8629 12.8278C73.369 13.3666 73.1221 14.1524 73.1221 15.1851V17.5424H80.5533V17.5649Z" fill="#007167"/>
<path d="M75.5919 10.6057C75.8164 10.6057 76.0185 10.5159 76.1981 10.3587C76.3552 10.2016 76.445 9.99952 76.445 9.77501C76.445 9.5505 76.3552 9.34844 76.1981 9.16884C76.0409 9.01168 75.8389 8.92188 75.5919 8.92188C75.3674 8.92188 75.1653 9.01168 75.0082 9.16884C74.8286 9.32599 74.7612 9.52805 74.7612 9.77501C74.7612 9.99952 74.851 10.2016 75.0082 10.3587C75.1878 10.5159 75.3674 10.6057 75.5919 10.6057Z" fill="#007167"/>
<path d="M91.7565 10.6057C91.981 10.6057 92.183 10.5159 92.3626 10.3587C92.5198 10.2016 92.6096 9.99952 92.6096 9.77501C92.6096 9.52805 92.5198 9.32599 92.3626 9.16884C92.2055 9.01168 92.0034 8.92188 91.7565 8.92188C91.532 8.92188 91.3299 9.01168 91.1727 9.16884C91.0156 9.34844 90.9258 9.5505 90.9258 9.77501C90.9258 9.99952 91.0156 10.2016 91.1727 10.3587C91.3299 10.5159 91.532 10.6057 91.7565 10.6057Z" fill="#007167"/>
<path d="M107.765 12.0219H104.419V16.108H100.872H97.4372H97.3025C96.9209 16.108 96.6514 16.0182 96.4718 15.8386C96.2922 15.6589 96.2024 15.3671 96.2024 14.9854V8.60938H94.6533V14.8283C94.6533 15.4793 94.7431 15.9957 94.9003 16.3998C95.0799 16.8039 95.3493 17.0958 95.7534 17.2754C96.1575 17.455 96.6963 17.5673 97.3699 17.5673H97.4372H100.872H110.795V15.2099C110.795 14.1772 110.549 13.3914 110.055 12.8526C109.561 12.2913 108.797 12.0219 107.765 12.0219ZM109.246 16.1304H105.969V13.4812H107.428C108.056 13.4812 108.506 13.6384 108.797 13.9527C109.089 14.267 109.224 14.7385 109.224 15.3671V16.1304H109.246Z" fill="#007167"/>
<path d="M114.162 8.60938H112.613V17.5448H114.162V8.60938Z" fill="#007167"/>
<path d="M113.31 7.26091V6.58739C113.31 6.40778 113.354 6.29552 113.422 6.20572C113.489 6.11592 113.601 6.09346 113.759 6.09346H114.477V5.46484H113.803C113.399 5.46484 113.085 5.55465 112.905 5.7118C112.726 5.89141 112.636 6.16082 112.636 6.56493V7.23846V7.84464H114.634V7.26091H113.31Z" fill="#007167"/>
</svg>
