<svg width="230" height="57" viewBox="0 0 230 57" fill="none" xmlns="http://www.w3.org/2000/svg">
<path d="M59.5953 44.4677C59.5385 44.4677 59.4979 44.4339 59.4735 44.3747L58.0374 41.2821H57.9401H56.1794C56.1388 41.2821 56.1226 41.299 56.1226 41.3412V44.3663C56.1226 44.4339 56.0901 44.4677 56.0171 44.4677H55.6357C55.5708 44.4677 55.5303 44.4339 55.5303 44.3663V37.4373C55.5303 37.3697 55.5627 37.3359 55.6276 37.3359H57.9319C58.581 37.3359 59.1003 37.5134 59.4654 37.8598C59.8387 38.2063 60.0172 38.6964 60.0172 39.3048C60.0172 39.8033 59.8955 40.2089 59.652 40.5385C59.4086 40.868 59.0597 41.0793 58.6216 41.1976L60.1145 44.3579C60.1308 44.3917 60.1389 44.417 60.1308 44.4424C60.1226 44.4593 60.0983 44.4762 60.0658 44.4762H59.5953V44.4677ZM57.9319 40.7075C58.4188 40.7075 58.792 40.5892 59.0597 40.3441C59.3194 40.0991 59.4492 39.7526 59.4492 39.2963C59.4492 38.8485 59.3194 38.502 59.0597 38.257C58.8001 38.0119 58.4269 37.8936 57.9319 37.8936H56.1875C56.1469 37.8936 56.1307 37.9105 56.1307 37.9528V40.6399C56.1307 40.6821 56.1469 40.699 56.1875 40.699H57.9319V40.7075Z" fill="#88774F"/>
<path d="M63.8954 44.5689C63.3275 44.5689 62.865 44.4337 62.4918 44.1633C62.1185 43.8929 61.8508 43.4958 61.6804 42.9634C61.6479 42.8705 61.6155 42.7691 61.5911 42.6508C61.5668 42.5325 61.5506 42.3973 61.5343 42.2452C61.5181 42.0847 61.5019 41.8988 61.4938 41.6875C61.4857 41.4678 61.4775 41.2059 61.4775 40.9017C61.4775 40.5975 61.4857 40.3355 61.4938 40.1158C61.5019 39.8961 61.5181 39.7102 61.5343 39.5581C61.5506 39.3976 61.5749 39.2624 61.5911 39.1525C61.6155 39.0427 61.6398 38.9328 61.6804 38.8399C61.8508 38.316 62.1185 37.9188 62.4918 37.64C62.865 37.3696 63.3356 37.2344 63.8954 37.2344C64.4553 37.2344 64.9178 37.3696 65.291 37.64C65.6642 37.9104 65.932 38.3075 66.1024 38.8399C66.1267 38.9413 66.1592 39.0427 66.1835 39.1525C66.2078 39.2624 66.2322 39.3976 66.2484 39.5581C66.2646 39.7187 66.2809 39.9046 66.289 40.1158C66.3052 40.3271 66.3052 40.589 66.3052 40.8932C66.3052 41.1974 66.2971 41.4678 66.289 41.6791C66.2809 41.8987 66.2646 42.0847 66.2484 42.2368C66.2322 42.3973 66.2078 42.5325 66.1835 42.6424C66.1592 42.7607 66.1267 42.862 66.1024 42.955C65.932 43.4789 65.6642 43.876 65.291 44.1549C64.9178 44.4337 64.4553 44.5689 63.8954 44.5689ZM65.721 40.8932C65.721 40.6059 65.7129 40.3609 65.7048 40.1496C65.6967 39.9384 65.6804 39.7609 65.6723 39.6173C65.6561 39.4736 65.6399 39.3469 65.6155 39.2539C65.5912 39.1525 65.5669 39.068 65.5506 39.0004C65.2991 38.1977 64.7474 37.7921 63.8954 37.7921C63.0435 37.7921 62.4918 38.1977 62.2321 39.0004C62.2159 39.068 62.1915 39.1525 62.1672 39.2539C62.1429 39.3553 62.1266 39.4736 62.1104 39.6173C62.0942 39.7609 62.0861 39.9384 62.078 40.1496C62.0698 40.3609 62.0617 40.6059 62.0617 40.8932C62.0617 41.1805 62.0698 41.4256 62.078 41.6368C62.0861 41.8481 62.1023 42.0255 62.1104 42.1691C62.1266 42.3128 62.1429 42.4395 62.1672 42.5325C62.1915 42.6339 62.2159 42.7184 62.2321 42.786C62.4836 43.5887 63.0435 43.9943 63.8954 43.9943C64.7393 43.9943 65.291 43.5887 65.5506 42.786C65.5669 42.7184 65.5912 42.6339 65.6155 42.5325C65.6399 42.4311 65.6561 42.3128 65.6723 42.1691C65.6886 42.0255 65.6967 41.8481 65.7048 41.6368C65.7129 41.4256 65.721 41.1805 65.721 40.8932Z" fill="#88774F"/>
<path d="M69.3077 44.4677C69.2428 44.4677 69.2022 44.4339 69.2022 44.3663V41.5356L67.1495 37.4458C67.1332 37.4204 67.1414 37.3951 67.1576 37.3697C67.1738 37.3444 67.1982 37.3359 67.2306 37.3359H67.6201C67.685 37.3359 67.7337 37.3697 67.7742 37.4373L69.5025 40.8511H69.5349L71.2307 37.4373C71.2631 37.3697 71.3118 37.3359 71.3848 37.3359H71.7662C71.8067 37.3359 71.8311 37.3444 71.8473 37.3697C71.8635 37.3951 71.8635 37.4204 71.8473 37.4458L69.7945 41.5356V44.3579C69.7945 44.4255 69.7621 44.4592 69.6891 44.4592H69.3077V44.4677Z" fill="#88774F"/>
<path d="M74.2405 37.4295C74.2567 37.3619 74.2973 37.3281 74.3622 37.3281H74.7273C74.7841 37.3281 74.8247 37.3619 74.849 37.4295L77.2264 44.3585C77.2426 44.4261 77.2264 44.4599 77.1533 44.4599H76.7639C76.6909 44.4599 76.6422 44.4261 76.6341 44.3585L76.0255 42.6094H73.0397L72.4312 44.3585C72.4068 44.4261 72.3581 44.4599 72.3013 44.4599H71.9119C71.847 44.4599 71.8226 44.4261 71.8389 44.3585L74.2405 37.4295ZM75.8308 42.0178L74.5488 38.2914H74.5164L73.2263 42.0178H75.8308Z" fill="#88774F"/>
<path d="M78.6221 37.4295C78.6221 37.3619 78.6545 37.3281 78.7275 37.3281H79.1089C79.1738 37.3281 79.2144 37.3619 79.2144 37.4295V43.8346C79.2144 43.8768 79.2306 43.8937 79.2712 43.8937H82.6546C82.7195 43.8937 82.752 43.9275 82.752 43.9951V44.35C82.752 44.4176 82.7195 44.4514 82.6546 44.4514H78.7275C78.6626 44.4514 78.6221 44.4176 78.6221 44.35V37.4295Z" fill="#88774F"/>
<path d="M86.6708 42.9732C86.6465 42.8802 86.6221 42.7788 86.5978 42.6774C86.5735 42.5676 86.5572 42.4324 86.541 42.2718C86.5248 42.1113 86.5167 41.9169 86.5085 41.6972C86.5004 41.4775 86.4923 41.2071 86.4923 40.8945C86.4923 40.5818 86.5004 40.3114 86.5085 40.0917C86.5167 39.872 86.5329 39.6777 86.541 39.5171C86.5572 39.3566 86.5735 39.2214 86.5978 39.1115C86.6221 39.0017 86.6465 38.9003 86.6708 38.8158C86.8493 38.275 87.1171 37.8778 87.4741 37.6159C87.8392 37.3539 88.2936 37.2188 88.8372 37.2188C89.3078 37.2188 89.7216 37.3286 90.0786 37.5483C90.4356 37.768 90.7115 38.0975 90.9062 38.5369C90.9305 38.5961 90.9224 38.6468 90.8737 38.6721L90.5411 38.8411C90.4843 38.8749 90.4437 38.858 90.4112 38.7989C90.2571 38.4947 90.0542 38.2412 89.8027 38.0553C89.5512 37.8694 89.2266 37.7764 88.8372 37.7764C88.4153 37.7764 88.0745 37.8778 87.8149 38.0722C87.5552 38.275 87.3605 38.5707 87.2225 38.9594C87.2063 39.027 87.182 39.1115 87.1658 39.2129C87.1495 39.3143 87.1252 39.4326 87.1171 39.5763C87.109 39.7199 87.0927 39.8974 87.0846 40.1086C87.0765 40.3199 87.0765 40.5734 87.0765 40.8776C87.0765 41.1818 87.0765 41.4353 87.0846 41.6465C87.0927 41.8578 87.1008 42.0352 87.1171 42.1789C87.1333 42.3225 87.1495 42.4493 87.1658 42.5422C87.182 42.6436 87.2063 42.7281 87.2225 42.7957C87.3605 43.1844 87.5552 43.4802 87.8149 43.683C88.0745 43.8858 88.4153 43.9787 88.8372 43.9787C89.2266 43.9787 89.5512 43.8858 89.8027 43.6999C90.0542 43.514 90.2571 43.2689 90.4112 42.9563C90.4437 42.8971 90.4843 42.8802 90.5411 42.914L90.8737 43.083C90.9224 43.1084 90.9305 43.1591 90.9062 43.2182C90.7115 43.6576 90.4356 43.9872 90.0786 44.2069C89.7216 44.4266 89.3078 44.5364 88.8372 44.5364C88.2936 44.5364 87.8392 44.4012 87.4741 44.1393C87.1171 43.9111 86.8493 43.514 86.6708 42.9732Z" fill="#88774F"/>
<path d="M94.5815 44.5689C94.0135 44.5689 93.551 44.4337 93.1778 44.1633C92.8046 43.8929 92.5368 43.4958 92.3664 42.9634C92.334 42.8705 92.3015 42.7691 92.2772 42.6508C92.2528 42.5325 92.2366 42.3973 92.2204 42.2452C92.2041 42.0847 92.1879 41.8988 92.1798 41.6875C92.1717 41.4678 92.1636 41.2059 92.1636 40.9017C92.1636 40.5975 92.1717 40.3355 92.1798 40.1158C92.1879 39.8961 92.2041 39.7102 92.2204 39.5581C92.2366 39.3976 92.2609 39.2624 92.2772 39.1525C92.3015 39.0427 92.3258 38.9328 92.3664 38.8399C92.5368 38.316 92.8046 37.9188 93.1778 37.64C93.551 37.3696 94.0216 37.2344 94.5815 37.2344C95.1413 37.2344 95.6038 37.3696 95.977 37.64C96.3503 37.9104 96.618 38.3075 96.7884 38.8399C96.8127 38.9413 96.8452 39.0427 96.8695 39.1525C96.8939 39.2624 96.9182 39.3976 96.9344 39.5581C96.9507 39.7187 96.9669 39.9046 96.975 40.1158C96.9831 40.3355 96.9912 40.5975 96.9912 40.9017C96.9912 41.2059 96.9831 41.4763 96.975 41.6875C96.9669 41.9072 96.9507 42.0931 96.9344 42.2452C96.9182 42.4058 96.8939 42.5409 96.8695 42.6508C96.8452 42.7606 96.8127 42.8705 96.7884 42.9634C96.618 43.4873 96.3503 43.8845 95.977 44.1633C95.6038 44.4337 95.1413 44.5689 94.5815 44.5689ZM96.4071 40.8932C96.4071 40.6059 96.3989 40.3609 96.3908 40.1496C96.3827 39.9384 96.3665 39.7609 96.3584 39.6173C96.3421 39.4736 96.3259 39.3469 96.3016 39.2539C96.2772 39.1525 96.2529 39.068 96.2367 39.0004C95.9851 38.1977 95.4334 37.7921 94.5815 37.7921C93.7295 37.7921 93.1778 38.1977 92.9182 39.0004C92.9019 39.068 92.8776 39.1525 92.8532 39.2539C92.8289 39.3553 92.8127 39.4736 92.7964 39.6173C92.7802 39.7609 92.7721 39.9384 92.764 40.1496C92.7559 40.3609 92.7478 40.6059 92.7478 40.8932C92.7478 41.1805 92.7559 41.4256 92.764 41.6368C92.7721 41.8481 92.7883 42.0255 92.7964 42.1691C92.8127 42.3128 92.8289 42.4395 92.8532 42.5325C92.8776 42.6339 92.9019 42.7184 92.9182 42.786C93.1697 43.5887 93.7295 43.9943 94.5815 43.9943C95.4253 43.9943 95.977 43.5887 96.2367 42.786C96.2529 42.7184 96.2772 42.6339 96.3016 42.5325C96.3259 42.4311 96.3421 42.3128 96.3584 42.1691C96.3746 42.0255 96.3827 41.8481 96.3908 41.6368C96.3989 41.434 96.4071 41.1805 96.4071 40.8932Z" fill="#88774F"/>
<path d="M98.6468 37.4295C98.6468 37.3619 98.6792 37.3281 98.7523 37.3281H99.1417C99.2147 37.3281 99.2715 37.3619 99.2959 37.4295L101.519 42.5417H101.56L103.734 37.4295C103.758 37.3619 103.807 37.3281 103.88 37.3281H104.278C104.343 37.3281 104.383 37.3619 104.383 37.4295V44.3585C104.383 44.4261 104.351 44.4599 104.278 44.4599H103.896C103.831 44.4599 103.791 44.4261 103.791 44.3585V38.7731H103.758L101.787 43.2938C101.771 43.336 101.746 43.3614 101.722 43.3867C101.698 43.4036 101.657 43.4121 101.608 43.4121H101.405C101.324 43.4121 101.268 43.3698 101.235 43.2938L99.2634 38.7731H99.231V44.3585C99.231 44.4261 99.1985 44.4599 99.1255 44.4599H98.7441C98.6792 44.4599 98.6387 44.4261 98.6387 44.3585V37.4295H98.6468Z" fill="#88774F"/>
<path d="M106.242 37.4295C106.242 37.3619 106.274 37.3281 106.347 37.3281H106.736C106.809 37.3281 106.866 37.3619 106.891 37.4295L109.114 42.5417H109.154L111.329 37.4295C111.353 37.3619 111.402 37.3281 111.475 37.3281H111.872C111.937 37.3281 111.978 37.3619 111.978 37.4295V44.3585C111.978 44.4261 111.945 44.4599 111.872 44.4599H111.491C111.426 44.4599 111.386 44.4261 111.386 44.3585V38.7731H111.353L109.382 43.2938C109.365 43.336 109.341 43.3614 109.317 43.3867C109.292 43.4036 109.252 43.4121 109.203 43.4121H109C108.919 43.4121 108.862 43.3698 108.83 43.2938L106.858 38.7731H106.826V44.3585C106.826 44.4261 106.793 44.4599 106.72 44.4599H106.339C106.274 44.4599 106.233 44.4261 106.233 44.3585V37.4295H106.242Z" fill="#88774F"/>
<path d="M113.828 37.4295C113.828 37.3619 113.86 37.3281 113.933 37.3281H114.314C114.379 37.3281 114.42 37.3619 114.42 37.4295V44.3585C114.42 44.4261 114.387 44.4599 114.314 44.4599H113.933C113.868 44.4599 113.828 44.4261 113.828 44.3585V37.4295Z" fill="#88774F"/>
<path d="M118.274 44.5689C118.054 44.5689 117.827 44.5436 117.608 44.5013C117.389 44.4591 117.178 44.3915 116.975 44.3154C116.781 44.2394 116.594 44.1464 116.432 44.045C116.269 43.9436 116.123 43.8422 116.002 43.7324C115.945 43.6817 115.945 43.631 115.994 43.5887L116.237 43.2761C116.286 43.2169 116.334 43.2169 116.375 43.2676C116.602 43.4535 116.886 43.6141 117.227 43.7746C117.568 43.9267 117.941 44.0028 118.338 44.0028C118.89 44.0028 119.32 43.8676 119.637 43.6056C119.953 43.3437 120.107 42.9888 120.107 42.5494C120.107 42.372 120.083 42.2114 120.026 42.0593C119.969 41.9072 119.88 41.772 119.758 41.6537C119.637 41.5354 119.466 41.434 119.255 41.3495C119.044 41.265 118.777 41.2059 118.468 41.1636L118.152 41.1214C117.478 41.0284 116.983 40.8256 116.659 40.5045C116.334 40.1834 116.172 39.7609 116.172 39.237C116.172 38.6117 116.367 38.1216 116.756 37.7667C117.146 37.4118 117.673 37.2344 118.33 37.2344C118.712 37.2344 119.077 37.2851 119.418 37.3949C119.758 37.5048 120.05 37.6484 120.286 37.8343C120.343 37.8681 120.351 37.9188 120.302 37.978L120.099 38.2991C120.059 38.3498 120.01 38.3582 119.961 38.316C119.685 38.1385 119.418 38.0118 119.15 37.9188C118.882 37.8343 118.598 37.7836 118.306 37.7836C117.819 37.7836 117.438 37.9104 117.162 38.1639C116.894 38.4174 116.756 38.7554 116.756 39.1779C116.756 39.5412 116.878 39.837 117.121 40.0736C117.365 40.3017 117.779 40.4623 118.363 40.5383L118.671 40.5806C119.369 40.682 119.88 40.8932 120.196 41.2143C120.513 41.5439 120.675 41.9664 120.675 42.4987C120.675 42.8029 120.627 43.0733 120.521 43.3268C120.416 43.5803 120.261 43.8 120.059 43.9859C119.856 44.1718 119.604 44.3154 119.304 44.4168C119.004 44.5182 118.671 44.5689 118.274 44.5689Z" fill="#88774F"/>
<path d="M124.311 44.5689C124.092 44.5689 123.864 44.5436 123.645 44.5013C123.426 44.4591 123.215 44.3915 123.012 44.3154C122.818 44.2394 122.631 44.1464 122.469 44.045C122.307 43.9436 122.16 43.8422 122.039 43.7324C121.982 43.6817 121.982 43.631 122.031 43.5887L122.274 43.2761C122.323 43.2169 122.371 43.2169 122.412 43.2676C122.639 43.4535 122.923 43.6141 123.264 43.7746C123.605 43.9267 123.978 44.0028 124.376 44.0028C124.927 44.0028 125.357 43.8676 125.674 43.6056C125.99 43.3437 126.144 42.9888 126.144 42.5494C126.144 42.372 126.12 42.2114 126.063 42.0593C126.006 41.9072 125.917 41.772 125.795 41.6537C125.674 41.5354 125.503 41.434 125.292 41.3495C125.081 41.265 124.814 41.2059 124.505 41.1636L124.189 41.1214C123.515 41.0284 123.021 40.8256 122.696 40.5045C122.371 40.1834 122.209 39.7609 122.209 39.237C122.209 38.6117 122.404 38.1216 122.793 37.7667C123.183 37.4118 123.71 37.2344 124.367 37.2344C124.749 37.2344 125.114 37.2851 125.455 37.3949C125.795 37.5048 126.088 37.6484 126.323 37.8343C126.38 37.8681 126.388 37.9188 126.339 37.978L126.136 38.2991C126.096 38.3498 126.047 38.3582 125.998 38.316C125.722 38.1385 125.455 38.0118 125.187 37.9188C124.919 37.8343 124.635 37.7836 124.343 37.7836C123.856 37.7836 123.475 37.9104 123.199 38.1639C122.931 38.4174 122.793 38.7554 122.793 39.1779C122.793 39.5412 122.915 39.837 123.158 40.0736C123.402 40.3017 123.816 40.4623 124.4 40.5383L124.708 40.5806C125.406 40.682 125.917 40.8932 126.234 41.2143C126.55 41.5439 126.712 41.9664 126.712 42.4987C126.712 42.8029 126.664 43.0733 126.558 43.3268C126.453 43.5803 126.298 43.8 126.096 43.9859C125.893 44.1718 125.641 44.3154 125.341 44.4168C125.041 44.5182 124.708 44.5689 124.311 44.5689Z" fill="#88774F"/>
<path d="M128.294 37.4295C128.294 37.3619 128.327 37.3281 128.4 37.3281H128.781C128.846 37.3281 128.887 37.3619 128.887 37.4295V44.3585C128.887 44.4261 128.854 44.4599 128.781 44.4599H128.4C128.335 44.4599 128.294 44.4261 128.294 44.3585V37.4295Z" fill="#88774F"/>
<path d="M132.943 44.5689C132.375 44.5689 131.913 44.4337 131.54 44.1633C131.166 43.8929 130.899 43.4958 130.728 42.9634C130.696 42.8705 130.663 42.7691 130.639 42.6508C130.615 42.5325 130.598 42.3973 130.582 42.2452C130.566 42.0847 130.55 41.8988 130.542 41.6875C130.534 41.4678 130.525 41.2059 130.525 40.9017C130.525 40.5975 130.534 40.3355 130.542 40.1158C130.55 39.8961 130.566 39.7102 130.582 39.5581C130.598 39.3976 130.623 39.2624 130.639 39.1525C130.663 39.0427 130.688 38.9328 130.728 38.8399C130.899 38.316 131.166 37.9188 131.54 37.64C131.913 37.3696 132.383 37.2344 132.943 37.2344C133.503 37.2344 133.966 37.3696 134.339 37.64C134.712 37.9104 134.98 38.3075 135.15 38.8399C135.175 38.9413 135.207 39.0427 135.231 39.1525C135.256 39.2624 135.28 39.3976 135.296 39.5581C135.312 39.7187 135.329 39.9046 135.337 40.1158C135.345 40.3355 135.353 40.5975 135.353 40.9017C135.353 41.2059 135.345 41.4763 135.337 41.6875C135.329 41.9072 135.312 42.0931 135.296 42.2452C135.28 42.4058 135.256 42.5409 135.231 42.6508C135.207 42.7691 135.175 42.8705 135.15 42.9634C134.98 43.4873 134.712 43.8845 134.339 44.1633C133.966 44.4337 133.503 44.5689 132.943 44.5689ZM134.769 40.8932C134.769 40.6059 134.761 40.3609 134.753 40.1496C134.745 39.9384 134.728 39.7609 134.72 39.6173C134.704 39.4736 134.688 39.3469 134.663 39.2539C134.639 39.1525 134.615 39.068 134.598 39.0004C134.347 38.1977 133.795 37.7921 132.943 37.7921C132.091 37.7921 131.531 38.1977 131.28 39.0004C131.264 39.068 131.239 39.1525 131.215 39.2539C131.191 39.3553 131.174 39.4736 131.158 39.6173C131.142 39.7609 131.134 39.9384 131.126 40.1496C131.118 40.3609 131.11 40.6059 131.11 40.8932C131.11 41.1805 131.118 41.4256 131.126 41.6368C131.134 41.8481 131.15 42.0255 131.158 42.1691C131.174 42.3128 131.191 42.4395 131.215 42.5325C131.239 42.6339 131.264 42.7184 131.28 42.786C131.531 43.5887 132.091 43.9943 132.943 43.9943C133.787 43.9943 134.339 43.5887 134.598 42.786C134.615 42.7184 134.639 42.6339 134.663 42.5325C134.688 42.4311 134.704 42.3128 134.72 42.1691C134.736 42.0255 134.745 41.8481 134.753 41.6368C134.761 41.434 134.769 41.1805 134.769 40.8932Z" fill="#88774F"/>
<path d="M137.009 37.4295C137.009 37.3619 137.041 37.3281 137.114 37.3281H137.496C137.577 37.3281 137.634 37.3619 137.666 37.4295L141.074 43.2938H141.106V37.4295C141.106 37.3619 141.139 37.3281 141.212 37.3281H141.593C141.658 37.3281 141.699 37.3619 141.699 37.4295V44.3585C141.699 44.4261 141.666 44.4599 141.601 44.4599H141.212C141.139 44.4599 141.082 44.4261 141.041 44.3585L137.658 38.4773H137.617V44.3585C137.617 44.4261 137.585 44.4599 137.512 44.4599H137.13C137.066 44.4599 137.025 44.4261 137.025 44.3585V37.4295H137.009Z" fill="#88774F"/>
<path d="M146.388 37.4295C146.388 37.3619 146.42 37.3281 146.493 37.3281H150.42C150.485 37.3281 150.518 37.3619 150.518 37.4295V37.7844C150.518 37.852 150.485 37.8858 150.42 37.8858H147.037C146.996 37.8858 146.98 37.9027 146.98 37.945V40.556C146.98 40.5983 146.996 40.6152 147.037 40.6152H149.95C150.015 40.6152 150.047 40.649 150.047 40.7166V41.0715C150.047 41.1391 150.015 41.1729 149.95 41.1729H147.037C146.996 41.1729 146.98 41.1898 146.98 41.232V44.3247C146.98 44.3923 146.948 44.4261 146.875 44.4261H146.493C146.428 44.4261 146.388 44.3923 146.388 44.3247V37.4295Z" fill="#88774F"/>
<path d="M154.031 44.5689C153.463 44.5689 153.001 44.4337 152.627 44.1633C152.254 43.8929 151.987 43.4958 151.816 42.9634C151.784 42.8705 151.751 42.7691 151.727 42.6508C151.703 42.5325 151.686 42.3973 151.67 42.2452C151.654 42.0847 151.638 41.8988 151.63 41.6875C151.621 41.4678 151.613 41.2059 151.613 40.9017C151.613 40.5975 151.621 40.3355 151.63 40.1158C151.638 39.8961 151.654 39.7102 151.67 39.5581C151.686 39.3976 151.711 39.2624 151.727 39.1525C151.751 39.0427 151.776 38.9328 151.816 38.8399C151.987 38.316 152.254 37.9188 152.627 37.64C153.001 37.3696 153.471 37.2344 154.031 37.2344C154.591 37.2344 155.053 37.3696 155.427 37.64C155.8 37.9104 156.068 38.3075 156.238 38.8399C156.262 38.9413 156.295 39.0427 156.319 39.1525C156.344 39.2624 156.368 39.3976 156.384 39.5581C156.4 39.7187 156.417 39.9046 156.425 40.1158C156.433 40.3355 156.441 40.5975 156.441 40.9017C156.441 41.2059 156.433 41.4763 156.425 41.6875C156.417 41.9072 156.4 42.0931 156.384 42.2452C156.368 42.4058 156.344 42.5409 156.319 42.6508C156.295 42.7691 156.262 42.8705 156.238 42.9634C156.068 43.4873 155.8 43.8845 155.427 44.1633C155.053 44.4337 154.591 44.5689 154.031 44.5689ZM155.857 40.8932C155.857 40.6059 155.849 40.3609 155.841 40.1496C155.832 39.9384 155.816 39.7609 155.808 39.6173C155.792 39.4736 155.776 39.3469 155.751 39.2539C155.727 39.1525 155.703 39.068 155.686 39.0004C155.435 38.1977 154.883 37.7921 154.031 37.7921C153.179 37.7921 152.619 38.1977 152.368 39.0004C152.352 39.068 152.327 39.1525 152.303 39.2539C152.279 39.3553 152.262 39.4736 152.246 39.6173C152.23 39.7609 152.222 39.9384 152.214 40.1496C152.206 40.3609 152.197 40.6059 152.197 40.8932C152.197 41.1805 152.206 41.4256 152.214 41.6368C152.222 41.8481 152.238 42.0255 152.246 42.1691C152.262 42.3128 152.279 42.4395 152.303 42.5325C152.327 42.6339 152.352 42.7184 152.368 42.786C152.619 43.5887 153.179 43.9943 154.031 43.9943C154.875 43.9943 155.427 43.5887 155.686 42.786C155.703 42.7184 155.727 42.6339 155.751 42.5325C155.776 42.4311 155.792 42.3128 155.808 42.1691C155.824 42.0255 155.832 41.8481 155.841 41.6368C155.849 41.434 155.857 41.1805 155.857 40.8932Z" fill="#88774F"/>
<path d="M162.153 44.4677C162.096 44.4677 162.056 44.4339 162.031 44.3747L160.595 41.2821H160.498H158.737C158.696 41.2821 158.68 41.299 158.68 41.3412V44.3663C158.68 44.4339 158.648 44.4677 158.575 44.4677H158.193C158.128 44.4677 158.088 44.4339 158.088 44.3663V37.4373C158.088 37.3697 158.12 37.3359 158.185 37.3359H160.49C161.139 37.3359 161.658 37.5134 162.023 37.8598C162.396 38.2063 162.575 38.6964 162.575 39.3048C162.575 39.8033 162.453 40.2089 162.21 40.5385C161.966 40.868 161.617 41.0793 161.179 41.1976L162.672 44.3579C162.688 44.3917 162.696 44.417 162.688 44.4424C162.68 44.4593 162.656 44.4762 162.623 44.4762H162.153V44.4677ZM160.481 40.7075C160.968 40.7075 161.342 40.5892 161.609 40.3441C161.869 40.0991 161.999 39.7526 161.999 39.2963C161.999 38.8485 161.869 38.502 161.609 38.257C161.35 38.0119 160.976 37.8936 160.481 37.8936H158.737C158.696 37.8936 158.68 37.9105 158.68 37.9528V40.6399C158.68 40.6821 158.696 40.699 158.737 40.699H160.481V40.7075Z" fill="#88774F"/>
<path d="M26.8729 49.1483C26.8729 49.0807 26.9053 49.0469 26.9783 49.0469H27.3678C27.4408 49.0469 27.4976 49.0807 27.522 49.1483L29.7451 54.2605H29.7857L31.9602 49.1483C31.9845 49.0807 32.0332 49.0469 32.1062 49.0469H32.5038C32.5687 49.0469 32.6093 49.0807 32.6093 49.1483V56.0772C32.6093 56.1448 32.5768 56.1786 32.5038 56.1786H32.1224C32.0575 56.1786 32.017 56.1448 32.017 56.0772V50.4918H31.9845L30.0129 55.0125C29.9966 55.0548 29.9723 55.0801 29.948 55.1055C29.9236 55.1224 29.8831 55.1308 29.8344 55.1308H29.6315C29.5504 55.1308 29.4936 55.0886 29.4611 55.0125L27.4895 50.4918H27.457V56.0772C27.457 56.1448 27.4246 56.1786 27.3516 56.1786H26.9702C26.9053 56.1786 26.8647 56.1448 26.8647 56.0772V49.1483H26.8729Z" fill="#88774F"/>
<path d="M36.3982 49.1483C36.4145 49.0807 36.455 49.0469 36.5199 49.0469H36.8851C36.9419 49.0469 36.9824 49.0807 37.0068 49.1483L39.3841 56.0772C39.4003 56.1448 39.3841 56.1786 39.3111 56.1786H38.9216C38.8486 56.1786 38.7999 56.1448 38.7918 56.0772L38.1832 54.3281H35.1974L34.5889 56.0772C34.5645 56.1448 34.5158 56.1786 34.459 56.1786H34.0696C34.0047 56.1786 33.9803 56.1448 33.9966 56.0772L36.3982 49.1483ZM37.9885 53.7366L36.7066 50.0102H36.6741L35.384 53.7366H37.9885Z" fill="#88774F"/>
<path d="M40.7716 49.1483C40.7716 49.0807 40.8041 49.0469 40.8771 49.0469H41.2584C41.3233 49.0469 41.3639 49.0807 41.3639 49.1483V53.2634L44.6256 49.1398C44.6824 49.0807 44.7392 49.0469 44.796 49.0469H45.2666C45.2991 49.0469 45.3234 49.0553 45.3315 49.0807C45.3396 49.106 45.3315 49.1314 45.3072 49.1567L43.1408 51.8523L45.4776 56.0603C45.4938 56.0941 45.5019 56.1195 45.4938 56.1448C45.4857 56.1617 45.4613 56.1786 45.4289 56.1786H44.9745C44.9177 56.1786 44.8609 56.1448 44.8203 56.0857L42.7513 52.3424L41.3477 54.083V56.0772C41.3477 56.1448 41.3152 56.1786 41.2422 56.1786H40.8608C40.7959 56.1786 40.7554 56.1448 40.7554 56.0772V49.1483H40.7716Z" fill="#88774F"/>
<path d="M46.9137 49.1483C46.9137 49.0807 46.9461 49.0469 47.0192 49.0469H47.4005C47.4654 49.0469 47.506 49.0807 47.506 49.1483V53.2634L50.7677 49.1398C50.8245 49.0807 50.8813 49.0469 50.9381 49.0469H51.4087C51.4411 49.0469 51.4655 49.0553 51.4736 49.0807C51.4817 49.106 51.4736 49.1314 51.4493 49.1567L49.2829 51.8523L51.6196 56.0603C51.6359 56.0941 51.644 56.1195 51.6359 56.1448C51.6278 56.1617 51.6034 56.1786 51.571 56.1786H51.1166C51.0598 56.1786 51.003 56.1448 50.9624 56.0857L48.8934 52.3424L47.4898 54.083V56.0772C47.4898 56.1448 47.4573 56.1786 47.3843 56.1786H47.0029C46.938 56.1786 46.8975 56.1448 46.8975 56.0772V49.1483H46.9137Z" fill="#88774F"/>
<path d="M55.1492 49.1483C55.1654 49.0807 55.206 49.0469 55.2709 49.0469H55.636C55.6928 49.0469 55.7334 49.0807 55.7577 49.1483L58.1351 56.0772C58.1513 56.1448 58.1351 56.1786 58.062 56.1786H57.6726C57.5996 56.1786 57.5509 56.1448 57.5428 56.0772L56.9342 54.3281H53.9484L53.3398 56.0772C53.3155 56.1448 53.2668 56.1786 53.21 56.1786H52.8206C52.7557 56.1786 52.7313 56.1448 52.7475 56.0772L55.1492 49.1483ZM56.7395 53.7366L55.4575 50.0102H55.4251L54.135 53.7366H56.7395Z" fill="#88774F"/>
<path d="M59.5306 49.1483C59.5306 49.0807 59.563 49.0469 59.6361 49.0469H60.0174C60.0823 49.0469 60.1229 49.0807 60.1229 49.1483V52.2156C60.1229 52.2579 60.1391 52.2748 60.1797 52.2748H63.555C63.5956 52.2748 63.6118 52.2579 63.6118 52.2156V49.1483C63.6118 49.0807 63.6442 49.0469 63.7173 49.0469H64.0986C64.1635 49.0469 64.2041 49.0807 64.2041 49.1483V56.0772C64.2041 56.1448 64.1716 56.1786 64.0986 56.1786H63.7091C63.6442 56.1786 63.6037 56.1448 63.6037 56.0772V52.9085C63.6037 52.8663 63.5874 52.8494 63.5469 52.8494H60.1716C60.131 52.8494 60.1148 52.8663 60.1148 52.9085V56.0772C60.1148 56.1448 60.0823 56.1786 60.0093 56.1786H59.6279C59.563 56.1786 59.5225 56.1448 59.5225 56.0772V49.1483H59.5306Z" fill="#88774F"/>
<path d="M68.7884 54.6919C68.764 54.599 68.7397 54.4976 68.7153 54.3962C68.691 54.2863 68.6748 54.1511 68.6585 53.9906C68.6423 53.83 68.6342 53.6357 68.6261 53.416C68.618 53.1963 68.6099 52.9259 68.6099 52.6132C68.6099 52.3006 68.618 52.0302 68.6261 51.8105C68.6342 51.5908 68.6504 51.3964 68.6585 51.2359C68.6748 51.0753 68.691 50.9401 68.7153 50.8303C68.7397 50.7204 68.764 50.619 68.7884 50.5345C68.9669 49.9937 69.2346 49.5966 69.5916 49.3346C69.9567 49.0727 70.4111 48.9375 70.9547 48.9375C71.4253 48.9375 71.8391 49.0473 72.1961 49.267C72.5531 49.4867 72.829 49.8163 73.0237 50.2557C73.0481 50.3148 73.04 50.3655 72.9913 50.3909L72.6586 50.5599C72.6018 50.5937 72.5612 50.5768 72.5288 50.5176C72.3746 50.2134 72.1718 49.9599 71.9203 49.774C71.6687 49.5881 71.3442 49.4952 70.9547 49.4952C70.5328 49.4952 70.192 49.5966 69.9324 49.7909C69.6728 49.9937 69.478 50.2895 69.3401 50.6782C69.3239 50.7458 69.2995 50.8303 69.2833 50.9317C69.2671 51.0331 69.2427 51.1514 69.2346 51.295C69.2184 51.4387 69.2103 51.6161 69.2022 51.8274C69.1941 52.0386 69.1941 52.2921 69.1941 52.5963C69.1941 52.9005 69.1941 53.154 69.2022 53.3653C69.2103 53.5765 69.2184 53.754 69.2346 53.8976C69.2509 54.0413 69.2671 54.168 69.2833 54.261C69.2995 54.3624 69.3239 54.4469 69.3401 54.5145C69.478 54.9032 69.6728 55.1989 69.9324 55.4017C70.192 55.6045 70.5328 55.6975 70.9547 55.6975C71.3442 55.6975 71.6687 55.6045 71.9203 55.4186C72.1718 55.2327 72.3746 54.9877 72.5288 54.675C72.5612 54.6159 72.6018 54.599 72.6586 54.6328L72.9913 54.8018C73.04 54.8271 73.0481 54.8778 73.0237 54.937C72.829 55.3764 72.5531 55.7059 72.1961 55.9256C71.8391 56.1453 71.4253 56.2552 70.9547 56.2552C70.4111 56.2552 69.9567 56.12 69.5916 55.858C69.2346 55.6299 68.9669 55.2327 68.7884 54.6919Z" fill="#88774F"/>
<path d="M74.5327 49.1483C74.5327 49.0807 74.5652 49.0469 74.6382 49.0469H75.0195C75.0844 49.0469 75.125 49.0807 75.125 49.1483V56.0772C75.125 56.1448 75.0926 56.1786 75.0195 56.1786H74.6382C74.5733 56.1786 74.5327 56.1448 74.5327 56.0772V49.1483Z" fill="#88774F"/>
<path d="M78.7034 56.1819C78.6385 56.1819 78.598 56.1481 78.598 56.0805V49.6754C78.598 49.6332 78.5817 49.6163 78.5412 49.6163H76.5695C76.5046 49.6163 76.4722 49.5825 76.4722 49.5149V49.16C76.4722 49.0924 76.5046 49.0586 76.5695 49.0586H81.2268C81.2917 49.0586 81.3242 49.0924 81.3242 49.16V49.5149C81.3242 49.5825 81.2917 49.6163 81.2268 49.6163H79.2552C79.2146 49.6163 79.1984 49.6332 79.1984 49.6754V56.0805C79.1984 56.1481 79.1659 56.1819 79.0929 56.1819H78.7034Z" fill="#88774F"/>
<path d="M84.4884 56.1819C84.4235 56.1819 84.3829 56.1481 84.3829 56.0805V53.2582L82.3301 49.1684C82.3139 49.1431 82.322 49.1177 82.3382 49.0924C82.3545 49.067 82.3788 49.0586 82.4113 49.0586H82.8007C82.8656 49.0586 82.9143 49.0924 82.9549 49.16L84.6831 52.5738H84.7156L86.4113 49.16C86.4438 49.0924 86.4925 49.0586 86.5655 49.0586H86.9468C86.9874 49.0586 87.0118 49.067 87.028 49.0924C87.0442 49.1177 87.0442 49.1431 87.028 49.1684L84.9752 53.2582V56.0805C84.9752 56.1481 84.9428 56.1819 84.8697 56.1819H84.4884Z" fill="#88774F"/>
<path d="M92.805 49.1483C92.8212 49.0807 92.8618 49.0469 92.9267 49.0469H93.2918C93.3486 49.0469 93.3892 49.0807 93.4135 49.1483L95.7908 56.0772C95.807 56.1448 95.7908 56.1786 95.7178 56.1786H95.3283C95.2553 56.1786 95.2066 56.1448 95.1985 56.0772L94.59 54.3281H91.6041L90.9956 56.0772C90.9713 56.1448 90.9226 56.1786 90.8658 56.1786H90.4763C90.4114 56.1786 90.3871 56.1448 90.4033 56.0772L92.805 49.1483ZM94.3953 53.7366L93.1133 50.0102H93.0808L91.7908 53.7366H94.3953Z" fill="#88774F"/>
<path d="M97.186 49.1483C97.186 49.0807 97.2185 49.0469 97.2915 49.0469H97.6729C97.754 49.0469 97.8108 49.0807 97.8432 49.1483L101.251 55.0125H101.283V49.1483C101.283 49.0807 101.316 49.0469 101.389 49.0469H101.77C101.835 49.0469 101.876 49.0807 101.876 49.1483V56.0772C101.876 56.1448 101.843 56.1786 101.778 56.1786H101.389C101.316 56.1786 101.259 56.1448 101.219 56.0772L97.8351 50.1961H97.7946V56.0772C97.7946 56.1448 97.7621 56.1786 97.6891 56.1786H97.3077C97.2428 56.1786 97.2023 56.1448 97.2023 56.0772V49.1483H97.186Z" fill="#88774F"/>
<path d="M103.726 49.1483C103.726 49.0807 103.759 49.0469 103.823 49.0469H105.974C107.126 49.0469 107.856 49.5285 108.164 50.4918C108.197 50.5932 108.229 50.7031 108.254 50.8129C108.278 50.9228 108.294 51.058 108.31 51.2185C108.327 51.3791 108.343 51.565 108.343 51.7931C108.351 52.0213 108.351 52.2917 108.351 52.6128C108.351 52.9423 108.351 53.2127 108.343 53.4409C108.335 53.6606 108.327 53.8465 108.31 54.007C108.294 54.1676 108.27 54.3027 108.254 54.4126C108.229 54.5224 108.205 54.6323 108.164 54.7422C107.864 55.7054 107.134 56.1871 105.974 56.1871H103.823C103.759 56.1871 103.726 56.1533 103.726 56.0857V49.1483ZM104.31 55.5533C104.31 55.5956 104.326 55.6125 104.367 55.6125H105.892C106.339 55.6125 106.696 55.528 106.988 55.359C107.272 55.19 107.483 54.9111 107.604 54.5309C107.629 54.4464 107.653 54.3535 107.677 54.2605C107.694 54.1591 107.718 54.0408 107.726 53.8972C107.742 53.7535 107.75 53.5761 107.759 53.3733C107.767 53.1705 107.767 52.917 107.767 52.6128C107.767 52.3086 107.767 52.0551 107.759 51.8523C107.75 51.6495 107.742 51.472 107.726 51.3284C107.71 51.1847 107.694 51.0664 107.677 50.965C107.661 50.8636 107.637 50.7791 107.604 50.6946C107.483 50.3144 107.28 50.044 106.988 49.875C106.704 49.706 106.339 49.6215 105.892 49.6215H104.367C104.326 49.6215 104.31 49.6384 104.31 49.6806V55.5533Z" fill="#88774F"/>
<path d="M112.797 49.1483C112.797 49.0807 112.829 49.0469 112.902 49.0469H113.284C113.349 49.0469 113.389 49.0807 113.389 49.1483V52.2156C113.389 52.2579 113.405 52.2748 113.446 52.2748H116.821C116.862 52.2748 116.878 52.2579 116.878 52.2156V49.1483C116.878 49.0807 116.911 49.0469 116.984 49.0469H117.365C117.43 49.0469 117.47 49.0807 117.47 49.1483V56.0772C117.47 56.1448 117.438 56.1786 117.365 56.1786H116.984C116.919 56.1786 116.878 56.1448 116.878 56.0772V52.9085C116.878 52.8663 116.862 52.8494 116.821 52.8494H113.446C113.405 52.8494 113.389 52.8663 113.389 52.9085V56.0772C113.389 56.1448 113.357 56.1786 113.284 56.1786H112.902C112.837 56.1786 112.797 56.1448 112.797 56.0772V49.1483Z" fill="#88774F"/>
<path d="M121.527 56.2877C120.959 56.2877 120.497 56.1525 120.124 55.8821C119.75 55.6117 119.483 55.2145 119.312 54.6822C119.28 54.5893 119.247 54.4878 119.223 54.3696C119.199 54.2513 119.182 54.116 119.166 53.9639C119.15 53.8034 119.134 53.6175 119.126 53.4063C119.117 53.1866 119.109 52.9246 119.109 52.6204C119.109 52.3162 119.117 52.0543 119.126 51.8346C119.134 51.6149 119.15 51.429 119.166 51.2769C119.182 51.1163 119.207 50.9811 119.223 50.8713C119.247 50.7614 119.272 50.6516 119.312 50.5586C119.483 50.0347 119.75 49.6376 120.124 49.3587C120.497 49.0799 120.967 48.9531 121.527 48.9531C122.087 48.9531 122.55 49.0883 122.923 49.3587C123.296 49.6291 123.564 50.0263 123.734 50.5586C123.759 50.66 123.791 50.7614 123.815 50.8713C123.84 50.9811 123.864 51.1163 123.88 51.2769C123.896 51.4374 123.913 51.6233 123.921 51.8346C123.929 52.0543 123.937 52.3162 123.937 52.6204C123.937 52.9246 123.929 53.195 123.921 53.4063C123.913 53.626 123.896 53.8119 123.88 53.9639C123.864 54.1245 123.84 54.2597 123.815 54.3696C123.791 54.4878 123.759 54.5893 123.734 54.6822C123.564 55.2061 123.296 55.6032 122.923 55.8821C122.55 56.1525 122.087 56.2877 121.527 56.2877ZM123.353 52.612C123.353 52.3247 123.345 52.0796 123.337 51.8684C123.329 51.6571 123.312 51.4797 123.304 51.336C123.288 51.1924 123.272 51.0656 123.247 50.9727C123.223 50.8713 123.199 50.7868 123.182 50.7192C122.931 49.9164 122.379 49.5108 121.527 49.5108C120.675 49.5108 120.124 49.9164 119.864 50.7192C119.848 50.7868 119.823 50.8713 119.799 50.9727C119.775 51.0741 119.758 51.1924 119.742 51.336C119.726 51.4797 119.718 51.6571 119.71 51.8684C119.702 52.0796 119.694 52.3247 119.694 52.612C119.694 52.8993 119.702 53.1443 119.71 53.3556C119.718 53.5668 119.734 53.7443 119.742 53.8879C119.758 54.0316 119.775 54.1583 119.799 54.2513C119.823 54.3527 119.848 54.4371 119.864 54.5047C120.115 55.3075 120.675 55.7131 121.527 55.7131C122.371 55.7131 122.923 55.3075 123.182 54.5047C123.199 54.4371 123.223 54.3527 123.247 54.2513C123.272 54.1499 123.288 54.0316 123.304 53.8879C123.32 53.7443 123.329 53.5668 123.337 53.3556C123.345 53.1443 123.353 52.8993 123.353 52.612Z" fill="#88774F"/>
<path d="M125.592 49.1483C125.592 49.0807 125.625 49.0469 125.698 49.0469H126.079C126.144 49.0469 126.185 49.0807 126.185 49.1483V55.5533C126.185 55.5956 126.201 55.6125 126.241 55.6125H129.625C129.69 55.6125 129.722 55.6463 129.722 55.7139V56.0688C129.722 56.1364 129.69 56.1702 129.625 56.1702H125.698C125.633 56.1702 125.592 56.1364 125.592 56.0688V49.1483Z" fill="#88774F"/>
<path d="M131.856 56.1819C131.791 56.1819 131.751 56.1481 131.751 56.0805V53.2582L129.698 49.1684C129.682 49.1431 129.69 49.1177 129.706 49.0924C129.722 49.067 129.746 49.0586 129.779 49.0586H130.168C130.233 49.0586 130.282 49.0924 130.323 49.16L132.051 52.5738H132.083L133.779 49.16C133.811 49.0924 133.86 49.0586 133.933 49.0586H134.315C134.355 49.0586 134.379 49.067 134.396 49.0924C134.412 49.1177 134.412 49.1431 134.396 49.1684L132.343 53.2582V56.0805C132.343 56.1481 132.31 56.1819 132.237 56.1819H131.856Z" fill="#88774F"/>
<path d="M140.384 56.2877C140.165 56.2877 139.938 56.2623 139.719 56.2201C139.499 56.1778 139.289 56.1102 139.086 56.0342C138.891 55.9581 138.704 55.8652 138.542 55.7638C138.38 55.6624 138.234 55.561 138.112 55.4511C138.055 55.4004 138.055 55.3497 138.104 55.3075L138.347 54.9948C138.396 54.9357 138.445 54.9357 138.485 54.9864C138.712 55.1723 138.996 55.3328 139.337 55.4934C139.678 55.6455 140.051 55.7215 140.449 55.7215C141.001 55.7215 141.431 55.5863 141.747 55.3244C142.063 55.0624 142.218 54.7075 142.218 54.2681C142.218 54.0907 142.193 53.9301 142.136 53.778C142.08 53.6259 141.99 53.4908 141.869 53.3725C141.747 53.2542 141.577 53.1528 141.366 53.0683C141.155 52.9838 140.887 52.9246 140.579 52.8824L140.27 52.8401C139.597 52.7472 139.102 52.5444 138.777 52.2233C138.453 51.9022 138.291 51.4797 138.291 50.9558C138.291 50.3305 138.485 49.8404 138.875 49.4855C139.264 49.1306 139.792 48.9531 140.449 48.9531C140.83 48.9531 141.195 49.0038 141.536 49.1137C141.877 49.2235 142.169 49.3672 142.404 49.5531C142.461 49.5869 142.469 49.6376 142.42 49.6967L142.218 50.0178C142.177 50.0685 142.128 50.077 142.08 50.0347C141.804 49.8573 141.536 49.7305 141.268 49.6376C141.001 49.5531 140.717 49.5024 140.424 49.5024C139.938 49.5024 139.556 49.6291 139.28 49.8826C139.013 50.1361 138.875 50.4741 138.875 50.8966C138.875 51.26 138.996 51.5557 139.24 51.7923C139.483 52.0205 139.897 52.181 140.481 52.2571L140.79 52.2993C141.487 52.4007 141.998 52.612 142.315 52.9331C142.631 53.2626 142.794 53.6851 142.794 54.2175C142.794 54.5216 142.745 54.792 142.639 55.0455C142.534 55.299 142.38 55.5187 142.177 55.7046C141.974 55.8905 141.723 56.0342 141.422 56.1356C141.122 56.237 140.781 56.2877 140.384 56.2877Z" fill="#88774F"/>
<path d="M144.368 49.1483C144.368 49.0807 144.4 49.0469 144.473 49.0469H144.854C144.919 49.0469 144.96 49.0807 144.96 49.1483V56.0772C144.96 56.1448 144.928 56.1786 144.854 56.1786H144.473C144.408 56.1786 144.368 56.1448 144.368 56.0772V49.1483Z" fill="#88774F"/>
<path d="M148.538 56.1819C148.473 56.1819 148.432 56.1481 148.432 56.0805V49.6754C148.432 49.6332 148.416 49.6163 148.376 49.6163H146.404C146.339 49.6163 146.307 49.5825 146.307 49.5149V49.16C146.307 49.0924 146.339 49.0586 146.404 49.0586H151.061C151.126 49.0586 151.159 49.0924 151.159 49.16V49.5149C151.159 49.5825 151.126 49.6163 151.061 49.6163H149.09C149.049 49.6163 149.033 49.6332 149.033 49.6754V56.0805C149.033 56.1481 149 56.1819 148.927 56.1819H148.538Z" fill="#88774F"/>
<path d="M152.498 49.1483C152.498 49.0807 152.53 49.0469 152.603 49.0469H156.53C156.595 49.0469 156.627 49.0807 156.627 49.1483V49.5032C156.627 49.5708 156.595 49.6046 156.53 49.6046H153.147C153.106 49.6046 153.09 49.6215 153.09 49.6637V52.2072C153.09 52.2494 153.106 52.2663 153.147 52.2663H156.059C156.124 52.2663 156.157 52.3001 156.157 52.3677V52.7226C156.157 52.7902 156.124 52.824 156.059 52.824H153.147C153.106 52.824 153.09 52.8409 153.09 52.8832V55.528C153.09 55.5702 153.106 55.5871 153.147 55.5871H156.53C156.595 55.5871 156.627 55.6209 156.627 55.6885V56.0434C156.627 56.111 156.595 56.1448 156.53 56.1448H152.603C152.538 56.1448 152.498 56.111 152.498 56.0434V49.1483Z" fill="#88774F"/>
<path d="M160.262 56.2877C160.043 56.2877 159.816 56.2623 159.597 56.2201C159.378 56.1778 159.167 56.1102 158.964 56.0342C158.769 55.9581 158.583 55.8652 158.42 55.7638C158.258 55.6624 158.112 55.561 157.99 55.4511C157.934 55.4004 157.934 55.3497 157.982 55.3075L158.226 54.9948C158.274 54.9357 158.323 54.9357 158.364 54.9864C158.591 55.1723 158.875 55.3328 159.216 55.4934C159.556 55.6455 159.93 55.7215 160.327 55.7215C160.879 55.7215 161.309 55.5863 161.625 55.3244C161.942 55.0624 162.096 54.7075 162.096 54.2681C162.096 54.0907 162.072 53.9301 162.015 53.778C161.958 53.6259 161.869 53.4908 161.747 53.3725C161.625 53.2542 161.455 53.1528 161.244 53.0683C161.033 52.9838 160.765 52.9246 160.457 52.8824L160.149 52.8401C159.475 52.7472 158.98 52.5444 158.656 52.2233C158.331 51.9022 158.169 51.4797 158.169 50.9558C158.169 50.3305 158.364 49.8404 158.753 49.4855C159.143 49.1306 159.67 48.9531 160.327 48.9531C160.709 48.9531 161.074 49.0038 161.414 49.1137C161.755 49.2235 162.047 49.3672 162.283 49.5531C162.339 49.5869 162.348 49.6376 162.299 49.6967L162.096 50.0178C162.055 50.0685 162.007 50.077 161.958 50.0347C161.682 49.8573 161.414 49.7305 161.147 49.6376C160.879 49.5531 160.595 49.5024 160.303 49.5024C159.816 49.5024 159.435 49.6291 159.159 49.8826C158.891 50.1361 158.753 50.4741 158.753 50.8966C158.753 51.26 158.875 51.5557 159.118 51.7923C159.362 52.0205 159.775 52.181 160.36 52.2571L160.668 52.2993C161.366 52.4007 161.877 52.612 162.193 52.9331C162.51 53.2626 162.672 53.6851 162.672 54.2175C162.672 54.5216 162.623 54.792 162.518 55.0455C162.412 55.299 162.258 55.5187 162.055 55.7046C161.853 55.8905 161.601 56.0342 161.301 56.1356C161.009 56.237 160.66 56.2877 160.262 56.2877Z" fill="#88774F"/>
<path d="M4.68977 1.62891C4.18672 1.62891 3.77292 2.0683 3.77292 2.58375C3.77292 3.0992 4.1705 3.53859 4.68977 3.53859C5.19282 3.53859 5.60663 3.0992 5.60663 2.58375C5.60663 2.05985 5.18471 1.62891 4.68977 1.62891ZM2.43416 1.62891C1.93111 1.62891 1.52542 2.0683 1.52542 2.58375C1.52542 3.0992 1.89865 3.53859 2.43416 3.53859C2.95344 3.53859 3.35101 3.10765 3.35101 2.58375C3.35101 2.04295 2.94532 1.62891 2.43416 1.62891Z" fill="#00080C"/>
<path d="M22.0612 4.34115C19.6189 4.34115 18.4019 6.03959 18.4019 7.89858C18.4019 8.93793 18.6696 9.58857 19.1808 9.99417C19.1159 9.97727 18.8319 9.89277 18.4019 9.89277H16.6899C16.5519 7.07894 15.3511 5.61709 13.5742 4.78055L17.0063 2.61736V0.699219L11.4322 4.34115V5.76074C13.6716 6.30154 14.7994 7.61973 14.8724 9.89277H6.68566V4.84815C6.68566 4.84815 5.40369 4.34115 3.73226 4.34115C1.1521 4.34115 0.0161743 6.09874 0.0161743 8.01688C0.0161743 10.104 1.04662 11.4222 3.77283 11.4222H25.2417V7.71268C25.2417 5.65934 24.26 4.34115 22.0612 4.34115ZM4.88441 9.90122H3.98379C2.50709 9.90122 1.87422 9.18297 1.87422 7.84788C1.87422 6.70714 2.49086 5.87059 3.54564 5.87059C4.3489 5.87059 4.88441 6.13254 4.88441 6.13254V9.90122ZM23.4243 9.90122H22.3533C20.8928 9.90122 20.2437 9.22522 20.2437 7.84788C20.2437 6.70714 20.8603 5.87059 21.9151 5.87059C22.8563 5.87059 23.4243 6.48744 23.4243 7.95773V9.90122Z" fill="#00080C"/>
<path d="M34.605 1.62891C34.1019 1.62891 33.6881 2.0683 33.6881 2.58375C33.6881 3.0992 34.0776 3.53859 34.605 3.53859C35.108 3.53859 35.5218 3.0992 35.5218 2.58375C35.5137 2.05985 35.0999 1.62891 34.605 1.62891ZM32.3493 1.62891C31.8463 1.62891 31.4325 2.0683 31.4325 2.58375C31.4325 3.0992 31.8138 3.53859 32.3493 3.53859C32.8686 3.53859 33.2662 3.10765 33.2662 2.58375C33.2662 2.04295 32.8524 1.62891 32.3493 1.62891Z" fill="#00080C"/>
<path d="M43.7492 1.62109C43.2299 1.62109 42.7837 2.08584 42.7837 2.62664C42.7837 3.16743 43.2137 3.64063 43.7492 3.64063C44.2685 3.64063 44.7229 3.19278 44.7229 2.62664C44.7229 2.06894 44.2685 1.62109 43.7492 1.62109Z" fill="#00080C"/>
<path d="M49.5914 12.4961C49.0884 12.4961 48.6746 12.9186 48.6746 13.4425C48.6746 13.9579 49.064 14.3973 49.5914 14.3973C50.0945 14.3973 50.5083 13.9579 50.5083 13.4425C50.5083 12.9186 50.0864 12.4961 49.5914 12.4961ZM47.3358 12.4961C46.8327 12.4961 46.4189 12.9186 46.4189 13.4425C46.4189 13.9579 46.8165 14.3973 47.3358 14.3973C47.8389 14.3973 48.2526 13.9579 48.2526 13.4425C48.2526 12.9186 47.8307 12.4961 47.3358 12.4961Z" fill="#00080C"/>
<path d="M47.579 4.53355V9.89928H44.6824V4.53355H42.8243V9.89928H36.6011V4.85465C36.6011 4.85465 35.3192 4.34766 33.6477 4.34766C31.0676 4.34766 29.9316 6.10525 29.9316 8.02339C29.9316 10.1105 30.9621 11.4287 33.6883 11.4287H49.4452V4.53355H47.579ZM34.7999 9.89928H33.8993C32.4226 9.89928 31.7897 9.18103 31.7897 7.84594C31.7897 6.70519 32.4063 5.86865 33.4611 5.86865C34.2644 5.86865 34.7999 6.1306 34.7999 6.1306V9.89928Z" fill="#00080C"/>
<path d="M68.6746 1.08594V9.89924H66.1025V7.71915C66.1025 5.66581 65.1208 4.34762 62.922 4.34762C60.4797 4.34762 59.2627 6.04606 59.2627 7.90505C59.2627 9.41759 58.7191 9.89924 57.8671 9.89924H57.1937C57.0233 6.62911 55.4087 4.97292 52.5039 4.17862L52.0577 5.79256C54.2809 6.37561 55.2951 7.7276 55.3762 9.89079H51.2139V11.4202H58.07C59.2546 11.4202 59.8144 10.9639 60.0741 10.2879C60.569 10.9639 61.2019 11.4202 63.2222 11.4202H70.5408V1.08594H68.6746ZM64.2932 9.89924H63.2222C61.7617 9.89924 61.1126 9.22325 61.1126 7.8459C61.1126 6.70516 61.7293 5.86861 62.784 5.86861C63.7252 5.86861 64.2932 6.48546 64.2932 7.95575V9.89924Z" fill="#00080C"/>
<path d="M80.123 1.62891C79.62 1.62891 79.2143 2.0683 79.2143 2.58375C79.2143 3.0992 79.6037 3.53859 80.123 3.53859C80.6342 3.53859 81.0399 3.0992 81.0399 2.58375C81.0399 2.05985 80.6179 1.62891 80.123 1.62891ZM77.8674 1.62891C77.3643 1.62891 76.9586 2.0683 76.9586 2.58375C76.9586 3.0992 77.3319 3.53859 77.8674 3.53859C78.3867 3.53859 78.7842 3.10765 78.7842 2.58375C78.7842 2.04295 78.3786 1.62891 77.8674 1.62891Z" fill="#00080C"/>
<path d="M87.7987 12.4961C87.2875 12.4961 86.8818 12.9186 86.8818 13.4425C86.8818 13.9579 87.2713 14.3973 87.7987 14.3973C88.3017 14.3973 88.7074 13.9579 88.7074 13.4425C88.7074 12.9186 88.2855 12.4961 87.7987 12.4961ZM90.0543 12.4961C89.5431 12.4961 89.1375 12.9186 89.1375 13.4425C89.1375 13.9579 89.5269 14.3973 90.0543 14.3973C90.5574 14.3973 90.963 13.9579 90.963 13.4425C90.963 12.9186 90.5411 12.4961 90.0543 12.4961Z" fill="#00080C"/>
<path d="M113.178 1.08728V9.90058H110.598V7.72049C110.598 5.66716 109.616 4.34896 107.418 4.34896C104.983 4.34896 103.758 6.0474 103.758 7.90639C103.758 9.41894 103.207 9.90058 102.363 9.90058H101.024V1.08728H99.1659V9.90058H96.8697C96.7318 7.08675 95.531 5.62491 93.7541 4.78836L97.1862 2.62517V0.707031L91.6121 4.34896V5.76856C93.8514 6.30935 94.9792 7.62754 95.0523 9.90058H89.8514V4.53486H87.9933V9.90058H82.1109V4.85596C82.1109 4.85596 80.8289 4.34896 79.1575 4.34896C76.5773 4.34896 75.4414 6.10655 75.4414 8.02469C75.4414 10.1118 76.4718 11.43 79.2062 11.43H102.557C103.734 11.43 104.302 10.9737 104.562 10.2977C105.048 10.9737 105.681 11.43 107.71 11.43H115.028V1.08728H113.178ZM80.3177 9.90058H79.4171C77.9404 9.90058 77.3076 9.18234 77.3076 7.84724C77.3076 6.7065 77.9242 5.86995 78.979 5.86995C79.7822 5.86995 80.3177 6.1319 80.3177 6.1319V9.90058ZM108.781 9.90058H107.71C106.241 9.90058 105.6 9.22459 105.6 7.84724C105.6 6.7065 106.217 5.86995 107.272 5.86995C108.213 5.86995 108.781 6.4868 108.781 7.95709V9.90058Z" fill="#00080C"/>
<path d="M117.284 1.08594H119.142V11.4202H117.284V1.08594Z" fill="#00080C"/>
<path d="M128.749 1.62891C128.246 1.62891 127.832 2.0683 127.832 2.58375C127.832 3.0992 128.221 3.53859 128.749 3.53859C129.252 3.53859 129.665 3.0992 129.665 2.58375C129.657 2.05985 129.235 1.62891 128.749 1.62891ZM126.493 1.62891C125.99 1.62891 125.576 2.0683 125.576 2.58375C125.576 3.0992 125.957 3.53859 126.493 3.53859C127.012 3.53859 127.41 3.10765 127.41 2.58375C127.41 2.04295 126.996 1.62891 126.493 1.62891Z" fill="#00080C"/>
<path d="M138.298 2.78445C137.511 2.78445 137.284 2.58165 137.284 2.24365C137.284 1.9648 137.495 1.7451 137.974 1.7451C138.339 1.7451 138.663 1.82115 138.736 1.8296L138.915 0.807156C138.818 0.790256 138.469 0.722656 138.087 0.722656C136.611 0.722656 136.018 1.5085 136.018 2.2352C136.018 2.49715 136.156 2.7591 136.375 2.8774C136.181 2.8267 135.84 2.7929 135.523 2.7929V3.84914H139.158V2.7929H138.298V2.78445Z" fill="#00080C"/>
<path d="M143.426 12.4961C142.923 12.4961 142.51 12.9186 142.51 13.4425C142.51 13.9579 142.899 14.3973 143.426 14.3973C143.929 14.3973 144.343 13.9579 144.343 13.4425C144.343 12.9186 143.921 12.4961 143.426 12.4961ZM141.171 12.4961C140.668 12.4961 140.254 12.9186 140.254 13.4425C140.254 13.9579 140.643 14.3973 141.171 14.3973C141.674 14.3973 142.088 13.9579 142.088 13.4425C142.088 12.9186 141.666 12.4961 141.171 12.4961Z" fill="#00080C"/>
<path d="M156.733 1.08594V9.89924H154.477V9.85699C154.477 5.57286 152.473 3.83217 148.96 3.83217C147.832 3.83217 146.55 4.06877 145.536 4.40677L145.715 5.91931C146.599 5.60666 147.759 5.34472 148.725 5.34472C151.508 5.34472 152.701 6.68826 152.701 9.73024V9.90769H151.289V9.56969C151.289 7.9135 150.583 6.47701 148.7 6.47701C146.997 6.47701 145.999 7.51635 145.999 8.9444C145.999 9.56124 146.283 9.90769 146.339 9.98374C146.283 9.97529 146.039 9.91614 145.707 9.91614H143.24V4.55042H141.382V9.91614H138.477V4.55042H136.619V9.91614H130.737V4.87152C130.737 4.87152 129.455 4.36452 127.775 4.36452C125.203 4.36452 124.059 6.12211 124.059 8.04025C124.059 10.1274 125.09 11.4456 127.816 11.4456H158.575V1.08594H156.733ZM128.944 9.89924H128.043C126.558 9.89924 125.933 9.18099 125.933 7.8459C125.933 6.70516 126.55 5.86861 127.605 5.86861C128.408 5.86861 128.944 6.13056 128.944 6.13056V9.89924ZM149.771 9.95839H148.847C148.124 9.95839 147.508 9.62884 147.508 8.80075C147.508 8.1839 147.922 7.80365 148.563 7.80365C149.39 7.80365 149.78 8.4036 149.78 9.53589V9.95839H149.771Z" fill="#00080C"/>
<path d="M160.838 1.08594H162.696V11.4202H160.838V1.08594Z" fill="#00080C"/>
<path d="M4.67314 17.7266C4.17009 17.7266 3.75629 18.166 3.75629 18.673C3.75629 19.1884 4.15386 19.6278 4.67314 19.6278C5.17619 19.6278 5.58999 19.1884 5.58999 18.673C5.58999 18.1491 5.16808 17.7266 4.67314 17.7266ZM2.41753 17.7266C1.91448 17.7266 1.50879 18.166 1.50879 18.673C1.50879 19.1884 1.88202 19.6278 2.41753 19.6278C2.93681 19.6278 3.33438 19.2053 3.33438 18.673C3.33438 18.1406 2.92869 17.7266 2.41753 17.7266Z" fill="#00080C"/>
<path d="M18.9861 20.0391L17.1686 20.301C17.4121 21.4164 17.5824 22.7684 17.5824 24.2302C17.5824 24.6865 17.5581 25.3963 17.5013 25.9878H17.12C15.8218 25.9878 15.4485 25.7512 15.4485 24.5936V20.9179H13.6635V24.2302C13.6635 25.6498 13.2497 26.1061 12.5195 26.1061C11.6919 26.1061 11.5458 25.5315 11.5458 24.2133V21.5009H9.68779V24.1711C9.68779 25.6076 9.33078 25.9878 8.42205 25.9878H6.66948V20.9432C6.66948 20.9432 5.38751 20.4278 3.71609 20.4278C1.13592 20.4278 0 22.1854 0 24.1119C0 26.1991 1.03044 27.5088 3.75665 27.5088H8.40582C9.43626 27.5088 9.99611 27.1539 10.2801 26.4864C10.5073 27.1877 11.2537 27.6271 12.1706 27.6271C13.2741 27.6271 14.0124 27.1286 14.2964 26.4948C14.7102 27.306 15.4566 27.5088 16.9333 27.5088H19.2539C19.3837 26.4695 19.4486 25.1597 19.4486 24.095C19.4405 22.6416 19.2539 21.2136 18.9861 20.0391ZM4.86823 25.9963H3.96761C2.49091 25.9963 1.85804 25.278 1.85804 23.9429C1.85804 22.7937 2.47468 21.9657 3.52947 21.9657C4.33273 21.9657 4.86823 22.2276 4.86823 22.2276V25.9963Z" fill="#00080C"/>
<path d="M31.0433 17.7266C30.5403 17.7266 30.1265 18.166 30.1265 18.673C30.1265 19.1884 30.5078 19.6278 31.0433 19.6278C31.5626 19.6278 31.9602 19.2053 31.9602 18.673C31.9521 18.1406 31.5464 17.7266 31.0433 17.7266ZM33.2908 17.7266C32.7878 17.7266 32.374 18.166 32.374 18.673C32.374 19.1884 32.7634 19.6278 33.2908 19.6278C33.7939 19.6278 34.2077 19.1884 34.2077 18.673C34.2077 18.1491 33.7858 17.7266 33.2908 17.7266Z" fill="#00080C"/>
<path d="M47.1248 17.1875V26.0008H44.5528V23.8123C44.5528 21.7674 43.571 20.4407 41.3722 20.4407C38.93 20.4407 37.7129 22.1476 37.7129 24.0066C37.7129 25.5192 37.1693 26.0008 36.3173 26.0008H35.8305C35.3356 26.0008 34.7433 26.0684 34.7433 26.0684C35.2788 25.6037 35.5547 24.708 35.5547 23.8545C35.5547 21.5223 34.2727 20.4407 32.2929 20.4407C30.1509 20.4407 28.7067 21.9786 28.7067 24.0911C28.7067 24.9277 28.9339 25.6121 29.372 26.0684C29.372 26.0684 28.9339 26.0008 28.4957 26.0008H27.0758C26.9054 22.7307 25.2908 21.0745 22.3861 20.2802L21.9398 21.8941C24.163 22.4772 25.1772 23.8292 25.2583 26.0008H21.0879V27.5218H36.5202C37.7048 27.5218 38.2646 27.0739 38.5243 26.3895C39.0192 27.0655 39.6521 27.5218 41.6724 27.5218H48.991V17.1875H47.1248ZM32.1226 26.0008C31.0921 26.0008 30.5728 25.3079 30.5728 23.9306C30.5728 22.5532 31.3518 21.9702 32.155 21.9702C33.2098 21.9702 33.6966 22.6715 33.6966 23.9559C33.6966 25.3164 33.0151 26.0008 32.1226 26.0008ZM42.7353 26.0008H41.6643C40.2038 26.0008 39.5547 25.3248 39.5547 23.9475C39.5547 22.7983 40.1714 21.9702 41.2261 21.9702C42.1673 21.9702 42.7353 22.587 42.7353 24.0489V26.0008Z" fill="#00080C"/>
<path d="M51.2383 17.1875H53.0963V27.5218H51.2383V17.1875Z" fill="#00080C"/>
<path d="M70.3705 25.9976V27.5186H61.8511V27.5777C61.8511 29.4536 61.2345 31.245 58.3703 31.245C57.9403 31.245 57.5265 31.1858 57.1938 31.1013L57.3318 29.555C57.6726 29.6564 58.0214 29.7325 58.4758 29.7325C59.4332 29.7325 59.9931 29.2593 59.9931 27.6791V20.6318H61.8511V25.9976H65.2832C64.6666 25.6089 64.196 24.7892 64.196 23.809C64.196 21.9923 65.3887 20.4375 67.8715 20.4375C68.8289 20.4375 69.616 20.7163 69.616 20.7163L69.2914 22.2542C69.2914 22.2542 68.6423 21.9416 67.8309 21.9416C66.7762 21.9416 66.054 22.6767 66.054 23.8006C66.054 25.0427 67.0277 25.9891 69.259 25.9891H70.3705V25.9976Z" fill="#00080C"/>
<path d="M80.4314 17.7931C79.9283 17.7931 79.5145 18.2325 79.5145 18.748C79.5145 19.2719 79.9283 19.7028 80.4314 19.7028C80.9263 19.7028 81.3482 19.2634 81.3482 18.748C81.3482 18.2241 80.9263 17.7931 80.4314 17.7931ZM81.5997 15.875C81.0967 15.875 80.6829 16.3144 80.6829 16.8298C80.6829 17.3537 81.0967 17.7847 81.5997 17.7847C82.1028 17.7847 82.5166 17.3368 82.5166 16.8298C82.5166 16.2975 82.1028 15.875 81.5997 15.875ZM82.76 17.7931C82.265 17.7931 81.8431 18.2325 81.8431 18.748C81.8431 19.2719 82.265 19.7028 82.76 19.7028C83.263 19.7028 83.6687 19.2634 83.6687 18.748C83.6687 18.2241 83.263 17.7931 82.76 17.7931Z" fill="#00080C"/>
<path d="M98.6062 17.1875V26.0008H96.0261V23.8123C96.0261 21.7674 95.0443 20.4407 92.8455 20.4407C90.4033 20.4407 89.1862 22.1476 89.1862 24.0066C89.1862 25.5192 88.6426 26.0008 87.7906 26.0008H86.5168C86.5573 25.3502 86.5736 24.6995 86.5736 24.108C86.5736 22.6546 86.387 21.2266 86.1192 20.0436L84.3017 20.3055C84.5451 21.4209 84.7155 22.7729 84.7155 24.2348C84.7155 24.6911 84.6912 25.4009 84.6344 25.9924H84.253C82.963 25.9924 82.5816 25.7558 82.5816 24.5981V20.9224H80.7966V24.2348C80.7966 25.6544 80.3828 26.1107 79.6526 26.1107C78.825 26.1107 78.6789 25.5361 78.6789 24.2179V21.5054H76.8209V24.1756C76.8209 25.6121 76.472 25.9924 75.5551 25.9924H73.8107V17.1875H71.9526V27.5218H75.5389C76.5693 27.5218 77.1292 27.1669 77.4132 26.4994C77.6404 27.2007 78.3868 27.6401 79.3037 27.6401C80.4071 27.6401 81.1455 27.1416 81.4295 26.5078C81.8433 27.319 82.5897 27.5218 84.0664 27.5218H88.0097C89.1862 27.5218 89.7542 27.0739 90.0057 26.3895C90.5006 27.0655 91.1335 27.5218 93.1538 27.5218H100.472V17.1875H98.6062ZM94.2167 26.0008H93.1457C91.6852 26.0008 91.0361 25.3248 91.0361 23.9475C91.0361 22.7983 91.6528 21.9702 92.7075 21.9702C93.6487 21.9702 94.2167 22.587 94.2167 24.0489V26.0008Z" fill="#00080C"/>
<path d="M102.711 17.1875H104.569V27.5218H102.711V17.1875Z" fill="#00080C"/>
<path d="M106.558 31.0168L106.671 29.4367C106.671 29.4367 107.767 29.6818 108.87 29.6818C110.331 29.6818 111.304 29.1072 111.304 27.7298V27.5101H110.193C107.458 27.5101 106.436 26.1919 106.436 24.1132C106.436 22.1951 107.58 20.4375 110.152 20.4375C111.824 20.4375 113.106 20.9529 113.106 20.9529V27.5524C113.106 29.5719 111.84 31.2196 108.7 31.2196C107.645 31.2112 106.558 31.0168 106.558 31.0168ZM111.304 22.2204C111.304 22.2204 110.769 21.9585 109.965 21.9585C108.911 21.9585 108.294 22.795 108.294 23.9358C108.294 25.2709 108.927 25.9891 110.404 25.9891H111.304V22.2204Z" fill="#00080C"/>
<path d="M122.688 17.7266C122.185 17.7266 121.771 18.166 121.771 18.673C121.771 19.1884 122.169 19.6278 122.688 19.6278C123.199 19.6278 123.605 19.1884 123.605 18.673C123.605 18.1491 123.183 17.7266 122.688 17.7266ZM120.432 17.7266C119.929 17.7266 119.523 18.166 119.523 18.673C119.523 19.1884 119.897 19.6278 120.432 19.6278C120.951 19.6278 121.349 19.2053 121.349 18.673C121.349 18.1406 120.943 17.7266 120.432 17.7266Z" fill="#00080C"/>
<path d="M130.672 20.4375C128.23 20.4375 127.012 22.1444 127.012 24.0034C127.012 25.0427 127.28 25.6849 127.791 26.0905C127.726 26.0736 127.442 25.9976 127.012 25.9976H124.692V20.9529C124.692 20.9529 123.41 20.4375 121.739 20.4375C119.158 20.4375 118.022 22.1951 118.022 24.1217C118.022 26.2088 119.053 27.5186 121.779 27.5186H133.86V23.809C133.852 21.7557 132.871 20.4375 130.672 20.4375ZM122.883 25.9976H121.982C120.505 25.9976 119.872 25.2793 119.872 23.9442C119.872 22.795 120.489 21.9669 121.544 21.9669C122.347 21.9669 122.883 22.2289 122.883 22.2289V25.9976ZM132.035 25.9976H130.964C129.503 25.9976 128.854 25.3216 128.854 23.9442C128.854 22.795 129.471 21.9669 130.526 21.9669C131.467 21.9669 132.035 22.5838 132.035 24.0456V25.9976Z" fill="#00080C"/>
<path d="M156.724 17.1849V25.9982H154.152V23.8097C154.152 21.7648 153.171 20.4382 150.972 20.4382C148.53 20.4382 147.313 22.1451 147.313 24.004C147.313 25.5166 146.769 25.9982 145.917 25.9982H145.187C145.049 23.1844 143.848 21.7141 142.071 20.8776L145.511 18.7228V16.8047L139.929 20.4382V21.8578C142.168 22.3986 143.296 23.7167 143.369 25.9982H138.509V20.6325H136.651V27.6798C136.651 29.2599 136.083 29.7331 135.126 29.7331C134.679 29.7331 134.322 29.6571 133.982 29.5557L133.844 31.102C134.185 31.1865 134.59 31.2457 135.02 31.2457C137.876 31.2457 138.501 29.4543 138.501 27.5784V27.5192H146.104C147.288 27.5192 147.848 27.0714 148.108 26.3869C148.603 27.0629 149.235 27.5192 151.256 27.5192H158.574V17.1849H156.724ZM152.335 25.9982H151.264C149.803 25.9982 149.154 25.3222 149.154 23.9449C149.154 22.7957 149.779 21.9676 150.834 21.9676C151.775 21.9676 152.343 22.5845 152.343 24.0463V25.9982H152.335Z" fill="#00080C"/>
<path d="M160.838 17.1875H162.696V27.5218H160.838V17.1875Z" fill="#00080C"/>
<path d="M218.779 47.4375H215.971V50.3612H218.779V47.4375Z" fill="#00080C"/>
<path d="M218.779 53.2734H215.971V56.1971H218.779V53.2734Z" fill="#00080C"/>
<path d="M193.537 41.5859V53.2638H190.729V47.4249H176.709V56.1875H213.164V47.4249H199.143V53.2638H196.336V44.5096H218.771V41.5859H193.537ZM187.93 53.2722H179.516V50.357H187.93V53.2722ZM201.951 50.3485H210.365V53.2638H201.951V50.3485Z" fill="#00080C"/>
<path d="M224.385 12.3867H221.578V15.3104H224.385V12.3867Z" fill="#00080C"/>
<path d="M230 12.3867H227.192V15.3104H230V12.3867Z" fill="#00080C"/>
<path d="M221.586 18.2256V32.8356H227.193V35.7508H218.779V12.3867H215.979V38.6745H227.193V41.5898H221.586V56.1913H230V18.2256H221.586ZM227.193 53.2761H224.385V44.5135H227.193V53.2761ZM227.193 29.9119H224.385V21.1493H227.193V29.9119Z" fill="#00080C"/>
<path d="M190.738 6.54688H187.93V9.47056H190.738V6.54688Z" fill="#00080C"/>
<path d="M190.737 0.707031H187.93V3.63072H190.737V0.707031Z" fill="#00080C"/>
<path d="M193.537 0.707031V9.46964H207.557V3.63072H210.364V12.3849H187.93V15.3086H213.164V3.63072H215.971V9.46964H229.992V0.707031H193.537ZM204.758 6.54595H196.344V3.63072H204.758V6.54595ZM227.192 6.54595H218.778V3.63072H227.192V6.54595Z" fill="#00080C"/>
<path d="M185.131 41.5859H182.324V44.5096H185.131V41.5859Z" fill="#00080C"/>
<path d="M179.524 41.5859H176.717V44.5096H179.524V41.5859Z" fill="#00080C"/>
<path d="M179.516 18.2238V15.3086H185.123V0.707031H176.709V38.6727H185.123V24.0712H179.516V21.1559H187.93V44.5201H190.729V18.2238H179.516ZM179.516 3.63072H182.324V12.3849H179.516V3.63072ZM182.324 26.9864V35.749H179.516V26.9864H182.324Z" fill="#00080C"/>
<path d="M206.94 25.001C207.216 25.6094 207.378 26.2854 207.443 26.9191C206.762 26.0065 205.942 25.2038 205.058 24.5954C205.131 24.6968 205.204 24.8067 205.269 24.9165C205.991 26.1417 205.869 27.7557 205.447 29.0654C205.188 27.8317 204.733 26.6318 204.149 25.6009C204.011 25.3644 203.873 25.1362 203.719 24.9081L203.93 30.4259C203.93 30.6202 203.711 30.9751 203.346 30.9751C202.981 30.9751 202.762 30.6287 202.762 30.4259L202.973 24.9165C202.818 25.1362 202.672 25.3644 202.543 25.6009C201.958 26.6318 201.504 27.8317 201.244 29.0654C200.831 27.7557 200.701 26.1333 201.423 24.9165C201.488 24.8067 201.561 24.6968 201.634 24.5954C200.758 25.2038 199.93 26.0065 199.248 26.9191C199.386 25.6516 199.881 24.2152 200.969 23.4969C201.334 23.2603 201.723 23.0998 202.129 23.0153C202.129 22.9899 202.129 22.9984 202.129 22.973C201.894 22.9899 201.666 23.0068 201.431 23.0491C200.417 23.2096 199.443 23.5138 198.51 23.9701C199.192 22.8885 200.271 22.0773 201.285 21.9337C201.447 21.9083 201.618 21.8999 201.788 21.9083C201.18 21.5872 200.514 21.3168 199.833 21.1309C200.758 20.869 201.764 20.9281 202.632 21.3253C202.883 20.2099 203.338 19.5508 203.338 19.5508C203.338 19.5508 203.792 20.2099 204.044 21.3253C204.912 20.9197 205.918 20.869 206.843 21.1309C206.161 21.3168 205.496 21.5872 204.887 21.9083C205.058 21.8999 205.228 21.9083 205.391 21.9337C205.902 22.0013 206.429 22.2379 206.908 22.6012C207.395 22.9561 207.833 23.4293 208.174 23.9701C207.24 23.5138 206.267 23.2096 205.253 23.0491C205.017 23.0153 204.79 22.9899 204.555 22.973C204.555 23.0068 204.555 22.9899 204.555 23.0153C204.961 23.0998 205.35 23.2603 205.715 23.4969C206.267 23.8603 206.664 24.3926 206.94 25.001Z" fill="#88774F"/>
<path d="M213.164 28.811C212.084 28.6843 210.949 28.9209 209.951 29.5546L204.255 33.1796L206.543 34.633L206.859 34.0922C206.851 34.0922 206.843 34.0838 206.835 34.0838C206.583 33.9232 206.502 33.5683 206.656 33.3064C206.811 33.0444 207.143 32.9599 207.403 33.1205C207.654 33.281 207.736 33.6275 207.581 33.8979L206.981 34.9203L207.281 35.1147L207.963 35.5456C208.19 35.6977 208.466 35.7062 208.693 35.6048C208.701 35.7315 208.685 35.8583 208.636 35.9766C208.62 36.0188 208.604 36.0611 208.571 36.1033C208.344 36.5005 207.841 36.6272 207.468 36.3822L206.486 35.7569L206.17 36.2977C206.178 36.2977 206.186 36.3061 206.194 36.3061C206.445 36.4667 206.527 36.8131 206.372 37.0835C206.218 37.3455 205.877 37.4384 205.626 37.2694C205.374 37.1004 205.293 36.754 205.447 36.492L206.048 35.4696L203.354 33.7542L200.66 35.4696L201.261 36.492C201.415 36.754 201.334 37.1089 201.082 37.2694C200.831 37.43 200.498 37.3455 200.336 37.0835C200.182 36.8216 200.263 36.4751 200.514 36.3061C200.522 36.3061 200.531 36.2977 200.539 36.2892L200.222 35.7484L199.24 36.3737C198.859 36.6188 198.364 36.492 198.129 36.0949C198.105 36.0526 198.088 36.0104 198.064 35.9681C198.023 35.8498 197.999 35.7146 198.007 35.5963C198.242 35.6977 198.51 35.6893 198.746 35.5372L199.427 35.1062L199.735 34.9119L199.135 33.8894C198.981 33.6275 199.062 33.281 199.313 33.112C199.565 32.9515 199.898 33.036 200.06 33.2979C200.214 33.5599 200.133 33.9148 199.881 34.0753C199.873 34.0753 199.865 34.0838 199.857 34.0838L200.174 34.6246L202.462 33.1712L196.766 29.5462C195.768 28.9124 194.632 28.6758 193.553 28.8026C194.624 28.0421 196.076 27.9491 197.261 28.7096L203.37 32.5966L209.48 28.7096C210.64 27.966 212.093 28.0505 213.164 28.811Z" fill="#88774F"/>
</svg>
