<?xml version="1.0" encoding="UTF-8"?>
<svg id="Layer_1" data-name="Layer 1" xmlns="http://www.w3.org/2000/svg" viewBox="0 0 161.82 161.82">
  <defs>
    <style>
      .cls-1 {
        fill: #080e10;
      }

      .cls-2 {
        fill: #887850;
      }
    </style>
  </defs>
  <g>
    <path class="cls-1" d="M93.36,73.24h-2.27v2.36h2.27v-2.36Z"/>
    <path class="cls-1" d="M93.36,77.95h-2.27v2.36h2.27v-2.36Z"/>
    <path class="cls-1" d="M72.98,68.52v9.43h-2.27v-4.71h-11.32v7.07h29.43v-7.07h-11.32v4.71h-2.27v-7.07h18.11v-2.36h-20.37ZM68.45,77.95h-6.79v-2.35h6.79v2.35ZM79.77,75.59h6.79v2.35h-6.79v-2.35Z"/>
    <path class="cls-1" d="M97.89,44.94h-2.27v2.36h2.27v-2.36Z"/>
    <path class="cls-1" d="M102.42,44.94h-2.27v2.36h2.27v-2.36Z"/>
    <path class="cls-1" d="M95.63,49.66v11.8h4.53v2.35h-6.79v-18.86h-2.26v21.22h9.05v2.35h-4.53v11.79h6.79v-30.65h-6.79ZM100.15,77.96h-2.27v-7.07h2.27v7.07ZM100.15,59.09h-2.27v-7.07h2.27v7.07Z"/>
    <path class="cls-1" d="M70.72,40.23h-2.27v2.36h2.27v-2.36Z"/>
    <path class="cls-1" d="M70.72,35.51h-2.27v2.36h2.27v-2.36Z"/>
    <path class="cls-1" d="M72.98,35.51v7.07h11.32v-4.71h2.27v7.07h-18.11v2.36h20.37v-9.43h2.27v4.71h11.32v-7.07h-29.43ZM82.04,40.23h-6.79v-2.35h6.79v2.35ZM100.15,40.23h-6.79v-2.35h6.79v2.35Z"/>
    <path class="cls-1" d="M66.19,68.52h-2.27v2.36h2.27v-2.36Z"/>
    <path class="cls-1" d="M61.67,68.52h-2.27v2.36h2.27v-2.36Z"/>
    <path class="cls-1" d="M61.66,49.66v-2.35h4.53v-11.79h-6.79v30.65h6.79v-11.79h-4.53v-2.35h6.79v18.86h2.26v-21.23h-9.05ZM61.66,37.87h2.27v7.07h-2.27v-7.07ZM63.93,56.73v7.07h-2.27v-7.07h2.27Z"/>
    <path class="cls-2" d="M83.8,55.13c.22.49.35,1.04.41,1.55-.55-.74-1.21-1.38-1.93-1.88.06.08.12.17.17.26.58.99.48,2.29.14,3.35-.21-1-.58-1.96-1.05-2.8-.11-.19-.22-.38-.35-.56l.17,4.45c0,.16-.18.44-.47.44s-.47-.28-.47-.44l.17-4.45c-.13.18-.24.36-.35.55-.47.83-.84,1.8-1.05,2.8-.33-1.06-.44-2.37.14-3.35.05-.09.11-.18.17-.26-.71.49-1.38,1.14-1.93,1.88.11-1.02.51-2.18,1.39-2.76.3-.19.61-.32.94-.39v-.03c-.19.01-.37.03-.56.06-.82.13-1.61.38-2.36.74.55-.87,1.42-1.53,2.24-1.64.13-.02.27-.03.41-.02-.49-.26-1.03-.48-1.58-.63.75-.21,1.56-.16,2.26.16.2-.9.57-1.43.57-1.43,0,0,.37.53.57,1.43.7-.33,1.51-.37,2.26-.16-.55.15-1.09.37-1.58.63.14,0,.28,0,.41.02.41.05.84.25,1.23.54.39.29.75.67,1.02,1.11-.75-.37-1.54-.61-2.36-.74-.19-.03-.37-.05-.56-.06v.03c.33.07.64.2.94.39.45.29.77.72.99,1.21Z"/>
    <path class="cls-2" d="M88.83,58.2c-.87-.1-1.79.09-2.59.6l-4.6,2.93,1.85,1.17.26-.44s-.01,0-.02,0c-.2-.13-.27-.42-.14-.63.13-.21.39-.28.6-.15.2.13.27.41.14.63l-.48.83.24.16.55.35c.18.12.41.13.59.05,0,.1,0,.2-.05.3-.01.03-.03.07-.05.1-.18.32-.59.42-.89.23l-.79-.5-.26.44s.01,0,.02,0c.2.13.27.41.14.63-.12.21-.4.29-.6.15-.2-.14-.27-.42-.14-.63l.49-.83-2.18-1.38-2.18,1.38.49.83c.12.21.06.5-.14.63-.2.13-.47.06-.6-.15-.12-.21-.06-.49.14-.63,0,0,.01,0,.02-.01l-.26-.44-.79.5c-.31.2-.71.1-.9-.23-.02-.03-.03-.07-.05-.1-.03-.1-.05-.2-.05-.3.19.08.41.08.6-.05l.55-.35.25-.16-.48-.83c-.12-.21-.06-.49.14-.63.2-.13.47-.06.6.15.12.21.06.5-.14.63,0,0-.01,0-.02,0l.26.44,1.85-1.17-4.6-2.93c-.81-.51-1.72-.7-2.59-.6.86-.61,2.04-.69,2.99-.08l4.93,3.14,4.93-3.14c.94-.6,2.11-.53,2.97.08Z"/>
  </g>
  <g>
    <path class="cls-1" d="M33.37,91.81c-.31,0-.57.27-.57.59s.25.59.57.59.57-.27.57-.59-.26-.59-.57-.59ZM31.97,91.81c-.31,0-.56.27-.56.59s.23.59.56.59.57-.27.57-.59-.25-.59-.57-.59Z"/>
    <path class="cls-1" d="M44.14,93.5c-1.51,0-2.27,1.05-2.27,2.21,0,.64.17,1.05.48,1.3-.04-.01-.22-.06-.48-.06h-1.06c-.09-1.74-.83-2.65-1.93-3.17l2.13-1.34v-1.19l-3.46,2.26v.88c1.39.34,2.09,1.15,2.13,2.56h-5.08v-3.13s-.8-.31-1.83-.31c-1.6,0-2.3,1.09-2.3,2.28,0,1.29.64,2.11,2.33,2.11h13.31v-2.3c0-1.27-.61-2.09-1.97-2.09ZM33.49,96.94h-.56c-.92,0-1.31-.45-1.31-1.27,0-.71.38-1.23,1.04-1.23.5,0,.83.16.83.16v2.34ZM44.99,96.94h-.66c-.91,0-1.31-.42-1.31-1.27,0-.71.38-1.23,1.04-1.23.58,0,.94.38.94,1.29v1.21Z"/>
    <path class="cls-1" d="M51.92,91.81c-.31,0-.57.27-.57.59s.24.59.57.59.57-.27.57-.59c0-.32-.26-.59-.57-.59ZM50.52,91.81c-.31,0-.57.27-.57.59s.24.59.57.59.57-.27.57-.59-.26-.59-.57-.59Z"/>
    <path class="cls-1" d="M57.59,91.81c-.32,0-.6.29-.6.62s.27.63.6.63.6-.28.6-.63-.28-.62-.6-.62Z"/>
    <path class="cls-1" d="M61.21,98.55c-.31,0-.57.26-.57.59s.24.59.57.59.57-.27.57-.59-.26-.59-.57-.59ZM59.82,98.55c-.31,0-.57.26-.57.59s.25.59.57.59.57-.27.57-.59-.26-.59-.57-.59Z"/>
    <path class="cls-1" d="M59.97,93.62v3.33h-1.8v-3.33h-1.15v3.33h-3.86v-3.13s-.79-.31-1.83-.31c-1.6,0-2.3,1.09-2.3,2.28,0,1.29.64,2.11,2.33,2.11h9.77v-4.28h-1.16ZM52.04,96.94h-.56c-.92,0-1.31-.45-1.31-1.27,0-.71.38-1.23,1.04-1.23.5,0,.83.16.83.16v2.34Z"/>
    <path class="cls-1" d="M73.05,91.48v5.47h-1.6v-1.35c0-1.27-.61-2.09-1.97-2.09-1.51,0-2.27,1.05-2.27,2.21,0,.94-.34,1.24-.87,1.24h-.42c-.11-2.03-1.11-3.06-2.91-3.55l-.28,1c1.38.36,2.01,1.2,2.06,2.54h-2.58v.95h4.25c.73,0,1.08-.28,1.24-.7.31.42.7.7,1.95.7h4.54v-6.41h-1.16ZM70.33,96.94h-.66c-.91,0-1.31-.42-1.31-1.27,0-.71.38-1.23,1.04-1.23.58,0,.94.38.94,1.29v1.21Z"/>
    <path class="cls-1" d="M80.15,91.81c-.31,0-.56.27-.56.59s.24.59.56.59.57-.27.57-.59-.26-.59-.57-.59ZM78.75,91.81c-.31,0-.56.27-.56.59s.23.59.56.59.57-.27.57-.59-.25-.59-.57-.59Z"/>
    <path class="cls-1" d="M84.91,98.55c-.32,0-.57.26-.57.59s.24.59.57.59.56-.27.56-.59-.26-.59-.56-.59ZM86.31,98.55c-.32,0-.57.26-.57.59s.24.59.57.59.56-.27.56-.59-.26-.59-.56-.59Z"/>
    <path class="cls-1" d="M100.65,91.48v5.47h-1.6v-1.35c0-1.27-.61-2.09-1.97-2.09-1.51,0-2.27,1.05-2.27,2.21,0,.94-.34,1.24-.87,1.24h-.83v-5.47h-1.15v5.47h-1.42c-.09-1.74-.83-2.65-1.93-3.17l2.13-1.34v-1.19l-3.46,2.26v.88c1.39.34,2.09,1.15,2.13,2.56h-3.23v-3.33h-1.15v3.33h-3.65v-3.13s-.8-.31-1.83-.31c-1.6,0-2.3,1.09-2.3,2.28,0,1.29.64,2.11,2.33,2.11h14.48c.73,0,1.08-.28,1.24-.7.3.42.69.7,1.95.7h4.54v-6.41h-1.15ZM80.27,96.94h-.56c-.92,0-1.31-.45-1.31-1.27,0-.71.38-1.23,1.04-1.23.5,0,.83.16.83.16v2.34ZM97.92,96.94h-.66c-.91,0-1.31-.42-1.31-1.27,0-.71.38-1.23,1.04-1.23.58,0,.94.38.94,1.29v1.21Z"/>
    <path class="cls-1" d="M103.19,91.48h1.15v6.41h-1.15v-6.41Z"/>
    <path class="cls-1" d="M110.3,91.81c-.31,0-.57.27-.57.59s.24.59.57.59.57-.27.57-.59c0-.32-.27-.59-.57-.59ZM108.9,91.81c-.31,0-.57.27-.57.59s.24.59.57.59.57-.27.57-.59-.26-.59-.57-.59Z"/>
    <path class="cls-1" d="M116.22,92.53c-.49,0-.63-.13-.63-.34,0-.17.13-.31.43-.31.23,0,.43.05.47.05l.11-.63c-.06-.01-.28-.05-.51-.05-.92,0-1.28.49-1.28.94,0,.16.09.32.22.4-.12-.03-.33-.05-.53-.05v.66h2.25v-.66h-.53Z"/>
    <path class="cls-1" d="M119.4,98.55c-.31,0-.57.26-.57.59s.24.59.57.59.57-.27.57-.59-.26-.59-.57-.59ZM118.01,98.55c-.31,0-.57.26-.57.59s.24.59.57.59.57-.27.57-.59-.26-.59-.57-.59Z"/>
    <path class="cls-1" d="M127.66,91.48v5.47h-1.4v-.03c0-2.66-1.24-3.74-3.42-3.74-.7,0-1.49.15-2.12.36l.11.94c.55-.19,1.27-.36,1.87-.36,1.73,0,2.47.83,2.47,2.72v.11h-.88v-.21c0-1.03-.44-1.92-1.61-1.92-1.06,0-1.68.64-1.68,1.53,0,.38.18.6.21.64-.03,0-.19-.04-.39-.04h-1.53v-3.33h-1.15v3.33h-1.8v-3.33h-1.15v3.33h-3.65v-3.13s-.8-.31-1.84-.31c-1.6,0-2.3,1.09-2.3,2.28,0,1.29.64,2.11,2.33,2.11h19.07v-6.42h-1.14ZM110.42,96.94h-.56c-.92,0-1.31-.45-1.31-1.27,0-.71.38-1.23,1.04-1.23.5,0,.83.16.83.16v2.34ZM123.34,96.98h-.57c-.45,0-.83-.2-.83-.72,0-.38.26-.62.65-.62.51,0,.75.37.75,1.07v.26h0Z"/>
    <path class="cls-1" d="M130.2,91.48h1.15v6.41h-1.15v-6.41Z"/>
    <path class="cls-1" d="M33.36,101.8c-.31,0-.57.27-.57.59s.25.59.57.59.57-.27.57-.59-.26-.59-.57-.59ZM31.96,101.8c-.31,0-.56.27-.56.59s.23.59.56.59.57-.26.57-.59-.25-.59-.57-.59Z"/>
    <path class="cls-1" d="M42.23,103.23l-1.13.16c.15.69.26,1.53.26,2.44,0,.28-.02.72-.05,1.09h-.24c-.81,0-1.04-.15-1.04-.86v-2.28h-1.11v2.05c0,.88-.26,1.16-.71,1.16-.51,0-.6-.36-.6-1.17v-1.68h-1.15v1.66c0,.89-.22,1.13-.78,1.13h-1.09v-3.13s-.8-.32-1.83-.32c-1.6,0-2.3,1.09-2.3,2.28,0,1.29.64,2.11,2.33,2.11h2.88c.64,0,.99-.22,1.16-.63.14.43.6.71,1.17.71.68,0,1.14-.31,1.32-.7.26.5.72.63,1.64.63h1.44c.08-.64.12-1.46.12-2.12,0-.9-.12-1.79-.29-2.52ZM33.48,106.93h-.56c-.92,0-1.31-.45-1.31-1.27,0-.71.38-1.23,1.04-1.23.5,0,.83.16.83.16v2.34Z"/>
    <path class="cls-1" d="M49.71,101.8c-.31,0-.57.27-.57.59s.24.59.57.59.57-.26.57-.59c0-.33-.26-.59-.57-.59ZM51.11,101.8c-.31,0-.57.27-.57.59s.24.59.57.59.57-.27.57-.59-.26-.59-.57-.59Z"/>
    <path class="cls-1" d="M59.68,101.46v5.47h-1.6v-1.36c0-1.27-.61-2.09-1.97-2.09-1.51,0-2.27,1.06-2.27,2.21,0,.94-.34,1.24-.87,1.24h-.3c-.31,0-.67.04-.67.04.33-.29.5-.84.5-1.37,0-1.45-.8-2.12-2.02-2.12-1.33,0-2.22.95-2.22,2.26,0,.52.14.94.41,1.23,0,0-.27-.04-.54-.04h-.88c-.11-2.03-1.11-3.06-2.91-3.55l-.28,1c1.38.36,2.01,1.2,2.06,2.55h-2.59v.94h9.57c.73,0,1.08-.28,1.24-.7.31.42.7.7,1.95.7h4.54v-6.41h-1.16ZM50.38,106.93c-.64,0-.96-.43-.96-1.28s.48-1.22.98-1.22c.65,0,.96.43.96,1.23,0,.84-.42,1.27-.98,1.27ZM56.96,106.93h-.66c-.91,0-1.31-.42-1.31-1.27,0-.71.38-1.23,1.04-1.23.58,0,.94.38.94,1.29v1.21Z"/>
    <path class="cls-1" d="M62.24,101.46h1.15v6.41h-1.15v-6.41Z"/>
    <path class="cls-1" d="M74.1,106.93v.94h-5.28v.04c0,1.16-.38,2.27-2.16,2.27-.27,0-.52-.04-.73-.09l.09-.96c.21.06.43.11.71.11.59,0,.94-.29.94-1.27v-4.37h1.15v3.33h2.13c-.38-.24-.67-.75-.67-1.36,0-1.13.74-2.09,2.28-2.09.59,0,1.08.17,1.08.17l-.2.95s-.4-.19-.91-.19c-.65,0-1.1.46-1.1,1.15,0,.77.6,1.36,1.99,1.36h.69Z"/>
    <path class="cls-1" d="M80.34,101.84c-.31,0-.57.27-.57.59s.26.59.57.59.57-.27.57-.59-.26-.59-.57-.59ZM81.06,100.65c-.31,0-.57.27-.57.59s.26.59.57.59.57-.28.57-.59c0-.33-.26-.59-.57-.59ZM81.78,101.84c-.31,0-.57.27-.57.59s.26.59.57.59.56-.27.56-.59-.25-.59-.56-.59Z"/>
    <path class="cls-1" d="M91.61,101.46v5.47h-1.6v-1.36c0-1.27-.61-2.09-1.97-2.09-1.51,0-2.27,1.06-2.27,2.21,0,.94-.34,1.24-.87,1.24h-.79c.03-.4.04-.81.04-1.17,0-.9-.12-1.79-.28-2.52l-1.13.16c.15.69.26,1.53.26,2.44,0,.28-.02.72-.05,1.09h-.24c-.8,0-1.04-.15-1.04-.86v-2.28h-1.11v2.05c0,.88-.26,1.16-.71,1.16-.51,0-.6-.36-.6-1.17v-1.68h-1.15v1.66c0,.89-.22,1.13-.78,1.13h-1.08v-5.46h-1.15v6.41h2.22c.64,0,.99-.22,1.16-.63.14.43.6.71,1.17.71.68,0,1.14-.31,1.32-.7.26.5.72.63,1.64.63h2.45c.73,0,1.08-.28,1.24-.7.31.42.7.7,1.95.7h4.54v-6.41h-1.16ZM88.89,106.93h-.66c-.91,0-1.31-.42-1.31-1.27,0-.71.38-1.23,1.04-1.23.58,0,.94.38.94,1.29v1.21Z"/>
    <path class="cls-1" d="M94.16,101.46h1.15v6.41h-1.15v-6.41Z"/>
    <path class="cls-1" d="M96.54,110.04l.07-.98s.68.15,1.36.15c.91,0,1.51-.36,1.51-1.21v-.14h-.69c-1.7,0-2.33-.82-2.33-2.11,0-1.19.71-2.28,2.3-2.28,1.04,0,1.83.32,1.83.32v4.09c0,1.25-.79,2.27-2.73,2.27-.65,0-1.33-.13-1.33-.13ZM99.48,104.58s-.33-.16-.83-.16c-.65,0-1.04.52-1.04,1.23,0,.83.39,1.27,1.31,1.27h.56v-2.34Z"/>
    <path class="cls-1" d="M106.54,101.8c-.31,0-.57.27-.57.59s.25.59.57.59.57-.27.57-.59-.26-.59-.57-.59ZM105.15,101.8c-.31,0-.56.27-.56.59s.23.59.56.59.57-.26.57-.59-.25-.59-.57-.59Z"/>
    <path class="cls-1" d="M111.5,103.48c-1.51,0-2.27,1.06-2.27,2.21,0,.64.17,1.04.48,1.29-.04-.01-.22-.06-.48-.06h-1.44v-3.13s-.8-.32-1.83-.32c-1.6,0-2.31,1.09-2.31,2.28,0,1.29.64,2.11,2.33,2.11h7.49v-2.3c0-1.27-.61-2.09-1.98-2.09ZM106.67,106.93h-.56c-.92,0-1.31-.45-1.31-1.27,0-.71.38-1.23,1.04-1.23.5,0,.83.16.83.16v2.34ZM112.34,106.93h-.66c-.91,0-1.31-.42-1.31-1.27,0-.71.38-1.23,1.04-1.23.58,0,.94.38.94,1.29v1.21Z"/>
    <path class="cls-1" d="M127.65,101.46v5.47h-1.6v-1.36c0-1.27-.61-2.09-1.97-2.09-1.51,0-2.27,1.06-2.27,2.21,0,.94-.34,1.24-.87,1.24h-.45c-.09-1.74-.83-2.66-1.93-3.18l2.13-1.34v-1.19l-3.46,2.25v.88c1.39.34,2.09,1.15,2.13,2.57h-3.01v-3.33h-1.15v4.37c0,.98-.35,1.27-.95,1.27-.28,0-.5-.05-.71-.11l-.09.96c.21.05.46.09.73.09,1.77,0,2.16-1.11,2.16-2.27v-.04h4.71c.73,0,1.08-.28,1.24-.7.31.42.7.7,1.95.7h4.54v-6.41h-1.15ZM124.93,106.93h-.66c-.91,0-1.31-.42-1.31-1.27,0-.71.39-1.23,1.04-1.23.58,0,.94.38.94,1.29v1.21h0Z"/>
    <path class="cls-1" d="M130.2,101.46h1.15v6.41h-1.15v-6.41Z"/>
  </g>
  <g>
    <path class="cls-2" d="M47.02,118.21s-.07-.02-.08-.06l-.98-2.12h-1.27s-.04.01-.04.04v2.07s-.02.07-.07.07h-.26s-.07-.02-.07-.07v-4.74s.02-.07.07-.07h1.58c.44,0,.8.12,1.05.36.26.24.38.57.38.99,0,.34-.08.62-.25.84-.17.23-.41.37-.71.45l1.02,2.16s.02.04.01.06c0,.01-.02.02-.04.02h-.32ZM45.89,115.64c.33,0,.59-.08.77-.25.18-.17.27-.4.27-.72s-.09-.54-.27-.71c-.18-.17-.43-.25-.77-.25h-1.19s-.04.01-.04.04v1.84s.01.04.04.04h1.19Z"/>
    <path class="cls-2" d="M49.97,118.28c-.39,0-.71-.09-.96-.28-.26-.19-.44-.46-.56-.82-.02-.06-.04-.13-.06-.21-.02-.08-.03-.17-.04-.28-.01-.11-.02-.24-.03-.38,0-.15-.01-.33-.01-.54s0-.39.01-.54c0-.15.02-.28.03-.38.01-.11.03-.2.04-.28.02-.08.03-.15.06-.21.12-.36.3-.63.56-.82.26-.19.58-.28.96-.28s.7.09.96.28.44.46.56.82c.02.07.04.14.06.21.02.08.03.17.04.28.01.11.02.24.03.38.01.14.01.32.01.53s0,.39-.01.54c0,.15-.02.28-.03.38-.01.11-.03.2-.04.28-.02.08-.04.15-.06.21-.12.36-.3.63-.56.82-.26.19-.57.28-.96.28ZM51.22,115.77c0-.2,0-.36-.01-.51,0-.14-.02-.27-.02-.36-.01-.1-.02-.19-.04-.25-.02-.07-.03-.13-.04-.17-.17-.55-.55-.83-1.13-.83s-.96.28-1.14.83c-.01.05-.03.1-.04.17-.02.07-.03.15-.04.25-.01.1-.02.22-.02.36,0,.14-.01.31-.01.51s0,.36.01.51c0,.14.02.27.02.36.01.1.02.19.04.25.02.07.03.13.04.17.17.55.56.83,1.14.83s.96-.28,1.13-.83c.01-.05.03-.1.04-.17.02-.07.03-.15.04-.25.01-.1.02-.22.02-.36,0-.14.01-.31.01-.51Z"/>
    <path class="cls-2" d="M53.67,118.21s-.07-.02-.07-.07v-1.94l-1.4-2.8s0-.03,0-.05c.01-.02.03-.02.05-.02h.27s.08.02.11.07l1.18,2.34h.02l1.16-2.34s.06-.07.11-.07h.26s.04,0,.06.02c.01.02.01.03,0,.05l-1.4,2.8v1.93s-.02.07-.07.07h-.26Z"/>
    <path class="cls-2" d="M57.05,113.4s.04-.07.08-.07h.25s.07.02.08.07l1.63,4.74s0,.07-.05.07h-.27s-.08-.02-.09-.07l-.42-1.2h-2.04l-.42,1.2s-.05.07-.09.07h-.27s-.06-.02-.05-.07l1.64-4.74ZM58.13,116.54l-.88-2.55h-.02l-.88,2.55h1.78Z"/>
    <path class="cls-2" d="M60.04,113.4s.02-.07.07-.07h.26s.07.02.07.07v4.38s.01.04.04.04h2.32s.07.02.07.07v.24s-.02.07-.07.07h-2.69s-.07-.02-.07-.07v-4.74Z"/>
    <path class="cls-2" d="M65.55,117.19c-.02-.06-.03-.13-.05-.2-.02-.08-.03-.17-.04-.28-.01-.11-.02-.24-.02-.39,0-.15-.01-.34-.01-.55s0-.4.01-.55c0-.15.02-.28.02-.39.01-.11.02-.2.04-.28.02-.08.03-.14.05-.2.12-.37.31-.64.55-.82.25-.18.56-.27.93-.27.32,0,.61.08.85.23.24.15.43.38.57.68.02.04.01.08-.02.09l-.23.12s-.07.01-.09-.03c-.11-.21-.24-.38-.42-.51-.17-.13-.39-.19-.66-.19-.29,0-.52.07-.7.2-.18.14-.31.34-.41.61-.01.05-.03.1-.04.17-.01.07-.03.15-.03.25,0,.1-.02.22-.02.36,0,.14,0,.32,0,.53s0,.38,0,.53c0,.14.01.27.02.36.01.1.02.19.03.25.01.07.03.13.04.17.09.27.23.47.41.61.18.14.41.2.7.2.27,0,.49-.06.66-.19.17-.13.31-.29.42-.51.02-.04.05-.05.09-.03l.23.12s.04.05.02.09c-.13.3-.32.53-.57.68-.24.15-.53.23-.85.23-.37,0-.68-.09-.93-.27-.24-.16-.43-.43-.55-.8Z"/>
    <path class="cls-2" d="M70.97,118.28c-.39,0-.71-.09-.96-.28s-.44-.46-.56-.82c-.02-.06-.04-.13-.06-.21-.02-.08-.03-.17-.04-.28-.01-.11-.02-.24-.03-.38,0-.15-.01-.33-.01-.54s0-.39.01-.54c0-.15.02-.28.03-.38.01-.11.03-.2.04-.28.02-.08.03-.15.06-.21.12-.36.3-.63.56-.82.26-.19.58-.28.96-.28s.7.09.95.28c.26.19.44.46.56.82.02.07.04.14.06.21.02.08.03.17.04.28.01.11.02.24.03.38,0,.15.01.33.01.54s0,.39-.01.54c0,.15-.02.28-.03.38-.01.11-.03.2-.04.28-.02.08-.04.15-.06.21-.12.36-.3.63-.56.82-.26.19-.57.28-.95.28ZM72.21,115.77c0-.2,0-.36-.01-.51,0-.14-.02-.27-.02-.36-.01-.1-.02-.19-.04-.25-.02-.07-.03-.13-.04-.17-.17-.55-.55-.83-1.13-.83s-.96.28-1.14.83c-.01.05-.03.1-.04.17-.02.07-.03.15-.04.25-.01.1-.02.22-.02.36,0,.14-.01.31-.01.51s0,.36.01.51c0,.14.02.27.02.36.01.1.02.19.04.25.02.07.03.13.04.17.17.55.56.83,1.14.83s.95-.28,1.13-.83c.01-.05.03-.1.04-.17.02-.07.03-.15.04-.25.01-.1.02-.22.02-.36,0-.14.01-.31.01-.51Z"/>
    <path class="cls-2" d="M73.75,113.4s.02-.07.07-.07h.27s.09.02.11.07l1.52,3.5h.03l1.49-3.5s.05-.07.1-.07h.27s.07.02.07.07v4.74s-.02.07-.07.07h-.26s-.07-.02-.07-.07v-3.82h-.02l-1.35,3.09s-.03.05-.04.06c-.02.01-.04.02-.08.02h-.14c-.06,0-.09-.03-.12-.08l-1.35-3.09h-.02v3.82s-.02.07-.07.07h-.26s-.07-.02-.07-.07v-4.74h0Z"/>
    <path class="cls-2" d="M78.94,113.4s.02-.07.07-.07h.27s.09.02.11.07l1.52,3.5h.03l1.49-3.5s.05-.07.1-.07h.27s.07.02.07.07v4.74s-.02.07-.07.07h-.26s-.07-.02-.07-.07v-3.82h-.02l-1.35,3.09s-.03.05-.04.06c-.02.01-.04.02-.08.02h-.14c-.06,0-.09-.03-.12-.08l-1.35-3.09h-.02v3.82s-.02.07-.07.07h-.26s-.07-.02-.07-.07v-4.74h0Z"/>
    <path class="cls-2" d="M84.14,113.4s.02-.07.07-.07h.26s.07.02.07.07v4.74s-.02.07-.07.07h-.26s-.07-.02-.07-.07v-4.74Z"/>
    <path class="cls-2" d="M87.18,118.28c-.15,0-.31-.02-.46-.05-.15-.03-.29-.08-.43-.13-.13-.05-.26-.12-.37-.19-.11-.07-.21-.14-.29-.21-.04-.03-.04-.07,0-.1l.17-.21s.07-.04.09,0c.16.13.35.24.58.35.23.1.49.16.76.16.38,0,.67-.09.89-.27.22-.18.32-.42.32-.72,0-.12-.02-.23-.06-.34s-.1-.2-.18-.28c-.08-.08-.2-.15-.34-.21-.14-.06-.33-.1-.54-.13l-.22-.03c-.46-.06-.8-.2-1.02-.42-.22-.22-.33-.51-.33-.87,0-.43.13-.76.4-1.01.27-.24.63-.36,1.08-.36.26,0,.51.03.74.11.23.08.43.17.59.3.04.02.04.06.01.1l-.14.22s-.06.04-.09.01c-.19-.12-.37-.21-.55-.27-.18-.06-.38-.09-.58-.09-.33,0-.59.09-.78.26-.18.17-.28.4-.28.69,0,.25.08.45.25.61.17.16.45.27.85.32l.21.03c.48.07.83.21,1.04.43.22.23.33.51.33.88,0,.21-.03.39-.11.57-.07.17-.18.32-.32.45-.14.13-.31.23-.52.29-.21.07-.43.1-.7.1Z"/>
    <path class="cls-2" d="M91.31,118.28c-.15,0-.31-.02-.46-.05-.15-.03-.29-.08-.43-.13-.13-.05-.26-.12-.37-.19-.11-.07-.21-.14-.29-.21-.04-.03-.04-.07,0-.1l.17-.21s.07-.04.09,0c.16.13.35.24.58.35.23.1.49.16.76.16.38,0,.67-.09.89-.27.22-.18.32-.42.32-.72,0-.12-.02-.23-.06-.34-.04-.1-.1-.2-.18-.28-.08-.08-.2-.15-.34-.21s-.33-.1-.54-.13l-.22-.03c-.46-.06-.8-.2-1.02-.42-.22-.22-.33-.51-.33-.87,0-.43.13-.76.4-1.01.27-.24.63-.36,1.08-.36.26,0,.51.03.74.11.23.08.43.17.59.3.04.02.04.06.01.1l-.14.22s-.06.04-.09.01c-.19-.12-.37-.21-.55-.27-.18-.06-.38-.09-.58-.09-.33,0-.59.09-.78.26-.18.17-.28.4-.28.69,0,.25.08.45.25.61.17.16.45.27.85.32l.21.03c.48.07.83.21,1.04.43.22.23.33.51.33.88,0,.21-.03.39-.11.57-.07.17-.18.32-.32.45-.14.13-.31.23-.52.29-.21.07-.43.1-.7.1Z"/>
    <path class="cls-2" d="M94.03,113.4s.02-.07.07-.07h.26s.07.02.07.07v4.74s-.02.07-.07.07h-.26s-.07-.02-.07-.07v-4.74Z"/>
    <path class="cls-2" d="M97.22,118.28c-.39,0-.7-.09-.96-.28-.26-.19-.44-.46-.56-.82-.02-.06-.04-.13-.06-.21-.02-.08-.03-.17-.04-.28-.01-.11-.02-.24-.03-.38,0-.15-.01-.33-.01-.54s0-.39.01-.54c0-.15.02-.28.03-.38.01-.11.03-.2.04-.28.02-.08.03-.15.06-.21.12-.36.3-.63.56-.82.26-.19.58-.28.96-.28s.7.09.96.28.44.46.55.82c.02.07.04.14.06.21.02.08.03.17.04.28.01.11.02.24.03.38,0,.15.01.33.01.54s0,.39-.01.54c0,.15-.02.28-.03.38-.01.11-.03.2-.04.28-.02.08-.04.15-.06.21-.12.36-.3.63-.55.82-.26.19-.57.28-.96.28ZM98.47,115.77c0-.2,0-.36-.01-.51,0-.14-.02-.27-.02-.36-.01-.1-.02-.19-.04-.25-.02-.07-.03-.13-.04-.17-.17-.55-.55-.83-1.13-.83s-.97.28-1.14.83c-.01.05-.03.1-.04.17-.02.07-.03.15-.04.25-.01.1-.02.22-.02.36,0,.14-.01.31-.01.51s0,.36.01.51c0,.14.02.27.02.36.01.1.02.19.04.25.02.07.03.13.04.17.17.55.55.83,1.14.83s.96-.28,1.13-.83c.01-.05.03-.1.04-.17.02-.07.03-.15.04-.25.01-.1.02-.22.02-.36,0-.14.01-.31.01-.51Z"/>
    <path class="cls-2" d="M100,113.4s.02-.07.07-.07h.26c.06,0,.09.02.12.07l2.33,4.01h.02v-4.01s.02-.07.07-.07h.26s.07.02.07.07v4.74s-.02.07-.07.07h-.27s-.09-.02-.12-.07l-2.31-4.02h-.03v4.02s-.02.07-.07.07h-.26s-.07-.02-.07-.07v-4.74h-.01Z"/>
    <path class="cls-2" d="M106.42,113.4s.02-.07.07-.07h2.69s.07.02.07.07v.24s-.02.07-.07.07h-2.31s-.04.01-.04.04v1.79s.01.04.04.04h1.99s.07.02.07.07v.24s-.02.07-.07.07h-1.99s-.04.01-.04.04v2.12s-.02.07-.07.07h-.26s-.07-.02-.07-.07v-4.72Z"/>
    <path class="cls-2" d="M111.65,118.28c-.39,0-.7-.09-.96-.28-.26-.19-.44-.46-.55-.82-.02-.06-.04-.13-.06-.21-.02-.08-.03-.17-.04-.28-.01-.11-.02-.24-.03-.38,0-.15-.01-.33-.01-.54s0-.39.01-.54c0-.15.02-.28.03-.38.01-.11.03-.2.04-.28.02-.08.03-.15.06-.21.12-.36.3-.63.55-.82.26-.19.58-.28.96-.28s.7.09.96.28c.26.19.44.46.55.82.02.07.04.14.06.21.02.08.03.17.04.28.01.11.02.24.03.38,0,.15.01.33.01.54s0,.39-.01.54c0,.15-.02.28-.03.38-.01.11-.03.2-.04.28-.02.08-.04.15-.06.21-.12.36-.3.63-.55.82-.26.19-.57.28-.96.28ZM112.9,115.77c0-.2,0-.36-.01-.51,0-.14-.02-.27-.02-.36-.01-.1-.02-.19-.04-.25-.02-.07-.03-.13-.04-.17-.17-.55-.55-.83-1.13-.83s-.97.28-1.14.83c-.01.05-.03.1-.04.17-.02.07-.03.15-.04.25-.01.1-.02.22-.02.36,0,.14-.01.31-.01.51s0,.36.01.51c0,.14.02.27.02.36.01.1.02.19.04.25.02.07.03.13.04.17.17.55.55.83,1.14.83s.96-.28,1.13-.83c.01-.05.03-.1.04-.17.02-.07.03-.15.04-.25.01-.1.02-.22.02-.36,0-.14.01-.31.01-.51Z"/>
    <path class="cls-2" d="M117.2,118.21s-.07-.02-.08-.06l-.98-2.12h-1.27s-.04.01-.04.04v2.07s-.02.07-.07.07h-.26s-.07-.02-.07-.07v-4.74s.02-.07.07-.07h1.58c.44,0,.8.12,1.05.36.26.24.38.57.38.99,0,.34-.08.62-.25.84-.17.23-.41.37-.71.45l1.02,2.16s.02.04.01.06c0,.01-.02.02-.04.02h-.32ZM116.06,115.64c.33,0,.59-.08.77-.25.18-.17.27-.4.27-.72s-.09-.54-.27-.71c-.18-.17-.43-.25-.77-.25h-1.19s-.04.01-.04.04v1.84s.01.04.04.04h1.19Z"/>
  </g>
  <g>
    <path class="cls-2" d="M41.31,121.42s.02-.07.07-.07h.26s.07.02.07.07v2.82l2.23-2.82s.08-.06.12-.06h.32s.04,0,.04.02c0,.02,0,.03-.02.05l-1.48,1.84,1.6,2.88s.02.04.01.06c0,.01-.02.02-.04.02h-.31s-.08-.02-.11-.06l-1.42-2.56-.96,1.19v1.36s-.02.07-.07.07h-.26s-.07-.02-.07-.07v-4.74h.01Z"/>
    <path class="cls-2" d="M46.94,121.42s.04-.07.08-.07h.25s.07.02.08.07l1.63,4.74s0,.07-.05.07h-.27s-.08-.02-.09-.07l-.42-1.2h-2.04l-.42,1.2s-.05.07-.09.07h-.27s-.06-.02-.05-.07l1.64-4.74ZM48.03,124.56l-.88-2.55h-.02l-.88,2.55h1.78Z"/>
    <path class="cls-2" d="M49.94,121.42s.02-.07.07-.07h.26s.07.02.07.07v2.1s.01.04.04.04h2.31s.04-.01.04-.04v-2.1s.02-.07.07-.07h.26s.07.02.07.07v4.74s-.02.07-.07.07h-.27s-.07-.02-.07-.07v-2.17s-.01-.04-.04-.04h-2.31s-.04.01-.04.04v2.17s-.02.07-.07.07h-.26s-.07-.02-.07-.07v-4.74h0Z"/>
    <path class="cls-2" d="M56.28,125.21c-.02-.06-.03-.13-.05-.2-.02-.08-.03-.17-.04-.28-.01-.11-.02-.24-.02-.39s-.01-.34-.01-.55,0-.4.01-.55.02-.28.02-.39c.01-.11.02-.2.04-.28.02-.08.03-.14.05-.2.12-.37.31-.64.55-.82.25-.18.56-.27.93-.27.32,0,.61.08.85.23.24.15.43.38.57.68.02.04.01.08-.02.09l-.23.12s-.07.01-.09-.03c-.11-.21-.24-.38-.42-.51-.17-.13-.39-.19-.66-.19-.29,0-.52.07-.7.2-.18.14-.31.34-.41.61-.01.05-.03.1-.04.17-.01.07-.03.15-.03.25-.01.1-.02.22-.02.36,0,.14,0,.32,0,.53s0,.38,0,.53c0,.14.01.27.02.36.01.1.02.19.03.25.01.07.03.13.04.17.09.27.23.47.41.61.18.14.41.2.7.2.27,0,.49-.06.66-.19.17-.13.31-.29.42-.51.02-.04.05-.05.09-.03l.23.12s.04.05.02.09c-.13.3-.32.53-.57.68-.24.15-.53.23-.85.23-.37,0-.68-.09-.93-.27-.24-.16-.43-.43-.55-.8Z"/>
    <path class="cls-2" d="M60.21,121.42s.02-.07.07-.07h.26s.07.02.07.07v4.74s-.02.07-.07.07h-.26s-.07-.02-.07-.07v-4.74Z"/>
    <path class="cls-2" d="M63.06,126.23s-.07-.02-.07-.07v-4.38s-.01-.04-.04-.04h-1.35s-.07-.02-.07-.07v-.24s.02-.07.07-.07h3.19s.07.02.07.07v.24s-.02.07-.07.07h-1.35s-.04.01-.04.04v4.38s-.02.07-.07.07h-.27Z"/>
    <path class="cls-2" d="M67.02,126.23s-.07-.02-.07-.07v-1.93l-1.4-2.8s0-.03,0-.05c.01-.02.03-.02.05-.02h.27s.08.02.11.07l1.18,2.34h.02l1.16-2.34s.06-.07.11-.07h.26s.04,0,.06.02c.01.02.01.03,0,.05l-1.4,2.8v1.93s-.02.07-.07.07h-.26Z"/>
    <path class="cls-2" d="M72.71,121.42s.04-.07.08-.07h.25s.07.02.08.07l1.63,4.74s0,.07-.05.07h-.27s-.08-.02-.09-.07l-.42-1.2h-2.04l-.42,1.2s-.05.07-.09.07h-.27s-.06-.02-.05-.07l1.64-4.74ZM73.8,124.56l-.88-2.55h-.02l-.88,2.55h1.78Z"/>
    <path class="cls-2" d="M75.71,121.42s.02-.07.07-.07h.26c.06,0,.09.02.12.07l2.33,4.01h.02v-4.01s.02-.07.07-.07h.26s.07.02.07.07v4.74s-.02.07-.07.07h-.27s-.09-.02-.12-.07l-2.32-4.02h-.03v4.02s-.02.07-.07.07h-.26s-.07-.02-.07-.07v-4.74h-.01Z"/>
    <path class="cls-2" d="M80.18,121.42s.02-.07.07-.07h1.47c.79,0,1.29.33,1.5.99.02.07.04.14.06.22.02.08.03.17.04.28.01.11.02.24.02.39,0,.16,0,.34,0,.56s0,.41,0,.57c0,.15-.01.28-.02.39-.01.11-.03.2-.04.28-.02.08-.03.15-.06.23-.21.66-.7.99-1.5.99h-1.47s-.07-.02-.07-.07v-4.75ZM80.58,125.8s.01.04.04.04h1.04c.31,0,.55-.06.75-.17.19-.12.34-.31.42-.57.02-.06.03-.12.05-.19.01-.07.03-.15.03-.25.01-.1.02-.22.02-.36,0-.14,0-.31,0-.52s0-.38,0-.52c0-.14-.01-.26-.02-.36-.01-.1-.02-.18-.03-.25-.01-.07-.03-.13-.05-.19-.08-.26-.22-.45-.42-.56-.19-.12-.44-.17-.75-.17h-1.04s-.04.01-.04.04v4.02Z"/>
    <path class="cls-2" d="M86.39,121.42s.02-.07.07-.07h.26s.07.02.07.07v2.1s.01.04.04.04h2.31s.04-.01.04-.04v-2.1s.02-.07.07-.07h.26s.07.02.07.07v4.74s-.02.07-.07.07h-.26s-.07-.02-.07-.07v-2.17s-.01-.04-.04-.04h-2.31s-.04.01-.04.04v2.17s-.02.07-.07.07h-.26s-.07-.02-.07-.07v-4.74Z"/>
    <path class="cls-2" d="M92.36,126.3c-.39,0-.7-.09-.96-.28-.26-.19-.44-.46-.56-.82-.02-.06-.04-.13-.06-.21-.02-.08-.03-.17-.04-.28-.01-.11-.02-.24-.03-.38,0-.15-.01-.33-.01-.54s0-.39.01-.54c0-.15.02-.28.03-.38.01-.11.03-.2.04-.28.02-.08.03-.15.06-.21.12-.36.3-.63.56-.82.26-.19.58-.28.96-.28s.7.09.96.28c.26.19.44.46.55.82.02.07.04.14.06.21.02.08.03.17.04.28.01.11.02.24.03.38,0,.15.01.33.01.54s0,.39-.01.54c0,.15-.02.28-.03.38-.01.11-.03.2-.04.28-.02.08-.04.15-.06.21-.12.36-.3.63-.55.82-.26.19-.57.28-.96.28ZM93.61,123.79c0-.2,0-.36-.01-.51,0-.14-.02-.27-.02-.36-.01-.1-.02-.19-.04-.25-.02-.07-.03-.13-.04-.17-.17-.55-.55-.83-1.13-.83s-.96.28-1.14.83c-.01.05-.03.1-.04.17-.02.07-.03.15-.04.25-.01.1-.02.22-.02.36,0,.14-.01.31-.01.51s0,.36.01.51c0,.14.02.27.02.36.01.1.02.19.04.25.02.07.03.13.04.17.17.55.55.83,1.14.83s.96-.28,1.13-.83c.01-.05.03-.1.04-.17.02-.07.03-.15.04-.25.01-.1.02-.22.02-.36,0-.14.01-.31.01-.51Z"/>
    <path class="cls-2" d="M95.15,121.42s.02-.07.07-.07h.26s.07.02.07.07v4.38s.01.04.04.04h2.32s.07.02.07.07v.24s-.02.07-.07.07h-2.69s-.07-.02-.07-.07v-4.74Z"/>
    <path class="cls-2" d="M99.43,126.23s-.07-.02-.07-.07v-1.93l-1.4-2.8s0-.03,0-.05c.01-.02.03-.02.05-.02h.27s.08.02.11.07l1.18,2.34h.02l1.16-2.34s.06-.07.11-.07h.26s.04,0,.06.02c.01.02.01.03,0,.05l-1.4,2.8v1.93s-.02.07-.07.07h-.26Z"/>
    <path class="cls-2" d="M105.27,126.3c-.15,0-.31-.02-.46-.05-.15-.03-.29-.08-.43-.13-.13-.05-.26-.12-.37-.19-.11-.07-.21-.14-.29-.21-.04-.03-.04-.07,0-.1l.17-.21s.07-.04.09,0c.16.13.35.24.58.35.23.1.49.16.76.16.38,0,.67-.09.89-.27.22-.18.32-.42.32-.72,0-.12-.02-.23-.06-.34-.04-.1-.1-.2-.18-.28-.08-.08-.2-.15-.34-.21-.14-.06-.33-.1-.54-.13l-.21-.03c-.46-.06-.8-.2-1.02-.42-.22-.22-.33-.51-.33-.87,0-.43.13-.76.4-1.01.27-.24.63-.36,1.08-.36.26,0,.51.03.74.11.23.08.43.17.59.3.04.02.04.06.01.1l-.14.22s-.06.04-.09.01c-.19-.12-.37-.21-.56-.27-.18-.06-.38-.09-.58-.09-.33,0-.59.09-.78.26-.18.17-.28.4-.28.69,0,.25.08.45.25.61.17.16.45.27.85.32l.21.03c.48.07.83.21,1.04.43.22.23.33.51.33.88,0,.21-.03.39-.11.57-.07.17-.18.32-.32.45-.14.13-.31.23-.52.29-.21.07-.44.1-.71.1Z"/>
    <path class="cls-2" d="M107.99,121.42s.02-.07.07-.07h.26s.07.02.07.07v4.74s-.02.07-.07.07h-.26s-.07-.02-.07-.07v-4.74Z"/>
    <path class="cls-2" d="M110.85,126.23s-.07-.02-.07-.07v-4.38s-.01-.04-.04-.04h-1.35s-.07-.02-.07-.07v-.24s.02-.07.07-.07h3.19s.07.02.07.07v.24s-.02.07-.07.07h-1.35s-.04.01-.04.04v4.38s-.02.07-.07.07h-.27Z"/>
    <path class="cls-2" d="M113.56,121.42s.02-.07.07-.07h2.69s.07.02.07.07v.24s-.02.07-.07.07h-2.31s-.04.01-.04.04v1.74s.01.04.04.04h1.99s.07.02.07.07v.24s-.02.07-.07.07h-1.99s-.04.01-.04.04v1.81s.01.04.04.04h2.31s.07.02.07.07v.24s-.02.07-.07.07h-2.69s-.07-.02-.07-.07v-4.72Z"/>
    <path class="cls-2" d="M118.87,126.3c-.15,0-.31-.02-.46-.05-.15-.03-.29-.08-.43-.13-.13-.05-.26-.12-.37-.19-.11-.07-.21-.14-.29-.21-.04-.03-.04-.07,0-.1l.17-.21s.07-.04.09,0c.16.13.35.24.58.35.23.1.49.16.76.16.38,0,.67-.09.89-.27.22-.18.32-.42.32-.72,0-.12-.02-.23-.06-.34s-.1-.2-.18-.28c-.08-.08-.2-.15-.34-.21-.14-.06-.33-.1-.54-.13l-.21-.03c-.46-.06-.8-.2-1.02-.42-.22-.22-.33-.51-.33-.87,0-.43.13-.76.4-1.01.27-.24.63-.36,1.08-.36.26,0,.51.03.74.11.23.08.43.17.59.3.04.02.04.06.01.1l-.14.22s-.06.04-.09.01c-.19-.12-.37-.21-.55-.27-.18-.06-.38-.09-.58-.09-.33,0-.59.09-.78.26-.18.17-.28.4-.28.69,0,.25.08.45.25.61.17.16.45.27.85.32l.21.03c.48.07.83.21,1.04.43.22.23.33.51.33.88,0,.21-.03.39-.11.57-.07.17-.18.32-.32.45-.14.13-.31.23-.52.29-.2.07-.44.1-.71.1Z"/>
  </g>
</svg>